<svg width="21" height="20" viewBox="0 0 21 20" fill="none" xmlns="http://www.w3.org/2000/svg">
<path fill-rule="evenodd" clip-rule="evenodd" d="M14.8036 5.72815V5.80826H13.9076L15.2217 7.73261L16.5358 5.80826H15.6765V5.72815C15.6765 3.75914 14.0746 2.15723 12.1055 2.15723H11.6206V3.03012H12.1055C13.5932 3.03012 14.8036 4.24044 14.8036 5.72815Z" fill="#222939"/>
<path fill-rule="evenodd" clip-rule="evenodd" d="M4.74833 14.023V13.943H5.64431L4.33021 12.0186L3.01611 13.943H3.87543V14.023C3.87543 15.9921 5.47734 17.594 7.4464 17.594H7.9313V16.7211H7.4464C5.9587 16.7211 4.74833 15.5107 4.74833 14.023Z" fill="#222939"/>
<path fill-rule="evenodd" clip-rule="evenodd" d="M11.0944 5.54716C11.0944 2.48354 8.61078 0 5.54716 0C2.48354 0 0 2.48354 0 5.54716C0 8.61079 2.48354 11.0944 5.54716 11.0944C8.61078 11.0944 11.0944 8.61079 11.0944 5.54716ZM1.82207 5.54716C1.82207 3.48984 3.48989 1.82203 5.54716 1.82203C7.60453 1.82203 9.2723 3.48984 9.2723 5.54716C9.2723 7.60453 7.60448 9.2723 5.54716 9.2723C3.48984 9.2723 1.82207 7.60453 1.82207 5.54716Z" fill="#222939"/>
<path fill-rule="evenodd" clip-rule="evenodd" d="M5.60335 8.37672C5.61252 8.35019 5.61712 8.32333 5.61712 8.29612V7.89886C5.83447 7.88528 6.03277 7.84741 6.212 7.78543C6.39085 7.72341 6.54429 7.63646 6.67183 7.52439C6.7998 7.41251 6.89839 7.27503 6.96769 7.11243C7.03733 6.94968 7.07195 6.76089 7.07195 6.54601C7.07195 6.38113 7.05391 6.23585 7.01749 6.1102C6.98146 5.98455 6.93093 5.87408 6.86585 5.77884C6.80082 5.6834 6.72342 5.60178 6.63332 5.53355C6.54351 5.46551 6.44453 5.40616 6.33639 5.35543C6.22859 5.30471 6.1137 5.2616 5.99213 5.2261C5.87051 5.19055 5.74539 5.15767 5.61712 5.12732V3.91074C5.7242 3.91215 5.81576 3.93072 5.89102 3.96627C5.96667 4.00196 6.0317 4.04541 6.08611 4.09686C6.14052 4.14831 6.18795 4.20394 6.22888 4.26368C6.26957 4.32343 6.30986 4.3791 6.35011 4.4305C6.39007 4.48195 6.43246 4.52468 6.47702 4.55882C6.52154 4.59276 6.57561 4.60993 6.6389 4.60993C6.6887 4.60993 6.73613 4.60076 6.78065 4.58268C6.82516 4.56449 6.86444 4.5383 6.89834 4.50421C6.93263 4.47027 6.95915 4.42822 6.97894 4.37837C6.99872 4.32837 7.00823 4.27231 7.00823 4.21029C7.00823 4.10588 6.98456 4.01025 6.93685 3.92311C6.88942 3.83616 6.82657 3.75789 6.74879 3.68825C6.671 3.61861 6.58264 3.55727 6.48367 3.50426C6.38474 3.4514 6.28402 3.40669 6.18116 3.37047C6.0783 3.33409 5.97758 3.3065 5.87861 3.28759C5.77963 3.26868 5.69234 3.25772 5.61703 3.25452V2.88232C5.61703 2.85352 5.61242 2.82592 5.60325 2.79945C5.59409 2.77292 5.58133 2.74959 5.56543 2.72908C5.54952 2.70862 5.5308 2.69232 5.50961 2.68029C5.48808 2.66812 5.46543 2.66211 5.44104 2.66211C5.41665 2.66211 5.39337 2.66812 5.3714 2.68029C5.34914 2.69232 5.33004 2.70857 5.31413 2.72908C5.29823 2.74959 5.28547 2.77292 5.27631 2.79945C5.26714 2.82592 5.26292 2.85352 5.26292 2.88232V3.25452C5.07986 3.26213 4.9045 3.29554 4.73729 3.35456C4.57013 3.41358 4.42242 3.49897 4.29478 3.611C4.16681 3.72307 4.06506 3.86142 3.98941 4.02645C3.91376 4.19133 3.87594 4.38273 3.87594 4.60067C3.87594 4.77932 3.90775 4.93925 3.97103 5.08081C4.03466 5.22236 4.12617 5.34675 4.24566 5.45421C4.36549 5.56168 4.51111 5.65285 4.68288 5.72777C4.85465 5.8027 5.048 5.86118 5.26292 5.90361V7.24516C5.14169 7.23914 5.04232 7.22183 4.96425 7.19303C4.88646 7.16422 4.8225 7.12765 4.77231 7.08294C4.7225 7.03823 4.68395 6.98838 4.65674 6.93305C4.62949 6.87791 4.60655 6.8219 4.58745 6.76516C4.56834 6.70842 4.5503 6.65309 4.53303 6.59941C4.51572 6.54568 4.49201 6.49796 4.46267 6.45645C4.43299 6.41474 4.3941 6.38113 4.3457 6.35534C4.29726 6.32973 4.23222 6.31683 4.15061 6.31683C4.03713 6.31683 3.94771 6.35165 3.88273 6.42129C3.81765 6.49093 3.78516 6.59078 3.78516 6.72084C3.78516 6.80565 3.79854 6.8926 3.82579 6.98183C3.85305 7.07126 3.89403 7.15893 3.94844 7.24516C4.00285 7.33138 4.07142 7.41324 4.15376 7.49029C4.23649 7.5675 4.33227 7.63573 4.44114 7.69455C4.55001 7.75362 4.67299 7.80129 4.80979 7.83771C4.94693 7.87393 5.09785 7.89445 5.26297 7.89886V8.29612C5.26297 8.32338 5.26719 8.35019 5.27635 8.37672C5.28552 8.4032 5.29827 8.42672 5.31418 8.44704C5.33009 8.46755 5.34919 8.4838 5.37145 8.49597C5.39337 8.508 5.4167 8.51401 5.44109 8.51401C5.46548 8.51401 5.48813 8.508 5.50966 8.49597C5.5309 8.4838 5.54957 8.46755 5.56548 8.44704C5.58143 8.42677 5.59419 8.40325 5.60335 8.37672ZM5.61712 5.97393C5.69525 5.99371 5.77725 6.01757 5.86246 6.04551C5.94761 6.07344 6.02535 6.11175 6.09576 6.16019C6.16569 6.20864 6.22335 6.26906 6.26855 6.34171C6.31379 6.41435 6.33639 6.50518 6.33639 6.61405C6.33639 6.72166 6.31554 6.81356 6.27311 6.88989C6.23106 6.96641 6.17592 7.02984 6.10808 7.08057C6.04024 7.13129 5.96318 7.16984 5.87725 7.19632C5.79102 7.2228 5.70446 7.23909 5.61712 7.24511V5.97393ZM5.26302 5.0569C5.04353 5.00846 4.87987 4.9362 4.7724 4.84004C4.66499 4.74407 4.61126 4.61575 4.61126 4.45528C4.61126 4.38584 4.62643 4.31887 4.65684 4.25452C4.68686 4.19016 4.7307 4.13294 4.78724 4.08309C4.84413 4.03309 4.91236 3.9926 4.99257 3.96171C5.07278 3.93057 5.16298 3.91365 5.26297 3.91064V5.0569H5.26302Z" fill="#222939"/>
<path fill-rule="evenodd" clip-rule="evenodd" d="M14.6584 8.35254C11.4471 8.35254 8.83447 10.9651 8.83447 14.1765C8.83447 17.3878 11.4471 20.0003 14.6584 20.0003C17.8697 20.0003 20.4823 17.3877 20.4823 14.1764C20.4823 10.9651 17.8697 8.35254 14.6584 8.35254ZM18.6854 15.1851C18.4945 15.9496 18.0928 16.6294 17.5452 17.1595L18.3146 17.9289C17.6973 18.5305 16.9328 18.9817 16.0807 19.2222L15.7984 18.1686C15.4217 18.276 15.0238 18.3324 14.6122 18.3278C14.2329 18.3235 13.8664 18.2676 13.5183 18.1685L13.236 19.2222C12.3839 18.9817 11.6194 18.5304 11.0022 17.9288L11.772 17.159C11.2236 16.6282 10.8211 15.9485 10.6305 15.1853L9.5775 15.4675C9.47246 15.0543 9.41645 14.6218 9.41645 14.1764C9.41645 13.731 9.47246 13.2985 9.5775 12.8853L10.6313 13.1677C10.8222 12.4032 11.2239 11.7234 11.7715 11.1933L11.0022 10.424C11.6194 9.82235 12.384 9.37116 13.2361 9.13063L13.5183 10.1843C13.895 10.0768 14.2929 10.0205 14.7045 10.0251C15.0838 10.0293 15.4503 10.0852 15.7984 10.1844L16.0807 9.13063C16.9328 9.37111 17.6973 9.82235 18.3146 10.4239L17.5447 11.1938C18.093 11.7246 18.4956 12.4043 18.6862 13.1675L19.7393 12.8853C19.8443 13.2985 19.9003 13.731 19.9003 14.1764C19.9003 14.6218 19.8443 15.0543 19.7393 15.4675L18.6854 15.1851Z" fill="#222939"/>
<path fill-rule="evenodd" clip-rule="evenodd" d="M14.6597 11.9424C14.2614 12.6655 13.685 13.2176 13.1027 13.8071C12.8692 14.0436 12.7451 14.2579 12.7451 14.5932C12.7451 15.103 13.1793 15.5185 13.7113 15.5185C14.0743 15.5185 14.391 15.3258 14.5569 15.042C14.5665 15.3657 14.4172 15.8356 14.1576 16.41H15.1888C14.9346 15.877 14.739 15.3833 14.7576 15.0379C14.9225 15.3243 15.2407 15.5185 15.6048 15.5185C16.1372 15.5185 16.5719 15.103 16.5719 14.5932C16.5719 14.2795 16.3727 14.0154 16.1721 13.8071C15.4751 13.0835 14.9901 12.5132 14.6597 11.9424Z" fill="#222939"/>
</svg>
