<svg width="23" height="21" viewBox="0 0 23 21" fill="none" xmlns="http://www.w3.org/2000/svg">
<path d="M17.4257 21H2.37624C1.08911 21 0 19.9109 0 18.6238V14.0693H1.9802V18.2278C1.9802 18.8218 2.37624 19.0198 2.9703 19.0198H16.8317C17.4257 19.0198 17.8218 18.6238 17.8218 18.0297V14.0693H19.802V18.6238C19.802 19.9109 18.7129 21 17.4257 21Z" fill="#222939"/>
<path d="M8.21782 7.84166L6.33663 5.96048L6.33663 9.92087C6.33663 11.9011 6.33663 14.7724 8.71287 16.8516C5.34653 16.2575 3.66337 13.6832 3.56436 9.92087L3.56436 5.96047L1.68317 7.84166L1.73114e-06 6.95057L4.9505 2.00008L9.90099 6.95057L8.21782 7.84166Z" fill="#222939"/>
<path d="M19.326 1.72753L19.6504 1.40312C20.1879 0.865626 21.0594 0.865626 21.5969 1.40312C22.1344 1.94062 22.1344 2.81207 21.5969 3.34955L21.2725 3.67399M19.326 1.72753C19.326 1.72753 19.3666 2.41689 19.9748 3.02516C20.5831 3.6334 21.2725 3.67399 21.2725 3.67399M19.326 1.72753L16.3436 4.70992C16.1416 4.91194 16.0406 5.01295 15.9537 5.12432C15.8513 5.25571 15.7634 5.39788 15.6917 5.54824C15.631 5.67578 15.5858 5.81123 15.4955 6.08227L15.2062 6.94999L15.1126 7.23069M21.2725 3.67399L18.2901 6.65641C18.088 6.85843 17.987 6.95944 17.8757 7.04631C17.7443 7.14872 17.6021 7.23657 17.4518 7.30825C17.3242 7.36901 17.1888 7.41423 16.9177 7.50453L16.05 7.79377L15.7693 7.88736M15.1126 7.23069L15.0191 7.51146C14.9746 7.64481 15.0093 7.79188 15.1087 7.89128C15.2081 7.99068 15.3552 8.0254 15.4885 7.98095L15.7693 7.88736M15.1126 7.23069L15.7693 7.88736" stroke="#222939"/>
<path d="M11 5H13" stroke="#222939" stroke-linecap="round"/>
<path d="M11 1H17" stroke="#222939" stroke-linecap="round"/>
<path d="M11 8H12" stroke="#222939" stroke-linecap="round"/>
</svg>
