<?xml version="1.0" encoding="UTF-8"?>
<svg width="17px" height="17px" viewBox="0 0 17 17" version="1.1" xmlns="http://www.w3.org/2000/svg" xmlns:xlink="http://www.w3.org/1999/xlink">
    <title>清理</title>
    <g id="页面-1" stroke="none" stroke-width="1" fill="none" fill-rule="evenodd">
        <g id="我的消息" transform="translate(-545.000000, -901.000000)">
            <g id="清理" transform="translate(545.000000, 901.000000)">
                <rect id="矩形" fill="#D8D8D8" opacity="0" x="0" y="0" width="17" height="17"></rect>
                <path d="M11.7916616,4.38400847 C11.3954638,4.38400847 10.9186764,4.06439481 10.7681227,3.87291586 C10.5913211,3.64782968 10.4143616,3.42286755 10.2372443,3.19802962 C10.1104447,3.03558963 9.80668565,2.72522911 9.31013107,2.72522911 L7.68699209,2.72522911 C7.19969066,2.72522911 6.93817339,2.96032205 6.71763698,3.24162509 C6.55783014,3.44500886 6.37293413,3.67745012 6.21446242,3.87949878 C6.06919358,4.06305968 5.58580481,4.38400847 5.20546158,4.38400847 L1.84566104,4.38400847 C1.41248773,4.38400847 1.0625,4.01024813 1.0625,3.55065049 C1.0625,3.09105286 1.41250627,2.71732961 1.84566104,2.71732963 L4.62831747,2.71732963 C4.62831747,2.71732963 5.35864843,2.59186514 5.66900894,2.20356679 C5.84467037,1.98434698 6.04143415,1.72548142 6.20784243,1.51152792 C6.28444512,1.41250627 6.77441681,1.0625 7.11646797,1.0625 L9.87666835,1.0625 C10.2689164,1.0625 10.7390652,1.42964035 10.8209157,1.53531906 C10.9847279,1.74530427 11.1881117,1.98169527 11.3439502,2.20621848 C11.6014621,2.57996028 12.3727554,2.71732961 12.3727554,2.71732963 L15.1554304,2.71732963 C15.5885666,2.71732963 15.9385358,3.09107142 15.9385358,3.55065049 C15.9385358,4.01024813 15.5885666,4.38400847 15.1554304,4.38400847 L11.7916616,4.38400847 Z M9.67460117,12.0669921 L9.67460117,6.6841623 C9.67460117,6.22326663 10.0259055,5.85082289 10.4577808,5.85082289 C10.8896189,5.85082289 11.2409232,6.2232481 11.2409232,6.6841623 L11.2409232,12.0670107 C11.2409232,12.5265712 10.889619,12.899015 10.4577808,12.899015 C10.0259055,12.899015 9.67460117,12.5265712 9.67460117,12.0669921 Z M7.32645317,12.0670107 C7.32645317,12.5265898 6.97516741,12.8990335 6.54329213,12.8990335 C6.11145395,12.8990335 5.76014964,12.5265898 5.76014964,12.0670107 L5.76014964,6.6841623 C5.76014964,6.22326663 6.11145393,5.85082289 6.54329213,5.85082289 C6.97514886,5.85082289 7.32645317,6.2232481 7.32645317,6.6841623 L7.32645317,12.0670107 Z M3.01973505,5.4348022 C3.45161032,5.4348022 3.80289609,5.80722741 3.80289607,6.26684358 L3.80289607,13.7323544 C3.80289607,14.1919891 4.15418183,14.5656938 4.58603856,14.5656938 L12.4149787,14.5656938 C12.8468354,14.5656938 13.1981212,14.1919891 13.1981212,13.7323544 L13.1981212,6.26684358 C13.1981212,5.8072274 13.5494255,5.4348022 13.9813008,5.4348022 C14.4131575,5.4348022 14.7644618,5.80722741 14.7644618,6.26684358 L14.7644618,14.1483751 C14.7644618,15.2986579 13.8875083,16.2310746 12.8071897,16.2310746 L4.19380903,16.2310746 C3.11350891,16.2310746 2.23659255,15.2986579 2.23659255,14.1483751 L2.23659255,6.26684358 C2.23659255,5.8072274 2.58789684,5.4348022 3.01973505,5.4348022 Z" id="形状" fill="#0982FE" fill-rule="nonzero"></path>
            </g>
        </g>
    </g>
</svg>