<?xml version="1.0" encoding="UTF-8"?>
<svg width="14px" height="16px" viewBox="0 0 14 16" version="1.1" xmlns="http://www.w3.org/2000/svg" xmlns:xlink="http://www.w3.org/1999/xlink">
    <title>垃圾桶</title>
    <g id="页面-1" stroke="none" stroke-width="1" fill="none" fill-rule="evenodd">
        <g id="意见反馈-查看" transform="translate(-1537.000000, -367.000000)" fill="#999999" fill-rule="nonzero">
            <g id="编组-7" transform="translate(550.000000, 364.000000)">
                <g id="编组-6" transform="translate(50.000000, 0.000000)">
                    <g id="垃圾桶" transform="translate(937.000000, 3.000000)">
                        <path d="M13.2664477,3.13732445 L10.1005476,3.13732445 C9.72765552,3.13732445 9.2789145,2.83651159 9.1372169,2.65629611 C8.97081535,2.4444503 8.80426523,2.23272123 8.63756666,2.02110906 C8.51822584,1.86822437 8.23233495,1.57612034 7.76498946,1.57612034 L6.23732925,1.57612034 C5.77869261,1.57612034 5.53255871,1.79738429 5.32499503,2.0621401 C5.17458859,2.25356011 5.00056881,2.47232835 4.85141897,2.6624918 C4.71469536,2.835255 4.25974122,3.13732445 3.90177112,3.13732445 L0.739605908,3.13732445 C0.331913379,3.13732445 0.00251316485,2.78555001 0.00251316485,2.35298753 C0.00251316485,1.92042505 0.331930834,1.56868552 0.739605908,1.56868554 L3.35857667,1.56868554 C3.35857667,1.56868554 4.04594698,1.45060131 4.33805099,1.08514404 C4.5033794,0.878819515 4.68856884,0.635181343 4.84518839,0.433813342 C4.91728504,0.340616499 5.37843486,0.0111988299 5.70036537,0.0111988299 L8.29820103,0.0111988299 C8.66737568,0.0111988299 9.10986869,0.356742692 9.18690443,0.456205002 C9.34108062,0.653838139 9.53250064,0.876323787 9.67917221,1.08763975 C9.92153636,1.43939674 10.6474594,1.56868552 10.6474594,1.56868554 L13.2664477,1.56868554 C13.6741053,1.56868554 14.003488,1.92044252 14.003488,2.35298753 C14.003488,2.78555001 13.6741053,3.13732445 13.2664477,3.13732445 L13.2664477,3.13732445 Z M8.84513034,12.1514482 C8.4386595,12.1514482 8.10802015,11.8009129 8.10802015,11.3683679 L8.10802015,5.48904366 C8.10802015,5.0552595 8.43865948,4.70472421 8.84513034,4.70472421 C9.25156628,4.70472421 9.58220563,5.05524206 9.58220563,5.48904366 L9.58220563,11.3683854 C9.58220563,11.8009129 9.2515663,12.1514482 8.84513034,12.1514482 L8.84513034,12.1514482 Z M5.89799851,5.48904366 L5.89799851,11.3683854 C5.89799851,11.8009304 5.56737661,12.1514657 5.16090576,12.1514657 C4.75446982,12.1514657 4.42383047,11.8009304 4.42383047,11.3683854 L4.42383047,5.48904366 C4.42383047,5.0552595 4.75446981,4.70472421 5.16090576,4.70472421 C5.56735915,4.70472421 5.89799851,5.05524206 5.89799851,5.48904366 L5.89799851,5.48904366 Z M1.84461674,4.31317533 C2.25108758,4.31317533 2.58170948,4.66369318 2.58170946,5.0962731 L2.58170946,12.9357677 C2.58170946,13.3683651 2.91233136,13.7200871 3.31878475,13.7200871 L10.687199,13.7200871 C11.0936524,13.7200871 11.4242743,13.3683651 11.4242743,12.9357677 L11.4242743,5.0962731 C11.4242743,4.66369316 11.7549136,4.31317533 12.1613845,4.31317533 C12.5678379,4.31317533 12.8984772,4.66369318 12.8984772,5.0962731 L12.8984772,13.3273166 C12.8984772,14.4099357 12.0731093,15.2875043 11.0563387,15.2875043 L2.94962755,15.2875043 C1.93287449,15.2875043 1.10754145,14.4099357 1.10754145,13.3273166 L1.10754145,5.0962731 C1.10754145,4.66369316 1.43818078,4.31317533 1.84461674,4.31317533 Z" id="形状"></path>
                    </g>
                </g>
            </g>
        </g>
    </g>
</svg>