<?xml version="1.0" encoding="UTF-8"?>
<svg width="32px" height="32px" viewBox="0 0 32 32" version="1.1" xmlns="http://www.w3.org/2000/svg" xmlns:xlink="http://www.w3.org/1999/xlink">
    <!-- Generator: Sketch 61 (89581) - https://sketch.com -->
    <title>icon_电子</title>
    <desc>Created with Sketch.</desc>
    <defs>
        <rect id="path-1" x="0" y="0" width="32" height="32"></rect>
        <linearGradient x1="0%" y1="95.5578512%" x2="100%" y2="4.44214876%" id="linearGradient-3">
            <stop stop-color="#9277FF" offset="0%"></stop>
            <stop stop-color="#FF42F3" offset="100%"></stop>
        </linearGradient>
        <filter x="-27.1%" y="-28.4%" width="154.2%" height="156.8%" filterUnits="objectBoundingBox" id="filter-4">
            <feGaussianBlur stdDeviation="2" in="SourceGraphic"></feGaussianBlur>
        </filter>
    </defs>
    <g id="页面-1" stroke="none" stroke-width="1" fill="none" fill-rule="evenodd">
        <g id="我的收藏" transform="translate(-650.000000, -254.000000)">
            <g id="icon_电子" transform="translate(650.000000, 254.000000)">
                <g>
                    <mask id="mask-2" fill="white">
                        <use xlink:href="#path-1"></use>
                    </mask>
                    <g id="蒙版"></g>
                    <g id="编组-2" mask="url(#mask-2)" fill-rule="nonzero">
                        <g transform="translate(6.000000, 5.000000)">
                            <path d="M11.484225,1 C15.1085463,1 18.0466392,3.91241031 18.0466392,7.50505051 L18.046,10.757 L19.687,10.757 L19.6865812,5.66084331 C19.2350671,5.40166093 18.9197264,4.93524609 18.872963,4.39284542 L18.866941,4.25252525 C18.866941,3.3543652 19.6014643,2.62626263 20.5075446,2.62626263 C21.4136249,2.62626263 22.1481481,3.3543652 22.1481481,4.25252525 C22.1481481,4.85420126 21.8185206,5.37956161 21.328508,5.66084331 L21.3278464,12.3766679 C21.3278464,12.8297081 20.9605847,13.1969697 20.5075446,13.1969697 C20.0568728,13.1969697 19.6910851,12.833538 19.6872729,12.383766 L18.046,12.383 L18.0466392,21.3282828 C18.0466392,21.7773629 17.6793776,22.1414141 17.2263374,22.1414141 L0.820301783,22.1414141 C0.367261618,22.1414141 -1.09956488e-12,21.7773629 -1.09956488e-12,21.3282828 L-1.09956488e-12,7.50505051 C-1.09956488e-12,3.91241031 2.93809294,1 6.56241427,1 L11.484225,1 Z" id="形状结合备份-7" fill-opacity="0.4" fill="url(#linearGradient-3)" filter="url(#filter-4)"></path>
                            <path d="M11.484225,9.47242285e-13 C15.1085463,9.47242285e-13 18.0466392,2.91241031 18.0466392,6.50505051 L18.046,9.757 L19.687,9.757 L19.6865812,4.66084331 C19.2350671,4.40166093 18.9197264,3.93524609 18.872963,3.39284542 L18.866941,3.25252525 C18.866941,2.3543652 19.6014643,1.62626263 20.5075446,1.62626263 C21.4136249,1.62626263 22.1481481,2.3543652 22.1481481,3.25252525 C22.1481481,3.85420126 21.8185206,4.37956161 21.328508,4.66084331 L21.3278464,11.3766679 C21.3278464,11.8297081 20.9605847,12.1969697 20.5075446,12.1969697 C20.0568728,12.1969697 19.6910851,11.833538 19.6872729,11.383766 L18.046,11.383 L18.0466392,20.3282828 C18.0466392,20.7773629 17.6793776,21.1414141 17.2263374,21.1414141 L0.820301783,21.1414141 C0.367261618,21.1414141 -8.19196562e-13,20.7773629 -8.19196562e-13,20.3282828 L-8.19196562e-13,6.50505051 C-8.19196562e-13,2.91241031 2.93809294,9.47242285e-13 6.56241427,9.47242285e-13 L11.484225,9.47242285e-13 Z" id="形状结合备份-8" fill="url(#linearGradient-3)"></path>
                            <rect id="矩形备份-2" fill="#FFFFFF" x="4.9218107" y="14.6363636" width="8.20301783" height="1.62626263" rx="0.813131313"></rect>
                            <path d="M13.9451303,5.69191919 C14.3981705,5.69191919 14.7654321,6.05597048 14.7654321,6.50505051 L14.7654321,10.5707071 C14.7654321,11.0197871 14.3981705,11.3838384 13.9451303,11.3838384 L4.10150892,11.3838384 C3.64846875,11.3838384 3.28120713,11.0197871 3.28120713,10.5707071 L3.28120713,6.50505051 C3.28120713,6.05597048 3.64846875,5.69191919 4.10150892,5.69191919 L13.9451303,5.69191919 Z M13.1248285,7.31818182 L4.9218107,7.31818182 L4.9218107,9.75757576 L13.1248285,9.75757576 L13.1248285,7.31818182 Z" id="矩形" fill="#FFFFFF"></path>
                        </g>
                    </g>
                </g>
            </g>
        </g>
    </g>
</svg>