<?xml version="1.0" encoding="UTF-8"?>
<svg width="32px" height="32px" viewBox="0 0 32 32" version="1.1" xmlns="http://www.w3.org/2000/svg" xmlns:xlink="http://www.w3.org/1999/xlink">
    <!-- Generator: Sketch 61 (89581) - https://sketch.com -->
    <title>icon_捕鱼</title>
    <desc>Created with Sketch.</desc>
    <defs>
        <rect id="path-1" x="0" y="0" width="32" height="32"></rect>
        <linearGradient x1="50%" y1="0%" x2="50%" y2="100%" id="linearGradient-3">
            <stop stop-color="#8AD0FF" offset="0%"></stop>
            <stop stop-color="#0097FF" offset="100%"></stop>
        </linearGradient>
        <filter x="-24.8%" y="-31.5%" width="149.6%" height="163.0%" filterUnits="objectBoundingBox" id="filter-4">
            <feGaussianBlur stdDeviation="2" in="SourceGraphic"></feGaussianBlur>
        </filter>
    </defs>
    <g id="页面-1" stroke="none" stroke-width="1" fill="none" fill-rule="evenodd">
        <g id="我的收藏" transform="translate(-650.000000, -533.000000)">
            <g id="icon_捕鱼" transform="translate(650.000000, 533.000000)">
                <g>
                    <mask id="mask-2" fill="white">
                        <use xlink:href="#path-1"></use>
                    </mask>
                    <g id="蒙版"></g>
                    <g id="鱼仔" mask="url(#mask-2)" fill-rule="nonzero">
                        <g transform="translate(5.000000, 5.000000)">
                            <path d="M10.1677243,2.56955806 C12.6349061,1.73185119 15.3993388,1.8129196 17.7935591,2.84789293 C19.9094445,3.76126364 21.6956517,5.39073862 22.8306094,7.39312827 C23.4872635,8.55240648 23.9250329,9.83598959 24.1114903,11.1574046 C24.2952453,12.4680105 24.2466043,13.8434712 23.7493847,15.0865201 C23.1656922,15.2972979 22.4928244,15.1756953 22.0199254,14.7811624 C22.0793755,15.4432211 22.6981977,15.9512497 23.3575541,15.8917996 C22.6225339,17.1321462 21.4713625,18.0887534 20.2769546,18.8670101 C18.0556803,20.3154323 15.4182548,21.093689 12.7646156,21.0558571 C10.1461061,21.0180252 7.55461932,20.1803183 5.4117111,18.6805528 L5.41693848,18.684 L5.49041501,18.7373007 L5.49041501,18.7373007 L5.23793113,18.5609486 C4.00596131,17.670122 2.93138993,16.5648254 2.07306626,15.3111009 C1.43590637,14.6405268 0.880820715,13.7325038 0.50372368,12.704762 C-0.445278753,10.118347 0.0029901612,7.57488851 1.50496032,7.0237885 C2.30225615,6.73124625 3.23619911,7.0589244 4.07900239,7.81766624 C4.2961694,7.39731514 4.53716475,6.99053741 4.80369805,6.60136016 C6.09268572,4.72057312 8.01130468,3.29917372 10.1677243,2.56955806 Z" id="形状结合备份" fill-opacity="0.4" fill="url(#linearGradient-3)" filter="url(#filter-4)"></path>
                            <path d="M10.1677243,0.569558064 C12.6349061,-0.268148806 15.3993388,-0.1870804 17.7935591,0.847892927 C19.9094445,1.76126364 21.6956517,3.39073862 22.8306094,5.39312827 C23.4872635,6.55240648 23.9250329,7.83598959 24.1114903,9.15740462 C24.2952453,10.4680105 24.2466043,11.8434712 23.7493847,13.0865201 C23.1656922,13.2972979 22.4928244,13.1756953 22.0199254,12.7811624 C22.0793755,13.4432211 22.6981977,13.9512497 23.3575541,13.8917996 C22.6225339,15.1321462 21.4713625,16.0887534 20.2769546,16.8670101 C18.0556803,18.3154323 15.4182548,19.093689 12.7646156,19.0558571 C10.1461061,19.0180252 7.55461932,18.1803183 5.4117111,16.6805528 L5.41693848,16.684 L5.49041501,16.7373007 L5.49041501,16.7373007 L5.23793113,16.5609486 C4.00596131,15.670122 2.93138993,14.5648254 2.07306626,13.3111009 C1.43590637,12.6405268 0.880820715,11.7325038 0.50372368,10.704762 C-0.445278753,8.11834699 0.0029901612,5.57488851 1.50496032,5.0237885 C2.30225615,4.73124625 3.23619911,5.0589244 4.07900239,5.81766624 C4.2961694,5.39731514 4.53716475,4.99053741 4.80369805,4.60136016 C6.09268572,2.72057312 8.01130468,1.29917372 10.1677243,0.569558064 Z" id="形状结合备份-5" fill="url(#linearGradient-3)"></path>
                            <path d="M10.5172746,8.74457881 C10.5172746,10.5644177 11.488147,12.2460181 13.0641737,13.1559376 C14.6402004,14.065857 16.5819453,14.065857 18.157972,13.1559376 C19.7339987,12.2460181 20.7048711,10.5644177 20.7048711,8.74457881 C20.7048711,5.93135173 18.4242999,3.65078058 15.6110729,3.65078058 C12.7978458,3.65078058 10.5172746,5.93135173 10.5172746,8.74457881 L10.5172746,8.74457881 Z" id="路径" fill="#FFFFFF"></path>
                            <path d="M16.0488423,7.51774359 C16.0488423,8.24604853 16.6392501,8.83645634 17.367555,8.83645634 C18.09586,8.83645634 18.6862678,8.24604853 18.6862678,7.51774359 C18.6862678,6.78943865 18.09586,6.19903084 17.367555,6.19903084 C16.6392501,6.19903084 16.0488423,6.78943865 16.0488423,7.51774359 Z" id="路径" fill="#000000"></path>
                        </g>
                    </g>
                </g>
            </g>
        </g>
    </g>
</svg>