<?xml version="1.0" encoding="UTF-8"?>
<svg width="32px" height="32px" viewBox="0 0 32 32" version="1.1" xmlns="http://www.w3.org/2000/svg" xmlns:xlink="http://www.w3.org/1999/xlink">
    <!-- Generator: Sketch 61 (89581) - https://sketch.com -->
    <title>icon_体育</title>
    <desc>Created with Sketch.</desc>
    <defs>
        <rect id="path-1" x="0" y="0" width="32" height="32"></rect>
        <filter x="-27.3%" y="-27.3%" width="154.5%" height="154.5%" filterUnits="objectBoundingBox" id="filter-3">
            <feGaussianBlur stdDeviation="2" in="SourceGraphic"></feGaussianBlur>
        </filter>
    </defs>
    <g id="页面-1" stroke="none" stroke-width="1" fill="none" fill-rule="evenodd">
        <g id="我的收藏" transform="translate(-650.000000, -697.000000)">
            <g id="icon_体育" transform="translate(650.000000, 697.000000)">
                <g>
                    <mask id="mask-2" fill="white">
                        <use xlink:href="#path-1"></use>
                    </mask>
                    <g id="蒙版"></g>
                    <circle id="椭圆形" fill="#04D102" opacity="0.402367001" filter="url(#filter-3)" mask="url(#mask-2)" cx="16" cy="18" r="11"></circle>
                    <circle id="椭圆形备份" fill="#FFFFFF" mask="url(#mask-2)" cx="16" cy="16" r="11"></circle>
                    <path d="M16,5 C9.92492917,5 5,9.92492917 5,16 C5,22.0750708 9.92492917,27 16,27 C22.0750708,27 27,22.0750708 27,16 C26.9932167,9.92781667 22.0721833,5.00678333 16,5 Z M16.3926083,8.17125417 L20.2166667,6.64266667 C20.650665,6.83906808 21.0705,7.0653722 21.4731417,7.31994583 L21.4831792,7.326225 C21.8788536,7.57691338 22.2570117,7.85423445 22.6150333,8.15626667 L22.6458333,8.18307917 C22.8062759,8.31981002 22.9625326,8.46137795 23.1143875,8.6075875 C23.1335458,8.62637917 23.153575,8.64425417 23.1727333,8.66345833 C23.3318218,8.81880598 23.4860489,8.9790554 23.6351917,9.143975 C23.6475667,9.15795417 23.6593458,9.17262083 23.6717208,9.1866 C23.802575,9.33322083 23.9284333,9.48502083 24.0505333,9.6393875 C24.0799125,9.67605417 24.1092917,9.71276667 24.1377542,9.74947917 C24.2702125,9.9209875 24.3984083,10.0955208 24.5194542,10.2756458 L23.7571083,13.5162458 L20.006475,14.7665792 L16.393525,11.8757333 L16.3926083,8.17125417 Z M7.86187917,9.7515875 C7.89034167,9.71492083 7.91935417,9.67825417 7.94873333,9.64167917 C8.06926628,9.48880368 8.19410523,9.33937292 8.3231,9.19356667 C8.33707917,9.17816667 8.34995833,9.1624 8.36375417,9.147 C8.51189163,8.98180725 8.6655036,8.82160689 8.82433333,8.66666667 C8.84262083,8.64879167 8.8608625,8.63 8.88002083,8.6135 C9.03064225,8.4682287 9.18558261,8.32750306 9.34463333,8.1915125 L9.3813,8.1607125 C9.73611633,7.86090009 10.1106858,7.58527873 10.502475,7.3357125 L10.516775,7.32654583 C10.9170456,7.07255817 11.3343724,6.84650553 11.7657792,6.65 L15.6073917,8.17125417 L15.6073917,11.8746333 L11.9942583,14.7650208 L8.243625,13.5169792 L7.48127917,10.2763792 C7.6028215,10.0976483 7.72974629,9.92263764 7.86187917,9.7515875 L7.86187917,9.7515875 Z M7.42004583,21.6265458 C7.31216461,21.4621147 7.20905769,21.2946003 7.11085417,21.1242125 L7.08702083,21.0830083 C6.98927727,20.9133357 6.89672737,20.7407236 6.8095,20.5654125 L6.806475,20.5599125 C6.62274403,20.1910784 6.46149802,19.8114653 6.32362083,19.4231542 L6.32362083,19.4195792 C6.25844583,19.2362458 6.199,19.0484667 6.14404583,18.8595875 L6.12415417,18.7899208 C6.07364731,18.611815 6.02804122,18.4323557 5.9873875,18.2517458 C5.9838125,18.2340083 5.97932083,18.2171875 5.97574583,18.1996333 C5.88570901,17.7900255 5.82100714,17.375257 5.78200833,16.9576875 L8.02050833,14.2715792 L11.7452,15.5130208 L12.826225,19.8367542 L11.05,22.2000125 L7.42004583,21.6265458 Z M18.4416792,25.9707208 C18.2583458,26.0161875 18.0702,26.0554208 17.8820542,26.0906667 C17.8557,26.0958458 17.8288875,26.1001542 17.8025333,26.1050125 C17.6423,26.1336583 17.4802792,26.1581792 17.3178917,26.1782083 C17.2745792,26.1837542 17.2315875,26.1896667 17.1884583,26.1948917 C17.0376667,26.2124 16.8855,26.2256458 16.7329667,26.2366 C16.6849792,26.2398083 16.6375417,26.2446667 16.5895542,26.2476917 C16.3945792,26.2597 16.198,26.2666667 16,26.2666667 C15.8186375,26.2666667 15.638375,26.2618542 15.4591667,26.2523208 C15.4374875,26.2523208 15.4166792,26.2487458 15.395,26.2471417 C15.2355,26.2380208 15.0766875,26.2260583 14.9182417,26.2106125 L14.9,26.2072208 C14.5528091,26.1695666 14.2077245,26.1145281 13.8660458,26.0423125 L11.6972125,22.6465208 L13.445525,20.3153 L18.554475,20.3153 L20.3314333,22.6619667 L18.4416792,25.9707208 Z M26.0269583,18.2 C26.0232,18.2175542 26.0188917,18.2345583 26.0151333,18.2521125 C25.9742528,18.432672 25.9286329,18.6121256 25.8783208,18.7902875 L25.8586125,18.8599542 C25.8040491,19.0482901 25.7441205,19.23503 25.6789,19.4199458 L25.6789,19.4235208 C25.5410978,19.8118463 25.3798499,20.1914486 25.1960458,20.5602333 L25.192975,20.5657792 C25.1054874,20.7409474 25.0129571,20.9135513 24.9155,21.083375 L24.8916667,21.1245792 C24.7942321,21.2950846 24.6912975,21.4623877 24.583025,21.626225 L20.9654,22.1966208 L19.1768458,19.8352875 L20.2573208,15.5126542 L23.9819667,14.2712125 L26.2204667,16.9573208 C26.1816333,17.3751391 26.1170073,17.790157 26.0269583,18.2 L26.0269583,18.2 Z" id="形状" fill="#04D102" fill-rule="nonzero" mask="url(#mask-2)"></path>
                </g>
            </g>
        </g>
    </g>
</svg>