<?xml version="1.0" encoding="UTF-8"?>
<svg width="32px" height="32px" viewBox="0 0 32 32" version="1.1" xmlns="http://www.w3.org/2000/svg" xmlns:xlink="http://www.w3.org/1999/xlink">
    <!-- Generator: Sketch 61 (89581) - https://sketch.com -->
    <title>icon_视讯</title>
    <desc>Created with Sketch.</desc>
    <defs>
        <rect id="path-1" x="0" y="0" width="32" height="32"></rect>
        <linearGradient x1="0.571116606%" y1="0.566142314%" x2="100.561054%" y2="99.4338577%" id="linearGradient-3">
            <stop stop-color="#FFB951" offset="0%"></stop>
            <stop stop-color="#FF4D4D" offset="100%"></stop>
        </linearGradient>
        <filter x="-26.1%" y="-26.1%" width="152.2%" height="152.2%" filterUnits="objectBoundingBox" id="filter-4">
            <feGaussianBlur stdDeviation="2" in="SourceGraphic"></feGaussianBlur>
        </filter>
    </defs>
    <g id="页面-1" stroke="none" stroke-width="1" fill="none" fill-rule="evenodd">
        <g id="我的收藏" transform="translate(-650.000000, -645.000000)">
            <g id="icon_视讯" transform="translate(650.000000, 645.000000)">
                <g>
                    <mask id="mask-2" fill="white">
                        <use xlink:href="#path-1"></use>
                    </mask>
                    <g id="蒙版"></g>
                    <path d="M12.8051177,5.45507534 C18.5039529,3.80641476 24.5216194,6.76366815 26.6981416,12.2825046 C27.2253172,13.6288039 27.4972363,15.0614844 27.5,16.5073157 C27.496916,22.4398359 22.9812508,27.3962887 17.0746557,27.9503092 C11.1680606,28.5043297 5.80946756,24.4740519 4.70323882,18.6455819 C3.59701008,12.8171119 7.10628244,7.10373593 12.8051177,5.45507534 Z M17.7481872,24.0511507 C16.4700259,24.392065 15.1248391,24.392065 13.8466777,24.0511507 L13.8466777,24.0511507 L13.8466777,26.427198 C14.489016,26.5539046 15.1420794,26.6183512 15.796794,26.6196421 L15.796794,26.6196421 L15.796794,26.6324794 C16.4519346,26.6312545 17.105428,26.5668077 17.7481872,26.4400352 L17.7481872,26.4400352 Z M8.22858435,18.4202201 L6.15146401,19.6159278 C6.56136695,20.8619258 7.20582317,22.0170805 8.05280802,23.0170824 L8.05280802,23.0170824 L10.1055536,21.8329122 C9.20038995,20.8730911 8.55445227,19.6986519 8.22858435,18.4202201 L8.22858435,18.4202201 Z M23.3688572,18.4189204 C23.0429827,19.6973545 22.397037,20.871794 21.4918651,21.8316125 L21.4918651,21.8316125 L23.5446107,23.0157827 C24.3955121,22.0163204 25.0400016,20.8615752 25.4459775,19.6159278 L25.4459775,19.6159278 Z M15.7980937,10.2657168 C13.2659694,10.2657168 10.9834679,11.7918674 10.0159099,14.1318429 C9.04835199,16.4718183 9.58650241,19.1642743 11.3791882,20.9525505 C13.1718739,22.7408266 15.8656471,23.2723443 18.2032326,22.2990264 C20.540818,21.3257084 22.0613349,19.0394552 22.0551254,16.5073385 C22.0466209,13.0576979 19.2477448,10.2657168 15.7980937,10.2657168 Z M16.4938306,12.0769231 L16.4938306,12.8697159 C17.0403571,12.9293139 17.4907609,13.1015246 17.8368028,13.3967429 C18.2662655,13.7678448 18.485288,14.2422037 18.485288,14.5280665 L16.9871463,14.8808039 C16.9871463,14.5100485 16.432724,14.053361 16.0557855,14.053361 C15.5665894,14.053361 15.1796953,14.1912682 15.1796953,14.8049203 C15.1796953,15.2460153 15.5137219,15.3901594 16.093548,15.5762301 C17.0674775,15.8880804 17.8069361,16.2920998 18.1467986,16.6424117 C18.485288,16.9941095 18.6538462,17.4365904 18.6538462,17.971587 C18.6538462,18.6327096 18.4083898,19.0790021 17.9408213,19.4296604 C17.5432851,19.7234927 17.0633579,19.945253 16.4934873,19.990298 L16.4934873,20.9230769 L15.4979303,20.9230769 L15.4979303,19.9753985 C14.888924,19.9036729 14.4501923,19.7221067 14.0808063,19.4244629 C13.5916102,19.033264 13.4412467,18.6153846 13.3461538,18.0914761 L14.8453255,17.7241857 C14.8453255,18.2179487 15.3544328,18.7830908 16.1127726,18.7830908 C16.5652361,18.7830908 17.1048967,18.5613306 17.0990607,17.9712405 C17.0956277,17.488219 16.5858338,17.1431047 16.036561,17.0183645 C15.4660038,16.8901594 14.3152771,16.4968815 13.9963556,16.1465697 C13.6757176,15.7972973 13.5871473,15.3018018 13.5871473,14.7255717 C13.5871473,14.2300762 13.8078863,13.7297297 14.1649137,13.4272349 C14.5126721,13.1327096 14.9201639,12.9435204 15.4982736,12.8724879 L15.4982736,12.0769231 L16.4938306,12.0769231 Z M23.3072705,9.73838785 L21.2417105,10.9276884 C22.1889226,11.8461564 22.8876865,12.9898792 23.2726351,14.2518653 L23.2726351,14.2518653 L25.3253579,13.0728026 C24.8710279,11.8422752 24.1877807,10.7093331 23.3072705,9.73838785 L23.3072705,9.73838785 Z M8.28121008,9.73711097 C7.39451355,10.7082714 6.71130248,11.8411538 6.26305427,13.0728254 L6.26305427,13.0728254 L8.31579987,14.2506112 C8.70090885,12.9890449 9.39969164,11.8457612 10.3467929,10.9276884 L10.3467929,10.9276884 L8.28121008,9.73711097 Z M15.7968168,6.38985899 C15.1421026,6.39115803 14.4890399,6.4556045 13.8467005,6.58230318 L13.8467005,6.58230318 L13.8467005,8.96475766 C15.1248619,8.62384337 16.4700487,8.62384337 17.74821,8.96475766 L17.74821,8.96475766 L17.74821,6.58230318 C17.1054434,6.45552918 16.4519422,6.39108239 15.796794,6.38985899 Z" id="形状结合备份-4" fill-opacity="0.4" fill="url(#linearGradient-3)" fill-rule="nonzero" filter="url(#filter-4)" mask="url(#mask-2)"></path>
                    <circle id="椭圆形" fill="#FFFFFF" mask="url(#mask-2)" cx="16" cy="15.5" r="11.5"></circle>
                    <path d="M12.8051177,4.45507534 C18.5039529,2.80641476 24.5216194,5.76366815 26.6981416,11.2825046 C27.2253172,12.6288039 27.4972363,14.0614844 27.5,15.5073157 C27.496916,21.4398359 22.9812508,26.3962887 17.0746557,26.9503092 C11.1680606,27.5043297 5.80946756,23.4740519 4.70323882,17.6455819 C3.59701008,11.8171119 7.10628244,6.10373593 12.8051177,4.45507534 Z M17.7481872,23.0511507 C16.4700259,23.392065 15.1248391,23.392065 13.8466777,23.0511507 L13.8466777,23.0511507 L13.8466777,25.427198 C14.489016,25.5539046 15.1420794,25.6183512 15.796794,25.6196421 L15.796794,25.6196421 L15.796794,25.6324794 C16.4519346,25.6312545 17.105428,25.5668077 17.7481872,25.4400352 L17.7481872,25.4400352 Z M8.22858435,17.4202201 L6.15146401,18.6159278 C6.56136695,19.8619258 7.20582317,21.0170805 8.05280802,22.0170824 L8.05280802,22.0170824 L10.1055536,20.8329122 C9.20038995,19.8730911 8.55445227,18.6986519 8.22858435,17.4202201 L8.22858435,17.4202201 Z M23.3688572,17.4189204 C23.0429827,18.6973545 22.397037,19.871794 21.4918651,20.8316125 L21.4918651,20.8316125 L23.5446107,22.0157827 C24.3955121,21.0163204 25.0400016,19.8615752 25.4459775,18.6159278 L25.4459775,18.6159278 Z M15.7980937,9.26571685 C13.2659694,9.26571685 10.9834679,10.7918674 10.0159099,13.1318429 C9.04835199,15.4718183 9.58650241,18.1642743 11.3791882,19.9525505 C13.1718739,21.7408266 15.8656471,22.2723443 18.2032326,21.2990264 C20.540818,20.3257084 22.0613349,18.0394552 22.0551254,15.5073385 C22.0466209,12.0576979 19.2477448,9.26571685 15.7980937,9.26571685 Z M16.4938306,11.0769231 L16.4938306,11.8697159 C17.0403571,11.9293139 17.4907609,12.1015246 17.8368028,12.3967429 C18.2662655,12.7678448 18.485288,13.2422037 18.485288,13.5280665 L16.9871463,13.8808039 C16.9871463,13.5100485 16.432724,13.053361 16.0557855,13.053361 C15.5665894,13.053361 15.1796953,13.1912682 15.1796953,13.8049203 C15.1796953,14.2460153 15.5137219,14.3901594 16.093548,14.5762301 C17.0674775,14.8880804 17.8069361,15.2920998 18.1467986,15.6424117 C18.485288,15.9941095 18.6538462,16.4365904 18.6538462,16.971587 C18.6538462,17.6327096 18.4083898,18.0790021 17.9408213,18.4296604 C17.5432851,18.7234927 17.0633579,18.945253 16.4934873,18.990298 L16.4934873,19.9230769 L15.4979303,19.9230769 L15.4979303,18.9753985 C14.888924,18.9036729 14.4501923,18.7221067 14.0808063,18.4244629 C13.5916102,18.033264 13.4412467,17.6153846 13.3461538,17.0914761 L14.8453255,16.7241857 C14.8453255,17.2179487 15.3544328,17.7830908 16.1127726,17.7830908 C16.5652361,17.7830908 17.1048967,17.5613306 17.0990607,16.9712405 C17.0956277,16.488219 16.5858338,16.1431047 16.036561,16.0183645 C15.4660038,15.8901594 14.3152771,15.4968815 13.9963556,15.1465697 C13.6757176,14.7972973 13.5871473,14.3018018 13.5871473,13.7255717 C13.5871473,13.2300762 13.8078863,12.7297297 14.1649137,12.4272349 C14.5126721,12.1327096 14.9201639,11.9435204 15.4982736,11.8724879 L15.4982736,11.0769231 L16.4938306,11.0769231 Z M23.3072705,8.73838785 L21.2417105,9.92768837 C22.1889226,10.8461564 22.8876865,11.9898792 23.2726351,13.2518653 L23.2726351,13.2518653 L25.3253579,12.0728026 C24.8710279,10.8422752 24.1877807,9.70933305 23.3072705,8.73838785 L23.3072705,8.73838785 Z M8.28121008,8.73711097 C7.39451355,9.70827141 6.71130248,10.8411538 6.26305427,12.0728254 L6.26305427,12.0728254 L8.31579987,13.2506112 C8.70090885,11.9890449 9.39969164,10.8457612 10.3467929,9.92768837 L10.3467929,9.92768837 L8.28121008,8.73711097 Z M15.7968168,5.38985899 C15.1421026,5.39115803 14.4890399,5.4556045 13.8467005,5.58230318 L13.8467005,5.58230318 L13.8467005,7.96475766 C15.1248619,7.62384337 16.4700487,7.62384337 17.74821,7.96475766 L17.74821,7.96475766 L17.74821,5.58230318 C17.1054434,5.45552918 16.4519422,5.39108239 15.796794,5.38985899 Z" id="形状结合备份-3" fill="url(#linearGradient-3)" fill-rule="nonzero" mask="url(#mask-2)"></path>
                </g>
            </g>
        </g>
    </g>
</svg>