<?xml version="1.0" encoding="UTF-8"?>
<svg width="16px" height="16px" viewBox="0 0 16 16" version="1.1" xmlns="http://www.w3.org/2000/svg" xmlns:xlink="http://www.w3.org/1999/xlink">
    <!-- Generator: Sketch 61 (89581) - https://sketch.com -->
    <title>Star备份 2</title>
    <desc>Created with Sketch.</desc>
    <defs>
        <linearGradient x1="50%" y1="0%" x2="50%" y2="100%" id="linearGradient-1">
            <stop stop-color="#FF9C9C" offset="0%"></stop>
            <stop stop-color="#FF6363" offset="100%"></stop>
        </linearGradient>
    </defs>
    <g id="页面2" stroke="none" stroke-width="1" fill="none" fill-rule="evenodd">
        <g id="我的收藏" transform="translate(-788.000000, -577.000000)" fill="url(#linearGradient-1)">
            <g id="编组-5备份-2" transform="translate(650.000000, 565.000000)">
                <g id="Star备份-2" transform="translate(138.000000, 12.000000)">
                    <path d="M7.83078504,12.0889616 L4.60206137,13.7864021 C4.24653803,13.9733117 3.80680919,13.8366234 3.61989951,13.4811 C3.5454711,13.3395288 3.5197877,13.1773702 3.5468254,13.0197283 L4.16345675,9.4244916 C4.18368873,9.30653012 4.14458019,9.18616641 4.05887616,9.10262563 L1.44678383,6.55646489 C1.15915941,6.27610037 1.1532741,5.81565436 1.43363862,5.52802994 C1.54528124,5.41349639 1.69156663,5.33896026 1.84984811,5.31596062 L5.45967092,4.79142266 C5.57811098,4.77421231 5.68049846,4.69982345 5.73346647,4.59249855 L7.34782831,1.32144418 C7.52558998,0.961259702 7.96168149,0.813376794 8.32186597,0.991138462 C8.46529332,1.06192409 8.58138606,1.17801683 8.65217169,1.32144418 L10.2665335,4.59249855 C10.3195015,4.69982345 10.421889,4.77421231 10.5403291,4.79142266 L14.1501519,5.31596062 C14.5476391,5.37371888 14.8230438,5.74276823 14.7652855,6.1402554 C14.7422858,6.29853688 14.6677497,6.44482227 14.5532162,6.55646489 L11.9411238,9.10262563 C11.8554198,9.18616641 11.8163113,9.30653012 11.8365432,9.4244916 L12.4531746,13.0197283 C12.5210735,13.4156093 12.2551915,13.7915773 11.8593104,13.8594762 C11.7016685,13.8865139 11.5395099,13.8608305 11.3979386,13.7864021 L8.16921496,12.0889616 C8.06327895,12.0332677 7.93672105,12.0332677 7.83078504,12.0889616 Z" id="Star备份"></path>
                </g>
            </g>
        </g>
    </g>
</svg>