<svg width="144" height="50" viewBox="0 0 144 50" fill="none" xmlns="http://www.w3.org/2000/svg">
<rect width="144" height="50" rx="4" fill="white"/>
<path d="M60.6341 28.9111C61.502 29.0905 62.3602 29.3272 63.2216 29.5396C63.1525 29.8034 63.0777 30.0711 63.0301 30.3428C62.7476 30.3217 62.4832 30.2109 62.2059 30.1601C61.6238 30.0203 61.0391 29.8931 60.459 29.7473C60.4921 29.4638 60.5508 29.1839 60.6341 28.9111Z" fill="white"/>
<path d="M32.9863 29.7193C33.5071 29.4938 34.0195 29.2432 34.5345 29.0032C34.6739 28.9577 34.7898 29.079 34.9122 29.1252C35.3471 29.3197 35.7671 29.5492 36.2065 29.7351C36.228 29.9528 36.062 30.1308 35.9858 30.3254L35.9012 30.3649C35.461 30.1948 35.0463 29.9587 34.6029 29.7984C34.1569 29.9719 33.7213 30.1809 33.2851 30.3801C33.1887 30.3174 33.1705 30.1974 33.1249 30.1011C33.0735 29.9752 32.968 29.8651 32.9863 29.7193Z" fill="white"/>
<path d="M110.741 29.0606C111.595 29.2796 112.455 29.4787 113.308 29.7062C113.289 29.9759 113.198 30.2338 113.139 30.4976C112.283 30.3657 111.45 30.0927 110.599 29.9357C110.59 29.6363 110.681 29.3488 110.741 29.0606Z" fill="white"/>
<path d="M24.7585 30.7309C26.1454 30.6184 27.539 30.6209 28.9255 30.7382C29.391 30.8087 29.9268 30.8892 30.2159 31.3126C30.4562 31.7142 30.4562 32.2054 30.4763 32.6605C30.2094 32.737 29.9223 32.673 29.6475 32.6941C29.35 32.6802 29.0466 32.7211 28.7529 32.675C28.7392 32.4976 28.734 32.2793 28.5504 32.189C28.1494 32.0571 27.7203 32.1019 27.3049 32.0834C26.6769 32.0581 26.0481 32.0686 25.4213 32.1151C25.2331 32.1533 25.0111 32.1665 24.877 32.3248C24.7031 32.5807 24.7201 32.8998 24.6947 33.1953C24.6766 33.6613 24.6945 34.1281 24.7481 34.5913C24.7832 34.8142 24.9206 35.0332 25.1583 35.0668C26.0874 35.1723 27.0256 35.1486 27.9579 35.1327C28.2106 35.1123 28.5029 35.1327 28.7028 34.9441C28.8206 34.7674 28.7855 34.5386 28.7913 34.3361C28.04 34.3295 27.286 34.3572 26.5353 34.3229C26.5307 33.9517 26.5353 33.5811 26.5353 33.2098C27.8505 33.2098 29.1651 33.1973 30.4796 33.2131C30.4679 33.9154 30.4946 34.621 30.4008 35.3187C30.3605 35.5492 30.2565 35.7633 30.1009 35.9364C29.9454 36.1095 29.7446 36.2344 29.5218 36.2967C28.9465 36.4373 28.3556 36.5011 27.7639 36.4866C27.0692 36.5235 26.3725 36.5143 25.6804 36.4833C25.2045 36.4701 24.7149 36.4892 24.2558 36.3514C23.7265 36.3092 23.1796 35.9274 23.08 35.3748C22.9498 34.7694 22.9817 34.1455 22.9699 33.5283C22.9797 32.8801 22.9485 32.2094 23.1796 31.5922C23.2129 31.5014 23.2717 31.4225 23.3489 31.3653C23.356 31.2097 23.5032 31.1207 23.6145 31.0356C23.9479 30.8041 24.3678 30.7784 24.7585 30.7309Z" fill="white"/>
<path d="M76.4005 30.7172C77.1551 30.6447 77.9143 30.6513 78.6722 30.6559C79.4574 30.6724 80.2615 30.6684 81.0161 30.9012C81.4413 31.0153 81.742 31.4347 81.7772 31.8699C81.8224 32.1404 81.8381 32.4151 81.8241 32.689C81.2668 32.7035 80.7094 32.6857 80.1527 32.6989C80.0336 32.5472 80.1456 32.2795 79.9262 32.1931C79.5231 32.0539 79.0915 32.1034 78.6741 32.0829C78.0881 32.046 77.4963 32.0829 76.909 32.1027C76.6486 32.1205 76.3504 32.1542 76.1778 32.381C75.9825 33.0952 76.0366 33.8516 76.1127 34.5796C76.1205 34.7063 76.1727 34.826 76.26 34.9171C76.3473 35.0082 76.4639 35.0646 76.5887 35.0762C77.37 35.1652 78.1513 35.1421 78.9326 35.1421C79.2738 35.127 79.6312 35.1481 79.9555 35.0228C80.21 34.8981 80.1508 34.5711 80.156 34.3369C79.4053 34.3251 78.6526 34.3554 77.9032 34.3218C77.8989 33.9507 77.8989 33.5795 77.9032 33.208C79.2054 33.2009 80.5076 33.1994 81.8098 33.2034C81.8749 33.2983 81.8339 33.4216 81.8449 33.5298C81.8326 34.1431 81.8566 34.7623 81.7538 35.3696C81.6672 35.8649 81.2329 36.2342 80.7583 36.3291C79.7972 36.5421 78.805 36.4914 77.8284 36.5065C77.0672 36.4643 76.2957 36.5177 75.545 36.3595C75.1846 36.2834 74.8583 36.0909 74.6152 35.8108C74.4342 35.5233 74.4004 35.1738 74.3594 34.8441C74.3203 34.1286 74.3268 33.4104 74.3418 32.6943C74.373 32.1304 74.4368 31.4763 74.8965 31.0898C75.3288 30.7667 75.8901 30.7575 76.4005 30.7172Z" fill="white"/>
<path d="M14.3945 30.7359C15.4057 30.7167 16.4181 30.7359 17.4299 30.728C18.372 32.1247 19.3604 33.4897 20.3142 34.8792C20.325 34.9029 20.3407 34.9239 20.3603 34.9408C20.3799 34.9576 20.403 34.97 20.4278 34.9769C20.4526 34.9838 20.4786 34.9851 20.504 34.9808C20.5293 34.9764 20.5535 34.9665 20.5747 34.9517C20.5467 33.8181 20.5564 32.6845 20.5363 31.5509C20.5363 31.2746 20.4939 30.9931 20.5545 30.7207C21.1261 30.7306 21.6984 30.7352 22.2701 30.7207C22.2968 32.6193 22.276 34.5191 22.2805 36.4183C21.3078 36.421 20.3349 36.421 19.3617 36.4183C19.2673 36.4388 19.2276 36.3386 19.18 36.2799C18.2837 34.9988 17.3837 33.7194 16.48 32.4419C16.394 32.3166 16.3133 32.1365 16.1316 32.1656C16.0835 32.3311 16.1082 32.5039 16.1141 32.6733C16.1264 33.9184 16.1271 35.1641 16.1466 36.4091C15.5606 36.4249 14.9681 36.4296 14.3809 36.4058C14.4017 34.5165 14.3724 32.6252 14.3945 30.7359Z" fill="white"/>
<path d="M50.1872 30.7247C50.7784 30.7247 51.3696 30.7372 51.9601 30.7188C51.9914 30.8186 52.0051 30.9233 52.0005 31.028C51.9959 31.5985 52.0005 32.1695 51.9966 32.7426C52.0923 32.7901 52.2036 32.7637 52.3078 32.771C53.5045 32.7611 54.7038 32.7901 55.8998 32.7558C55.9129 32.0917 55.9044 31.427 55.9031 30.7629C55.9981 30.7108 56.1114 30.7372 56.2156 30.7306C56.7104 30.7405 57.2072 30.7155 57.7014 30.7431C57.7541 32.4175 57.6929 34.0958 57.732 35.7708C58.5966 34.105 59.4991 32.4577 60.3487 30.784C61.2466 30.7497 62.1477 30.7636 63.0468 30.7708C63.7962 32.2098 64.5385 33.6526 65.2879 35.0916C65.3842 35.2755 65.5164 35.5288 65.7619 35.4872C65.8459 35.3553 65.8517 35.1984 65.8589 35.0487C65.8589 33.6427 65.8537 32.2361 65.8628 30.8282C66.8342 30.7913 67.8109 30.8183 68.7842 30.8144L68.8734 30.8632C69.5579 31.8392 70.239 32.8173 70.9165 33.7977C71.177 34.1538 71.4068 34.537 71.6913 34.8753C71.7201 34.9128 71.7593 34.9406 71.8039 34.9552C71.8485 34.9698 71.8964 34.9704 71.9414 34.957C71.9589 33.5801 71.9218 32.2032 71.9192 30.8262C72.4922 30.8091 73.0743 30.7854 73.6459 30.8401C73.642 32.7002 73.642 34.5605 73.6459 36.421C72.6999 36.4692 71.7467 36.4283 70.798 36.4421C70.6776 36.4672 70.6216 36.3465 70.5637 36.268C69.6686 34.9781 68.7734 33.688 67.8779 32.3977C67.8599 32.3775 67.838 32.3612 67.8135 32.35C67.789 32.3388 67.7624 32.3328 67.7355 32.3324C67.7086 32.332 67.6819 32.3373 67.6572 32.3478C67.6324 32.3584 67.61 32.374 67.5914 32.3938C67.5406 32.5006 67.5582 32.6259 67.5524 32.7413C67.5619 33.8619 67.5704 34.983 67.5778 36.1045C67.5778 36.2139 67.5921 36.3274 67.5589 36.4342C66.6415 36.4573 65.7228 36.4342 64.8054 36.4415C64.5502 36.4329 64.2937 36.4626 64.041 36.419C63.3815 35.0889 62.7109 33.7641 62.0507 32.4346C61.94 32.2731 61.9016 31.9394 61.647 31.9829C61.4712 32.1267 61.4015 32.3509 61.2954 32.5448C61.0154 33.1066 60.7192 33.6606 60.4548 34.2297C61.018 34.2389 61.5819 34.2257 62.1477 34.2349L62.2414 34.2857C62.442 34.6484 62.6269 35.0203 62.8196 35.3877V35.4694C61.8872 35.4833 60.9542 35.4648 60.0199 35.48C59.684 35.5703 59.6019 35.9548 59.4515 36.2252C59.404 36.3017 59.3864 36.4302 59.2744 36.4342C58.1506 36.4626 57.0275 36.4124 55.9031 36.4184C55.9031 35.7358 55.9207 35.052 55.8946 34.3708C54.6068 34.3398 53.3157 34.3741 52.0265 34.3536C51.9523 35.0342 52.0402 35.7339 51.9822 36.4197C51.3813 36.4197 50.7797 36.4316 50.1787 36.4144C50.1956 34.5165 50.1774 32.6199 50.1872 30.7247Z" fill="white"/>
<path d="M33.25 30.7791C34.1498 30.7494 35.0529 30.7626 35.954 30.7705C36.6448 32.1343 37.3636 33.4835 38.0589 34.8453C38.2126 35.0866 38.3103 35.5304 38.6716 35.4803C38.732 35.3659 38.7591 35.2365 38.7498 35.1071C38.7563 33.8324 38.7498 32.5577 38.7498 31.2823C38.7401 31.1281 38.7467 30.9734 38.7693 30.8207C39.7231 30.789 40.6796 30.8154 41.6341 30.8068C41.7311 30.787 41.791 30.8774 41.8405 30.9446C42.6908 32.1884 43.5626 33.4169 44.4181 34.6567C44.523 34.7853 44.6206 34.9759 44.8088 34.9699C44.8372 34.8873 44.8511 34.8002 44.8498 34.7127C44.8465 33.8106 44.8329 32.9085 44.8277 32.009C44.8361 31.6133 44.7769 31.2176 44.8185 30.8273C45.3885 30.7972 45.9596 30.7972 46.5296 30.8273C46.5654 32.6493 46.5296 34.476 46.5465 36.3007C46.5876 36.451 46.4124 36.4431 46.3193 36.4418C45.4267 36.4379 44.534 36.4451 43.6414 36.4385C43.5515 36.4306 43.5157 36.3403 43.4695 36.2783C42.6226 35.0517 41.7741 33.8269 40.9237 32.6038C40.8391 32.4917 40.7655 32.2919 40.5904 32.3348C40.4432 32.3684 40.4602 32.5524 40.4478 32.6698C40.455 33.9227 40.4947 35.1809 40.4686 36.4346C39.5525 36.4524 38.6358 36.4346 37.7197 36.4392C37.4638 36.4339 37.2067 36.455 36.9521 36.4214C36.3069 35.1572 35.6805 33.8831 35.0411 32.6157C34.9148 32.4132 34.8601 32.1626 34.6941 31.9892C34.4988 31.9272 34.3848 32.1567 34.31 32.3011C34.0059 32.9494 33.6465 33.5739 33.3685 34.232C33.9493 34.2445 34.5405 34.203 35.1147 34.2511C35.2547 34.4694 35.3595 34.7094 35.4845 34.9369C35.5614 35.1077 35.6838 35.2627 35.7079 35.4533C34.7879 35.5001 33.8601 35.4533 32.9375 35.4764C32.608 35.5351 32.5201 35.903 32.3782 36.1569C32.3079 36.2605 32.2896 36.4629 32.1256 36.4392C31.5175 36.4273 30.9067 36.4649 30.3025 36.4181C30.7661 35.4737 31.2831 34.5545 31.7668 33.6194C32.2525 32.6698 32.7799 31.738 33.25 30.7791Z" fill="white"/>
<path d="M86.5158 30.845C87.3948 30.845 88.2738 30.845 89.1541 30.845C89.2472 30.8299 89.2595 30.9545 89.3032 31.0105C89.824 32.0217 90.3449 33.0311 90.8658 34.0387C90.9185 34.135 90.9654 34.2425 91.0611 34.3098C91.08 34.5491 91.2486 34.7391 91.3404 34.9547C91.4758 35.1796 91.5501 35.4697 91.7812 35.6142C91.9492 35.7012 92.0677 35.5245 92.0533 35.3682C92.0638 33.8805 92.0599 32.3921 92.0533 30.9044C93.0625 30.8918 94.0717 30.8899 95.0829 30.9044C95.8388 31.9806 96.5804 33.068 97.3356 34.1442C97.5433 34.441 97.7335 34.7536 97.9698 35.0286C98.0206 35.1077 98.1163 35.0945 98.1996 35.1031C98.2745 34.3612 98.1957 33.6101 98.1996 32.8649C98.1996 32.2094 98.1677 31.552 98.1964 30.8978C98.7785 30.8978 99.3618 30.8833 99.9446 30.9077C99.9335 32.8062 99.938 34.7054 99.9446 36.6047C98.9399 36.6047 97.9353 36.6132 96.9307 36.5994C96.0152 35.2475 95.0764 33.9115 94.1551 32.5635C94.09 32.4435 93.9155 32.3822 93.8191 32.4976C93.7358 32.6954 93.7794 32.9196 93.7729 33.13C93.769 34.1851 93.81 35.2403 93.8093 36.2954C93.7898 36.3943 93.851 36.5288 93.7742 36.606C92.5951 36.6205 91.4159 36.6 90.2375 36.606C89.5091 35.1407 88.779 33.6767 88.0472 32.214C87.9893 32.0393 87.7314 32.0571 87.678 32.2246C87.3479 32.8234 87.0576 33.4433 86.7463 34.0526C86.6864 34.1488 86.6469 34.2566 86.6304 34.3691C87.1728 34.3691 87.7158 34.3691 88.2582 34.3691C88.3545 34.3467 88.4261 34.4351 88.4593 34.5155C88.6443 34.8868 88.8396 35.2521 89.0258 35.6227C88.096 35.6432 87.1656 35.6227 86.2365 35.6339C86.1531 35.6394 86.0725 35.6665 86.0025 35.7127C85.9324 35.7589 85.8753 35.8226 85.8368 35.8977C85.7065 36.1259 85.6115 36.3745 85.4774 36.602C84.8263 36.6159 84.168 36.602 83.5137 36.6093C83.5566 36.4213 83.6764 36.2664 83.7604 36.0962C84.675 34.3434 85.5935 32.593 86.5158 30.845Z" fill="white"/>
<path d="M103.103 30.9022C104.861 30.8989 106.615 30.8897 108.371 30.9115C108.797 30.928 109.278 30.9115 109.631 31.1931C110.055 31.6131 109.994 32.2653 109.965 32.8133C109.954 33.0127 109.883 33.2039 109.761 33.3612C109.639 33.5185 109.473 33.6345 109.285 33.6937C109.441 33.7985 109.654 33.7781 109.806 33.91C110.174 34.183 110.196 34.6868 110.211 35.1082C110.191 35.5289 110.157 36.0176 109.817 36.3124C109.514 36.5458 109.115 36.5484 108.754 36.5913C106.873 36.6269 104.99 36.6005 103.108 36.6098C103.096 34.7073 103.1 32.8021 103.103 30.9022ZM104.748 32.2442C104.73 32.5461 104.732 32.8487 104.753 33.1503C105.242 33.1503 105.73 33.1503 106.219 33.1503C106.87 33.1332 107.529 33.1971 108.172 33.0844C108.255 32.9945 108.308 32.8802 108.322 32.7581C108.337 32.636 108.313 32.5123 108.253 32.4051C108.149 32.2469 107.944 32.2581 107.781 32.2515C106.771 32.2356 105.759 32.2422 104.748 32.2442ZM104.748 34.2852C104.735 34.5991 104.748 34.9137 104.738 35.2282C105.1 35.2698 105.467 35.2394 105.832 35.2467C106.627 35.2388 107.425 35.2744 108.22 35.2111C108.592 35.1451 108.646 34.58 108.381 34.365C108.192 34.2859 107.982 34.2991 107.782 34.2951C106.767 34.2813 105.754 34.2964 104.744 34.2852H104.748Z" fill="white"/>
<path d="M113.831 30.9008C114.843 30.9008 115.857 30.881 116.868 30.912C117.613 32.0409 118.412 33.131 119.167 34.2521C119.413 34.5429 119.557 34.9392 119.893 35.1397C119.988 35.0737 119.987 34.9471 119.988 34.8423C119.984 33.9626 119.969 33.0835 119.966 32.2045C119.966 31.7692 119.913 31.3314 119.956 30.8975C120.537 30.8948 121.118 30.8948 121.7 30.8975C121.696 32.8006 121.704 34.7031 121.696 36.6063C120.692 36.5991 119.689 36.6162 118.686 36.5977C117.766 35.2234 116.807 33.8762 115.881 32.5092C115.799 32.4261 115.62 32.3964 115.57 32.5237C115.523 32.6318 115.545 32.7551 115.539 32.8705C115.551 34.107 115.556 35.3435 115.569 36.5799C115.474 36.6281 115.364 36.6017 115.265 36.6083C114.79 36.6083 114.316 36.6083 113.842 36.6083C113.795 36.512 113.819 36.4006 113.815 36.2977C113.828 34.5 113.797 32.6991 113.831 30.9008Z" fill="white"/>
<path d="M111.061 30.9779C111.635 30.9667 112.21 30.9779 112.784 30.9727C112.841 31.555 112.792 32.1478 112.809 32.7347C112.809 33.8338 112.809 34.9346 112.809 36.0372C112.804 36.1823 112.828 36.334 112.773 36.4725C112.203 36.4632 111.634 36.4652 111.065 36.4725C111.06 34.6392 111.068 32.8086 111.061 30.9779Z" fill="white"/>
<path d="M122.573 30.9723C123.148 30.9723 123.723 30.9684 124.299 30.9723C124.306 31.6245 124.281 32.2774 124.311 32.9282C125.07 32.9592 125.831 32.9335 126.589 32.9421C127.073 32.9329 127.558 32.9612 128.041 32.9269C128.065 32.2774 128.048 31.6252 128.049 30.9749C128.623 30.9611 129.196 30.9749 129.771 30.969C129.821 31.5981 129.78 32.2325 129.794 32.8636C129.794 33.9851 129.794 35.1062 129.794 36.2268C129.79 36.3071 129.782 36.387 129.768 36.4662C129.196 36.457 128.624 36.4629 128.052 36.4662C128.052 35.8377 128.058 35.2086 128.052 34.5802C128.043 34.5525 128.026 34.4971 128.018 34.4694C126.789 34.4727 125.56 34.4773 124.331 34.4694C124.279 34.5887 124.3 34.72 124.298 34.8466C124.298 35.388 124.302 35.9294 124.298 36.4701C123.725 36.4655 123.152 36.4616 122.58 36.4741C122.558 34.6395 122.568 32.8056 122.573 30.9723Z" fill="white"/>
<path d="M27.3843 10.5781H42.6426C42.8177 10.6401 43.0039 10.6441 43.1856 10.6711C43.7247 10.7423 44.2586 10.954 44.6642 11.3266C45.1135 11.7223 45.3804 12.294 45.5106 12.8776C45.6626 13.7555 45.6731 14.6526 45.5419 15.5339C45.4553 16.014 45.3068 16.5086 44.9696 16.8719C44.659 17.2353 44.2097 17.408 43.7891 17.5973C44.3875 17.6745 45.0217 17.8611 45.4455 18.3227C45.8231 18.7533 46.0191 19.3218 46.0803 19.8882C46.1656 20.4066 46.1624 20.9341 46.1454 21.4577C46.1057 21.9958 46.0556 22.5438 45.859 23.0503C45.6447 23.6141 45.2228 24.1173 44.6531 24.3296C43.5463 24.7649 42.3385 24.7141 41.1731 24.7339C36.7919 24.7596 32.4101 24.7378 28.0282 24.7484C27.8876 24.5288 27.7834 24.2868 27.6591 24.0606C25.9304 20.7587 24.2246 17.4476 22.4933 14.149C22.397 13.9374 22.2283 13.7079 21.9666 13.7474C21.6944 13.7079 21.5291 13.9618 21.4099 14.1662C20.6716 15.5313 19.9775 16.9181 19.2613 18.2976C19.1611 18.5232 19.008 18.7269 18.9592 18.9736C20.3844 18.9993 21.8116 18.9736 23.2375 18.9868C23.7102 19.91 24.1907 20.8332 24.6699 21.7505C24.7321 21.8482 24.7763 21.9566 24.8001 22.0704C22.5291 22.0809 20.2581 22.0704 17.9878 22.0763C17.5516 22.0605 17.1576 22.3453 16.9617 22.7278C16.7012 23.2349 16.433 23.7381 16.1732 24.2446C16.0781 24.4074 16.015 24.5941 15.8906 24.7372C14.3755 24.7517 12.8585 24.7431 11.3428 24.7418C11.4548 24.4325 11.6429 24.1595 11.7764 23.8601C12.4151 22.6375 13.0434 21.4096 13.6808 20.1863C13.785 19.9502 13.9738 19.7616 14.035 19.5044C15.5134 16.6468 16.9925 13.7892 18.4722 10.9316C18.5529 10.8122 18.5842 10.5841 18.7704 10.6124C20.8995 10.6124 23.029 10.6124 25.1589 10.6124C25.2618 10.5854 25.3054 10.7034 25.3497 10.7713C27.1636 14.2757 28.9808 17.7784 30.8012 21.2797C30.8448 21.401 30.9842 21.3535 31.0805 21.3634C34.0957 21.3581 37.1116 21.3667 40.1268 21.3581C40.5094 21.361 40.8917 21.3335 41.2701 21.2757C41.4145 21.2548 41.5514 21.197 41.6678 21.1079C41.7842 21.0187 41.8763 20.9011 41.9355 20.766C42.1002 20.3551 42.0546 19.8928 41.9453 19.4741C41.8616 19.3611 41.7551 19.2674 41.633 19.1992C41.5109 19.131 41.3759 19.0898 41.2369 19.0784C40.4556 19.0079 39.6743 19.0474 38.893 19.0178C37.1572 19.0065 35.422 19.0224 33.6842 19.0098C33.0208 19.0033 32.3508 19.0455 31.6919 18.9881C30.6992 17.0744 29.7067 15.1571 28.7145 13.2364C28.6429 13.111 28.5844 12.9784 28.54 12.8407C28.2197 12.3547 27.9911 11.812 27.7079 11.3029C27.6031 11.0582 27.4279 10.8419 27.3843 10.5781ZM33.041 13.9604C33.0813 14.1174 33.1712 14.2539 33.2435 14.397C33.5482 14.9661 33.8412 15.5425 34.1407 16.1175C34.1784 16.2355 34.3086 16.2045 34.4011 16.2098C36.051 16.2039 37.7015 16.2138 39.3494 16.2039C39.882 16.1801 40.423 16.1914 40.9471 16.0773C41.2336 16.0192 41.4205 15.7476 41.468 15.4726C41.5527 15.0466 41.5409 14.5427 41.2278 14.2097C40.9537 13.9862 40.5838 14.0231 40.255 13.9881C37.8571 13.9413 35.4487 13.9749 33.041 13.9604Z" fill="#00AAAD"/>
<path d="M119.8 10.5782H124.844C124.797 10.7549 124.641 10.8565 124.519 10.9771C122.206 13.1665 119.89 15.3526 117.571 17.5354C117.548 17.5486 117.528 17.5675 117.513 17.5906C117.499 17.6136 117.49 17.64 117.489 17.6672C117.487 17.6944 117.492 17.7216 117.504 17.7463C117.515 17.7709 117.532 17.7923 117.554 17.8084C120.067 20.125 122.594 22.4245 125.102 24.7471C124.539 24.7933 123.972 24.7557 123.409 24.7669C122.281 24.7669 121.152 24.7669 120.024 24.7669C119.978 24.7728 119.932 24.7677 119.889 24.752C119.845 24.7363 119.807 24.7105 119.775 24.6765C117.905 22.9439 116.035 21.2127 114.164 19.4827C113.734 19.1233 113.14 18.9314 112.592 19.0831C112.184 19.215 111.922 19.6449 111.914 20.0663C111.892 21.6286 111.933 23.1934 111.894 24.7544C111.178 24.7807 110.457 24.7583 109.74 24.7656C109.03 24.7497 108.317 24.7985 107.611 24.7405C107.623 20.0644 107.611 15.3889 107.615 10.7127C107.6 10.5808 107.769 10.625 107.846 10.6144C109.197 10.6224 110.548 10.6065 111.898 10.6224C111.926 12.1879 111.898 13.7547 111.913 15.3203C111.952 15.9138 112.517 16.4367 113.115 16.3378C113.621 16.2402 114.087 15.9928 114.454 15.6269C116.202 13.9104 118.013 12.2565 119.8 10.5782Z" fill="#00AAAD"/>
<path d="M47.9629 10.6552C48.1582 10.5582 48.3861 10.6136 48.5964 10.6116C52.5895 10.6017 56.5827 10.6116 60.5764 10.6116C60.9905 10.6222 61.4066 10.5839 61.8174 10.6571C62.6209 10.6921 63.4608 10.8002 64.1503 11.2506C64.8287 11.6707 65.2571 12.4304 65.3724 13.2165C65.4967 13.8456 65.4524 14.4905 65.4251 15.1289C65.36 15.6927 65.2617 16.2895 64.901 16.7472C64.593 17.1488 64.132 17.4125 63.6541 17.5497C63.658 17.5622 63.6659 17.586 63.6691 17.5978C64.3326 17.6994 65.0364 17.9401 65.4355 18.5211C65.9232 19.2669 65.9759 20.1967 65.9896 21.0646C65.9583 22.0122 65.8965 23.0673 65.2382 23.8092C64.7708 24.3711 64.0187 24.5128 63.3436 24.6441C62.2953 24.7608 61.2392 24.7298 60.1864 24.7456C56.1113 24.7351 52.0361 24.7456 47.9609 24.7384C47.9635 20.044 47.9642 15.3496 47.9629 10.6552ZM52.2601 13.959C52.2601 14.6119 52.2601 15.2654 52.2601 15.9182C52.2672 16.0132 52.2399 16.12 52.2933 16.2057C53.7966 16.1972 55.3 16.2057 56.8034 16.2018C57.9545 16.2018 59.1076 16.2242 60.2542 16.1306C60.5465 16.1049 60.8831 16.0112 61.0114 15.7118C61.1846 15.2812 61.2171 14.7431 60.9684 14.3362C60.7405 13.9854 60.2848 14.0065 59.9195 13.9814C57.3666 13.9366 54.813 13.9616 52.2601 13.959ZM52.2549 19.0308C52.2646 19.8103 52.2549 20.5898 52.2614 21.3692C54.7518 21.3692 57.2422 21.3732 59.7326 21.3653C60.1656 21.356 60.609 21.3574 61.0296 21.2439C61.4203 21.1444 61.654 20.7329 61.6586 20.3431C61.6761 20.0009 61.6748 19.6111 61.4307 19.3434C61.182 19.0658 60.7796 19.0658 60.4404 19.0539C58.9433 19.0231 57.4471 19.0115 55.9518 19.019C54.7192 19.0236 53.4867 19.0038 52.2549 19.0308Z" fill="#00AAAD"/>
<path d="M73.0884 10.6555C73.4231 10.5632 73.7773 10.6252 74.121 10.618C75.8562 10.6226 77.5914 10.6074 79.3265 10.6213C79.4691 10.6311 79.6853 10.5652 79.7634 10.7294C81.4996 14.0922 83.2359 17.4554 84.9721 20.819C85.2195 21.2668 85.4129 21.7488 85.7248 22.1577C85.9201 22.4162 86.3479 22.43 86.5471 22.1709C86.7033 21.9677 86.661 21.6967 86.6682 21.4573C86.6682 17.8963 86.6669 14.3353 86.6643 10.7742C86.6688 10.7419 86.6786 10.6767 86.6832 10.6424C87.0933 10.5889 87.5107 10.6186 87.9241 10.6147C89.921 10.6094 91.9173 10.6331 93.9142 10.6067C94.0945 10.5758 94.1642 10.7749 94.256 10.8916C95.8238 13.219 97.3931 15.544 98.964 17.8666C99.0291 17.9649 99.0942 18.1245 99.2394 18.0585C99.0903 18.0427 99.1613 18.1944 99.2257 18.2564C99.6939 18.9283 100.137 19.6142 100.603 20.2908C100.716 20.4543 100.857 20.6403 101.074 20.6482C101.39 20.6917 101.66 20.3844 101.652 20.0778C101.652 17.1524 101.652 14.2269 101.652 11.3011C101.66 11.0835 101.63 10.8626 101.672 10.6476C101.859 10.5817 102.058 10.6279 102.252 10.6213C103.464 10.618 104.678 10.6054 105.89 10.6213C106.032 10.7057 105.938 10.9042 105.955 11.038C105.95 15.6107 105.962 20.1833 105.949 24.7546C104.023 24.7823 102.095 24.7585 100.169 24.7664C99.6476 24.7513 99.1268 24.7981 98.6131 24.7427C96.3805 21.5358 94.1752 18.3065 91.9479 15.095C91.8528 14.967 91.7825 14.7995 91.6223 14.7422C91.3879 14.6235 91.0402 14.7059 90.938 14.9651C90.841 15.1352 90.8729 15.337 90.869 15.5243C90.8738 17.6112 90.8773 19.6995 90.8794 21.789C90.8723 22.7782 90.9022 23.7674 90.8684 24.7493C88.0544 24.7368 85.2397 24.7632 82.4263 24.7335C80.6098 21.212 78.7731 17.7004 76.9533 14.1823C76.8608 13.9779 76.7091 13.7629 76.4656 13.7523C76.2176 13.7042 75.9975 13.8776 75.8959 14.0952C75.1654 15.4108 74.5143 16.7686 73.8202 18.104C73.7629 18.2669 73.634 18.4001 73.6178 18.5769C73.4875 18.6659 73.4674 18.8406 73.4029 18.9725C74.7168 19.0128 76.0372 18.9811 77.3537 18.9884C77.9006 19.9821 78.3954 21.0063 78.9202 22.0126L78.8935 22.0831C76.7586 22.0779 74.6237 22.0831 72.4888 22.0831C72.0512 22.0607 71.6424 22.3337 71.4379 22.7195C71.0941 23.3981 70.7425 24.0727 70.3962 24.7506C68.86 24.7541 67.3243 24.7541 65.7891 24.7506C65.8278 24.6267 65.8811 24.5081 65.9479 24.3972C67.9607 20.5178 69.9699 16.6396 71.9757 12.7625C72.3527 12.0635 72.686 11.3387 73.0884 10.6555Z" fill="#00AAAD"/>
<path d="M11.5007 27.794L11.6764 27.7755C51.8057 27.7755 91.9345 27.7755 132.063 27.7755C132.28 27.7795 132.504 27.7491 132.714 27.821V39.0007H11.498C11.5052 35.2656 11.4993 31.5298 11.5007 27.794ZM60.6331 28.9111C60.5498 29.1839 60.4911 29.4637 60.458 29.7473C61.0381 29.893 61.6228 30.0203 62.2049 30.1601C62.4822 30.2089 62.7466 30.3217 63.0291 30.3428C63.0767 30.0711 63.1515 29.806 63.2206 29.5396C62.3585 29.3299 61.5004 29.0931 60.6331 28.9111ZM32.9859 29.7196C32.9677 29.8653 33.0732 29.9755 33.1246 30.1014C33.1702 30.1977 33.1897 30.3177 33.2848 30.3804C33.721 30.1825 34.1566 29.9722 34.6026 29.7987C35.046 29.959 35.4607 30.1944 35.9009 30.3652L35.9855 30.3256C36.0617 30.1324 36.2277 29.953 36.2062 29.7354C35.7667 29.5494 35.3468 29.32 34.9119 29.1254C34.7895 29.0793 34.6736 28.9579 34.5342 29.0034C34.0192 29.2408 33.5081 29.4941 32.9859 29.7196ZM110.74 29.0601C110.681 29.3483 110.59 29.6365 110.596 29.9339C111.449 30.0909 112.283 30.3672 113.136 30.4958C113.196 30.232 113.286 29.9755 113.305 29.7044C112.455 29.4789 111.595 29.2797 110.74 29.0608V29.0601ZM24.7581 30.7312C24.3642 30.7787 23.9456 30.8044 23.6077 31.0391C23.4963 31.1216 23.3472 31.2106 23.342 31.3689C23.2649 31.4261 23.206 31.5049 23.1727 31.5957C22.9416 32.213 22.9728 32.8836 22.9631 33.5319C22.9748 34.1471 22.9429 34.771 23.0731 35.3783C23.1727 35.9309 23.7196 36.3128 24.249 36.355C24.7047 36.4921 25.1976 36.473 25.6736 36.4869C26.3676 36.5179 27.0643 36.5271 27.757 36.4902C28.3487 36.5047 28.9397 36.4408 29.515 36.3002C29.7377 36.2378 29.9384 36.1127 30.0938 35.9395C30.2493 35.7663 30.3531 35.5521 30.3933 35.3216C30.4871 34.6239 30.4584 33.9183 30.4721 33.216C29.1575 33.2002 27.843 33.216 26.5278 33.2127C26.5278 33.584 26.5232 33.9546 26.5278 34.3258C27.2785 34.3601 28.0325 34.3324 28.7838 34.339C28.7779 34.5415 28.8131 34.7703 28.6953 34.947C28.4954 35.133 28.203 35.1152 27.9504 35.1356C27.0174 35.1541 26.0792 35.1779 25.1507 35.0697C24.9131 35.0361 24.7757 34.8171 24.7405 34.5942C24.6889 34.1306 24.673 33.6636 24.693 33.1975C24.7184 32.9021 24.7015 32.5829 24.8753 32.327C25.0094 32.1688 25.2315 32.1556 25.4196 32.1173C26.0464 32.0709 26.6753 32.0603 27.3032 32.0857C27.7186 32.1042 28.1496 32.0593 28.5488 32.1912C28.7324 32.2796 28.7376 32.4998 28.7513 32.6772C29.0449 32.7234 29.3483 32.6825 29.6459 32.6963C29.9206 32.6752 30.2077 32.7392 30.4747 32.6627C30.4552 32.2077 30.4552 31.7164 30.2143 31.3148C29.9252 30.8914 29.3893 30.811 28.9238 30.7404C27.5378 30.6225 26.1446 30.6194 24.7581 30.7312ZM76.3986 30.7173C75.8881 30.7582 75.3269 30.7668 74.9011 31.0893C74.4414 31.4757 74.3802 32.1299 74.3464 32.6937C74.3314 33.4099 74.3249 34.128 74.3639 34.8435C74.405 35.1732 74.4388 35.5227 74.6198 35.8103C74.8629 36.0903 75.1892 36.2829 75.5496 36.3589C76.3003 36.5172 77.0718 36.4638 77.8329 36.506C78.8096 36.4908 79.8018 36.5416 80.7629 36.3286C81.2368 36.2336 81.6744 35.867 81.7584 35.3691C81.8612 34.7617 81.8371 34.1425 81.8495 33.5292C81.8385 33.4211 81.8769 33.2978 81.8144 33.2028C80.5122 33.1988 79.21 33.2004 77.9078 33.2074C77.9026 33.5785 77.9026 33.9497 77.9078 34.3212C78.6572 34.3549 79.4099 34.3212 80.1606 34.3364C80.1547 34.5705 80.2146 34.8976 79.9601 35.0222C79.6345 35.1475 79.2784 35.1264 78.9372 35.1416C78.1559 35.1416 77.3694 35.1653 76.5933 35.0756C76.4685 35.0641 76.3519 35.0076 76.2646 34.9166C76.1773 34.8255 76.125 34.7058 76.1173 34.5791C76.0431 33.8537 75.9917 33.0946 76.1824 32.3805C76.355 32.1536 76.6512 32.12 76.9136 32.1022C77.4996 32.0811 78.0901 32.0455 78.6787 32.0824C79.0961 32.1028 79.5251 32.0534 79.9308 32.1925C80.1502 32.2789 80.0382 32.5466 80.1573 32.6983C80.714 32.6851 81.2714 32.7029 81.8287 32.6884C81.8427 32.4145 81.827 32.1398 81.7818 31.8694C81.7466 31.4342 81.4458 31.0121 81.0207 30.9007C80.2628 30.6679 79.4581 30.6718 78.6768 30.6553C77.9143 30.6514 77.1552 30.6448 76.4006 30.7173H76.3986ZM14.3928 30.7358C14.3707 32.6251 14.4 34.5158 14.3785 36.4071C14.9644 36.4308 15.5563 36.4262 16.1442 36.4104C16.1247 35.1653 16.124 33.9196 16.1117 32.6746C16.1058 32.5051 16.0811 32.3323 16.1292 32.1668C16.3109 32.1378 16.3897 32.3178 16.4776 32.4431C17.3787 33.722 18.2787 35.0013 19.1776 36.2811C19.2252 36.3398 19.2649 36.44 19.3593 36.4196C20.332 36.4196 21.305 36.4196 22.2781 36.4196C22.2736 34.5204 22.2944 32.6205 22.2677 30.7219C21.6961 30.7378 21.1237 30.7332 20.5521 30.7219C20.4915 30.9943 20.5339 31.2759 20.5339 31.5522C20.554 32.6858 20.5443 33.8194 20.5723 34.953C20.5511 34.9678 20.527 34.9777 20.5016 34.982C20.4762 34.9864 20.4502 34.985 20.4254 34.9781C20.4006 34.9712 20.3775 34.9589 20.3579 34.942C20.3383 34.9251 20.3226 34.9041 20.3118 34.8804C19.358 33.491 18.3696 32.1259 17.4275 30.7292C16.4183 30.7332 15.4059 30.7167 14.3947 30.7358H14.3928ZM50.1851 30.7246C50.1753 32.6198 50.1936 34.5158 50.176 36.411C50.7769 36.4282 51.3786 36.4156 51.9795 36.4163C52.0375 35.7305 51.9496 35.0315 52.0238 34.3502C53.3129 34.3707 54.604 34.3364 55.8919 34.3674C55.9179 35.0486 55.8997 35.7324 55.9004 36.415C57.0248 36.409 58.1479 36.4592 59.2717 36.4308C59.3824 36.4268 59.4019 36.2989 59.4488 36.2218C59.5992 35.9514 59.6812 35.5669 60.0172 35.4766C60.9489 35.4614 61.8819 35.4799 62.8169 35.466V35.3843C62.6216 35.0169 62.4392 34.645 62.2387 34.2823L62.145 34.2315C61.5811 34.2223 61.0173 34.2355 60.4521 34.2263C60.7165 33.6572 61.0127 33.1052 61.2927 32.5414C61.3988 32.3475 61.4685 32.1233 61.6443 31.9795C61.8988 31.936 61.9373 32.2697 62.0479 32.4312C62.7081 33.7607 63.3788 35.0855 64.0383 36.4156C64.2909 36.4592 64.5475 36.4295 64.8027 36.4381C65.7201 36.4308 66.6388 36.4539 67.5562 36.4308C67.5894 36.324 67.5718 36.2105 67.575 36.1011C67.5664 34.9809 67.5579 33.8598 67.5496 32.7379C67.5555 32.6225 67.5379 32.4972 67.5887 32.3904C67.6073 32.3706 67.6296 32.355 67.6544 32.3444C67.6792 32.3339 67.7059 32.3286 67.7328 32.329C67.7597 32.3294 67.7862 32.3354 67.8107 32.3466C67.8352 32.3578 67.8572 32.3741 67.8752 32.3943C68.7728 33.6824 69.6681 34.9725 70.5609 36.2646C70.6189 36.3431 70.6749 36.4625 70.7953 36.4387C71.744 36.4249 72.6972 36.4658 73.6432 36.4176C73.6393 34.5571 73.6393 32.6968 73.6432 30.8367C73.0715 30.782 72.4895 30.8057 71.9165 30.8228C71.9165 32.1998 71.9562 33.5767 71.9386 34.9536C71.8937 34.967 71.8458 34.9664 71.8012 34.9518C71.7566 34.9372 71.7173 34.9094 71.6886 34.8719C71.4041 34.5336 71.1762 34.1504 70.9138 33.7943C70.2341 32.8157 69.5531 31.8375 68.8707 30.8598L68.7815 30.811C67.8049 30.8149 66.8282 30.7879 65.8601 30.8248C65.851 32.2308 65.8601 33.6374 65.8562 35.0453C65.849 35.195 65.8431 35.3539 65.7592 35.4838C65.5137 35.5267 65.3815 35.2735 65.2852 35.0882C64.5397 33.6499 63.7961 32.2083 63.0467 30.7681C62.1476 30.7609 61.2465 30.747 60.3486 30.7813C59.5022 32.455 58.5965 34.1023 57.7319 35.7681C57.6928 34.0931 57.754 32.4148 57.7013 30.7404C57.2071 30.7127 56.7103 30.7404 56.2155 30.7279C56.1113 30.7345 55.998 30.7081 55.903 30.7602C55.903 31.4243 55.9127 32.089 55.8997 32.7531C54.7037 32.7873 53.5044 32.7583 52.3077 32.7682C52.2035 32.761 52.0921 32.7873 51.9964 32.7399C52.0023 32.1694 51.9964 31.5984 52.0003 31.0253C52.005 30.9206 51.9913 30.8159 51.96 30.716C51.3694 30.7371 50.7782 30.7266 50.1871 30.7246H50.1851ZM33.2477 30.7793C32.7776 31.7382 32.2502 32.668 31.7619 33.615C31.2781 34.5501 30.7612 35.4693 30.2976 36.4137C30.9044 36.4605 31.5151 36.4229 32.1206 36.4348C32.2847 36.4585 32.3029 36.256 32.3733 36.1525C32.5152 35.8986 32.6031 35.5307 32.9325 35.472C33.8551 35.4515 34.7829 35.4957 35.7029 35.4489C35.6788 35.2583 35.5564 35.1033 35.4796 34.9325C35.3546 34.705 35.2498 34.465 35.1098 34.2467C34.5342 34.1986 33.9443 34.2401 33.3636 34.2276C33.6416 33.5681 34.001 32.945 34.305 32.2967C34.3799 32.1523 34.4919 31.9228 34.6892 31.9848C34.8552 32.1582 34.9099 32.4088 35.0362 32.6113C35.6756 33.8787 36.3019 35.1528 36.9472 36.417C37.2017 36.4506 37.4589 36.4295 37.7148 36.4348C38.6309 36.4308 39.5476 36.4479 40.4637 36.4301C40.4897 35.1772 40.45 33.9196 40.4429 32.6653C40.4552 32.548 40.4383 32.364 40.5854 32.3303C40.7606 32.2875 40.8342 32.4873 40.9188 32.5994C41.77 33.8233 42.6192 35.0484 43.4665 36.2745C43.5127 36.3365 43.5486 36.4268 43.6384 36.4348C44.531 36.4414 45.4237 36.4348 46.3163 36.4381C46.4094 36.4381 46.5846 36.4473 46.5436 36.2969C46.5286 34.4729 46.5624 32.6462 46.5266 30.8235C45.9567 30.7935 45.3855 30.7935 44.8156 30.8235C44.7739 31.2159 44.8332 31.6115 44.8247 32.0052C44.8299 32.9074 44.8436 33.8095 44.8468 34.709C44.8482 34.7965 44.8343 34.8835 44.8058 34.9662C44.6157 34.9721 44.518 34.7815 44.4152 34.6529C43.5596 33.4132 42.6878 32.1846 41.8375 30.9409C41.788 30.8749 41.7281 30.7833 41.6311 30.8031C40.6766 30.8116 39.7202 30.7853 38.7663 30.8169C38.7437 30.9696 38.7372 31.1244 38.7468 31.2785C38.7468 32.5532 38.7533 33.828 38.7468 35.1033C38.7561 35.2327 38.729 35.3622 38.6686 35.4766C38.3073 35.5267 38.2096 35.0809 38.056 34.8415C37.3632 33.4837 36.6444 32.1345 35.9569 30.7707C35.0525 30.7628 34.1494 30.7496 33.2496 30.7793H33.2477ZM86.5133 30.8453C85.5905 32.5932 84.6703 34.3423 83.7527 36.0925C83.6687 36.2626 83.5489 36.4176 83.5059 36.6056C84.1602 36.5983 84.8152 36.6122 85.4696 36.5983C85.6037 36.3708 85.6968 36.1222 85.829 35.894C85.8676 35.8189 85.9246 35.7552 85.9947 35.709C86.0647 35.6628 86.1453 35.6356 86.2287 35.6302C87.1578 35.6177 88.0883 35.6395 89.018 35.619C88.8318 35.2484 88.6365 34.8831 88.4516 34.5118C88.4184 34.432 88.3467 34.343 88.2504 34.3654C87.7074 34.3654 87.1644 34.3654 86.6227 34.3654C86.6391 34.2529 86.6786 34.1451 86.7385 34.0489C87.0498 33.4395 87.3402 32.8197 87.6703 32.2209C87.7236 32.0534 87.9815 32.0356 88.0394 32.2103C88.7726 33.6725 89.5026 35.1365 90.2297 36.6023C91.4082 36.5963 92.5873 36.6168 93.7664 36.6023C93.8432 36.5251 93.782 36.3906 93.8016 36.2917C93.8016 35.2365 93.7612 34.1814 93.7651 33.1263C93.7716 32.9159 93.728 32.6944 93.8113 32.4939C93.9077 32.3811 94.0841 32.4425 94.1473 32.5598C95.0686 33.9077 96.0075 35.2438 96.9229 36.5957C97.9275 36.6095 98.9321 36.6023 99.9368 36.6009C99.9329 34.7017 99.9283 32.8025 99.9368 30.904C99.3508 30.8796 98.7707 30.8967 98.1886 30.8941C98.16 31.5482 98.1945 32.2057 98.1919 32.8612C98.1866 33.6064 98.2654 34.3575 98.1919 35.0994C98.1085 35.0934 98.0128 35.104 97.962 35.0249C97.7257 34.7499 97.5356 34.4373 97.3279 34.1405C96.5719 33.0643 95.8304 31.9769 95.0751 30.9007C94.0659 30.8862 93.0567 30.8881 92.0456 30.9007C92.0521 32.3884 92.056 33.8768 92.0456 35.3645C92.0599 35.5208 91.9414 35.6975 91.7734 35.6104C91.5423 35.4647 91.4681 35.1746 91.3326 34.951C91.2408 34.7354 91.0722 34.5454 91.0533 34.3061C90.9602 34.2401 90.9133 34.1313 90.858 34.035C90.3371 33.0261 89.8162 32.0167 89.2954 31.0068C89.2517 30.9508 89.2394 30.8261 89.1463 30.8413C88.2738 30.8426 87.3929 30.8446 86.5152 30.8453H86.5133ZM103.1 30.902C103.1 32.8045 103.093 34.707 103.1 36.6095C104.983 36.6003 106.865 36.6267 108.747 36.5911C109.107 36.5482 109.506 36.5455 109.809 36.3121C110.149 36.0173 110.183 35.5287 110.203 35.1079C110.189 34.6866 110.167 34.1847 109.798 33.9097C109.65 33.7778 109.437 33.7983 109.277 33.6934C109.466 33.6342 109.632 33.5182 109.753 33.3609C109.875 33.2036 109.946 33.0125 109.958 32.8131C109.986 32.2651 110.048 31.6129 109.624 31.1928C109.271 30.9092 108.789 30.929 108.363 30.9112C106.614 30.8894 104.858 30.8987 103.102 30.902H103.1ZM113.828 30.902C113.795 32.7003 113.828 34.5013 113.813 36.3002C113.818 36.4031 113.794 36.5146 113.841 36.6108C114.315 36.6069 114.789 36.6108 115.263 36.6108C115.362 36.6042 115.472 36.6306 115.567 36.5825C115.554 35.346 115.549 34.1095 115.538 32.8731C115.543 32.7577 115.521 32.6344 115.569 32.5262C115.622 32.3989 115.798 32.4286 115.879 32.5117C116.806 33.8807 117.767 35.228 118.685 36.6003C119.688 36.6187 120.691 36.6003 121.694 36.6089C121.703 34.7057 121.694 32.8032 121.699 30.9C121.117 30.8974 120.536 30.8974 119.955 30.9C119.912 31.3339 119.968 31.7718 119.964 32.207C119.968 33.0867 119.983 33.9658 119.986 34.8448C119.986 34.9497 119.986 35.0743 119.892 35.1422C119.555 34.9444 119.411 34.5454 119.165 34.2546C118.409 33.1336 117.61 32.0408 116.866 30.9119C115.857 30.8815 114.843 30.904 113.83 30.9013L113.828 30.902ZM111.058 30.9785C111.066 32.8091 111.058 34.6397 111.063 36.471C111.632 36.4658 112.201 36.4638 112.77 36.471C112.825 36.3325 112.802 36.1809 112.806 36.0358C112.806 34.9367 112.806 33.8359 112.806 32.7333C112.79 32.1464 112.838 31.5535 112.781 30.9712C112.209 30.9772 111.634 30.9666 111.06 30.9778L111.058 30.9785ZM122.571 30.9732C122.566 32.8065 122.556 34.6404 122.576 36.4737C123.148 36.4611 123.721 36.4651 124.294 36.4697C124.299 35.929 124.294 35.3876 124.294 34.8461C124.294 34.7195 124.275 34.5883 124.327 34.4689C125.556 34.4795 126.785 34.4749 128.014 34.4689C128.022 34.4966 128.039 34.552 128.048 34.5797C128.056 35.2082 128.048 35.8373 128.048 36.4658C128.62 36.4658 129.192 36.4592 129.764 36.4658C129.777 36.3866 129.786 36.3066 129.79 36.2264C129.79 35.1049 129.79 33.9838 129.79 32.8632C129.776 32.2321 129.817 31.5977 129.766 30.9686C129.192 30.9739 128.619 30.9607 128.045 30.9745C128.045 31.6247 128.061 32.2769 128.037 32.9265C127.554 32.9608 127.069 32.9324 126.585 32.9417C125.825 32.9331 125.064 32.9588 124.306 32.9278C124.276 32.2769 124.302 31.6241 124.295 30.9719C123.724 30.9686 123.148 30.9739 122.573 30.9725L122.571 30.9732Z" fill="#00AAAD"/>
<path d="M104.747 32.2437C105.759 32.2437 106.771 32.2351 107.782 32.2496C107.945 32.2562 108.151 32.245 108.254 32.4032C108.314 32.5105 108.338 32.6341 108.323 32.7562C108.309 32.8784 108.256 32.9926 108.173 33.0825C107.529 33.1972 106.871 33.1333 106.22 33.1484C105.731 33.1484 105.243 33.1484 104.754 33.1484C104.733 32.8473 104.731 32.5451 104.747 32.2437Z" fill="#00AAAD"/>
<path d="M104.743 34.2852C105.755 34.2964 106.766 34.2812 107.778 34.295C107.978 34.2997 108.188 34.2858 108.377 34.365C108.642 34.5799 108.588 35.1457 108.216 35.211C107.421 35.277 106.623 35.2387 105.828 35.2466C105.463 35.2394 105.096 35.2697 104.734 35.2282C104.741 34.9123 104.73 34.5991 104.743 34.2852Z" fill="#00AAAD"/>
<path d="M127.913 10.7822C127.959 10.7263 128.016 10.6817 128.081 10.652C128.147 10.6222 128.218 10.6081 128.289 10.6108C128.745 10.624 129.201 10.6154 129.657 10.6035C130.329 10.6523 131.002 10.5745 131.675 10.6187C131.87 10.6095 132.072 10.5831 132.261 10.6536C132.226 10.7202 132.179 10.7799 132.123 10.8297C129.779 13.0481 127.432 15.2658 125.082 17.4829C124.999 17.5488 124.841 17.6623 124.96 17.7724C127.358 19.9802 129.755 22.1896 132.15 24.4005C132.255 24.5106 132.411 24.5865 132.461 24.7395C131.137 24.7487 129.813 24.7434 128.489 24.7454C128.398 24.7395 128.294 24.7645 128.229 24.6867C125.746 22.4103 123.262 20.1356 120.776 17.8627C120.716 17.8034 120.556 17.721 120.656 17.626C120.973 17.3299 121.268 17.0028 121.624 16.7529C121.874 16.4363 122.19 16.1811 122.482 15.9042C124.289 14.1949 126.106 12.4902 127.913 10.7822Z" fill="#DF7630"/>
</svg>
