<svg width="144" height="50" viewBox="0 0 144 50" fill="none" xmlns="http://www.w3.org/2000/svg">
<rect width="144" height="50" rx="4" fill="white"/>
<path fill-rule="evenodd" clip-rule="evenodd" d="M90.5676 22.2837C92.1023 22.1612 93.637 22.1612 95.058 21.9163C96.4222 21.6713 96.8769 20.5689 96.9906 19.4666C97.1042 18.058 96.479 17.0782 95.2854 16.6495C93.7507 16.1596 92.1591 16.527 90.5676 16.4045C90.5676 18.3642 90.5676 20.2015 90.5676 22.2837ZM90.5676 33.4297C92.3297 33.3072 94.0917 33.3072 95.7969 33.0622C97.1611 32.8785 98.0137 31.7149 98.1274 30.4901C98.2979 28.2854 97.3884 27.3667 96.0811 26.9381C94.3191 26.3256 92.4433 26.6931 90.6244 26.5706C90.5676 28.8365 90.5676 31.0412 90.5676 33.4297ZM99.3779 24.0597C99.7757 24.2434 100.287 24.4884 100.742 24.7334C102.334 25.652 103.357 27.0605 103.755 28.959C104.039 30.4901 103.925 32.0211 103.357 33.4909C102.902 34.777 102.106 35.7568 101.026 36.4305C99.8326 37.1654 98.5253 37.6553 97.1611 37.7166C94.7169 37.839 92.216 37.9003 89.7718 37.9615C88.5214 37.9615 87.2709 37.9615 86.0772 37.9615C85.452 37.9615 85.2246 37.7166 85.2246 37.0429C85.2246 28.8978 85.2246 20.7527 85.2246 12.6688C85.2246 11.8726 85.3951 11.7502 86.1341 11.7502C88.9761 11.7502 91.8749 11.7502 94.717 11.7502C96.479 11.7502 98.1274 12.0564 99.7189 13.0362C101.254 13.9549 102.163 15.3634 102.504 17.2007C102.902 19.2216 102.447 20.9976 101.254 22.5287C100.685 23.0798 99.9463 23.5698 99.3779 24.0597Z" fill="#1E4BBC"/>
<path fill-rule="evenodd" clip-rule="evenodd" d="M50.891 17.6891C49.8678 20.9349 48.9584 24.1195 47.9921 27.304C49.9247 27.304 51.8004 27.304 53.7898 27.304C52.8235 24.1195 51.8572 20.9349 50.891 17.6891ZM51.1183 11.6875C51.8572 11.6875 52.653 11.6875 53.3919 11.6875C53.9035 11.6875 54.2445 11.8712 54.4719 12.4836C55.9497 16.8317 57.4276 21.1799 58.9054 25.528C60.2128 29.325 61.5201 33.122 62.7706 36.9189C63.0548 37.7763 62.9411 37.96 62.0885 37.96C60.6675 37.96 59.2465 37.96 57.8255 37.96C57.2571 37.96 56.916 37.6538 56.7455 37.1027C56.2339 35.5104 55.7224 33.9181 55.2677 32.3258C55.154 32.0196 55.0403 31.9584 54.8129 31.9584C52.2551 31.9584 49.6973 31.9584 47.0827 31.9584C46.7984 31.9584 46.6848 32.0809 46.6279 32.3871C46.1164 33.9794 45.6048 35.6329 45.1501 37.2251C44.8659 37.7151 44.5248 37.96 44.0133 37.96C42.5923 37.96 41.1713 37.96 39.7503 37.96C39.125 37.96 38.9545 37.7151 39.1818 37.1027C40.2618 34.0406 41.2849 31.0398 42.3649 27.9777C43.2175 25.528 44.0701 23.0784 44.9227 20.6287C45.8322 17.9953 46.7416 15.3007 47.6511 12.6673C47.9353 11.9324 48.2195 11.6875 48.9584 11.6875C49.6973 11.6875 50.3794 11.6875 51.1183 11.6875Z" fill="#1E4BBC"/>
<path fill-rule="evenodd" clip-rule="evenodd" d="M67.6017 24.8526C67.6585 28.4658 69.648 31.5279 72.7742 32.6303C75.3888 33.5489 77.7193 32.8752 79.7655 30.9155C80.2203 30.4868 80.4476 30.4868 80.8455 30.9155C81.6413 31.7729 82.437 32.6303 83.2328 33.4876C83.6307 33.9776 83.6307 34.4063 83.2328 34.8349C81.3571 36.7947 79.1403 37.9583 76.5256 38.387C74.5931 38.7544 72.6605 38.5707 70.7848 38.0195C69.0227 37.4683 67.488 36.4885 66.1239 35.2024C63.8502 33.0589 62.4292 30.3643 61.9745 27.241C61.3493 23.1378 62.145 19.3409 64.646 16.0951C66.5217 13.5842 68.9659 11.9306 71.9784 11.3182C72.831 11.1345 73.6836 10.9508 74.5362 11.012C77.4919 11.1345 80.2203 12.0531 82.5507 14.1353C82.7212 14.3191 82.8918 14.4415 83.0623 14.6253C83.5738 15.0539 83.6307 15.4826 83.1191 16.0338C82.3802 16.8912 81.5844 17.7486 80.7318 18.606C80.3908 18.9122 79.9929 18.9734 79.595 18.606C78.515 17.6873 77.3214 16.9524 75.9572 16.7687C74.1383 16.5237 72.3763 16.8912 70.8416 18.0548C68.7954 19.6471 67.6585 21.9742 67.6017 24.8526Z" fill="#1E4BBC"/>
<path fill-rule="evenodd" clip-rule="evenodd" d="M80.046 25.3518C80.046 27.9955 77.8999 30.0859 75.1856 30.0859C72.5345 30.0859 70.2621 28.057 70.3253 25.2288C70.3884 22.5236 72.4714 20.6177 75.1856 20.6177C77.8368 20.5562 80.046 22.4621 80.046 25.3518Z" fill="#00A4E0"/>
</svg>
