<svg width="144" height="50" viewBox="0 0 144 50" fill="none" xmlns="http://www.w3.org/2000/svg">
<rect width="144" height="50" rx="4" fill="white"/>
<path d="M29.402 36.6384H25.7237L27.5628 32.5917L29.402 36.6384ZM29.2348 40.9478H34.362V40.4223C34.2506 40.4223 34.0277 40.4223 33.8047 40.3698C33.5818 40.3172 33.4146 40.2646 33.3031 40.2121C33.136 40.107 32.9688 40.0019 32.8573 39.8442C32.7458 39.7391 32.6344 39.5814 32.5786 39.3712L28.4545 30.3319H27.73C27.1727 31.5932 26.5039 33.0647 25.7237 34.6939C24.9992 36.3231 24.2747 37.7946 23.6617 39.1084C23.5502 39.3712 23.4387 39.5814 23.2715 39.7391C23.1601 39.8968 22.9372 40.0019 22.7142 40.1595C22.6028 40.2121 22.3798 40.3172 22.1569 40.3172C21.934 40.3698 21.7668 40.3698 21.5996 40.4223V40.9478H26.2253V40.4223C25.7794 40.4223 25.3336 40.3698 24.9992 40.2121C24.6091 40.107 24.4419 39.9493 24.4419 39.7391C24.4419 39.634 24.4419 39.5289 24.4976 39.4238C24.4976 39.3187 24.5534 39.1084 24.6648 38.8982C24.7206 38.688 24.832 38.4252 24.9435 38.1625C25.0549 37.8997 25.1664 37.5844 25.3336 37.269H29.7364L30.7395 39.634C30.7952 39.6865 30.7952 39.7391 30.7952 39.7917C30.7952 39.8442 30.7952 39.8968 30.7952 39.9493C30.7952 40.0544 30.6281 40.1595 30.3494 40.2121C30.0707 40.2646 29.6806 40.3172 29.2348 40.3698V40.9478ZM46.2328 36.6909C46.4557 36.6384 46.6229 36.6384 46.7901 36.6384V36.1128H41.4399V36.6384C41.6071 36.6384 41.8857 36.6909 42.2201 36.6909C42.5545 36.7435 42.8332 36.796 43.0004 36.8486C43.2233 36.9012 43.3348 37.0588 43.4462 37.2165C43.5019 37.3741 43.5577 37.5318 43.5577 37.742V38.3201C43.5577 38.5303 43.5577 38.688 43.5577 38.9508C43.5577 39.2136 43.5577 39.4763 43.5019 39.6865C43.3347 39.8442 43.0561 39.9493 42.6102 40.107C42.2201 40.2646 41.7185 40.3172 41.217 40.3172C40.5482 40.3172 39.9352 40.2121 39.3778 39.9493C38.8205 39.6865 38.4304 39.3712 38.0403 38.9508C37.6502 38.5303 37.3715 38.0574 37.2043 37.4793C37.0371 36.9012 36.9257 36.3231 36.9257 35.6399C36.9257 34.9041 37.0371 34.2734 37.2043 33.6428C37.3715 33.0647 37.6502 32.5391 38.0403 32.1713C38.3747 31.7508 38.8205 31.4355 39.3221 31.2253C39.8237 31.0151 40.3253 30.91 40.994 30.91C41.5514 30.91 42.0529 31.0151 42.4431 31.1727C42.8332 31.3304 43.2233 31.5932 43.5019 31.9085C43.7806 32.2238 44.0035 32.5391 44.1707 32.907C44.3379 33.2749 44.5051 33.6953 44.6166 34.0632H45.3411L45.1181 30.5421H44.4494L44.115 31.0151C43.7249 30.8048 43.279 30.6472 42.7217 30.4895C42.2201 30.3319 41.6071 30.2793 40.9383 30.2793C40.1023 30.2793 39.2664 30.437 38.4861 30.6997C37.7059 30.9625 37.0929 31.3304 36.5356 31.8034C35.9782 32.2764 35.5324 32.8545 35.198 33.5377C34.9193 34.2209 34.7522 34.9041 34.7522 35.6924C34.7522 36.4807 34.9194 37.2165 35.2537 37.8471C35.5881 38.4778 36.034 39.0559 36.5356 39.5289C37.0929 39.9493 37.7059 40.3172 38.4304 40.58C39.1549 40.8427 39.9352 40.9478 40.7154 40.9478C41.4399 40.9478 42.2201 40.8427 42.9446 40.7376C43.7249 40.58 44.4494 40.3698 45.2296 40.107C45.2296 39.9493 45.2296 39.7917 45.2296 39.5814C45.2296 39.3712 45.2296 39.0033 45.2296 38.4252V37.6369C45.2296 37.4793 45.2853 37.3216 45.3411 37.1639C45.3968 37.0588 45.5083 36.9537 45.7312 36.8486C45.8427 36.796 46.0098 36.7435 46.2328 36.6909ZM53.2549 35.4822H52.1403V30.91H53.5893C54.3695 30.91 54.9826 31.0676 55.3727 31.488C55.8185 31.8559 56.0414 32.3815 56.0414 33.0121C56.0414 33.7479 55.7628 34.3785 55.2612 34.799C54.7596 35.272 54.0909 35.4822 53.2549 35.4822ZM57.3233 40.9478H60.6114V40.4223C60.4442 40.4223 60.277 40.3698 60.0541 40.3698C59.8312 40.3698 59.664 40.3172 59.4968 40.2121C59.3296 40.107 59.1067 40.0019 58.8837 39.8442C58.6608 39.6865 58.4379 39.4763 58.1592 39.161C57.6019 38.4778 57.1003 37.8997 56.7102 37.4267C56.3201 36.9537 55.8185 36.3756 55.2055 35.6924C55.6513 35.5873 56.0415 35.4296 56.4316 35.272C56.8217 35.1143 57.1003 34.9566 57.379 34.6939C57.6577 34.4837 57.8806 34.1683 57.992 33.9056C58.1592 33.5902 58.215 33.2223 58.215 32.8019C58.215 32.3289 58.1035 31.961 57.8806 31.6457C57.6577 31.3829 57.379 31.0676 57.0446 30.91C56.6545 30.6997 56.2644 30.5421 55.8185 30.437C55.3727 30.3319 54.8711 30.2793 54.3695 30.2793H48.6849V30.8048C48.8521 30.8048 49.0193 30.8048 49.298 30.8574C49.5209 30.91 49.6881 30.91 49.8553 30.9625C50.0782 31.0151 50.1897 31.1202 50.2454 31.2778C50.3011 31.3829 50.3011 31.5406 50.3011 31.7508V39.4763C50.3011 39.6865 50.2454 39.8442 50.1897 39.9493C50.1339 40.0544 50.0225 40.1595 49.7996 40.2646C49.6881 40.3172 49.5209 40.3172 49.2423 40.3698C48.9636 40.3698 48.7964 40.4223 48.6292 40.4223V40.9478H53.8122V40.4223C53.645 40.4223 53.4221 40.3698 53.1434 40.3698C52.8648 40.3698 52.6976 40.3172 52.5861 40.2646C52.3632 40.2121 52.2517 40.107 52.196 39.9493C52.1403 39.8442 52.0845 39.6865 52.0845 39.4763V36.1128H53.3106C54.0351 36.9012 54.6482 37.6369 55.2612 38.3727C55.93 39.0559 56.5988 39.9493 57.3233 40.9478ZM61.8375 40.9478H67.3549V40.4749C67.1877 40.4749 66.909 40.4749 66.6304 40.4223C66.3517 40.3698 66.1845 40.3172 66.0173 40.3172C65.7944 40.2646 65.6829 40.1595 65.5715 40.0544C65.5157 39.9493 65.46 39.7917 65.46 39.6865V31.5932C65.46 31.4355 65.5157 31.3304 65.5715 31.1727C65.6272 31.0676 65.7944 30.9625 66.0173 30.91C66.1845 30.8574 66.4074 30.8048 66.6861 30.8048C66.909 30.8048 67.1319 30.7523 67.3549 30.7523V30.3319H61.8375V30.8048C62.0047 30.8048 62.2276 30.8574 62.5063 30.91C62.7849 30.9625 63.0078 31.0151 63.175 31.0676C63.398 31.1202 63.5652 31.2253 63.6209 31.3304C63.6766 31.4355 63.7323 31.9085 63.7323 32.0661V39.7917C63.7323 39.9493 63.6766 40.107 63.6209 40.2121C63.5652 40.3172 63.398 40.3698 63.2308 40.4749C63.1193 40.5274 62.8964 40.5274 62.6177 40.5274C62.3391 40.5274 62.1161 40.58 61.949 40.58V40.9478H61.8375ZM78.6126 38.1625C78.6126 38.7931 78.3339 39.3187 77.7209 39.7391C77.1078 40.1595 76.2719 40.3698 75.1572 40.3698C74.4327 40.3698 73.7639 40.3172 73.0394 40.1595V35.7975C73.2066 35.7975 73.4296 35.745 73.7082 35.745C73.9869 35.745 74.3213 35.745 74.7114 35.745C75.6031 35.745 76.3276 35.8501 76.9406 36.0603C77.5537 36.2705 77.9438 36.5858 78.2224 36.9537C78.4454 37.3741 78.6126 37.742 78.6126 38.1625ZM77.8881 34.1683C77.6651 34.4837 77.275 34.7464 76.8292 34.9041C76.3833 35.0618 75.7145 35.1669 74.7671 35.1669C74.4327 35.1669 74.0983 35.1669 73.8197 35.1669C73.541 35.1669 73.2624 35.1143 73.0394 35.0618V31.0151C73.541 30.91 74.0983 30.8574 74.7114 30.8574C75.8817 30.8574 76.7177 31.0676 77.3307 31.488C77.9438 31.9085 78.2224 32.434 78.2224 33.0647C78.2224 33.4851 78.111 33.853 77.8881 34.1683ZM79.8386 36.2705C79.3928 35.9026 78.724 35.6924 77.8881 35.5347C78.6126 35.3245 79.2256 35.0092 79.6157 34.5888C80.0058 34.1683 80.173 33.6953 80.173 33.1698C80.173 32.5391 79.9501 32.0136 79.4485 31.5406C78.9469 31.0676 78.2224 30.7523 77.3307 30.5421C76.7177 30.437 75.8817 30.3844 74.8786 30.3844H69.4169V30.6472H69.9185C70.4201 30.6472 70.7545 30.7523 70.9774 31.0151C71.1446 31.1727 71.2561 31.5932 71.2561 32.2764V39.161C71.2561 39.7391 71.2003 40.1595 71.0331 40.3172C70.8102 40.58 70.4201 40.7376 69.9185 40.7376H69.4169V41.0004H75.3802C76.7734 41.0004 77.8323 40.8953 78.5568 40.6851C79.2256 40.4749 79.7829 40.107 80.173 39.634C80.5631 39.161 80.7861 38.6355 80.7861 38.1099C80.7303 37.3216 80.4517 36.7435 79.8386 36.2705ZM90.2604 36.9012H85.9133L88.0869 32.6968L90.2604 36.9012ZM95.3319 40.6325C94.8303 40.6325 94.4402 40.4749 94.1058 40.3172C93.8272 40.107 93.4928 39.634 93.1584 38.9508L88.7556 30.3319H88.4212L84.0185 38.8982C83.6284 39.634 83.294 40.1595 82.9596 40.3698C82.7924 40.4749 82.458 40.58 81.9564 40.6325V40.8953H85.9133V40.6325C85.3003 40.6325 84.9102 40.5274 84.743 40.4223C84.5758 40.3172 84.4643 40.1595 84.4643 40.0019C84.4643 39.7917 84.5758 39.4763 84.7987 39.1084L85.6347 37.4793H90.4833L91.2635 38.9508C91.4864 39.4238 91.6536 39.7917 91.6536 40.0019C91.6536 40.1595 91.5979 40.3172 91.375 40.4223C91.2078 40.5274 90.8734 40.6325 90.3718 40.6325V40.8953H95.3319V40.6325V40.6325ZM108.596 30.5946H109.042V30.3319H104.639V30.5946H105.085C105.586 30.5946 105.921 30.6997 106.199 30.91C106.367 31.0676 106.478 31.488 106.478 32.1187V38.1625L98.7315 30.3319H95.3319V30.5946C95.722 30.5946 96.0007 30.5946 96.1679 30.6472C96.5022 30.7523 96.8366 30.8574 97.0038 30.9625C97.171 31.0676 97.5054 31.2778 97.8398 31.6457V38.9508C97.8398 39.5289 97.7841 40.107 97.6169 40.2646C97.394 40.5274 97.0038 40.6851 96.5023 40.6851H96.0564V40.9478H100.459V40.6851H99.9576C99.456 40.6851 99.1216 40.58 98.843 40.3698C98.6758 40.2121 98.62 39.634 98.62 39.0033V32.4866L106.924 40.8953H107.258V32.1187C107.258 31.5406 107.314 31.1727 107.481 31.0151C107.648 30.6997 108.039 30.5946 108.596 30.5946ZM123.086 40.9478V40.6851C122.529 40.6325 122.027 40.5274 121.47 40.2646C120.912 40.0544 120.299 39.5814 119.519 38.9508L114.894 35.0618L116.788 33.4326C117.903 32.434 118.516 31.9085 118.683 31.8034C119.129 31.4355 119.519 31.1727 119.854 31.0151C120.188 30.8574 120.467 30.7523 120.69 30.6997C120.912 30.6472 121.135 30.6472 121.414 30.5946V30.3319H116.788V30.5946H117.067C117.401 30.5946 117.624 30.6472 117.736 30.7523C117.847 30.8574 117.903 30.9625 117.903 31.0676C117.903 31.2253 117.792 31.3829 117.68 31.5932C117.29 32.0661 116.175 33.0121 114.336 34.4311C113.612 35.0092 113.166 35.3245 113.054 35.4296V32.1713C113.054 31.6457 113.11 31.3304 113.166 31.1202C113.222 30.9625 113.389 30.8574 113.556 30.7523C113.835 30.6472 114.113 30.5946 114.392 30.5946H114.838V30.3319H109.432V30.5946H109.878C110.156 30.5946 110.491 30.6472 110.714 30.8048C110.881 30.91 111.048 31.0151 111.104 31.1202C111.16 31.2778 111.215 31.6457 111.215 32.2238V39.1084C111.215 39.7391 111.16 40.1595 110.992 40.3172C110.769 40.58 110.379 40.6851 109.878 40.6851H109.432V40.9478H114.838V40.6851H114.448C114.169 40.6851 113.835 40.6325 113.612 40.4749C113.389 40.3698 113.277 40.2646 113.222 40.1595C113.166 40.0019 113.11 39.634 113.11 39.1084V35.6924L117.457 39.3187C117.792 39.5814 117.959 39.7917 118.07 39.8968C118.126 40.0019 118.126 40.107 118.126 40.2121C118.126 40.3172 118.07 40.4749 117.903 40.58C117.736 40.6851 117.457 40.7376 117.123 40.7376V41.0004H123.086V40.9478Z" fill="#F53453"/>
<path d="M83.1901 6.97617C83.1901 6.2029 82.4893 5.57023 81.6327 5.57023H77.1163L62.2432 18.9266V23.0038C62.2432 23.7771 62.944 24.4098 63.8006 24.4098H68.317L83.1901 10.9831V6.97617Z" fill="#E1203E"/>
<path d="M83.1901 11.8266L69.1736 24.4098H81.6327C82.4893 24.4098 83.1901 23.7771 83.1901 23.0038V11.8266ZM62.2432 18.0831L76.1818 5.57023H63.8006C62.944 5.57023 62.2432 6.2029 62.2432 6.97617V18.0831Z" fill="#253B2C"/>
<path d="M69.7217 24.2706C69.7217 24.2706 70.5004 23.9894 71.2791 23.8488C71.5906 23.7785 73.148 23.427 73.0701 21.9508C73.0701 21.529 72.3693 22.0914 72.3693 22.0914C72.3693 22.0914 71.1233 22.232 70.5782 22.5835C70.3446 22.6538 69.7217 23.2864 69.7217 24.2706Z" fill="#F0CE43"/>
<path d="M72.99 21.8799C72.8343 21.8799 72.6007 22.0204 72.5228 22.0907C72.5228 22.0907 71.2769 22.2313 70.7318 22.5125C70.4982 22.6531 69.9531 23.1452 69.8752 24.0591C70.1088 23.9888 70.7318 23.7779 71.3547 23.7076C71.8998 23.567 73.1457 23.2155 73.0679 21.8799C72.99 21.8799 72.99 21.8799 72.99 21.8799ZM69.6416 24.3402V24.2699C69.6416 23.2155 70.3424 22.5828 70.576 22.5125C71.1211 22.2313 72.2113 22.0907 72.367 22.0204C72.4449 21.9501 72.7564 21.7393 72.9121 21.7393C72.99 21.7393 73.1457 21.7393 73.1457 21.9501C73.2236 23.3561 71.8998 23.7779 71.2769 23.9185C70.576 24.0591 69.7973 24.3402 69.7195 24.3402H69.6416Z" fill="#F0CE43"/>
<path d="M75.2515 19.4922C75.2515 19.4922 75.5629 21.1793 74.0834 21.7417C73.4605 21.9526 72.526 22.2338 72.3703 22.3744C72.3703 22.3744 72.0588 21.1793 73.149 20.4763C73.5383 20.2655 74.2392 20.0546 74.7064 19.8437C75.0957 19.7031 75.2515 19.4922 75.2515 19.4922Z" fill="#F0CE43"/>
<path d="M75.1714 19.6298C75.0935 19.7001 74.8599 19.8407 74.6263 19.911L74.4706 19.9813C74.0033 20.1219 73.3804 20.3328 73.0689 20.5437C72.2123 21.1061 72.2902 21.9496 72.2902 22.2308C72.446 22.1605 72.7574 22.0199 73.2246 21.8793C73.4583 21.809 73.7697 21.7387 74.0033 21.5981C75.1714 21.2466 75.1714 20.0516 75.1714 19.6298ZM72.2902 22.4417V22.3011C72.2902 22.3011 71.9787 21.0358 73.0689 20.3328C73.3804 20.1219 74.0033 19.911 74.4706 19.7704L74.6263 19.7001C75.0157 19.5595 75.1714 19.3486 75.1714 19.3486H75.3271C75.3271 19.3486 75.6386 21.1061 74.0812 21.6684C73.8476 21.7387 73.614 21.809 73.3025 21.9496C72.9132 22.0902 72.4459 22.2308 72.3681 22.3011L72.2902 22.4417Z" fill="#F0CE43"/>
<path d="M76.0285 17.3829C76.0285 17.3829 76.9629 18.4374 75.9506 19.5621C75.717 19.8433 74.6268 20.476 74.3153 20.8275C74.3153 20.8275 73.7703 19.7027 74.3932 18.8592C74.549 18.578 75.2498 18.1562 75.4834 17.9453C75.7949 17.7344 76.0285 17.3829 76.0285 17.3829Z" fill="#F0CE43"/>
<path d="M76.0298 17.4531C75.9519 17.5937 75.7183 17.8046 75.5626 17.9452C75.329 18.1561 74.6282 18.5778 74.4724 18.859C73.9273 19.562 74.2388 20.4056 74.3167 20.6867C74.4724 20.5462 74.7839 20.3353 75.0954 20.1244C75.4069 19.9135 75.7962 19.6323 75.8741 19.4917C76.6528 18.5778 76.1856 17.7343 76.0298 17.4531ZM74.2388 20.8976L74.1609 20.8273C74.1609 20.757 73.6159 19.7026 74.3167 18.7887C74.4724 18.5075 75.1733 18.0155 75.4069 17.8749C75.6405 17.664 75.8741 17.3828 75.8741 17.3828L75.9519 17.3125L76.0298 17.3828C76.0298 17.3828 76.9643 18.4372 75.9519 19.7026C75.7962 19.8432 75.4847 20.0541 75.0954 20.3353C74.7839 20.5462 74.3946 20.8273 74.3167 20.9679L74.2388 20.8976Z" fill="#F0CE43"/>
<path d="M74.8582 15.1299C74.8582 15.1299 74.0016 15.622 74.5467 16.8873C74.6246 17.0279 75.2475 18.1526 75.3254 18.4338C75.3254 18.4338 76.5713 17.7309 76.0262 16.3952C75.9484 16.114 75.4033 15.3408 74.8582 15.1299Z" fill="#F0CE43"/>
<path d="M74.8603 15.2002C74.7046 15.2705 74.1595 15.7625 74.6267 16.8873C74.6267 16.9576 74.7046 17.0982 74.7825 17.2388C75.0161 17.6606 75.2497 18.0823 75.3275 18.3635C75.5611 18.1526 76.3398 17.52 75.9505 16.4655C75.9505 16.1843 75.4054 15.4111 74.8603 15.2002ZM75.2497 18.5744V18.4338C75.2497 18.2229 74.8603 17.6606 74.7046 17.2388C74.6267 17.0279 74.5488 16.8873 74.471 16.8873C73.848 15.5516 74.7825 15.0596 74.7825 15.0596C75.3275 15.2705 75.9505 16.114 76.0284 16.3952C76.4956 17.8011 75.2497 18.5041 75.2497 18.5041V18.5744Z" fill="#F0CE43"/>
<path d="M72.6813 13.3047C72.6813 13.3047 72.3698 14.1482 73.0706 14.9215C73.3821 15.273 74.7059 15.6245 75.3289 15.976C75.251 16.0463 76.0297 13.9374 72.6813 13.3047Z" fill="#F0CE43"/>
<path d="M72.6785 13.4423C72.6007 13.6532 72.5228 14.2859 73.0679 14.9186C73.2236 15.0592 73.6908 15.2701 74.1581 15.4809C74.5474 15.6215 74.9368 15.7621 75.2482 15.973C75.3261 15.7621 75.3261 15.1998 75.0146 14.7077C74.6253 14.0047 73.8466 13.6532 72.6785 13.4423ZM75.3261 16.1136L75.2482 16.0433C75.0146 15.9027 74.5474 15.6918 74.1581 15.5512C73.6908 15.3403 73.2236 15.1998 73.0679 14.9889C72.3671 14.2156 72.6007 13.372 72.6785 13.3017V13.2314H72.7564C74.0023 13.4423 74.781 13.8641 75.2482 14.4968C75.7155 15.1998 75.4819 15.973 75.4819 15.973L75.3261 16.1136Z" fill="#F0CE43"/>
<path d="M70.8104 11.8252C70.8104 11.8252 73.6915 12.0361 73.3022 14.4262C73.3022 14.4262 72.6792 14.0747 72.1341 13.8638C71.9005 13.7935 70.7325 13.442 70.8104 12.4579C70.8104 12.1767 70.8104 11.8252 70.8104 11.8252Z" fill="#F0CE43"/>
<path d="M70.8908 11.8984C70.8908 12.039 70.8908 12.2499 70.8908 12.4608C70.8129 13.3043 71.6695 13.6558 72.0588 13.7964C72.1367 13.7964 72.1367 13.7964 72.1367 13.8667C72.526 14.0073 73.0711 14.2885 73.2269 14.3588C73.3047 13.7261 73.149 13.234 72.8375 12.8123C72.2146 12.1093 71.1244 11.9687 70.8908 11.8984ZM73.3826 14.5697L73.2269 14.4994C73.2269 14.4994 72.6039 14.1479 72.0588 13.937C72.0588 13.937 71.981 13.937 71.981 13.8667C71.5916 13.7261 70.6572 13.3746 70.7351 12.3905C70.7351 12.1093 70.7351 11.8281 70.7351 11.8281V11.7578H70.8129C70.8908 11.7578 72.2146 11.8281 72.9933 12.6717C73.3826 13.0935 73.5383 13.7261 73.4605 14.3588L73.3826 14.5697Z" fill="#F0CE43"/>
<path d="M70.811 9.57548C70.811 9.57548 69.7208 10.3487 70.2659 11.5438C70.3438 11.7547 70.8889 12.4577 71.2003 12.5982C71.2003 12.5982 71.5118 11.7547 71.7454 11.122C71.8233 10.8408 72.0569 9.85667 71.3561 9.50519C71.0446 9.2943 70.811 9.57548 70.811 9.57548Z" fill="#F0CE43"/>
<path d="M71.1234 9.50778C70.9676 9.50778 70.8898 9.64837 70.8898 9.64837C70.8119 9.64837 69.8775 10.3513 70.3447 11.5464C70.4226 11.7573 70.8898 12.3196 71.2012 12.5305C71.2791 12.3196 71.5127 11.6167 71.7463 11.1246C71.7463 11.0543 72.0578 9.99986 71.357 9.57808C71.2791 9.50778 71.2012 9.50778 71.1234 9.50778ZM71.2791 12.6711C70.8898 12.5305 70.3447 11.8276 70.1889 11.5464C69.6439 10.3513 70.6562 9.57808 70.734 9.50778C70.734 9.43748 70.8898 9.29689 71.1234 9.29689C71.2012 9.29689 71.2791 9.29689 71.357 9.36719C72.1357 9.78897 71.8242 11.0543 71.8242 11.0543C71.6685 11.7573 71.2791 12.6008 71.2791 12.6711Z" fill="#F0CE43"/>
<path d="M70.5782 10.2806C70.5782 10.2806 69.7216 8.03112 72.7586 7.46875C72.7586 7.46875 73.4594 8.31231 72.2913 9.22617C72.0577 9.50736 70.8118 10.0697 70.5782 10.2806Z" fill="#F0CE43"/>
<path d="M72.7574 7.53903C71.823 7.74992 71.2 8.1014 70.8885 8.66378C70.4992 9.29645 70.6549 9.92912 70.7328 10.14C70.8885 9.99942 71.2779 9.78853 71.5894 9.57763C71.9009 9.36674 72.2123 9.22615 72.3681 9.15585C73.2246 8.45289 72.8353 7.74992 72.7574 7.53903ZM70.5771 10.4915L70.4992 10.3509C70.4992 10.2806 70.1877 9.43704 70.6549 8.59348C71.0443 8.0311 71.7451 7.60932 72.6795 7.39843H72.7574V7.46873C72.7574 7.46873 73.4582 8.38259 72.2902 9.29645C72.1345 9.43704 71.823 9.57764 71.5115 9.78853C71.1222 9.99942 70.6549 10.2806 70.5771 10.3509V10.4915Z" fill="#F0CE43"/>
<path d="M74.8778 5.07051C74.8778 5.07051 71.763 5.00021 71.9187 7.53089C71.9187 7.53089 73.8655 6.96852 74.4106 6.47644C74.5663 6.19526 74.8778 5.70318 74.8778 5.07051Z" fill="#F0CE43"/>
<path d="M74.7986 5.14059C74.4872 5.14059 73.2412 5.21089 72.5404 5.91386C72.1511 6.26534 71.9175 6.82772 71.9953 7.46039C72.3847 7.3198 73.9421 6.89801 74.3314 6.47623C74.565 6.19505 74.7986 5.70297 74.7986 5.14059ZM71.7617 7.60098V7.53069C71.7617 6.82772 71.9175 6.26534 72.3847 5.84356C73.2412 5.0703 74.6429 5 74.7986 5H74.8765V5.0703C74.8765 5.70297 74.6429 6.19505 74.3314 6.47623C73.8642 7.03861 71.9953 7.60098 71.8396 7.60098H71.7617Z" fill="#F0CE43"/>
</svg>
