<svg width="144" height="50" viewBox="0 0 144 50" fill="none" xmlns="http://www.w3.org/2000/svg">
<rect width="144" height="50" rx="4" fill="white"/>
<path d="M42.349 24.0068C43.3143 24.3013 44.2284 24.6999 44.9489 25.4084C46.4041 26.8407 46.9927 28.5471 46.6656 30.559C46.4908 31.6368 46.1667 32.642 45.4139 33.4618C45.0612 33.8458 44.7236 34.2663 44.233 34.5118C44.2058 34.5315 44.1787 34.5513 44.1508 34.5711C42.7521 35.4107 41.2329 35.813 39.5863 35.8064C36.3722 35.7932 33.1581 35.8027 29.944 35.802C29.1466 35.802 28.8007 35.4657 28.8007 34.6861C28.8 27.8885 28.8 21.09 28.8 14.2923C28.8 13.5721 29.1617 13.2073 29.91 13.2058C33.0111 13.2007 36.1129 13.1692 39.2132 13.2197C40.5682 13.2417 41.9232 13.4205 43.1591 14.0572C44.1614 14.5737 44.9481 15.2785 45.4448 16.2977C46.1298 17.7029 46.1652 19.1463 45.7183 20.5911C45.2074 22.2418 44.0483 23.3181 42.3437 23.8243C42.2962 23.8383 42.2502 23.8588 42.2035 23.8764C42.1493 23.8844 42.0762 23.8646 42.0611 23.9379C42.0581 23.9518 42.1289 23.9914 42.1704 24.0002C42.2276 24.0119 42.2894 24.006 42.349 24.0075V24.0068ZM32.8491 29.0871C32.8491 30.1729 32.8596 31.2587 32.8423 32.3438C32.837 32.6523 32.941 32.735 33.2492 32.7321C34.9561 32.7197 36.6631 32.7175 38.3692 32.7299C39.2268 32.7358 40.052 32.6068 40.8365 32.2727C41.6059 31.9452 42.1395 31.4009 42.4379 30.6257C42.7197 29.8923 42.7861 29.1494 42.6497 28.383C42.5291 27.7082 42.2698 27.1001 41.7566 26.6107C40.9774 25.8685 39.9955 25.5359 38.9525 25.5C37.0346 25.434 35.1137 25.4736 33.1935 25.456C32.8935 25.4531 32.8423 25.5776 32.8446 25.8297C32.8544 26.9155 32.8491 28.0013 32.8491 29.0871ZM32.8491 19.5522C32.8491 20.5164 32.8513 21.4805 32.8468 22.4455C32.8461 22.6404 32.8694 22.773 33.1257 22.7678C35.0579 22.7297 36.9939 22.8565 38.9223 22.6975C39.9367 22.614 40.7574 22.1524 41.3557 21.3238C41.7438 20.786 41.8569 20.1742 41.8652 19.5566C41.8765 18.6818 41.7363 17.8326 41.0143 17.1857C40.3482 16.5893 39.5335 16.3577 38.6706 16.3387C36.8507 16.2984 35.0292 16.3182 33.2093 16.3013C32.9275 16.2984 32.84 16.3892 32.8438 16.6596C32.8574 17.6238 32.8491 18.588 32.8491 19.5529V19.5522Z" fill="#006B68"/>
<path d="M66.0467 35.7285C62.348 35.8918 58.6471 35.7556 54.9484 35.8098C54.5867 35.8149 54.4865 35.7167 54.4865 35.3636C54.497 28.3234 54.494 21.2832 54.4947 14.243C54.4947 13.5961 54.8663 13.2092 55.5347 13.2077C58.4843 13.2004 61.4346 13.1733 64.3835 13.2165C66.1055 13.2414 67.7867 13.5799 69.2947 14.4284C70.814 15.2834 72.0016 16.463 72.7809 18.0287C73.2632 18.9973 73.6686 19.9834 73.8728 21.037C74.0198 21.7953 74.1479 22.5595 74.1539 23.3376C74.1562 23.627 74.2315 23.9171 74.2202 24.2058C74.1524 26.0228 74.0145 27.8222 73.3852 29.5682C72.7906 31.2189 71.8795 32.6344 70.5321 33.7869C70.4387 33.8667 70.3294 33.9283 70.2277 33.9986C70.2005 34.0169 70.1741 34.0345 70.147 34.0528C69.1304 34.8544 67.945 35.2984 66.6872 35.5827C66.5456 35.6149 66.3896 35.5856 66.2404 35.5841C66.1017 35.5387 66.1032 35.6713 66.0467 35.7285ZM61.6253 32.726C62.461 32.6791 63.501 32.7787 64.541 32.6732C65.6684 32.5582 66.6752 32.178 67.5554 31.4966C68.5939 30.6928 69.1598 29.5894 69.5102 28.3813C69.8629 27.1643 69.982 25.9115 70.0219 24.6483C70.0415 24.0373 69.9609 23.435 69.9247 22.8291C69.8531 21.6188 69.5796 20.437 69.0347 19.3534C68.006 17.3092 66.1748 16.4366 63.9276 16.3414C62.3118 16.2725 60.6908 16.3128 59.0721 16.3062C58.5438 16.304 58.5431 16.3062 58.5431 16.8242C58.5431 21.8759 58.5431 26.9269 58.5423 31.9787C58.5423 32.1245 58.5649 32.2813 58.5182 32.4139C58.421 32.6908 58.5544 32.7297 58.7872 32.7282C59.6659 32.7238 60.5446 32.7267 61.6253 32.7267V32.726Z" fill="#006B68"/>
<path d="M84.0855 32.0061C84.7374 29.5561 85.6447 27.1852 86.4759 24.7923C87.2273 22.6287 87.9229 20.4461 88.7149 18.2972C89.103 17.2444 89.4383 16.1739 89.8438 15.1277C90.2884 13.9818 91.2153 13.2074 92.5733 13.2257C93.7911 13.2418 95.0097 13.2264 96.2275 13.2316C96.379 13.2316 96.584 13.1605 96.6571 13.359C96.7294 13.5554 96.6126 13.7246 96.4596 13.8375C96.1996 14.028 95.9314 14.2133 95.6465 14.365C94.6842 14.8786 94.1046 15.7146 93.6728 16.6429C92.507 19.1522 91.7459 21.8067 90.8001 24.3952C89.5039 27.9428 88.2477 31.5043 86.9688 35.0577C86.6998 35.8058 86.6892 35.8021 85.861 35.8021C84.8813 35.8021 83.9024 35.8021 82.9227 35.8021C81.8413 35.8021 81.0854 35.3398 80.6921 34.3404C80.2633 33.2502 79.8812 32.1446 79.4984 31.0383C78.9678 29.5085 78.4192 27.9845 77.8796 26.4577C77.3642 25.0004 76.8495 23.5424 76.3332 22.0844C75.7635 20.4762 75.1908 18.8687 74.6203 17.2605C74.184 16.0303 73.7574 14.7965 73.3105 13.57C73.2096 13.2931 73.2525 13.1957 73.566 13.1993C74.508 13.2096 75.45 13.1935 76.3913 13.2066C77.2052 13.2176 77.6716 13.5598 77.9279 14.3093C79.0809 17.6781 80.2052 21.0564 81.3944 24.4128C82.0704 26.3214 82.729 28.2344 83.3824 30.1503C83.5987 30.7841 83.769 31.4317 83.9604 32.0736C83.9589 32.1182 83.9649 32.1791 84.0185 32.1695C84.1104 32.1534 84.0833 32.0692 84.0863 32.0061H84.0855Z" fill="#006B68"/>
<path d="M48.2304 24.2054C48.2304 20.6791 48.2349 17.1528 48.2229 13.6257C48.2214 13.2902 48.314 13.1854 48.6622 13.1949C49.4648 13.2184 50.2689 13.1986 51.0722 13.2037C51.9155 13.2088 52.2735 13.5473 52.2735 14.3591C52.2757 21.3752 52.2735 28.3919 52.2802 35.4079C52.2802 35.7039 52.1973 35.8153 51.8778 35.8087C51.0119 35.7904 50.146 35.805 49.2794 35.8014C48.5989 35.7992 48.2319 35.4446 48.2319 34.7844C48.2304 31.2581 48.2311 27.7318 48.2311 24.2047L48.2304 24.2054Z" fill="#006B68"/>
<path d="M101.751 28.9993C103.439 29.0418 104.822 28.7128 106.119 28.0578C106.418 27.9069 106.558 27.9779 106.692 28.2468C107.351 29.5656 108.299 30.65 109.515 31.5182C109.59 31.5724 109.769 31.6171 109.682 31.7863C109.574 31.9981 109.529 32.3043 109.321 32.3776C109.201 32.4201 108.96 32.1798 108.792 32.045C107.809 31.2617 106.941 30.3737 106.293 29.3055C106.145 29.0615 106.027 29.0381 105.767 29.1385C104.878 29.4784 103.966 29.7158 103.003 29.8023C102.39 29.8572 101.782 29.8726 101.174 29.8506C99.8101 29.8023 98.6111 29.329 97.5614 28.4673C96.8688 27.8988 96.3262 27.2313 95.9818 26.4239C95.6382 25.618 95.4603 24.7945 95.5545 23.8926C95.6872 22.6126 96.2727 21.5729 97.1589 20.6908C97.7912 20.0615 98.5328 19.5479 99.4386 19.2973C99.7679 19.2064 99.8244 19.2247 99.8892 19.5779C100.168 21.1092 100.769 22.5261 101.724 23.7797C102.21 24.4179 102.132 24.3937 101.711 24.9498C100.893 26.0305 100.274 27.2057 99.9179 28.5098C99.8531 28.748 99.9051 28.7846 100.128 28.8432C100.736 29.0022 101.358 28.9656 101.753 29.0007L101.751 28.9993Z" fill="#FEC52F"/>
<path d="M109.48 33.0531C110.02 32.2172 110.4 31.3189 110.605 30.3628C110.828 29.3261 110.987 28.2806 110.726 27.2204C110.622 26.7976 110.748 26.624 111.196 26.5668C112.684 26.3764 114.005 25.8107 115.214 24.9564C115.505 24.7506 115.687 25.0788 115.869 25.2415C116.018 25.3748 115.951 25.4517 115.784 25.577C114.651 26.4262 113.375 26.9683 111.996 27.2922C111.685 27.3647 111.559 27.4798 111.659 27.8204C111.732 28.0695 111.711 28.3524 111.696 28.6176C111.6 30.291 111.246 31.8948 110.287 33.325C109.467 34.5493 108.369 35.4292 106.898 35.8094C105.084 36.2783 103.472 35.8732 102.04 34.7082C101.03 33.8869 100.481 32.8077 100.208 31.5922C100.117 31.1885 100.062 30.7621 100.089 30.335C100.102 30.154 100.172 30.1401 100.322 30.1664C102.114 30.4808 103.862 30.302 105.565 29.6931C105.819 29.6023 105.972 29.6367 106.124 29.866C106.992 31.1805 108.113 32.2458 109.482 33.0539L109.48 33.0531Z" fill="#FEC52F"/>
<path d="M105.748 13.0142C107.113 12.9864 108.271 13.4699 109.319 14.3037C109.721 14.6232 109.989 15.0342 110.339 15.3851C110.466 15.5134 110.393 15.5449 110.277 15.6086C109.517 16.027 108.786 16.4819 108.11 17.0314C107.441 17.5751 106.898 18.2103 106.402 18.8939C106.104 19.3049 106.065 19.2844 105.551 19.1056C104.931 18.8895 104.29 18.7298 103.629 18.6462C102.926 18.5569 102.225 18.4873 101.515 18.5026C101.225 18.5092 101.065 18.4777 101.126 18.9093C101.345 20.4479 101.933 21.8224 102.847 23.0811C103.115 23.4503 103.421 23.7881 103.755 24.0995C103.962 24.2914 103.981 24.4409 103.766 24.6453C102.666 25.6886 101.846 26.9078 101.369 28.3358C101.306 28.5255 100.91 28.6384 100.669 28.527C100.466 28.4332 100.461 28.2918 100.537 28.0793C100.972 26.8536 101.579 25.7275 102.468 24.7523C102.761 24.4314 102.739 24.3039 102.444 23.9544C101.401 22.7221 100.725 21.3212 100.4 19.754C100.284 19.195 100.213 18.6374 100.247 18.0711C100.322 16.8571 100.748 15.7888 101.575 14.851C102.489 13.815 103.663 13.2846 104.995 13.023C105.236 12.9754 105.496 13.0164 105.747 13.0164L105.748 13.0142Z" fill="#FEC52F"/>
<path d="M112.312 20.5289C112.3 19.2548 112.061 18.0202 111.607 16.826C111.527 16.6172 111.452 16.486 111.141 16.6318C109.229 17.5286 107.797 18.8972 106.807 20.7099C106.659 20.9824 106.501 20.9597 106.278 20.8505C105.69 20.5619 105.086 20.3076 104.447 20.1428C103.671 19.9428 102.887 19.7948 102.078 19.8204C101.949 19.8241 101.749 19.8849 101.714 19.723C101.664 19.4951 101.536 19.2584 101.638 19.0211C101.69 18.9016 101.842 18.9566 101.948 18.9581C103.312 18.98 104.631 19.224 105.887 19.7508C106.174 19.871 106.337 19.8387 106.507 19.5493C107.06 18.6115 107.836 17.8613 108.678 17.163C109.483 16.4956 110.359 15.9666 111.366 15.6493C114.297 14.7262 117.345 16.2626 118.266 18.9236C118.897 20.745 118.488 22.4287 117.455 24.0135C117.324 24.2142 117.242 24.2289 117.074 24.0589C116.108 23.0815 114.961 22.3591 113.673 21.8492C113.369 21.7283 113.057 21.6176 112.738 21.5414C112.41 21.4623 112.238 21.3202 112.308 20.967C112.336 20.8256 112.312 20.6747 112.312 20.5282V20.5289Z" fill="#FEC52F"/>
<path d="M113.13 33.6293C112.49 33.6058 111.852 33.578 111.233 33.3802C110.984 33.3003 110.905 33.2512 111.046 32.9692C111.585 31.8987 111.948 30.7763 112.091 29.5798C112.158 29.0215 112.176 28.4691 112.185 27.9123C112.187 27.757 112.236 27.6998 112.41 27.6522C113.892 27.247 115.266 26.6316 116.453 25.6527C116.619 25.5165 116.606 25.4718 116.497 25.3238C116.012 24.6636 115.338 24.2101 114.654 23.7918C113.604 23.1507 112.466 22.6979 111.223 22.5323C110.884 22.4869 110.767 22.2788 110.826 21.9491C110.973 21.1249 110.98 20.2991 110.883 19.4639C110.811 18.8433 110.676 18.244 110.465 17.6608C110.413 17.5165 110.444 17.4637 110.556 17.408C110.632 17.3707 110.71 17.3362 110.786 17.2996C111.185 17.1069 111.208 17.1113 111.337 17.5253C111.577 18.2909 111.714 19.0705 111.795 19.8713C111.845 20.3724 111.786 20.853 111.765 21.3417C111.752 21.6619 111.906 21.8055 112.191 21.8729C113.713 22.2319 115.031 22.9514 116.252 23.9017C117.444 24.83 118.102 26.0616 118.367 27.4463C118.812 29.774 117.8 32.1603 115.197 33.2703C114.551 33.5458 113.848 33.6681 113.129 33.6293H113.13Z" fill="#FEC52F"/>
</svg>
