<svg width="144" height="50" viewBox="0 0 144 50" fill="none" xmlns="http://www.w3.org/2000/svg">
<rect width="144" height="50" rx="4" fill="white"/>
<path d="M10 24.3948V24.9747C10.0336 25.9854 10.2853 26.847 10.7719 27.4601C11.6108 27.7252 12.5337 27.9572 13.5237 28.0731C11.8458 25.8529 12.1813 23.7983 12.9364 21.8265C12.9364 24.9747 14.3124 26.7807 16.2756 28.1063C17.2823 27.9903 18.3395 27.8743 19.0106 27.5595C15.0339 25.5878 13.0874 18.0985 19.7154 12.0176C13.6244 14.0059 10.151 20.2028 10 24.3948Z" fill="url(#paint0_linear_1_3117)"/>
<path d="M10.7715 27.4588C16.9967 32.9432 27.0477 31.1868 28.6082 27.5085C28.4908 26.68 28.1384 25.6196 27.7021 24.7414C26.6114 27.1771 24.7321 27.9724 22.5843 28.4861C25.3362 26.912 26.2926 24.8408 26.4604 22.488C25.9235 21.6098 25.1516 20.7482 24.5811 20.3506C24.816 24.7414 19.3962 30.0933 10.7715 27.4588Z" fill="url(#paint1_linear_1_3117)"/>
<path d="M19.7143 12.0166C19.0431 12.5302 18.4222 13.2096 17.8517 14.0546C20.6371 13.7232 22.2144 15.0487 23.5736 16.6725C20.8217 15.0984 18.5397 15.3635 16.3919 16.3908C15.9556 17.3187 15.6033 18.1969 15.5361 18.9094C19.278 16.5068 26.5939 18.8099 28.6074 27.5088C30.2686 19.7047 24.1273 12 20.1002 12C19.9659 12 19.8485 12 19.7143 12.0166Z" fill="url(#paint2_linear_1_3117)"/>
<path fill-rule="evenodd" clip-rule="evenodd" d="M33.3233 25.0059H38.0384C40.0855 25.0059 41.6963 26.5468 41.6963 28.27V32.4123C41.6963 34.5497 39.5653 35.6267 37.8202 35.6267H32.0312V26.116C32.0312 25.5692 32.7024 25.0059 33.3233 25.0059ZM34.4307 26.3645H36.998C38.4243 26.3645 39.4478 27.3753 39.4478 28.7836V31.7992C39.4478 33.3899 38.4411 34.2183 36.998 34.2183H34.4307V26.3645Z" fill="#4855E9"/>
<path fill-rule="evenodd" clip-rule="evenodd" d="M46.128 24.8408H48.9974C50.9941 24.8408 52.6218 26.3983 52.6218 28.3369V31.9821C52.6218 33.9705 51.1619 35.6605 49.333 35.6605H46.2119C43.9299 35.6605 42.6379 34.0202 42.6379 31.949V28.3038C42.6211 26.6469 43.7789 24.874 46.128 24.8408ZM46.7992 26.1829H48.3765C49.1484 26.1829 50.2223 27.0777 50.2223 28.2044V32.2804C50.2223 33.4237 49.1652 34.3515 48.4101 34.3515H46.8328C46.0609 34.3515 45.0374 33.4237 45.0374 32.2804V28.2044C45.0374 27.0777 46.0274 26.1829 46.7992 26.1829Z" fill="#4855E9"/>
<path fill-rule="evenodd" clip-rule="evenodd" d="M66.9815 24.8419H69.7669C71.8475 24.8254 73.1731 26.3829 73.0892 28.338V28.6694H70.975V28.2055C70.975 27.0622 69.9347 26.184 69.1796 26.184H67.6526C66.8976 26.184 65.9243 27.0788 65.9243 28.2055V32.2815C65.9243 33.4248 66.9311 34.3527 67.6694 34.3527H69.1964C69.4145 34.3527 70.5052 34.2035 70.975 33.6402V31.453H68.7433V29.8127H73.0892V31.453V34.5515C72.5691 35.0983 71.4113 35.6948 70.0857 35.6616H67.0486C64.8337 35.6616 63.5752 34.0213 63.5752 31.9336V28.2883C63.5752 26.648 64.9679 24.8916 66.9815 24.8419Z" fill="#4855E9"/>
<path fill-rule="evenodd" clip-rule="evenodd" d="M55.1873 35.6599H53.459V26.2154C53.459 25.5526 53.9959 25.0224 54.6671 25.0059H54.6839H55.1705H56.2108L60.8756 32.1803V25.0059H62.7045V35.6599H61.0098H60.9091H60.2883L55.1873 27.8226V35.6599Z" fill="#4855E9"/>
<path fill-rule="evenodd" clip-rule="evenodd" d="M81.1817 22.5546C82.8261 26.8958 84.4705 31.2369 86.1149 35.5615H83.5476C83.061 34.1696 82.5744 32.7613 82.0878 31.3694H77.0707C76.6009 32.7778 76.131 34.1696 75.6612 35.578H73.6309C75.0403 31.6677 76.4498 27.7574 77.8425 23.8305C78.0607 23.234 78.6815 22.5381 79.5876 22.5215C80.1246 22.5381 80.6615 22.5546 81.1817 22.5546ZM79.5541 24.6092L80.5441 27.2437L81.5508 29.8782H79.5541H77.5573L78.5473 27.2437L79.5541 24.6092Z" fill="#4855E9"/>
<path d="M94.8447 24.3413V28.3549H95.5549H95.8627C96.4546 28.3549 96.9281 28.3311 97.3069 28.3072C97.6857 28.2594 98.0172 28.1877 98.3013 28.0683C98.7274 27.8532 99.0352 27.5427 99.2246 27.1126C99.3903 26.7543 99.4614 26.3003 99.4614 25.727C99.4614 25.2491 99.3903 24.7952 99.2246 24.3891C99.0589 23.9829 98.8221 23.6724 98.467 23.4812C98.1829 23.3379 97.8751 23.2423 97.5437 23.1945C97.1885 23.1468 96.7624 23.1468 96.2179 23.1468C96.0521 23.1468 95.9101 23.1468 95.768 23.1468C95.626 23.1468 95.4602 23.1706 95.2945 23.2184C95.0814 23.3379 94.9631 23.4812 94.892 23.6962C94.892 23.8157 94.8684 23.9352 94.8684 24.0546C94.8447 24.1502 94.8447 24.2696 94.8447 24.3413ZM96.4309 35.7133H91.0803V34.901H91.5538C91.6959 34.901 91.8143 34.901 91.909 34.8771C92.0037 34.8532 92.2167 34.8293 92.5008 34.7577C92.6902 34.7338 92.8323 34.5904 92.9507 34.3038C92.9507 34.1843 92.9743 34.0648 92.9743 33.9454C92.9743 33.8259 92.9743 33.6826 92.9743 33.4915V24.0546V23.7918C92.9743 23.5051 92.8323 23.314 92.5245 23.1945C92.3588 23.1945 92.0747 23.1706 91.6959 23.1468C91.3171 23.1229 91.104 23.099 91.0566 23.099V22.2867H97.2596C98.0409 22.2867 98.6091 22.3345 99.0115 22.4539C99.3904 22.5495 99.7455 22.7167 100.077 22.9317C100.479 23.2184 100.811 23.5768 101.048 24.0307C101.284 24.4846 101.426 24.9625 101.426 25.4642C101.426 26.3959 101.142 27.1604 100.55 27.7577C100.006 28.2833 99.2957 28.6177 98.4197 28.7133C99.3904 28.7372 100.219 29.0239 100.882 29.5495C101.663 30.1706 102.042 31.0068 102.042 32.0341C102.042 32.4164 101.995 32.7986 101.876 33.2048C101.758 33.587 101.592 33.9454 101.379 34.2321C101.142 34.5188 100.906 34.7577 100.669 34.9249C100.527 35.0205 100.219 35.1638 99.7692 35.3788C99.6034 35.4505 99.414 35.5222 99.2009 35.5461C99.0115 35.5939 98.8221 35.6177 98.7038 35.6416C98.1829 35.7133 97.6621 35.7611 97.1175 35.7611H96.7387H96.4309V35.7133ZM94.8447 29.2389V33.5392C94.8447 34.1365 94.9157 34.5188 95.0341 34.6621C95.1761 34.8055 95.4839 34.8771 95.9574 34.8771H96.2889C96.9281 34.8771 97.449 34.8532 97.8751 34.8055C98.3013 34.7577 98.6801 34.6143 98.9879 34.4232C99.3193 34.2082 99.5561 33.8976 99.6981 33.4676C99.8639 33.0375 99.9349 32.6075 99.9349 32.1775C99.9349 30.9352 99.5798 30.099 98.8458 29.6451C98.325 29.3345 97.449 29.1672 96.1942 29.1672C96.0285 29.1672 95.768 29.1911 95.3892 29.215C95.0814 29.2389 94.892 29.2389 94.8447 29.2389ZM110.541 29.9079L110.47 33.1092V33.4915V33.9215C110.47 34.0887 110.494 34.2321 110.541 34.3754C110.589 34.5188 110.683 34.6143 110.802 34.6621C110.897 34.7577 111.015 34.8055 111.133 34.8055H111.346L111.82 34.5904C111.986 34.6382 112.057 34.7099 112.057 34.8532C111.962 35.1638 111.749 35.4027 111.465 35.5939C111.157 35.785 110.849 35.8805 110.518 35.8805C110.115 35.8805 109.784 35.7611 109.547 35.5222C109.31 35.2833 109.145 34.9249 109.026 34.471C108.671 34.9488 108.198 35.3311 107.653 35.5939C107.109 35.8567 106.54 36 105.948 36C105.238 36 104.67 35.8328 104.244 35.4744C103.747 35.0683 103.51 34.5188 103.51 33.7543C103.51 32.7031 104.196 31.8669 105.593 31.2218C106.422 30.8396 107.535 30.529 108.932 30.3379V29.0478C108.932 28.5222 108.742 28.1399 108.363 27.9249C108.056 27.7338 107.629 27.6382 107.085 27.6382C106.753 27.6382 106.493 27.6621 106.233 27.7099C105.996 27.7577 105.783 27.8532 105.617 27.9966C105.522 28.0922 105.475 28.1877 105.475 28.2594C105.546 28.3788 105.593 28.4744 105.617 28.5461C105.664 28.6655 105.735 28.785 105.806 28.9044C105.877 29.0239 105.901 29.1672 105.901 29.2867C105.901 29.5973 105.806 29.8362 105.641 29.9795C105.475 30.1229 105.238 30.2184 104.954 30.2184C104.67 30.2184 104.433 30.099 104.267 29.884C104.102 29.6451 104.031 29.3823 104.031 29.0478C104.031 28.6416 104.149 28.2833 104.41 27.9727C104.623 27.7099 104.907 27.471 105.262 27.2799C105.617 27.0887 105.972 26.9693 106.304 26.8976C106.635 26.8259 107.014 26.7782 107.393 26.7782C107.7 26.7782 107.961 26.802 108.245 26.8259C108.505 26.8737 108.789 26.9215 109.05 27.041C109.689 27.3038 110.115 27.6621 110.328 28.1399C110.47 28.4983 110.541 29.0956 110.541 29.9079ZM108.979 31.1024C107.629 31.3891 106.824 31.6041 106.611 31.6997C105.688 32.1058 105.238 32.727 105.238 33.587C105.238 34.0171 105.38 34.3754 105.664 34.6382C105.948 34.901 106.28 35.0444 106.682 35.0444C107.037 35.0444 107.393 34.9488 107.724 34.7577C108.056 34.5666 108.34 34.3038 108.553 34.0171C108.695 33.7782 108.813 33.5392 108.86 33.2764C108.931 33.0137 108.955 32.7509 108.955 32.4642V31.1024H108.979ZM112.767 35.7133V34.9966H113.169C113.359 34.9727 113.525 34.9488 113.667 34.9488C113.809 34.9249 113.927 34.901 114.022 34.8771C114.116 34.8293 114.164 34.7099 114.164 34.4949V29.3584C114.164 29.1911 114.164 29.0239 114.164 28.8567C114.164 28.6894 114.14 28.5461 114.093 28.4027C114.045 28.2594 113.903 28.1638 113.619 28.0921L112.767 28.0683V27.2799L115.75 27.0887V28.6416C116.129 27.9249 116.555 27.4232 117.052 27.1365C117.431 26.8976 117.881 26.7782 118.354 26.7782C118.851 26.7782 119.301 26.8976 119.704 27.1604C120.248 27.471 120.627 27.9727 120.84 28.6416C120.911 28.8567 120.982 29.1195 121.006 29.4061C121.053 29.6928 121.077 30.0273 121.077 30.4334V34.7099C121.101 34.8532 121.219 34.9488 121.385 34.9966H121.716H122.119H122.426V35.7133H118.07V35.0444L118.307 35.0921C118.378 35.0921 118.473 35.0683 118.615 35.0444C118.757 35.0205 118.851 34.9966 118.922 34.9966C119.136 34.9966 119.278 34.9488 119.325 34.8532C119.325 34.8294 119.372 34.7816 119.42 34.6621C119.443 34.6143 119.443 34.5188 119.443 34.3993V30.3618C119.443 30.0751 119.42 29.8123 119.396 29.5973C119.372 29.3823 119.349 29.215 119.325 29.1433C119.278 28.785 119.112 28.4983 118.804 28.2594C118.496 28.0205 118.165 27.9249 117.786 27.9249C117.431 27.9249 117.076 28.0444 116.768 28.2355C116.46 28.4505 116.2 28.7611 115.987 29.1433C115.845 29.43 115.75 29.7645 115.703 30.099C115.655 30.4334 115.632 30.8396 115.632 31.2935V34.3515C115.632 34.4949 115.632 34.6143 115.655 34.686C115.655 34.8532 115.797 34.9488 116.058 34.9727C116.271 34.9966 116.46 34.9966 116.673 35.0205H116.981V35.7372H112.767V35.7133ZM126.309 22V31.2935L128.7 28.7611C128.866 28.6177 128.961 28.4983 129.008 28.4505C129.103 28.3311 129.15 28.1877 129.15 28.0683C129.15 27.9249 129.032 27.8294 128.819 27.7816C128.606 27.7338 128.416 27.7338 128.298 27.7338H127.753V27.1126H132.275V27.7338H132.039C131.565 27.7338 131.115 27.8532 130.713 28.116C130.452 28.2594 130.097 28.57 129.624 29.0717L128.582 30.1229L130.807 33.4198C131.186 33.9932 131.494 34.3754 131.707 34.5666C132.062 34.8532 132.512 35.0205 133.057 35.0205V35.6894H128.487V35.0444L129.411 35.0205L129.576 34.9488C129.576 34.9249 129.6 34.8771 129.6 34.7816C129.6 34.6143 129.6 34.5188 129.576 34.4949L129.34 34.1604L127.422 31.198L126.285 32.273V34.0171V34.3038C126.285 34.5188 126.309 34.686 126.38 34.7816C126.451 34.901 126.522 34.9488 126.593 34.9727C126.664 34.9966 126.783 34.9966 126.901 34.9966C127.043 34.9966 127.138 34.9966 127.209 35.0205H127.588V35.6894H123.373V35.0205H123.776C123.965 34.9966 124.155 34.9966 124.344 34.9727C124.581 34.9249 124.723 34.8293 124.747 34.6382V23.8635C124.747 23.6962 124.723 23.529 124.699 23.4096C124.676 23.2662 124.605 23.1706 124.486 23.1229C124.391 23.0512 124.202 23.0273 123.989 23.0034C123.752 22.9795 123.563 22.9795 123.373 22.9556H123.208V22.1672L126.309 22Z" fill="#21232A"/>
<defs>
<linearGradient id="paint0_linear_1_3117" x1="10" y1="20.0741" x2="19.7202" y2="20.0741" gradientUnits="userSpaceOnUse">
<stop stop-color="#F5841F"/>
<stop offset="1" stop-color="#F8B260"/>
</linearGradient>
<linearGradient id="paint1_linear_1_3117" x1="28.6089" y1="25.6549" x2="10.7686" y2="25.6549" gradientUnits="userSpaceOnUse">
<stop stop-color="#F5841F"/>
<stop offset="1" stop-color="#F8B260"/>
</linearGradient>
<linearGradient id="paint2_linear_1_3117" x1="15.542" y1="19.7584" x2="28.8843" y2="19.7584" gradientUnits="userSpaceOnUse">
<stop stop-color="#F5841F"/>
<stop offset="1" stop-color="#F8B260"/>
</linearGradient>
</defs>
</svg>
