<svg width="144" height="50" viewBox="0 0 144 50" fill="none" xmlns="http://www.w3.org/2000/svg">
<rect width="144" height="50" rx="4" fill="white"/>
<path d="M100.809 23.6084H105.079V27.5925L108.762 23.6084H114.635L110.123 28.5505L114.831 37.0738H109.591L106.869 32.0024L105.079 34.0021V37.0738H100.809V23.6084Z" fill="#458DCB"/>
<path d="M84.4658 23.6085H88.337L94.5777 31.1357V23.6085H98.7304V37.0739H94.5777L88.6185 29.9268L88.6263 37.0739H84.4658V23.6085Z" fill="#458DCB"/>
<path d="M8.2778 26.9862H14.3621V23.6028H4V37.0605H14.3621V33.7075H8.2778V32.0196H13.3298V28.6437H8.2778V28.6133V26.9862Z" fill="#458DCB"/>
<path d="M55.6298 23.6085H63.6145C64.944 23.6085 65.9684 23.9278 66.6801 24.5741C67.3918 25.2128 67.7515 26.0111 67.7515 26.9615C67.7515 27.7523 67.4934 28.4366 66.9851 29.0068C66.641 29.387 66.1483 29.6835 65.4992 29.904C66.4924 30.1321 67.2197 30.5351 67.6889 31.1053C68.1582 31.6679 68.3928 32.3827 68.3928 33.2342C68.3928 33.9337 68.2286 34.5572 67.8923 35.1198C67.5638 35.6749 67.1024 36.1158 66.5237 36.4352C66.1639 36.6405 65.6243 36.8077 64.9048 36.899C63.9429 37.0206 63.3095 37.0815 62.9967 37.0815H55.6298V23.6085ZM59.9388 28.8776H61.7923C62.457 28.8776 62.9185 28.7635 63.1843 28.543C63.4424 28.3225 63.5754 27.9956 63.5754 27.5774C63.5754 27.182 63.4502 26.8779 63.1843 26.6574C62.9263 26.4369 62.4649 26.3305 61.8236 26.3305H59.9388V28.8776V28.8776ZM59.9388 34.1618H62.1129C62.8481 34.1618 63.3642 34.0326 63.6692 33.7816C63.9742 33.5307 64.1228 33.1886 64.1228 32.7628C64.1228 32.3674 63.9742 32.0481 63.677 31.8048C63.3799 31.5615 62.8559 31.4398 62.1129 31.4398H59.9467V34.1618H59.9388Z" fill="#458DCB"/>
<path d="M78.2718 34.8332H73.4231L72.7349 37.0761H68.3867L73.5795 23.626H78.2327L83.4255 37.0761H78.9678L78.2718 34.8332ZM77.3881 31.9287L75.8631 27.0931L74.3537 31.9287H77.3881Z" fill="#458DCB"/>
<path d="M35.9555 23.6084H31.6777V37.0737H35.9555V23.6084Z" fill="#458DCB"/>
<path d="M53.5431 23.6085H49.2731H47.9514L45.8008 30.3526L43.6345 23.6085H42.3128H38.035H38.0272V37.0739H38.035H41.523H42.3128V30.2918L44.2054 37.0739H47.3727L49.2731 30.2994V37.0739H50.0629H53.5431H53.5587V23.6085H53.5431Z" fill="#458DCB"/>
<path d="M139.513 20.2723V20.2647C139.513 20.2571 139.513 20.2571 139.513 20.2495C139.513 20.2419 139.513 20.2267 139.505 20.2191C139.505 20.2191 139.505 20.2267 139.505 20.2343C138.637 15.7256 134.696 12.2813 129.871 12.0304L129.307 12H128.737L128.69 12.0076V12.0532V14.0833V30.9473H128.682C124.56 30.6812 121.19 27.7691 120.361 23.9371C120.361 23.9295 120.306 23.6482 120.306 23.4961C120.306 22.7206 120.83 22.0363 121.55 21.793C121.714 21.7778 121.886 21.7702 122.066 21.7702H128.009V12.1217C123.012 12.7223 119.117 16.7824 118.93 21.755C118.922 21.8766 118.922 21.9983 118.922 22.1199C118.922 22.7282 118.984 23.3212 119.086 23.9067V23.9143C119.086 23.9219 119.086 23.9219 119.086 23.9295C119.086 23.9371 119.086 23.9523 119.094 23.9599C119.094 23.9599 119.094 23.9523 119.094 23.9447C119.962 28.4534 123.904 31.8977 128.729 32.1486L129.3 32.1714H129.871L129.917 32.1638V32.1106V30.0881V13.2393H129.925C134.047 13.5054 137.417 16.4175 138.246 20.2495C138.246 20.2571 138.301 20.5384 138.301 20.6905C138.301 21.466 137.777 22.1503 137.058 22.3936C136.893 22.4088 136.721 22.4164 136.541 22.4164H130.598V32.0574C135.595 31.4567 139.49 27.3966 139.677 22.424C139.685 22.3024 139.685 22.1807 139.685 22.0591C139.677 21.4432 139.623 20.8502 139.513 20.2723Z" fill="#458DCB"/>
<path d="M30.5894 34.7407C30.5894 34.7331 30.5816 34.7331 30.5816 34.7255L30.566 34.7103C30.566 34.7103 30.5581 34.7103 30.5503 34.7027L27.821 32.0492C27.4691 31.6386 27.1953 30.9999 27.1953 30.3385C27.1953 29.6542 27.4847 28.9471 27.9852 28.4529L30.5503 25.959C30.5581 25.9514 30.5581 25.9514 30.566 25.9438C30.5816 25.921 30.5972 25.8906 30.5972 25.8601C30.5972 25.8297 30.5816 25.7993 30.566 25.7765L30.5503 25.7613L27.7193 23.0089C27.6959 22.9937 27.6646 22.9785 27.6333 22.9785C27.602 22.9785 27.5707 22.9937 27.5394 23.0165L24.9978 25.4876L23.3477 27.0843C24.0437 27.761 24.5286 28.2248 24.5286 28.2248C25.3184 29.0763 25.4436 29.6161 25.4436 30.3689C25.4436 31.3193 25.0447 31.9275 24.3487 32.6042L23.3398 33.585C24.9978 35.1969 27.5316 37.6604 27.5316 37.6604C27.5551 37.6832 27.5864 37.6908 27.6176 37.6908C27.6489 37.6908 27.6802 37.6756 27.7037 37.6604C27.7115 37.6528 30.0264 35.4022 30.5425 34.9004C30.5503 34.8928 30.5581 34.8852 30.566 34.8776C30.5816 34.8548 30.5972 34.832 30.5972 34.794C30.6129 34.7864 30.6051 34.7635 30.5894 34.7407Z" fill="#458DCB"/>
<path d="M24.8876 30.3777C24.8876 29.701 24.7781 29.222 24.0743 28.4616C24.0743 28.4616 21.7516 26.2035 20.7427 25.2303V25.2227C20.3283 24.8197 18.4826 23.0253 18.4748 23.0177C18.4513 23.0025 18.4201 22.9873 18.3888 22.9873C18.3575 22.9873 18.3262 23.0025 18.3027 23.0177C18.2949 23.0177 15.9722 25.2759 15.4639 25.7777C15.4561 25.7853 15.4483 25.7929 15.4483 25.7929C15.4326 25.8157 15.417 25.8461 15.417 25.8765C15.417 25.907 15.4248 25.9298 15.4405 25.945C15.4405 25.9526 15.4483 25.9526 15.4483 25.9602L15.4639 25.9754C15.4639 25.9754 15.4717 25.983 15.4796 25.983L18.2089 28.6365C18.5608 29.0395 18.8345 29.6858 18.8345 30.3472C18.8345 31.0239 18.553 31.7234 18.0603 32.21C18.0525 32.2176 18.0447 32.2252 18.0369 32.2328L15.4717 34.7267C15.4639 34.7343 15.4639 34.7343 15.4561 34.7419C15.4326 34.7647 15.4248 34.7951 15.4248 34.8256C15.4248 34.856 15.4405 34.8864 15.4561 34.9092L15.4717 34.9244L18.3027 37.6692C18.3262 37.692 18.3575 37.6996 18.3888 37.6996C18.4201 37.6996 18.4513 37.6844 18.4748 37.6616L21.0165 35.1905L23.9179 32.3697C24.5357 31.7767 24.8876 31.2292 24.8876 30.3777Z" fill="#458DCB"/>
</svg>
