<svg width="144" height="50" viewBox="0 0 144 50" fill="none" xmlns="http://www.w3.org/2000/svg">
<rect width="144" height="50" rx="4" fill="white"/>
<path d="M68.5746 30.4695C68.1849 30.0439 67.7175 29.7154 67.1894 29.4592C67.0951 29.4136 66.9821 29.3892 66.905 29.2952C67.0472 29.2121 67.1765 29.1411 67.3005 29.063C68.0599 28.5836 68.5679 27.9393 68.7719 27.0885C68.9294 26.4316 68.9476 25.7719 68.8107 25.115C68.5583 23.9064 67.8597 23.0131 66.655 22.498C66.2657 22.3318 65.8597 22.2125 65.4393 22.1379C65.3584 22.1619 65.2885 22.1379 65.2233 22.0936C65.1793 22.0887 65.1357 22.0837 65.0917 22.0787C64.9892 22.1022 64.8929 22.0882 64.8044 22.0336C64.6928 22.0259 64.5817 22.0177 64.4701 22.0101C64.3232 22.034 64.1781 22.0394 64.0397 21.9744C61.7854 21.9735 59.5311 21.9721 57.2768 21.9712C57.2088 22.0164 57.1351 22.0318 57.0546 22.0074C57.0115 22.0146 56.9684 22.0218 56.9258 22.029C56.8851 22.0674 56.8401 22.0936 56.7793 22.0787C56.2468 22.2857 55.8892 22.6444 55.7178 23.1654C55.6555 23.3551 55.6536 23.5508 55.6536 23.7464C55.6536 28.3753 55.6536 33.0038 55.6536 37.6327C55.6536 37.9774 55.6349 37.9476 55.9897 37.9485C56.0357 37.9485 56.0817 37.9485 56.1281 37.9485C58.4547 37.9485 60.7813 37.9489 63.1079 37.948C63.4187 37.948 63.7299 37.9404 64.0406 37.9363C64.2001 37.8667 64.3677 37.873 64.5362 37.8889C64.6239 37.8812 64.711 37.8735 64.7986 37.8658C64.8642 37.8075 64.9408 37.8057 65.0218 37.826C65.0859 37.8179 65.1501 37.8098 65.2142 37.8021C65.2765 37.7411 65.3526 37.7375 65.4335 37.7542C65.637 37.7054 65.841 37.6566 66.0445 37.6074C66.0814 37.5559 66.1326 37.5441 66.1939 37.5572C66.2131 37.5513 66.2327 37.5464 66.2523 37.5423C66.2868 37.4899 66.3376 37.4772 66.3984 37.4885L66.4003 37.4881C66.4376 37.4465 66.4812 37.4185 66.543 37.4325C66.5616 37.4253 66.5808 37.4194 66.6004 37.4153C66.6325 37.3634 66.6818 37.3467 66.7426 37.3553C66.8145 37.3209 66.8863 37.2861 66.9581 37.2527C68.1212 36.7096 68.861 35.8326 69.2138 34.666C69.4671 33.8288 69.5031 32.973 69.3537 32.1146C69.2474 31.5046 69.0099 30.9448 68.5746 30.4695ZM58.99 24.8493C58.9929 24.8001 59.0264 24.7725 59.0786 24.7693C59.1246 24.7662 59.1705 24.7648 59.2165 24.7648C60.5266 24.7657 61.8366 24.7666 63.1467 24.768C63.2156 24.768 63.2846 24.7725 63.3535 24.7748C63.3808 24.7711 63.4086 24.7675 63.4359 24.7648C63.4632 24.7621 63.4905 24.7598 63.5178 24.7594C63.6083 24.7571 63.6969 24.7702 63.7816 24.819C63.8462 24.8258 63.9114 24.833 63.976 24.8398C63.9966 24.8344 64.0167 24.8312 64.0359 24.8303C64.055 24.8294 64.0737 24.8303 64.0919 24.8344C64.1283 24.8421 64.1618 24.8597 64.1924 24.8895C64.9265 25.0788 65.3172 25.523 65.3612 26.2274C65.3761 26.4641 65.3737 26.7 65.3138 26.9349C65.1989 27.3858 64.9231 27.7062 64.4783 27.8995C64.4266 27.9221 64.3725 27.9402 64.3198 27.9601C64.315 27.9651 64.3102 27.9696 64.305 27.9741C64.2695 28.0048 64.2292 28.0238 64.177 28.0089C64.1354 28.0175 64.0932 28.0261 64.0511 28.0346L64.0472 28.0378C64.0396 28.0446 64.0325 28.0495 64.0244 28.055C64.011 28.064 63.9971 28.0712 63.9827 28.0758C63.9578 28.083 63.9309 28.0839 63.9007 28.0721C63.8351 28.0803 63.7691 28.0889 63.7035 28.0974C63.6757 28.1114 63.6474 28.1218 63.6192 28.1309C63.5957 28.1381 63.5724 28.1435 63.5489 28.148C63.4613 28.1639 63.3716 28.1612 63.2802 28.1426C62.855 28.1453 62.4298 28.1503 62.0046 28.1503C61.0278 28.1508 60.051 28.1494 59.0742 28.1485C59.0622 28.1526 59.0513 28.1539 59.0413 28.1539C59.0121 28.1548 58.9953 28.1381 58.9929 28.0988C58.9895 27.9258 58.9828 27.7523 58.9828 27.5792C58.9819 26.7555 58.9824 25.9314 58.9828 25.1077C58.9828 25.021 58.9852 24.9347 58.9905 24.8479L58.99 24.8493ZM65.7945 33.5988C65.6873 34.1139 65.3832 34.4857 64.8895 34.722C64.8177 34.7564 64.7425 34.7844 64.6693 34.8151C64.6549 34.8309 64.6392 34.844 64.6229 34.854C64.6176 34.8576 64.6119 34.8603 64.6061 34.863C64.5827 34.8734 64.5568 34.877 64.5261 34.8693C64.506 34.8766 64.4859 34.8815 64.4648 34.8838C64.4553 34.8933 64.4457 34.9019 64.4351 34.9091C64.4236 34.9172 64.4117 34.924 64.3992 34.929C64.3748 34.938 64.348 34.9398 64.3174 34.9308C64.2752 34.938 64.2336 34.9457 64.1914 34.9529C64.1842 34.9597 64.1757 34.9656 64.168 34.971C64.1604 34.9764 64.1522 34.9814 64.1446 34.9855C64.1393 34.9882 64.134 34.9904 64.1288 34.9922C64.1249 34.9936 64.122 34.9945 64.1182 34.9954C64.1067 34.9981 64.0952 34.9995 64.0828 34.999C64.0689 34.9981 64.0545 34.9954 64.0396 34.99C63.9736 34.9981 63.908 35.0058 63.8419 35.0139C63.7998 35.0351 63.7557 35.0505 63.7127 35.0605C63.6691 35.0704 63.625 35.0754 63.5805 35.0758C63.5269 35.0763 63.4732 35.0704 63.4181 35.0591C62.8881 35.0627 62.358 35.0681 61.828 35.0695C60.9982 35.0708 60.1684 35.0695 59.3386 35.0695C59.2581 35.0695 59.1772 35.0681 59.0968 35.0668C59.0288 35.0659 58.9914 35.0293 58.9866 34.9678C58.9814 34.9028 58.9823 34.8373 58.9823 34.7722C58.9823 33.5762 58.9823 32.3807 58.9823 31.1847C58.9823 31.1305 58.9838 31.0758 58.9838 31.0216C58.9838 30.9471 59.013 30.8969 59.1015 30.8969C59.1245 30.8965 59.1475 30.8951 59.1705 30.8951C60.5993 30.8969 62.0286 30.8987 63.4574 30.901C63.4919 30.901 63.5263 30.9046 63.5608 30.9064C63.5972 30.9014 63.6336 30.8974 63.67 30.8947C63.6882 30.8933 63.7064 30.8924 63.7241 30.8924C63.7601 30.892 63.796 30.8938 63.8314 30.8996C63.8841 30.9082 63.9367 30.9254 63.9865 30.9552C64.0516 30.9624 64.1163 30.9701 64.1809 30.9773C64.1924 30.9737 64.203 30.971 64.2135 30.9697C64.224 30.9683 64.235 30.9674 64.2456 30.9683C64.259 30.9692 64.2719 30.9719 64.2844 30.9769C64.303 30.9846 64.3193 30.9977 64.3346 31.0167C64.3763 31.0243 64.4174 31.032 64.4586 31.0397C64.4663 31.0379 64.474 31.0361 64.4812 31.0352C64.4883 31.0343 64.4955 31.0338 64.5027 31.0338C64.5099 31.0338 64.5166 31.0338 64.5228 31.0352C64.5362 31.037 64.5487 31.0411 64.5602 31.0469C64.5717 31.0528 64.5827 31.0609 64.5932 31.0713C64.5985 31.0763 64.6032 31.0822 64.608 31.088C64.6286 31.0908 64.6482 31.0957 64.6674 31.1025C64.6832 31.0989 64.6976 31.098 64.711 31.0989C64.7311 31.1007 64.7493 31.107 64.7661 31.1174C64.7823 31.1278 64.7971 31.1418 64.8105 31.159C65.3535 31.3763 65.6537 31.7793 65.7826 32.3066C65.8874 32.7358 65.8845 33.1669 65.7945 33.5988Z" fill="#21232A"/>
<path d="M53.8598 28.3871L53.8776 28.3708C53.8584 28.2298 53.8388 28.0889 53.8192 27.9479C53.8172 27.9461 53.8158 27.9443 53.8139 27.9425C53.8081 27.9366 53.8029 27.9307 53.7995 27.9244C53.7852 27.9005 53.7871 27.8747 53.8077 27.8471C53.7861 27.7265 53.7641 27.6059 53.7425 27.4852L53.7215 27.473L53.7382 27.4568C53.7172 27.3578 53.6961 27.2589 53.6745 27.1595L53.6659 27.1536L53.664 27.1522C53.6602 27.1495 53.6563 27.1468 53.6563 27.1468L53.6698 27.131C53.6257 26.9656 53.5817 26.8003 53.5371 26.6349L53.5189 26.6241L53.5319 26.6091C53.3796 26.1478 53.2082 25.6933 52.986 25.2568L52.9664 25.2501L52.9769 25.2347C52.9568 25.199 52.9362 25.1629 52.9161 25.1267L52.896 25.1199L52.906 25.1037C52.8854 25.0689 52.8649 25.0341 52.8443 24.9998L52.8222 24.9907L52.8299 24.9699C52.7815 24.8967 52.7322 24.8235 52.6848 24.7495C52.1308 23.8788 51.3633 23.2268 50.4037 22.7736C50.1782 22.667 49.9421 22.5794 49.7109 22.4831L49.7032 22.4958L49.6974 22.48C49.6591 22.4655 49.6204 22.4506 49.5816 22.4361C49.5447 22.4538 49.5145 22.4474 49.4935 22.4131C49.4264 22.3923 49.3594 22.3715 49.2924 22.3507C49.2924 22.3507 49.2914 22.3534 49.2904 22.3566C49.2895 22.3598 49.2885 22.3629 49.2885 22.3629L49.2823 22.3485C48.7202 22.1935 48.1461 22.0964 47.5652 22.0286C47.5351 22.0557 47.5064 22.0557 47.481 22.0227C47.0467 21.9961 46.6129 21.9644 46.1762 21.9658C44.8235 21.9699 43.4704 21.9685 42.1177 21.9658C41.8989 21.9658 41.6829 21.9775 41.4694 22.0227L41.4622 22.0381L41.4545 22.025C41.3894 22.0462 41.3238 22.067 41.2587 22.0882C41.2587 22.0882 41.2558 22.0941 41.2544 22.0986C41.2534 22.1022 41.252 22.1054 41.252 22.1054L41.241 22.0936C40.777 22.3046 40.4452 22.6313 40.2584 23.0868L40.2709 23.099L40.2531 23.1066C40.1727 23.3375 40.1746 23.5765 40.1746 23.816C40.1746 28.3997 40.1746 32.983 40.1746 37.5667C40.1746 37.6535 40.1746 37.7407 40.1765 37.8274C40.178 37.9056 40.2191 37.9467 40.3039 37.9458C40.3384 37.9458 40.3729 37.9467 40.4073 37.9467C42.4567 37.9381 44.506 37.9661 46.5554 37.9291C46.6402 37.8789 46.7292 37.8821 46.8202 37.9083C46.9203 37.902 47.0208 37.8956 47.1214 37.8893C47.1774 37.855 47.2358 37.8504 47.2957 37.8789C47.3699 37.8726 47.4446 37.8667 47.5188 37.8604C47.5561 37.8206 47.6007 37.8179 47.649 37.8391C47.7893 37.8238 47.9296 37.8084 48.0699 37.7931C48.0848 37.761 48.1078 37.7578 48.137 37.7763C48.193 37.7687 48.249 37.7605 48.3055 37.7529C48.3596 37.7176 48.4171 37.6991 48.4827 37.7185C48.5574 37.7041 48.6321 37.6896 48.7068 37.6756C48.7187 37.6503 48.735 37.6394 48.7613 37.6607C48.7973 37.6498 48.8336 37.639 48.87 37.6282C48.9179 37.5902 48.9711 37.5699 49.0348 37.5821C49.154 37.5459 49.2732 37.5102 49.3924 37.4741C49.3996 37.4429 49.4183 37.4339 49.4489 37.447C49.4796 37.4375 49.5107 37.4284 49.5418 37.419C49.5504 37.3937 49.5653 37.3828 49.5926 37.3986C49.6725 37.3652 49.753 37.3318 49.833 37.2979C49.8559 37.2631 49.8851 37.24 49.9321 37.2522C49.9613 37.2405 49.9905 37.2283 50.0197 37.2165C50.0245 37.1872 50.0403 37.1754 50.0714 37.1867C50.1303 37.1587 50.1892 37.1302 50.2486 37.1022L50.2596 37.081L50.2826 37.0878C50.3156 37.0697 50.3486 37.0512 50.3817 37.0331L50.3956 37.0087L50.4243 37.0105C50.4621 36.9866 50.4995 36.9613 50.5387 36.9391C51.5615 36.3644 52.3247 35.562 52.8845 34.577C53.1512 34.108 53.3547 33.616 53.5252 33.1108L53.5137 33.0883L53.5347 33.072C53.5568 32.9965 53.5788 32.9211 53.6008 32.8452L53.5879 32.8276L53.607 32.8149C53.6209 32.762 53.6348 32.7092 53.6492 32.6559C53.6243 32.6143 53.6396 32.5813 53.6745 32.5528C53.6966 32.4544 53.7181 32.3559 53.7401 32.2574L53.7239 32.2406L53.7454 32.2284C53.7679 32.1073 53.7909 31.9858 53.8134 31.8643L53.7957 31.8489L53.8168 31.8367C53.8235 31.7825 53.8306 31.7283 53.8373 31.6741C53.834 31.6587 53.8287 31.6438 53.8287 31.6284C53.8287 31.6235 53.8412 31.618 53.8479 31.6126C53.8584 31.5444 53.869 31.4762 53.88 31.4084C53.8508 31.351 53.8565 31.2963 53.8934 31.2444C53.8982 31.1924 53.9029 31.14 53.9073 31.088C53.9029 31.0727 53.8967 31.0578 53.8958 31.0424C53.8958 31.0397 53.8986 31.0365 53.902 31.0338C53.9058 31.0307 53.9101 31.028 53.9135 31.0248C53.9269 30.7659 53.946 30.507 53.9527 30.2481C53.969 29.6318 53.9427 29.0164 53.8828 28.4024L53.8622 28.3884L53.8598 28.3871ZM50.3721 30.7758C50.3774 30.7889 50.3836 30.802 50.3865 30.8151C50.3869 30.8188 50.375 30.8237 50.3688 30.8287C50.3592 31.1856 50.318 31.5385 50.2304 31.8864L50.2433 31.9099L50.2227 31.9275C50.1705 32.2524 50.0781 32.5669 49.9416 32.8696L49.9536 32.884L49.9354 32.8913C49.9191 32.9256 49.9024 32.9599 49.8861 32.9943L49.8947 33.0169L49.8722 33.0291C49.4877 33.8798 48.8107 34.4315 47.9009 34.7455L47.8937 34.7618L47.8827 34.7496C47.8205 34.7704 47.7587 34.7907 47.6964 34.8115L47.6878 34.8278L47.6759 34.8156C47.4992 34.858 47.322 34.9001 47.1453 34.9425L47.1367 34.9624L47.1233 34.9457C46.9916 34.9656 46.8599 34.9855 46.7278 35.0053L46.7216 35.0252L46.7125 35.0067C46.3126 35.06 45.91 35.0695 45.5068 35.0677C44.9312 35.0654 44.3557 35.0681 43.7802 35.0663C43.5771 35.0654 43.5752 35.06 43.5704 34.8598C43.569 34.8056 43.5704 34.7514 43.5704 34.6972C43.5704 31.5155 43.5695 28.3342 43.5714 25.1525C43.5714 24.702 43.5106 24.7666 43.9995 24.7644C44.7129 24.7607 45.4268 24.7621 46.1403 24.7644C46.3931 24.7653 46.6469 24.7585 46.8982 24.7964C46.9131 24.786 46.9265 24.7815 46.9389 24.7833C46.9452 24.7842 46.9509 24.787 46.9562 24.7915C46.9615 24.796 46.9667 24.8019 46.971 24.81C47.2052 24.8294 47.436 24.8647 47.6591 24.9379C47.673 24.9279 47.6845 24.9252 47.6932 24.9288C47.6999 24.9315 47.7056 24.9374 47.7104 24.9455C47.7118 24.9483 47.7127 24.9519 47.7142 24.955C47.8415 24.9745 47.9593 25.0214 48.0738 25.0752L48.1025 25.0693L48.1192 25.0924C48.7997 25.349 49.2799 25.8139 49.6429 26.3995C49.7003 26.4926 49.7458 26.5924 49.797 26.6891L49.8176 26.6986L49.8076 26.7167C49.831 26.7677 49.855 26.8183 49.8784 26.8694C49.8962 26.8735 49.9076 26.8802 49.9096 26.8915C49.9105 26.8961 49.9096 26.901 49.9072 26.9069C49.9057 26.9101 49.9043 26.9128 49.9019 26.9164C49.9144 26.9476 49.9263 26.9783 49.9388 27.0095L49.9603 27.023L49.9498 27.0447C50.0479 27.2598 50.1183 27.4821 50.16 27.7129C50.17 27.7238 50.1811 27.7342 50.1887 27.7459C50.1902 27.7477 50.1844 27.7527 50.1796 27.7581C50.1782 27.7599 50.1753 27.7631 50.1753 27.7631C50.1911 27.8358 50.2064 27.9081 50.2218 27.9804C50.2443 27.9994 50.2587 28.0197 50.2596 28.0423C50.2596 28.0514 50.2577 28.0608 50.2534 28.0712C50.251 28.0762 50.2481 28.0816 50.2443 28.0866C50.2543 28.1381 50.2648 28.1896 50.2749 28.2416C50.295 28.2795 50.3094 28.3179 50.3152 28.3572C50.3195 28.3871 50.3195 28.4169 50.3133 28.4476C50.3113 28.458 50.3084 28.4679 50.3051 28.4783C50.374 28.7435 50.3678 29.0169 50.3869 29.2857C50.4229 29.7823 50.4315 30.2806 50.3711 30.7772L50.3721 30.7758Z" fill="#FF0000"/>
<path d="M38.4643 22.3833C38.4643 22.2961 38.4662 22.2093 38.4634 22.1221C38.4581 21.9852 38.4452 21.9685 38.3039 21.968C37.2548 21.9662 36.2062 21.9662 35.1571 21.968C35.002 21.968 34.9857 21.9848 34.9847 22.1433C34.9819 22.5129 34.9838 22.8825 34.9838 23.2526C34.9838 24.7314 34.9838 26.2102 34.9828 27.689C34.9828 27.9054 34.9785 27.9054 34.753 27.9099C34.6955 27.9113 34.6376 27.9099 34.5801 27.9099C32.5628 27.9099 30.5456 27.9099 28.5288 27.9099C28.4478 27.9099 28.3674 27.9117 28.287 27.909C28.1409 27.9045 28.1289 27.8937 28.1242 27.7604C28.1208 27.6628 28.1222 27.5647 28.1222 27.4667C28.1222 25.7814 28.1222 24.0961 28.1222 22.4104C28.1222 22.3123 28.1246 22.2147 28.1194 22.1167C28.1131 21.9893 28.0921 21.968 27.9513 21.9676C27.4212 21.9658 26.8907 21.9572 26.3607 21.9708C25.8225 21.9843 25.3882 22.2084 25.052 22.6042C24.883 22.8035 24.7858 23.0339 24.7111 23.2752L24.724 23.2987L24.7034 23.3172C24.6977 23.4473 24.6872 23.5774 24.6872 23.708C24.6857 28.3518 24.6857 32.9947 24.6857 37.6376C24.6857 37.7027 24.6862 37.7682 24.6872 37.8333C24.6886 37.916 24.7394 37.9467 24.8203 37.9462C24.8433 37.9462 24.8662 37.9471 24.8892 37.9471C25.8919 37.9471 26.895 37.9471 27.8977 37.9471C27.9321 37.9471 27.9666 37.9471 28.0016 37.9453C28.0677 37.9422 28.1098 37.911 28.1141 37.8477C28.1198 37.761 28.1208 37.6742 28.1213 37.587C28.1218 37.0543 28.1213 36.5216 28.1213 35.9885C28.1213 34.3574 28.1208 32.7263 28.1218 31.0953C28.1218 30.845 28.1256 30.845 28.3894 30.8418C28.4354 30.8414 28.4818 30.8418 28.5278 30.8418C30.5451 30.8418 32.5624 30.8414 34.5792 30.8423C35.0302 30.8423 34.9823 30.7966 34.9823 31.2281C34.9833 33.3377 34.9823 35.4472 34.9828 37.5563C34.9828 37.6539 34.9833 37.752 34.9881 37.8495C34.991 37.9137 35.0345 37.9435 35.1006 37.9449C35.193 37.9462 35.2849 37.9471 35.3774 37.9471C36.2536 37.9471 37.1294 37.9503 38.0056 37.9462C38.5376 37.9435 38.4629 38.0199 38.4629 37.5197C38.4648 32.4742 38.4643 27.4287 38.4643 22.3833Z" fill="#FF0000"/>
<path d="M104.907 30.6584C104.844 30.5553 104.783 30.4519 104.71 30.3299C106.212 28.5836 107.715 26.8405 109.22 25.0983C109.202 25.0544 109.167 25.0269 109.118 25.0246C109.015 25.0205 108.911 25.0192 108.808 25.0192C107.75 25.0192 106.693 25.0192 105.635 25.0183C105.51 25.0183 105.382 25.035 105.259 24.9948C105.155 25.0513 105.099 25.1493 105.027 25.2334C104.655 25.6761 104.285 26.1207 103.914 26.5649C103.045 27.6068 102.176 28.6496 101.303 29.6897C101.26 29.7403 101.239 29.8392 101.118 29.8008V29.4434C101.118 27.5191 101.118 25.5944 101.118 23.6701C101.118 23.5074 101.121 23.3456 101.079 23.1839C100.973 22.7723 100.716 22.4641 100.359 22.2202C100.298 22.2256 100.262 22.1917 100.231 22.1492L100.225 22.1465C100.165 22.1551 100.125 22.1253 100.09 22.0855L100.085 22.0842C100.024 22.0977 99.9782 22.0724 99.9389 22.0317C99.8968 22.0241 99.8542 22.0159 99.812 22.0083C99.7527 22.0286 99.7005 22.0191 99.6564 21.9757C99.0694 21.9739 98.4819 21.9708 97.8948 21.9708C97.7507 21.9708 97.7306 21.992 97.7249 22.1149C97.7225 22.1691 97.7234 22.2233 97.7234 22.278C97.7234 27.3949 97.7234 32.5113 97.7234 37.6281C97.7234 37.7041 97.7249 37.78 97.7287 37.8559C97.7311 37.9038 97.7584 37.9358 97.8106 37.9426C97.8446 37.9467 97.8795 37.9485 97.914 37.9485C98.9157 37.9485 99.9179 37.9494 100.92 37.948C101.111 37.948 101.113 37.9417 101.117 37.7651C101.119 37.7 101.117 37.6345 101.117 37.5694C101.117 36.2225 101.117 34.8752 101.117 33.5283C101.117 33.4416 101.119 33.3544 101.117 33.2676C101.115 33.0892 101.206 32.9572 101.351 32.8529C101.442 32.7864 101.543 32.734 101.657 32.7083C101.759 32.6279 101.858 32.6333 101.954 32.7187C101.974 32.7218 101.993 32.7282 102.01 32.7367C102.053 32.7295 102.079 32.7476 102.092 32.7851C102.282 32.8971 102.424 33.0548 102.545 33.227C102.697 33.4438 102.843 33.6657 102.974 33.8948C103.69 35.1463 104.399 36.401 105.111 37.6548C105.149 37.7217 105.184 37.7899 105.224 37.8563C105.26 37.9169 105.311 37.953 105.39 37.9494C105.471 37.9458 105.552 37.9494 105.632 37.9494C106.738 37.9494 107.843 37.9494 108.949 37.9494C109.348 37.9494 109.381 37.981 109.148 37.6001C107.732 35.2877 106.319 32.973 104.906 30.6593L104.907 30.6584Z" fill="#21232A"/>
<path d="M81.837 26.343C81.4592 25.982 81.0144 25.7177 80.5188 25.5266C80.4786 25.5392 80.4547 25.5198 80.4355 25.4895C80.4154 25.4859 80.3953 25.48 80.3762 25.4728C80.3149 25.4877 80.2713 25.4597 80.2325 25.4195C79.9577 25.3495 79.6833 25.279 79.4085 25.209C79.3271 25.232 79.2567 25.209 79.1925 25.1615C79.1489 25.1561 79.1054 25.1511 79.0618 25.1457C78.9593 25.1692 78.8645 25.1507 78.7769 25.0969C78.6878 25.0883 78.5992 25.0802 78.5102 25.0716C78.3862 25.1001 78.2684 25.0829 78.1544 25.0314C78.0189 25.0251 77.8834 25.0187 77.7484 25.0124C77.5444 25.0495 77.3395 25.0174 77.135 25.0183C76.9813 25.0187 76.8281 25.0178 76.6744 25.0165C76.5207 25.0151 76.367 25.0133 76.2137 25.012C76.1012 25.0183 75.9892 25.0246 75.8767 25.0309C75.7646 25.0861 75.6463 25.1023 75.5223 25.0788C75.4783 25.0838 75.4337 25.0883 75.3897 25.0933C75.303 25.1452 75.2101 25.1683 75.1082 25.1466C74.8266 25.1918 74.5556 25.2745 74.2841 25.3549C74.2458 25.396 74.2017 25.4236 74.1404 25.4087C74.1213 25.4159 74.1021 25.4213 74.082 25.4249C74.0634 25.4556 74.038 25.4737 73.9978 25.4638C73.8326 25.5397 73.6607 25.6057 73.5031 25.6933C72.6647 26.1596 72.0217 26.7899 71.6874 27.6682C71.5945 27.9122 71.4993 28.1589 71.5151 28.4259C72.5512 28.4259 73.5874 28.4273 74.6236 28.4259C74.7385 28.4259 74.8534 28.4164 74.9683 28.4115C75.1838 28.0202 75.53 27.792 75.9796 27.6949C76.1022 27.6682 76.2262 27.6474 76.3497 27.6235C76.4374 27.553 76.5379 27.5611 76.6404 27.581C76.9138 27.5634 77.1877 27.562 77.4611 27.5819C77.5635 27.5611 77.6636 27.5548 77.7517 27.6239C77.8164 27.6316 77.881 27.6388 77.9452 27.6465C77.9677 27.6398 77.9892 27.6361 78.0098 27.6366C78.0438 27.6375 78.0749 27.651 78.1008 27.6827C78.3392 27.7193 78.5705 27.7776 78.7917 27.8711C79.3725 28.116 79.5617 28.9116 78.9469 29.3354C78.7884 29.4448 78.6174 29.5306 78.4336 29.5939C78.3953 29.635 78.3522 29.6635 78.2899 29.6472C78.2703 29.6544 78.2497 29.6589 78.2286 29.6616C78.1884 29.7019 78.1429 29.7281 78.0816 29.7095C77.9471 29.738 77.8125 29.7669 77.678 29.7954C77.6138 29.8469 77.542 29.8659 77.4601 29.8419C77.4166 29.8469 77.3725 29.8519 77.3289 29.8568C77.2408 29.9097 77.1465 29.9296 77.044 29.902C77.0005 29.9061 76.9564 29.9102 76.9128 29.9138C76.7773 29.9653 76.6385 29.9919 76.4919 29.972C76.4484 29.977 76.4048 29.9824 76.3607 29.9874C76.2961 30.0335 76.2262 30.0579 76.1448 30.0335C76.0797 30.0412 76.0141 30.0489 75.949 30.0565C75.8139 30.1293 75.6688 30.1202 75.5233 30.1013C75.4582 30.109 75.3935 30.1162 75.3284 30.1239C75.2844 30.1632 75.235 30.1817 75.1757 30.1587C75.0181 30.1894 74.8606 30.2196 74.7031 30.2504C74.6609 30.2883 74.614 30.3118 74.5537 30.2924C74.3717 30.3425 74.1898 30.3927 74.0083 30.4428C73.9695 30.4826 73.9255 30.5106 73.8642 30.4953C73.8445 30.5025 73.8249 30.5079 73.8038 30.5115C73.7665 30.5544 73.7215 30.5807 73.6597 30.5666L73.6554 30.568C73.619 30.6073 73.5773 30.6362 73.517 30.624C73.1761 30.7569 72.8543 30.9227 72.5431 31.1084C71.9115 31.4861 71.504 32.0197 71.3077 32.6956C71.0535 33.5722 71.0597 34.4528 71.2967 35.332C71.5141 36.1376 71.9972 36.7584 72.7581 37.1854C73.0056 37.3241 73.2604 37.4479 73.5237 37.5559C73.585 37.5441 73.6339 37.5626 73.6688 37.6119C73.6889 37.6155 73.7085 37.6209 73.7277 37.6277C73.789 37.6137 73.8364 37.6354 73.8742 37.6797C73.8948 37.6828 73.9149 37.6873 73.935 37.6937C73.9963 37.6783 74.0456 37.6955 74.0844 37.742C74.2185 37.7705 74.353 37.7989 74.4871 37.8279C74.547 37.8093 74.6001 37.8157 74.6422 37.8645C74.7064 37.8721 74.7711 37.8798 74.8352 37.8875C74.9592 37.8703 75.0813 37.8663 75.1934 37.9336C75.6947 37.9593 76.1955 37.948 76.6969 37.934C76.8568 37.8636 77.0249 37.8739 77.1934 37.8889C77.281 37.8816 77.3682 37.8739 77.4558 37.8667C77.5209 37.8084 77.5975 37.8066 77.6789 37.8265C77.7431 37.8184 77.8073 37.8102 77.8714 37.8021C77.9126 37.7529 77.9653 37.7447 78.0256 37.7628C78.1592 37.7334 78.2928 37.7041 78.4264 37.6742C78.4637 37.6245 78.515 37.611 78.5758 37.625C78.5954 37.6191 78.615 37.6146 78.6352 37.611C78.6715 37.5622 78.7209 37.5446 78.7822 37.5581C79.1336 37.4402 79.4568 37.2653 79.7977 37.0896C80.0199 37.5373 80.3378 37.8559 80.8497 37.958C80.9512 37.9417 81.0503 37.9417 81.1408 37.9982C81.6422 37.9986 82.143 37.9991 82.6443 38C82.6707 37.9824 82.697 37.9648 82.7233 37.9467C82.7253 37.8708 82.7281 37.7949 82.7281 37.7185C82.7281 34.6556 82.7281 31.5923 82.7281 28.5294C82.7281 28.4426 82.7296 28.3554 82.7243 28.2687C82.6798 27.5241 82.3958 26.8771 81.837 26.343ZM79.3467 33.0322C79.237 33.9973 78.7539 34.7184 77.8078 35.1386C77.8034 35.144 77.7977 35.1486 77.7929 35.1531C77.7881 35.158 77.7833 35.1626 77.7785 35.1666C77.7737 35.1707 77.7684 35.1748 77.7632 35.1784C77.7526 35.1856 77.7412 35.191 77.7292 35.1946C77.711 35.2001 77.6909 35.2014 77.6679 35.1965C77.6488 35.2037 77.6292 35.2091 77.609 35.2123C77.6043 35.2199 77.5985 35.2263 77.5928 35.2321C77.5899 35.2349 77.587 35.2376 77.5837 35.2398C77.5679 35.2516 77.5497 35.2556 77.5243 35.2457C77.4831 35.2556 77.4415 35.266 77.4003 35.2764C77.385 35.2918 77.3682 35.304 77.3505 35.313C77.3447 35.3162 77.3385 35.3184 77.3323 35.3207C77.3079 35.3293 77.2806 35.3297 77.2499 35.3198C77.2073 35.3266 77.1642 35.3329 77.1216 35.3397C77.1091 35.3487 77.0967 35.3568 77.0842 35.3636C77.0713 35.3704 77.0589 35.3767 77.0455 35.3812C77.0014 35.3971 76.9545 35.3989 76.9037 35.3812C76.5398 35.4206 76.1754 35.4237 75.8106 35.3885C75.79 35.3948 75.7699 35.3984 75.7507 35.3993C75.7316 35.4002 75.7129 35.3984 75.6947 35.3944C75.6588 35.3862 75.6253 35.3677 75.5937 35.341C75.552 35.332 75.5104 35.323 75.4687 35.3135C75.4539 35.3184 75.4409 35.3189 75.4294 35.3166C75.4256 35.3157 75.4218 35.3144 75.4184 35.313C75.4112 35.3099 75.405 35.3053 75.3993 35.2995C75.3935 35.2936 75.3892 35.2873 75.3844 35.2791C75.3643 35.2755 75.3452 35.2701 75.3265 35.2624C75.3188 35.2638 75.3102 35.2642 75.303 35.2647C75.2944 35.2647 75.2858 35.2642 75.2781 35.2629C75.2604 35.2597 75.2451 35.2525 75.2312 35.2425C75.2159 35.2312 75.2039 35.2168 75.1915 35.2005L75.1881 35.1992C75.1709 35.2014 75.1565 35.1987 75.1441 35.1937C75.134 35.1892 75.1244 35.1833 75.1177 35.1739C75.1129 35.1671 75.1086 35.1594 75.1053 35.1499C74.7366 34.9308 74.5656 34.5955 74.5029 34.207C74.4479 33.8681 74.5 33.5392 74.648 33.222C74.7634 32.9739 74.9362 32.7846 75.19 32.655C75.5568 32.4679 75.9413 32.3315 76.3517 32.2623C76.3593 32.2551 76.3675 32.2488 76.3756 32.2429C76.3837 32.237 76.3919 32.2321 76.4005 32.2275C76.4512 32.2009 76.5082 32.1982 76.5695 32.2131C76.6116 32.2072 76.6538 32.2009 76.6959 32.195C76.7189 32.1724 76.7443 32.1575 76.7706 32.148C76.8147 32.1327 76.863 32.1336 76.9143 32.1453C76.9564 32.1394 76.9985 32.1331 77.0402 32.1272C77.0479 32.1196 77.056 32.1128 77.0641 32.1064C77.1211 32.0644 77.1881 32.0631 77.259 32.0784C77.3007 32.0717 77.3423 32.0653 77.384 32.0586L77.3864 32.0558C77.3936 32.0473 77.4012 32.04 77.4089 32.0342C77.417 32.0278 77.4257 32.0224 77.4343 32.0188C77.4649 32.0061 77.5003 32.0075 77.5377 32.0174C77.6708 31.9876 77.8039 31.9583 77.937 31.9284C77.9514 31.9086 77.9677 31.8954 77.9859 31.8873C78.016 31.8738 78.051 31.8742 78.0888 31.8832C78.3373 31.811 78.5854 31.7387 78.8339 31.6659C78.8382 31.6569 78.8434 31.6492 78.8497 31.6429C78.8559 31.6366 78.8621 31.632 78.8698 31.6293C78.8846 31.623 78.9033 31.6235 78.9234 31.6284C78.9426 31.6216 78.9622 31.6162 78.9823 31.6126C78.9866 31.6067 78.9904 31.6009 78.9952 31.5959C79 31.5909 79.0048 31.586 79.0101 31.5819C79.0206 31.5733 79.0316 31.5665 79.0436 31.5616C79.0675 31.5516 79.0953 31.5494 79.1264 31.5557C79.1791 31.5363 79.2313 31.5137 79.2854 31.4987C79.3227 31.4888 79.35 31.5141 79.3649 31.5435C79.3745 31.5616 79.373 31.5859 79.373 31.6072C79.3673 32.082 79.3989 32.5574 79.3448 33.0313L79.3467 33.0322Z" fill="#21232A"/>
<path d="M96.0092 30.3398C96.0092 30.1767 96.0072 30.0136 96.0015 29.851C95.9838 29.3386 95.9115 28.8326 95.7784 28.3365C95.5016 27.3054 94.9629 26.4497 93.9291 25.935C93.8683 25.9427 93.8305 25.9111 93.7989 25.8677L93.7932 25.865C93.7515 25.8722 93.7256 25.8542 93.7108 25.8185C93.6916 25.813 93.6735 25.8063 93.6557 25.7972C93.6141 25.8054 93.5882 25.7873 93.5729 25.7525C93.5538 25.7475 93.5351 25.7407 93.5178 25.7317C93.4762 25.7403 93.4503 25.7222 93.4345 25.6879C93.4149 25.6834 93.3962 25.6766 93.3785 25.668C93.3182 25.6788 93.2775 25.6486 93.2425 25.6084L93.2382 25.607C93.1764 25.6192 93.1348 25.5898 93.0984 25.5483C93.0764 25.5447 93.0558 25.5374 93.0366 25.5275C92.9959 25.5406 92.972 25.5207 92.9528 25.4904C92.9327 25.4868 92.9131 25.4814 92.8939 25.4742C92.8322 25.4891 92.7886 25.4606 92.7503 25.4204C92.7287 25.4172 92.7081 25.4118 92.688 25.4037C92.6272 25.419 92.5837 25.3919 92.5444 25.3531C92.3615 25.3052 92.1786 25.2573 91.9957 25.209C91.9143 25.2306 91.8458 25.204 91.7826 25.1579C91.739 25.1511 91.695 25.1443 91.6514 25.1376C91.5709 25.162 91.5006 25.1385 91.4354 25.0942C91.3694 25.0865 91.3033 25.0788 91.2372 25.0711C91.1999 25.0906 91.1687 25.0842 91.1438 25.0517C90.9667 25.0391 90.789 25.0264 90.6119 25.0138C90.4357 25.0336 90.2595 25.0355 90.0837 25.026C90.0248 25.0228 89.9664 25.0183 89.9075 25.0129C89.796 25.0201 89.6844 25.0269 89.5728 25.0341C89.5503 25.0472 89.5278 25.058 89.5043 25.0666C89.4928 25.0707 89.4809 25.0743 89.4694 25.0775C89.4397 25.0852 89.4095 25.0888 89.3789 25.0888C89.3636 25.0888 89.3478 25.0879 89.3324 25.0856C89.3171 25.0833 89.3008 25.0806 89.285 25.077C89.2199 25.0842 89.1543 25.0919 89.0892 25.0992C89.0811 25.1055 89.0729 25.1109 89.0648 25.1163C89.0566 25.1218 89.048 25.1263 89.0394 25.1303C89.0222 25.1389 89.0049 25.1452 88.9867 25.1493C88.9685 25.1534 88.9499 25.1552 88.9307 25.1547C88.9116 25.1543 88.8915 25.1511 88.8713 25.1452C88.8287 25.1516 88.7861 25.1574 88.743 25.1638C88.7378 25.1683 88.732 25.1728 88.7267 25.1769C88.7157 25.185 88.7042 25.1922 88.6923 25.1977C88.6803 25.2031 88.6678 25.2071 88.6549 25.209C88.6353 25.2117 88.6147 25.2099 88.5922 25.2022C88.5496 25.2103 88.507 25.2184 88.4643 25.2266C88.4227 25.2645 88.3767 25.2894 88.3164 25.2704C88.2747 25.279 88.2336 25.2876 88.1919 25.2966C88.1526 25.3418 88.1043 25.3612 88.043 25.3454C88.0233 25.3517 88.0028 25.3562 87.9822 25.3594C87.9434 25.4023 87.8969 25.4263 87.8352 25.4109C87.816 25.4177 87.7959 25.4227 87.7758 25.4258C87.7562 25.4556 87.7313 25.4751 87.691 25.4602C87.6709 25.4701 87.6494 25.4773 87.6269 25.4809C87.5895 25.5203 87.5474 25.5487 87.4871 25.5356C87.058 25.6965 86.651 25.898 86.2594 26.128C85.8212 26.3855 85.4712 26.7244 85.2012 27.1391C85.0317 27.3998 84.8976 27.675 84.7956 27.9646C84.5423 28.683 84.4427 29.4235 84.4422 30.1776C84.4398 32.6771 84.4398 35.1761 84.4389 37.6756C84.4389 37.719 84.4379 37.7628 84.4403 37.8062C84.4461 37.9241 84.4638 37.9435 84.5763 37.9476C84.6682 37.9507 84.7607 37.9489 84.8526 37.9489C85.7394 37.9489 86.6266 37.9512 87.5134 37.948C87.9917 37.9462 87.9285 38.0104 87.929 37.5468C87.9309 34.9931 87.9309 32.4394 87.929 29.8862C87.929 29.668 87.9434 29.4515 87.9783 29.2369C88.066 28.6916 88.3403 28.2583 88.8503 27.9709C89.0088 27.8815 89.1687 27.7965 89.3478 27.7482C89.3664 27.7111 89.3976 27.7021 89.4373 27.7138C89.478 27.7053 89.5182 27.6967 89.5589 27.6881C89.5992 27.6357 89.6528 27.6307 89.7136 27.6483C89.7782 27.6416 89.8433 27.6343 89.908 27.6275C90.1211 27.548 90.3341 27.5476 90.5467 27.6275C90.6119 27.6343 90.6765 27.6411 90.7416 27.6479C90.802 27.6303 90.8561 27.6348 90.8958 27.6876C90.9365 27.6962 90.9772 27.7048 91.0179 27.7134C91.0801 27.6971 91.1266 27.7202 91.1644 27.7649C91.3196 27.8101 91.4594 27.8851 91.6002 27.9601C92.179 28.2678 92.474 28.7476 92.5415 29.3585C92.564 29.5631 92.5635 29.771 92.564 29.9775C92.5655 32.0427 92.565 34.108 92.565 36.1737C92.565 36.2718 92.5602 36.3698 92.5678 36.467C92.6196 37.1217 92.9456 37.5956 93.605 37.8428C93.8104 37.9196 94.0259 37.9503 94.2476 37.9494C94.7087 37.9476 95.1693 37.9507 95.6304 37.9489C96.0618 37.9471 96.0111 37.9959 96.0115 37.5803C96.013 35.1671 96.0125 32.7539 96.0115 30.3407L96.0092 30.3398Z" fill="#21232A"/>
<path d="M105.635 25.0183C106.693 25.0192 107.75 25.0192 108.808 25.0192C108.911 25.0192 109.015 25.0205 109.118 25.0246C109.167 25.0269 109.202 25.0544 109.22 25.0983C109.276 25.0074 109.272 24.9708 109.202 24.9645C109.145 24.9595 109.088 24.9573 109.031 24.9573C107.851 24.9573 106.671 24.9568 105.49 24.9573C105.412 24.9573 105.329 24.9415 105.259 24.9948C105.382 25.035 105.51 25.0183 105.635 25.0183Z" fill="#21232A"/>
<path d="M71.514 28.4268C71.5361 28.4706 71.5749 28.4887 71.6237 28.4892C72.6929 28.4896 73.7621 28.4901 74.8308 28.4901C74.8907 28.4901 74.9438 28.4738 74.9668 28.4133C74.8519 28.4182 74.737 28.4277 74.6221 28.4277C73.5859 28.4286 72.5502 28.4268 71.514 28.4268Z" fill="#21232A"/>
<path d="M77.135 25.0183C77.3395 25.0174 77.5444 25.0495 77.7484 25.0124C77.7072 24.9975 77.666 24.9704 77.6243 24.9699C77.1953 24.9663 76.7658 24.9659 76.3368 24.969C76.2956 24.969 76.2549 24.9966 76.2137 25.012C76.367 25.0133 76.5207 25.0151 76.6744 25.0165C76.8281 25.0178 76.9813 25.0187 77.135 25.0183Z" fill="#21232A"/>
<path d="M90.6119 25.0138C90.3519 24.9433 90.1551 24.9428 89.9075 25.0129C89.9664 25.0183 90.0248 25.0228 90.0837 25.026C90.2595 25.0355 90.4357 25.0336 90.6119 25.0138Z" fill="#21232A"/>
<path d="M89.9057 27.6271C90.1188 27.6497 90.3319 27.6492 90.5444 27.6271C90.3314 27.5471 90.1183 27.5476 89.9057 27.6271Z" fill="#21232A"/>
<path d="M76.9114 29.9151C76.7634 29.8848 76.6212 29.8912 76.4905 29.9734C76.637 29.9933 76.7759 29.9666 76.9114 29.9151Z" fill="#21232A"/>
<path d="M75.948 30.0579C75.8029 30.0443 75.6559 30.0172 75.5223 30.1026C75.6684 30.1216 75.813 30.1306 75.948 30.0579Z" fill="#21232A"/>
<path d="M64.4701 22.0101C64.3332 21.931 64.1867 21.9491 64.0397 21.9744C64.1781 22.0394 64.3232 22.034 64.4701 22.0101Z" fill="#21232A"/>
<path d="M53.8771 31.4075C53.9053 31.3546 53.9451 31.3027 53.8905 31.2435C53.8536 31.2954 53.8474 31.3501 53.8771 31.4075Z" fill="#A6A6A6"/>
<path d="M78.5102 25.0716C78.3991 24.998 78.277 25.0124 78.1544 25.0314C78.2684 25.0829 78.3862 25.1001 78.5102 25.0716Z" fill="#21232A"/>
<path d="M75.8767 25.0309C75.7536 25.0129 75.631 24.9993 75.5223 25.0788C75.6463 25.1023 75.7646 25.0861 75.8767 25.0309Z" fill="#21232A"/>
<path d="M76.3487 27.6248C76.4522 27.6488 76.5508 27.6465 76.6394 27.5824C76.5369 27.562 76.4364 27.5544 76.3487 27.6248Z" fill="#21232A"/>
<path d="M77.3275 29.8582C77.2269 29.8433 77.1273 29.8302 77.0426 29.9034C77.1451 29.9314 77.2394 29.9115 77.3275 29.8582Z" fill="#21232A"/>
<path d="M53.7995 27.9244C53.8029 27.9307 53.8081 27.9366 53.8139 27.9425C53.8158 27.9443 53.8172 27.9461 53.8192 27.9479C53.8608 27.9099 53.8503 27.877 53.8077 27.8471C53.7871 27.8747 53.7852 27.9005 53.7995 27.9244Z" fill="#A6A6A6"/>
<path d="M53.8192 27.9479C53.8192 27.9479 53.8158 27.9443 53.8139 27.9425C53.8158 27.9443 53.8172 27.9461 53.8192 27.9479Z" fill="#A6A6A6"/>
<path d="M65.0917 22.0787C65.0064 22.0033 64.9059 22.0146 64.8044 22.0336C64.8929 22.0882 64.9892 22.1022 65.0917 22.0787Z" fill="#21232A"/>
<path d="M75.3897 25.0933C75.2887 25.0784 75.1891 25.0689 75.1082 25.1466C75.2101 25.1683 75.303 25.1452 75.3897 25.0933Z" fill="#21232A"/>
<path d="M89.4694 25.0775C89.4809 25.0743 89.4928 25.0707 89.5043 25.0666C89.5278 25.058 89.5503 25.0472 89.5728 25.0341C89.4713 25.0151 89.3708 25.002 89.285 25.077C89.3008 25.0806 89.3171 25.0833 89.3324 25.0856C89.3478 25.0879 89.3636 25.0888 89.3789 25.0888C89.4095 25.0888 89.4397 25.0852 89.4694 25.0775Z" fill="#21232A"/>
<path d="M133.711 16.1996C133.7 16.0754 133.619 16.0076 133.482 16.004C133.34 15.9999 133.212 16.0505 133.084 16.0984C132.688 16.2462 132.294 16.4021 131.894 16.5385C130.084 17.1548 128.244 17.6771 126.381 18.133C124.731 18.5369 123.069 18.8866 121.391 19.1713C120.973 19.2422 120.556 19.3213 120.138 19.3967C119.99 19.413 119.842 19.4279 119.695 19.446C119.093 19.521 118.491 19.5969 117.89 19.6723C117.863 19.6394 117.841 19.6448 117.821 19.6787C117.636 19.6985 117.452 19.7189 117.267 19.7388C117.24 19.7053 117.217 19.7121 117.197 19.7455C116.714 19.788 116.231 19.83 115.748 19.8725C115.721 19.8391 115.697 19.8418 115.674 19.8766C115.353 19.8983 115.032 19.9217 114.711 19.9412C114.424 19.9588 114.137 19.9705 113.85 19.9882C113.629 20.0017 113.619 20.0049 113.642 20.2245C113.673 20.5263 113.712 20.8281 113.762 21.1277C114.093 23.1337 114.814 25.0088 115.907 26.7564C116.353 27.469 116.867 28.134 117.485 28.7237C117.703 28.9311 117.92 29.1416 118.195 29.2866C118.375 29.4601 118.6 29.569 118.822 29.6815C119.248 29.897 119.703 29.9969 120.187 29.9716C120.59 29.9508 120.99 29.9074 121.385 29.8229C122.282 29.6305 123.11 29.283 123.893 28.8362C124.845 28.2935 125.696 27.6303 126.487 26.8956C127.882 25.6002 129.06 24.1413 130.135 22.6047C131.4 20.7965 132.492 18.8966 133.477 16.9411C133.546 16.8037 133.606 16.6623 133.664 16.5204C133.706 16.4183 133.721 16.3094 133.711 16.1996Z" fill="#FFD400"/>
<path d="M117.205 18.0458C117.226 18.0458 117.249 18.0508 117.267 18.044C117.293 18.0345 117.334 18.0196 117.338 18.0015C117.348 17.9536 117.31 17.9333 117.262 17.9306C116.655 17.7101 116.188 17.3247 115.813 16.8313C115.517 16.4418 115.314 16.0099 115.152 15.5576C115.031 15.2197 114.96 14.8699 114.862 14.5266C114.856 14.4511 114.852 14.3752 114.842 14.3006C114.811 14.0634 114.773 13.8271 114.745 13.5899C114.664 12.9185 114.679 12.2449 114.683 11.5712C114.684 11.4628 114.688 11.3534 114.677 11.2454C114.66 11.0945 114.562 11.0141 114.405 11.0019C114.25 10.9897 114.109 11.038 113.97 11.0927C113.671 11.2111 113.401 11.3778 113.144 11.5631C111.914 12.4527 110.902 13.5267 110.122 14.7909C109.866 15.2052 109.656 15.6398 109.526 16.1057C109.468 16.3149 109.396 16.5232 109.423 16.7454C109.385 16.9185 109.398 17.0924 109.421 17.2646C109.482 17.73 109.73 18.0756 110.185 18.2798C110.352 18.3548 110.527 18.4063 110.709 18.4411C110.935 18.4845 111.163 18.5071 111.394 18.5139C112.549 18.5478 113.698 18.4714 114.844 18.3467C115.633 18.2609 116.418 18.147 117.205 18.0458Z" fill="#FFD400"/>
<path d="M101.657 32.7083C101.756 32.7119 101.855 32.7151 101.954 32.7187C101.858 32.6333 101.759 32.6279 101.657 32.7083Z" fill="#21232A"/>
<path d="M79.0618 25.1457C78.978 25.0707 78.8784 25.0788 78.7769 25.0969C78.8645 25.1507 78.9593 25.1692 79.0618 25.1457Z" fill="#21232A"/>
<path d="M77.4601 27.5837C77.5487 27.6479 77.6474 27.6501 77.7508 27.6257C77.6632 27.5566 77.5626 27.5629 77.4601 27.5837Z" fill="#21232A"/>
<path d="M57.2768 21.9712C57.1959 21.9473 57.1188 21.9418 57.0546 22.0074C57.1351 22.0318 57.2088 22.0164 57.2768 21.9712Z" fill="#21232A"/>
<path d="M65.4393 22.1379C65.379 22.0729 65.3028 22.0756 65.2233 22.0936C65.2885 22.1379 65.3584 22.1619 65.4393 22.1379Z" fill="#21232A"/>
<path d="M77.677 29.7967C77.596 29.7773 77.5204 29.7805 77.4591 29.8433C77.541 29.8672 77.6133 29.8482 77.677 29.7967Z" fill="#21232A"/>
<path d="M76.3593 29.9888C76.2794 29.9702 76.2032 29.9702 76.1434 30.0349C76.2248 30.0592 76.2947 30.0348 76.3593 29.9888Z" fill="#21232A"/>
<path d="M88.9867 25.1493C89.0049 25.1452 89.0222 25.1389 89.0394 25.1303C89.048 25.1263 89.0566 25.1218 89.0648 25.1163C89.0729 25.1109 89.0811 25.1055 89.0892 25.0992C89.0083 25.0788 88.9312 25.0811 88.8699 25.1457C88.8905 25.1516 88.9102 25.1547 88.9293 25.1552C88.9485 25.1556 88.9671 25.1538 88.9853 25.1498L88.9867 25.1493Z" fill="#21232A"/>
<path d="M91.6514 25.1376C91.5906 25.0725 91.5149 25.0766 91.4354 25.0942C91.5006 25.1385 91.5709 25.162 91.6514 25.1376Z" fill="#21232A"/>
<path d="M79.4085 25.209C79.3486 25.1434 79.2729 25.1425 79.1925 25.1615C79.2567 25.209 79.3271 25.232 79.4085 25.209Z" fill="#21232A"/>
<path d="M91.9957 25.209C91.9377 25.143 91.863 25.1412 91.7826 25.1579C91.8458 25.204 91.9143 25.2306 91.9957 25.209Z" fill="#21232A"/>
<path d="M99.812 22.0083C99.7699 21.9554 99.7163 21.9518 99.6564 21.9757C99.7005 22.0191 99.7527 22.0286 99.812 22.0083Z" fill="#21232A"/>
<path d="M47.5652 22.0286C47.5384 22.0087 47.5107 22.0074 47.481 22.0227C47.5064 22.0557 47.5351 22.0557 47.5652 22.0286Z" fill="#A6A6A6"/>
<path d="M56.9258 22.029C56.8645 22.0132 56.8138 22.0245 56.7793 22.0787C56.8401 22.0936 56.8851 22.0674 56.9258 22.029Z" fill="#21232A"/>
<path d="M100.085 22.0842C100.05 22.0322 100.001 22.0159 99.9389 22.0317C99.9782 22.0724 100.024 22.0977 100.085 22.0842Z" fill="#21232A"/>
<path d="M100.225 22.1465C100.197 22.0914 100.15 22.076 100.09 22.0855C100.125 22.1253 100.165 22.1551 100.225 22.1465Z" fill="#21232A"/>
<path d="M100.359 22.2202C100.334 22.1673 100.292 22.1424 100.231 22.1492C100.262 22.1917 100.298 22.2256 100.359 22.2202Z" fill="#21232A"/>
<path d="M49.5816 22.4361C49.5586 22.4072 49.5284 22.4018 49.4935 22.4131C49.5145 22.4474 49.5447 22.4538 49.5816 22.4361Z" fill="#A6A6A6"/>
<path d="M88.6549 25.209C88.6678 25.2071 88.6803 25.2031 88.6923 25.1977C88.7042 25.1922 88.7157 25.185 88.7267 25.1769C88.732 25.1728 88.7378 25.1683 88.743 25.1638C88.6841 25.1471 88.6315 25.1502 88.5922 25.2022C88.6147 25.2099 88.6353 25.2117 88.6549 25.209Z" fill="#21232A"/>
<path d="M88.4643 25.2266C88.405 25.2108 88.3528 25.2171 88.3164 25.2704C88.3767 25.2894 88.4227 25.2645 88.4643 25.2266Z" fill="#21232A"/>
<path d="M88.1905 25.2966C88.1287 25.2794 88.0789 25.2961 88.0415 25.3454C88.1028 25.3612 88.1512 25.3418 88.1905 25.2966Z" fill="#21232A"/>
<path d="M74.2841 25.3549C74.2228 25.3409 74.174 25.3567 74.1404 25.4087C74.2017 25.4236 74.2458 25.396 74.2841 25.3549Z" fill="#21232A"/>
<path d="M87.9807 25.3594C87.919 25.3441 87.8697 25.3603 87.8337 25.4109C87.8955 25.4263 87.942 25.4023 87.9807 25.3594Z" fill="#21232A"/>
<path d="M92.688 25.4037C92.6545 25.3499 92.6042 25.3395 92.5444 25.3531C92.5837 25.3919 92.6272 25.419 92.688 25.4037Z" fill="#21232A"/>
<path d="M80.3762 25.4728C80.3426 25.42 80.2933 25.4059 80.2325 25.4195C80.2713 25.4597 80.3149 25.4877 80.3762 25.4728Z" fill="#21232A"/>
<path d="M92.8939 25.4742C92.8604 25.4218 92.8116 25.4068 92.7503 25.4204C92.7886 25.4606 92.8322 25.4891 92.8939 25.4742Z" fill="#21232A"/>
<path d="M87.6269 25.4809C87.567 25.4692 87.5177 25.4814 87.4871 25.5356C87.5474 25.5487 87.5895 25.5203 87.6269 25.4809Z" fill="#21232A"/>
<path d="M93.2382 25.607C93.2066 25.555 93.1597 25.5361 93.0984 25.5483C93.1348 25.5898 93.1764 25.6192 93.2382 25.607Z" fill="#21232A"/>
<path d="M93.3785 25.668C93.3498 25.6142 93.3024 25.5989 93.2425 25.6084C93.2775 25.6486 93.3182 25.6788 93.3785 25.668Z" fill="#21232A"/>
<path d="M93.9291 25.935C93.9028 25.8831 93.8597 25.8609 93.7989 25.8677C93.8305 25.9111 93.8683 25.9427 93.9291 25.935Z" fill="#21232A"/>
<path d="M53.6468 32.6554C53.6866 32.6279 53.6899 32.5926 53.6722 32.5524C53.6373 32.5809 53.6219 32.6138 53.6468 32.6554Z" fill="#A6A6A6"/>
<path d="M75.327 30.1252C75.2681 30.1062 75.2149 30.1089 75.1742 30.16C75.2341 30.183 75.2834 30.1645 75.327 30.1252Z" fill="#21232A"/>
<path d="M73.654 30.5685C73.5946 30.5576 73.5458 30.5703 73.5156 30.6245C73.5759 30.6367 73.6171 30.6082 73.654 30.5685Z" fill="#21232A"/>
<path d="M73.8024 30.5124C73.7406 30.4984 73.6928 30.5174 73.6583 30.5676C73.72 30.5816 73.7651 30.5553 73.8024 30.5124Z" fill="#21232A"/>
<path d="M74.0064 30.4438C73.9456 30.4293 73.8958 30.4437 73.8623 30.4962C73.9235 30.5115 73.9676 30.4835 74.0064 30.4438Z" fill="#21232A"/>
<path d="M74.7016 30.2517C74.6423 30.2355 74.5896 30.2409 74.5522 30.2937C74.6126 30.3132 74.6595 30.2897 74.7016 30.2517Z" fill="#21232A"/>
<path d="M78.2276 29.663C78.1673 29.6485 78.1165 29.6589 78.0806 29.7109C78.1424 29.7294 78.1874 29.7032 78.2276 29.663Z" fill="#21232A"/>
<path d="M78.4325 29.5952C78.3717 29.5821 78.3229 29.5975 78.2889 29.6485C78.3511 29.6648 78.3942 29.6363 78.4325 29.5952Z" fill="#21232A"/>
<path d="M91.0161 27.7129C91.0525 27.7617 91.1013 27.7789 91.1626 27.7645C91.1248 27.7197 91.0783 27.6967 91.0161 27.7129Z" fill="#21232A"/>
<path d="M90.7393 27.6479C90.7815 27.6926 90.8317 27.7102 90.8935 27.6876C90.8533 27.6348 90.7997 27.6303 90.7393 27.6479Z" fill="#21232A"/>
<path d="M89.5566 27.6876C89.6183 27.7102 89.6686 27.6926 89.7112 27.6479C89.6509 27.6303 89.5968 27.6352 89.5566 27.6876Z" fill="#21232A"/>
<path d="M78.0089 27.6384C77.9883 27.6379 77.9667 27.6416 77.9442 27.6483C77.9873 27.6935 78.0381 27.7098 78.0998 27.6845C78.074 27.6529 78.0429 27.6393 78.0089 27.6384Z" fill="#21232A"/>
<path d="M53.7378 32.2569L53.7507 32.2443L53.7425 32.228L53.721 32.2402L53.7378 32.2569Z" fill="#A6A6A6"/>
<path d="M49.7109 22.4831L49.6974 22.48L49.7032 22.4958L49.7109 22.4831Z" fill="#A6A6A6"/>
<path d="M40.2584 23.0868L40.2441 23.0953L40.2523 23.1075L40.2709 23.099L40.2584 23.0868Z" fill="#FF0000"/>
<path d="M52.8443 24.9998L52.8496 24.979L52.8299 24.9699L52.8222 24.9907L52.8443 24.9998Z" fill="#A6A6A6"/>
<path d="M53.8105 31.8638L53.8225 31.8512L53.8139 31.8363L53.7928 31.8485L53.8105 31.8638Z" fill="#A6A6A6"/>
<path d="M53.8258 31.6275C53.8258 31.6429 53.8311 31.6578 53.8345 31.6732C53.8426 31.6682 53.8574 31.6632 53.857 31.6587C53.8555 31.6429 53.8493 31.6275 53.845 31.6117C53.8383 31.6167 53.8258 31.6221 53.8258 31.6275Z" fill="#A6A6A6"/>
<path d="M91.2372 25.0711C91.2128 25.0364 91.1821 25.0291 91.1438 25.0517C91.1687 25.0842 91.1999 25.0906 91.2372 25.0711Z" fill="#21232A"/>
<path d="M52.9161 25.1267L52.9228 25.1105L52.906 25.1037L52.896 25.1199L52.9161 25.1267Z" fill="#A6A6A6"/>
<path d="M52.986 25.2568L52.9928 25.2415L52.9769 25.2347L52.9664 25.2501L52.986 25.2568Z" fill="#A6A6A6"/>
<path d="M74.0811 25.4258C74.0413 25.4163 74.0126 25.4272 73.9968 25.4647C74.0365 25.4746 74.0619 25.4566 74.0811 25.4258Z" fill="#21232A"/>
<path d="M87.7758 25.4258C87.7375 25.415 87.7078 25.4236 87.691 25.4602C87.7313 25.4751 87.7562 25.4556 87.7758 25.4258Z" fill="#21232A"/>
<path d="M80.5188 25.5266C80.5035 25.4895 80.4743 25.4796 80.4355 25.4895C80.4547 25.5198 80.4786 25.5392 80.5188 25.5266Z" fill="#21232A"/>
<path d="M93.0366 25.5275C93.0213 25.4904 92.9921 25.4805 92.9528 25.4904C92.972 25.5207 92.9959 25.5406 93.0366 25.5275Z" fill="#21232A"/>
<path d="M93.5178 25.7317C93.5035 25.6947 93.4757 25.6793 93.4345 25.6879C93.4503 25.7222 93.4762 25.7403 93.5178 25.7317Z" fill="#21232A"/>
<path d="M93.6557 25.7972C93.6414 25.7602 93.6141 25.7448 93.5729 25.7525C93.5882 25.7873 93.6141 25.8054 93.6557 25.7972Z" fill="#21232A"/>
<path d="M93.7932 25.865C93.7793 25.8279 93.7525 25.8112 93.7108 25.8185C93.7256 25.8542 93.7515 25.8722 93.7932 25.865Z" fill="#21232A"/>
<path d="M53.9049 31.0871C53.9126 31.0817 53.9274 31.0754 53.9269 31.0709C53.9245 31.0546 53.9169 31.0392 53.9111 31.0239C53.9083 31.0266 53.9035 31.0298 53.8997 31.0329C53.8958 31.0361 53.8929 31.0388 53.8934 31.0415C53.8944 31.0569 53.9006 31.0718 53.9049 31.0871Z" fill="#A6A6A6"/>
<path d="M53.5227 33.1109L53.5409 33.0946L53.5323 33.072L53.5112 33.0883L53.5227 33.1109Z" fill="#A6A6A6"/>
<path d="M53.8805 28.4011L53.8896 28.3853L53.8776 28.3708L53.8598 28.3871L53.8805 28.4011Z" fill="#A6A6A6"/>
<path d="M53.5984 32.8452L53.6142 32.8321L53.6046 32.8144L53.5855 32.8271L53.5984 32.8452Z" fill="#A6A6A6"/>
<path d="M102.012 32.7363C102.026 32.772 102.052 32.7901 102.094 32.7846C102.081 32.7471 102.055 32.7291 102.012 32.7363Z" fill="#21232A"/>
<path d="M41.4694 22.0227L41.4545 22.025L41.4622 22.0381L41.4694 22.0227Z" fill="#FF0000"/>
<path d="M41.2544 22.0986L41.2587 22.0882L41.241 22.0936L41.252 22.1054L41.2544 22.0986Z" fill="#FF0000"/>
<path d="M41.2544 22.0986L41.2587 22.0882C41.2587 22.0882 41.2558 22.0941 41.2544 22.0986Z" fill="#FF0000"/>
<path d="M89.3459 27.7477C89.3866 27.7613 89.4143 27.7459 89.4354 27.7134C89.3957 27.7017 89.365 27.7111 89.3459 27.7477Z" fill="#21232A"/>
<path d="M49.2904 22.3566L49.2924 22.3507L49.2823 22.3485L49.2885 22.3629L49.2904 22.3566Z" fill="#A6A6A6"/>
<path d="M49.2904 22.3566L49.2924 22.3507C49.2924 22.3507 49.2914 22.3534 49.2904 22.3566Z" fill="#A6A6A6"/>
<path d="M53.7215 27.473L53.7425 27.4852L53.7507 27.4699L53.7382 27.4568L53.7215 27.473Z" fill="#A6A6A6"/>
<path d="M53.664 27.1522L53.6659 27.1536C53.6702 27.1568 53.6745 27.1595 53.6745 27.1595L53.6847 27.1437L53.6698 27.131L53.6563 27.1468L53.664 27.1522Z" fill="#A6A6A6"/>
<path d="M53.6563 27.1468L53.664 27.1522C53.6602 27.1495 53.6563 27.1468 53.6563 27.1468Z" fill="#A6A6A6"/>
<path d="M53.6659 27.1536C53.6702 27.1568 53.6745 27.1595 53.6745 27.1595L53.6659 27.1536Z" fill="#A6A6A6"/>
<path d="M53.5371 26.6349L53.5472 26.62L53.5319 26.6091L53.5189 26.6241L53.5371 26.6349Z" fill="#A6A6A6"/>
<path d="M63.9865 30.9552C63.9367 30.9254 63.8841 30.9082 63.8314 30.8996C63.796 30.8938 63.7601 30.892 63.7241 30.8924C63.7064 30.8924 63.6882 30.8933 63.67 30.8947C63.6336 30.8974 63.5972 30.9014 63.5608 30.9064C63.6954 30.9792 63.84 30.9746 63.9865 30.9552Z" fill="#21232A"/>
<path d="M63.4181 35.0591C63.4732 35.0699 63.5277 35.0754 63.5814 35.0749C63.6259 35.0749 63.67 35.0695 63.7135 35.0596C63.7571 35.0496 63.7998 35.0351 63.8419 35.0139C63.6973 34.9999 63.5517 34.9823 63.4181 35.0591Z" fill="#21232A"/>
<path d="M63.2802 28.1426C63.3716 28.1612 63.4613 28.1639 63.5489 28.148C63.5724 28.1435 63.5957 28.1381 63.6192 28.1309C63.6474 28.1218 63.6757 28.1114 63.7035 28.0974C63.5588 28.0839 63.4138 28.0658 63.2802 28.1426Z" fill="#21232A"/>
<path d="M63.7816 24.819C63.6969 24.7702 63.6083 24.7571 63.5178 24.7594C63.4905 24.7598 63.4632 24.7621 63.4359 24.7648C63.4086 24.7675 63.3808 24.7711 63.3535 24.7748C63.4895 24.847 63.6346 24.8407 63.7816 24.819Z" fill="#21232A"/>
<path d="M64.1924 24.8895C64.1618 24.8597 64.1283 24.8421 64.0919 24.8344C64.0737 24.8303 64.055 24.8294 64.0359 24.8303C64.0167 24.8312 63.9966 24.8344 63.976 24.8398C64.0378 24.8976 64.11 24.9117 64.1919 24.8909L64.1924 24.8895Z" fill="#21232A"/>
<path d="M64.0396 34.99C64.0545 34.9954 64.0689 34.9981 64.0828 34.999C64.0952 34.9995 64.1067 34.9981 64.1182 34.9954C64.122 34.9945 64.1258 34.9927 64.1296 34.9913C64.1349 34.9895 64.1402 34.9873 64.1454 34.9845C64.1536 34.9805 64.1612 34.9755 64.1689 34.9701C64.1766 34.9647 64.1842 34.9583 64.1914 34.9516C64.1325 34.9339 64.0798 34.938 64.0396 34.9886L64.0396 34.99Z" fill="#21232A"/>
<path d="M64.3174 34.9308C64.348 34.9398 64.3748 34.938 64.3992 34.929C64.4117 34.924 64.4236 34.9172 64.4351 34.9091C64.4457 34.9019 64.4553 34.8933 64.4648 34.8838C64.405 34.8693 64.3537 34.8788 64.3174 34.9308Z" fill="#21232A"/>
<path d="M64.5261 34.8693C64.5568 34.877 64.5827 34.8734 64.6061 34.863C64.6119 34.8603 64.6176 34.8576 64.6229 34.854C64.6392 34.844 64.6549 34.8309 64.6693 34.8151C64.6085 34.8025 64.5596 34.8178 64.5261 34.8693Z" fill="#21232A"/>
<path d="M64.8105 31.159C64.7971 31.1418 64.7823 31.1278 64.7661 31.1174C64.7493 31.107 64.7311 31.1007 64.711 31.0989C64.6976 31.098 64.6832 31.0989 64.6674 31.1025C64.7018 31.1504 64.7488 31.1721 64.8105 31.159Z" fill="#21232A"/>
<path d="M64.608 31.088C64.6032 31.0822 64.5985 31.0763 64.5932 31.0713C64.5827 31.0609 64.5717 31.0528 64.5602 31.0469C64.5487 31.0411 64.5362 31.037 64.5228 31.0352C64.5166 31.0338 64.5099 31.0338 64.5027 31.0338C64.4955 31.0338 64.4883 31.0343 64.4812 31.0352C64.474 31.0361 64.4663 31.0379 64.4586 31.0397C64.4974 31.0867 64.5462 31.1048 64.608 31.088Z" fill="#21232A"/>
<path d="M64.3346 31.0167C64.3193 30.9977 64.303 30.9846 64.2844 30.9769C64.2719 30.9719 64.259 30.9692 64.2456 30.9683C64.235 30.9674 64.224 30.9683 64.2135 30.9697C64.203 30.971 64.1924 30.9737 64.1809 30.9773C64.2221 31.0248 64.2733 31.0392 64.3346 31.0167Z" fill="#21232A"/>
<path d="M63.9007 28.0721C63.9309 28.0839 63.9578 28.083 63.9827 28.0758C63.9971 28.0712 64.011 28.064 64.0244 28.055C64.0325 28.0495 64.0396 28.0446 64.0472 28.0378L64.0511 28.0346C63.9931 28.0184 63.94 28.0211 63.9007 28.0721Z" fill="#21232A"/>
<path d="M64.177 28.0089C64.2292 28.0238 64.2695 28.0048 64.305 27.9741C64.3102 27.9696 64.315 27.9651 64.3198 27.9601C64.2619 27.9479 64.2105 27.9565 64.177 28.0089Z" fill="#21232A"/>
<path d="M59.0413 28.1553C59.0508 28.1553 59.0617 28.1521 59.0742 28.1485C59.0474 28.1327 59.0201 28.1164 58.9933 28.1002C58.9952 28.1395 59.0121 28.1562 59.0413 28.1553Z" fill="#21232A"/>
<path d="M50.3051 28.4783C50.3084 28.4679 50.3113 28.458 50.3133 28.4476C50.3195 28.4169 50.3195 28.3871 50.3152 28.3572C50.3094 28.3179 50.295 28.2795 50.2749 28.2416C50.2332 28.3261 50.2716 28.402 50.3051 28.4783Z" fill="#A6A6A6"/>
<path d="M50.2443 28.0866C50.2481 28.0816 50.251 28.0762 50.2534 28.0712C50.2577 28.0608 50.2596 28.0514 50.2596 28.0423C50.2587 28.0197 50.2443 27.9994 50.2218 27.9804C50.2021 28.0206 50.204 28.0572 50.2443 28.0866Z" fill="#A6A6A6"/>
<path d="M46.971 24.81C46.9667 24.8019 46.9615 24.796 46.9562 24.7915C46.9509 24.787 46.9452 24.7842 46.9389 24.7833C46.9265 24.7815 46.9131 24.786 46.8982 24.7964C46.9169 24.8281 46.9413 24.8317 46.971 24.81Z" fill="#A6A6A6"/>
<path d="M50.2118 31.9058L50.2227 31.9275L50.2433 31.9099L50.2295 31.8873L50.2118 31.9058Z" fill="#A6A6A6"/>
<path d="M47.7142 24.955C47.7127 24.9519 47.7118 24.9483 47.7104 24.9455C47.7056 24.9374 47.6999 24.9315 47.6932 24.9288C47.6845 24.9252 47.673 24.9279 47.6591 24.9379C47.6701 24.965 47.6888 24.9695 47.7142 24.955Z" fill="#A6A6A6"/>
<path d="M48.1192 25.0924L48.1025 25.0693L48.0738 25.0752L48.0915 25.096L48.1192 25.0924Z" fill="#A6A6A6"/>
<path d="M50.3688 30.8287C50.375 30.8237 50.3869 30.8188 50.3865 30.8151C50.3836 30.8016 50.3769 30.7903 50.3711 30.7772C50.3496 30.7939 50.3482 30.8106 50.3674 30.8292L50.3688 30.8287Z" fill="#A6A6A6"/>
<path d="M46.7216 35.0252L46.7278 35.0053L46.7125 35.0067L46.7216 35.0252Z" fill="#A6A6A6"/>
<path d="M47.1367 34.9624L47.1453 34.9425L47.1233 34.9457L47.1367 34.9624Z" fill="#A6A6A6"/>
<path d="M47.6759 34.8156L47.6878 34.8278L47.6964 34.8115L47.6845 34.8029L47.6759 34.8156Z" fill="#A6A6A6"/>
<path d="M47.8937 34.7618L47.9009 34.7455L47.8827 34.7496L47.8937 34.7618Z" fill="#A6A6A6"/>
<path d="M49.8722 33.0291L49.8947 33.0169L49.8861 32.9943L49.866 33.0069L49.8722 33.0291Z" fill="#A6A6A6"/>
<path d="M49.9273 32.8786L49.9354 32.8913L49.9536 32.884L49.9411 32.8709L49.9273 32.8786Z" fill="#A6A6A6"/>
<path d="M49.9536 32.884L49.9416 32.8696L49.9411 32.8709L49.9536 32.884Z" fill="#A6A6A6"/>
<path d="M50.1495 27.7306C50.1557 27.7423 50.1662 27.7523 50.1753 27.7631C50.1753 27.7631 50.1782 27.7599 50.1796 27.7581C50.1844 27.7527 50.1902 27.7477 50.1887 27.7459C50.1811 27.7342 50.17 27.7238 50.16 27.7129C50.1562 27.7193 50.1475 27.7269 50.1495 27.7306Z" fill="#A6A6A6"/>
<path d="M49.9498 27.0433L49.9603 27.023L49.9388 27.0095L49.9311 27.0293L49.9498 27.0433Z" fill="#A6A6A6"/>
<path d="M49.9603 27.023L49.9383 27.0081L49.9388 27.0095L49.9603 27.023Z" fill="#A6A6A6"/>
<path d="M49.9019 26.9164C49.9043 26.9128 49.9057 26.9101 49.9072 26.9069C49.9096 26.901 49.9105 26.8961 49.9096 26.8915C49.9076 26.8802 49.8962 26.8735 49.8784 26.8694C49.8655 26.8942 49.8713 26.9105 49.9019 26.9164Z" fill="#A6A6A6"/>
<path d="M49.9096 26.8915C49.9076 26.8802 49.8962 26.8735 49.8784 26.8694C49.8957 26.8735 49.9081 26.8793 49.91 26.8902L49.9096 26.8915Z" fill="#A6A6A6"/>
<path d="M49.8076 26.7167L49.8176 26.6986L49.797 26.6891L49.7908 26.7063L49.8076 26.7167Z" fill="#A6A6A6"/>
<path d="M77.2605 32.0793C77.1891 32.064 77.1206 32.0644 77.0641 32.1064C77.056 32.1123 77.0498 32.12 77.0416 32.1281C77.125 32.1525 77.1977 32.1354 77.2605 32.0793Z" fill="#21232A"/>
<path d="M76.9157 32.1462C76.8645 32.1345 76.8147 32.1327 76.7706 32.148C76.7443 32.1575 76.7189 32.1724 76.6959 32.195C76.7788 32.2185 76.8535 32.2036 76.9157 32.1462Z" fill="#21232A"/>
<path d="M76.571 32.2135C76.5097 32.1986 76.4512 32.2009 76.4005 32.2275C76.3919 32.2321 76.3837 32.237 76.3756 32.2429C76.3675 32.2488 76.3608 32.2551 76.3531 32.2623C76.4354 32.2849 76.5092 32.2727 76.571 32.2135Z" fill="#21232A"/>
<path d="M75.5946 35.3419C75.6262 35.3686 75.6588 35.3858 75.6947 35.3944C75.7129 35.3984 75.7316 35.4002 75.7507 35.3993C75.7699 35.3984 75.7909 35.3957 75.8115 35.3894C75.7502 35.3284 75.6751 35.3239 75.5946 35.3419Z" fill="#21232A"/>
<path d="M76.9037 35.3812C76.9545 35.3989 77.0014 35.3971 77.0455 35.3812C77.0589 35.3767 77.0713 35.3704 77.0842 35.3636C77.0967 35.3568 77.1091 35.3487 77.1216 35.3397C77.0421 35.3216 76.966 35.3184 76.9037 35.3812Z" fill="#21232A"/>
<path d="M77.2509 35.3207C77.2815 35.3306 77.3074 35.3288 77.3323 35.3207C77.3385 35.3184 77.3447 35.3162 77.3505 35.313C77.3682 35.304 77.385 35.2918 77.4003 35.2764C77.3404 35.2611 77.2882 35.2687 77.2509 35.3207Z" fill="#21232A"/>
<path d="M75.1915 35.2005C75.2039 35.2168 75.2159 35.2312 75.2312 35.2425C75.2451 35.2525 75.2604 35.2597 75.2781 35.2629C75.2858 35.2642 75.2944 35.2647 75.303 35.2647C75.3102 35.2642 75.3188 35.2638 75.3265 35.2624C75.2968 35.2123 75.2513 35.1924 75.1915 35.2005Z" fill="#21232A"/>
<path d="M77.6679 35.1965C77.6909 35.2014 77.711 35.2001 77.7292 35.1946C77.7412 35.191 77.7526 35.1856 77.7632 35.1784C77.7684 35.1748 77.7737 35.1707 77.7785 35.1666C77.7833 35.1626 77.7881 35.158 77.7929 35.1531C77.7977 35.1481 77.8015 35.1431 77.8063 35.1382C77.7454 35.1269 77.698 35.1449 77.6664 35.196L77.6679 35.1965Z" fill="#21232A"/>
<path d="M77.5391 32.0179C77.5013 32.008 77.4649 32.0061 77.4343 32.0188C77.4257 32.0224 77.417 32.0278 77.4089 32.0342C77.4012 32.04 77.3936 32.0473 77.3864 32.0558L77.384 32.0586C77.4467 32.0821 77.496 32.0635 77.5377 32.0174L77.5391 32.0179Z" fill="#21232A"/>
<path d="M78.0903 31.8837C78.0524 31.8747 78.016 31.8733 77.9859 31.8873C77.9677 31.8954 77.9528 31.9095 77.9385 31.9289C78.0012 31.9497 78.0491 31.928 78.0903 31.8837Z" fill="#21232A"/>
<path d="M79.1264 31.5557C79.0953 31.5494 79.0675 31.5516 79.0436 31.5616C79.0316 31.5665 79.0206 31.5733 79.0101 31.5819C79.0048 31.586 79 31.5909 78.9952 31.5959C78.9904 31.6009 78.9866 31.6067 78.9823 31.6126C79.0455 31.628 79.0905 31.6027 79.1264 31.5557Z" fill="#21232A"/>
<path d="M78.9234 31.6284C78.9033 31.6235 78.8846 31.623 78.8698 31.6293C78.8621 31.632 78.8559 31.6366 78.8497 31.6429C78.8439 31.6488 78.8401 31.6569 78.8353 31.6664C78.877 31.679 78.9047 31.6632 78.9234 31.6284Z" fill="#21232A"/>
<path d="M75.1067 35.1499C75.1101 35.1594 75.1125 35.1671 75.1177 35.1739C75.1244 35.1833 75.134 35.1892 75.1441 35.1937C75.1565 35.1987 75.1709 35.2014 75.1881 35.1992C75.1742 35.1635 75.1489 35.1445 75.1067 35.1499Z" fill="#21232A"/>
<path d="M75.3844 35.2791C75.3892 35.2873 75.3935 35.2936 75.3993 35.2995C75.405 35.3053 75.4112 35.3099 75.4184 35.313C75.4218 35.3144 75.4256 35.3157 75.4294 35.3166C75.4409 35.3193 75.4548 35.3193 75.4697 35.3144C75.4529 35.2778 75.4232 35.2683 75.3844 35.2791Z" fill="#21232A"/>
<path d="M77.5243 35.2457C77.5497 35.2556 77.5679 35.2516 77.5837 35.2398C77.587 35.2376 77.5899 35.2349 77.5928 35.2321C77.5985 35.2263 77.6043 35.2199 77.609 35.2123C77.5707 35.2014 77.5415 35.2096 77.5243 35.2457Z" fill="#21232A"/>
</svg>
