<svg width="144" height="50" viewBox="0 0 144 50" fill="none" xmlns="http://www.w3.org/2000/svg">
<rect width="144" height="50" rx="4" fill="white"/>
<path d="M81.4905 27.8194C81.4905 26.2894 81.4905 24.7603 81.4905 23.2302C81.4905 22.6471 81.5835 22.542 82.1503 22.5561C83.9419 22.5975 85.7395 22.4197 87.5232 22.7138C87.7665 22.7532 88.0059 22.8148 88.2463 22.8694C89.1921 23.0715 89.8114 23.6425 89.9974 24.6218C90.1834 25.6011 89.9667 26.4612 89.107 27.0534C88.8449 27.2333 88.739 27.3788 89.113 27.5587C90.313 28.1509 90.6375 29.202 90.5079 30.4572C90.3812 31.679 89.6769 32.4299 88.559 32.8038C88.0231 32.9724 87.4644 33.0529 86.9039 33.0423C85.3072 33.0423 83.7094 33.0272 82.1127 33.0535C81.624 33.0615 81.4806 32.8736 81.4865 32.4046C81.5013 30.8796 81.4905 29.3495 81.4905 27.8194ZM85.3121 31.4395C85.7899 31.4395 86.2687 31.4395 86.7466 31.4395C87.2244 31.4395 87.7002 31.4021 88.1524 31.2172C88.7529 30.9726 89.0427 30.5693 89.0477 29.964C89.0477 29.3748 88.7509 28.9301 88.1781 28.6845C87.9241 28.5621 87.6493 28.4911 87.3688 28.4753C86.0511 28.4582 84.7334 28.4511 83.4117 28.4389C83.1089 28.4389 82.9586 28.5693 82.9615 28.8927C82.9704 29.583 82.9724 30.2732 82.9615 30.9625C82.9566 31.3061 83.0941 31.4506 83.4324 31.4445C84.0597 31.4304 84.6879 31.4385 85.3121 31.4395ZM85.3635 24.1943C84.6493 24.1943 84.0567 24.2034 83.4651 24.1943C83.107 24.1873 82.9556 24.3419 82.9635 24.7057C82.9754 25.2252 82.9803 25.7466 82.9635 26.2671C82.9487 26.6805 83.1307 26.8482 83.5205 26.8452C84.4415 26.8452 85.3635 26.8644 86.2836 26.8341C86.7387 26.8199 87.2056 26.8189 87.6458 26.6491C88.2394 26.4228 88.5599 25.972 88.5421 25.404C88.5243 24.8361 88.2147 24.5026 87.5528 24.3267C86.7891 24.1216 86.0115 24.2216 85.3635 24.1943Z" fill="#2B8DCB"/>
<path d="M78.2406 31.7502C77.0969 32.8214 75.802 33.1843 74.3616 33.0367C71.9744 32.7911 70.4756 30.7385 70.8802 28.2928C71.2423 26.1109 73.1358 24.6819 75.3637 24.889C76.3184 24.978 77.2068 25.2276 77.9715 25.8431C78.2594 26.0755 78.2811 25.8906 78.2979 25.641C78.3415 25.0255 78.3514 25.0467 79.1952 25.0406C79.6899 25.0406 79.7057 25.3266 79.7008 25.6945C79.6681 27.8967 79.771 30.1008 79.6464 32.301C79.4871 35.1115 77.5451 36.7033 74.7919 36.3152C74.0555 36.2255 73.342 35.9955 72.6887 35.637C72.287 35.4097 72.2929 35.1863 72.6105 34.4637C72.7925 34.0514 73.0369 34.2009 73.2931 34.3263C73.8509 34.6176 74.453 34.81 75.0738 34.8952C76.998 35.1206 78.2515 34.1929 78.2406 31.7502ZM75.3716 31.6046C75.8826 31.6228 76.3907 31.519 76.8556 31.3015C78.4889 30.5465 78.8668 28.3595 77.5748 27.1579C76.3639 26.027 74.133 26.0816 72.9696 27.2701C72.7308 27.509 72.5447 27.7974 72.4238 28.1158C72.303 28.4342 72.2501 28.7754 72.2689 29.1164C72.2876 29.4573 72.3775 29.7903 72.5325 30.0929C72.6874 30.3955 72.9039 30.6608 73.1675 30.8709C73.8135 31.3934 74.5614 31.5915 75.3716 31.6046Z" fill="#EF5129"/>
<path d="M122.022 24.7506C121.106 24.7971 120.423 24.1635 120.439 23.2832C120.443 23.0848 120.486 22.8893 120.566 22.7086C120.647 22.5279 120.762 22.3657 120.905 22.2318C121.049 22.0979 121.217 21.9952 121.401 21.9297C121.584 21.8643 121.778 21.8376 121.972 21.8511C122.838 21.9128 123.391 22.6455 123.274 23.5763C123.186 24.2777 123.603 24.7132 124.289 24.6142C124.484 24.5907 124.681 24.5941 124.876 24.6243C125.487 24.7001 125.897 24.2969 125.848 23.6784C125.835 23.6297 125.829 23.5792 125.831 23.5288C126.093 22.5707 125.469 22.0492 124.892 21.4883C124.27 20.882 123.67 20.2604 123.072 19.6328C122.79 19.3357 122.505 19.1861 122.069 19.266C121.467 19.3761 120.96 19.1326 120.647 18.5787C120.351 18.0542 120.361 17.5075 120.7 17.0082C121.039 16.509 121.549 16.2947 122.165 16.4079C122.781 16.5211 123.205 16.0977 123.16 15.3973C123.108 14.5746 123.373 14.0198 123.958 13.7631C124.191 13.6516 124.449 13.6078 124.705 13.6365C124.96 13.6652 125.203 13.7653 125.407 13.9258C125.866 14.2634 126.03 14.7343 125.973 15.2942C125.887 16.127 126.251 16.507 127.038 16.3847C127.235 16.3572 127.435 16.3713 127.625 16.4261C127.816 16.4808 127.994 16.5751 128.148 16.7031C128.301 16.8311 128.428 16.99 128.519 17.1699C128.61 17.3498 128.663 17.5469 128.677 17.749C128.741 18.5191 128.115 19.2437 127.352 19.2831C126.492 19.3266 125.833 18.7263 125.818 17.8753C125.82 17.7243 125.831 17.5734 125.85 17.4236C125.878 17.2563 125.845 17.0845 125.759 16.9395C125.583 16.6757 125.337 16.4342 125.031 16.512C124.466 16.6636 123.733 16.1977 123.334 16.9749C123.118 17.3953 123.286 18.7091 123.615 19.0487C124.429 19.8845 125.249 20.7132 126.062 21.55C126.334 21.8299 126.623 21.9542 127.034 21.8815C127.23 21.8473 127.431 21.8557 127.623 21.9062C127.815 21.9568 127.995 22.0482 128.15 22.1747C128.305 22.3011 128.433 22.4597 128.524 22.6399C128.615 22.8201 128.668 23.018 128.679 23.2205C128.739 24.0664 128.067 24.7658 127.205 24.7526C127.107 24.7526 127.008 24.7375 126.909 24.7314C126.265 24.687 125.857 25.1013 125.955 25.742C126.053 26.3828 125.868 26.9184 125.333 27.2731C125.113 27.4266 124.855 27.5114 124.589 27.5171C124.323 27.5229 124.061 27.4493 123.835 27.3055C123.289 26.9871 123.102 26.4808 123.142 25.8542C123.212 24.9618 122.942 24.7051 122.022 24.7506Z" fill="#EF5129"/>
<path d="M22.4145 22.5553C22.37 22.8645 22.1879 22.9696 22.0415 23.099C20.8217 24.1783 19.6098 25.2678 18.3722 26.3239C17.9963 26.6443 17.9765 26.8787 18.2733 27.2759C19.5376 28.9758 20.7742 30.6979 22.0168 32.4149C22.1296 32.5706 22.3433 32.7292 22.2344 32.9364C22.1414 33.1123 21.906 33.0203 21.7339 33.0314C21.5202 33.0435 21.3045 33.0203 21.0918 33.0314C20.6704 33.0637 20.3845 32.8859 20.1381 32.5352C19.133 31.1001 18.0972 29.6862 17.0931 28.2491C16.8408 27.8883 16.639 27.8327 16.3096 28.142C15.7338 28.6807 15.1452 29.192 14.5516 29.6974C14.4154 29.8057 14.307 29.9461 14.2357 30.1067C14.1643 30.2672 14.1322 30.443 14.142 30.619C14.1529 31.2416 14.1361 31.8641 14.148 32.4867C14.1549 32.8687 13.9996 33.0536 13.6197 33.0314C13.5044 33.0223 13.3887 33.0223 13.2734 33.0314C12.8273 33.0779 12.667 32.8818 12.667 32.426C12.6828 30.3229 12.6739 28.2208 12.6739 26.1177C12.6739 25.1425 12.6888 24.1662 12.668 23.1869C12.6581 22.7412 12.7926 22.5431 13.2616 22.5492C14.1371 22.5593 14.1519 22.5492 14.1519 23.4335C14.1519 24.7958 14.1519 26.1622 14.1519 27.5205C14.1519 27.666 14.0817 27.8661 14.2152 27.9439C14.3913 28.045 14.5021 27.8429 14.6189 27.7418C16.3501 26.2127 18.0913 24.6948 19.7998 23.1404C20.2628 22.718 20.7327 22.4886 21.353 22.5512C21.6874 22.5836 22.0326 22.5553 22.4145 22.5553Z" fill="#EF5129"/>
<path d="M99.4218 31.6179C98.1951 32.8307 96.8358 33.2066 95.2984 32.956C94.3715 32.8054 93.5701 32.4042 92.9637 31.6644C91.7113 30.1373 91.7538 27.723 92.9944 26.2171C94.1222 24.8467 97.0693 24.0716 99.3357 25.9402C99.3624 25.9028 99.4079 25.8685 99.4119 25.8301C99.4742 25.0569 99.7799 24.8477 100.549 25.0317C100.852 25.1044 100.808 25.3348 100.808 25.5461C100.808 27.4326 100.808 29.316 100.808 31.1965C100.808 31.6513 100.795 32.106 100.814 32.5588C100.829 32.9105 100.682 33.056 100.35 33.0399C100.218 33.0303 100.086 33.0303 99.954 33.0399C99.5375 33.0833 99.3862 32.8822 99.4178 32.4759C99.4366 32.2394 99.4218 32.004 99.4218 31.6179ZM96.4252 26.3222C95.6605 26.3424 95.061 26.5314 94.5218 26.9215C93.0992 27.9514 93.124 30.0545 94.597 31.0034C95.7298 31.7361 96.9486 31.7725 98.1258 31.1581C99.864 30.2485 99.9412 27.8887 98.3069 26.8225C97.7311 26.4415 97.094 26.3192 96.4252 26.3172V26.3222Z" fill="#2B8DCB"/>
<path d="M32.5855 29.5423C31.5814 29.5423 30.5763 29.5504 29.5712 29.5373C29.214 29.5373 29.125 29.6302 29.307 29.9688C29.6612 30.6328 30.1499 31.125 30.8731 31.3412C32.169 31.7283 33.4334 31.7334 34.6403 31.0148C34.8293 30.9026 35.0528 30.6682 35.2626 30.8551C35.5346 31.0967 35.6583 31.4666 35.7572 31.8183C35.7879 31.9193 35.6771 31.987 35.593 32.0456C33.841 33.2584 31.2075 33.4716 29.4594 32.3246C28.0486 31.3968 27.5105 30.0345 27.7489 28.3761C28.0031 26.6054 29.0775 25.5109 30.7306 25.0632C32.3837 24.6155 33.9399 24.8672 35.1824 26.1992C35.9541 27.0238 36.0876 28.0719 36.1015 29.1482C36.1015 29.4877 35.87 29.5443 35.593 29.5433C34.5958 29.5393 33.5907 29.5423 32.5855 29.5423ZM31.9445 28.2538C32.6192 28.2538 33.2949 28.2629 33.9696 28.2487C34.2218 28.2427 34.5928 28.3852 34.6957 28.1133C34.8055 27.8233 34.5908 27.5069 34.3841 27.2563C34.112 26.9363 33.7602 26.6975 33.3661 26.565C32.3917 26.2168 31.3252 26.2528 30.3755 26.6661C29.8965 26.8649 29.512 27.2462 29.3031 27.7293C29.1003 28.1689 29.1507 28.2518 29.6196 28.2548C30.3962 28.2558 31.1669 28.2538 31.9445 28.2538Z" fill="#EF5129"/>
<path d="M111.065 27.5125C111.065 25.8955 111.065 24.2785 111.065 22.6615C111.065 21.954 111.077 21.9419 111.689 21.9419C112.317 21.9419 112.343 21.9692 112.343 22.6938C112.343 24.6625 112.343 26.6315 112.343 28.6009C112.343 28.7454 112.274 28.9425 112.418 29.0203C112.562 29.0981 112.672 28.9192 112.779 28.8253C114.043 27.7469 115.333 26.6959 116.556 25.569C117.229 24.9485 117.984 25.2001 118.714 25.1648C118.933 25.1557 118.813 25.3517 118.72 25.4366C118.485 25.6479 118.242 25.849 118.001 26.0531C117.209 26.7181 116.436 27.3962 115.632 28.039C115.316 28.2917 115.322 28.4726 115.571 28.7677C116.614 30.0036 117.639 31.2548 118.669 32.507C118.768 32.6293 118.966 32.7475 118.881 32.9254C118.796 33.1032 118.584 32.985 118.432 33.0133C117.589 33.1689 117.011 32.8192 116.513 32.1209C115.903 31.2659 115.178 30.4978 114.534 29.6691C114.27 29.3316 114.049 29.3184 113.773 29.6156C113.73 29.6659 113.679 29.7095 113.623 29.7449C112.584 30.3513 112.132 31.2295 112.337 32.4574C112.428 33.0072 112.047 33.0133 111.644 33.0234C111.242 33.0335 111.051 32.9223 111.051 32.4574C111.077 30.8091 111.065 29.1628 111.065 27.5125Z" fill="#2B8DCB"/>
<path d="M50.9375 28.9899C50.9375 26.7665 52.4739 25.0888 54.6523 24.9352C56.0373 24.8342 57.359 25.007 58.4235 26.0409C59.6512 27.2334 59.9232 28.7089 59.4415 30.3017C58.9597 31.8944 57.7844 32.7201 56.2272 33.0051C55.2997 33.1894 54.3403 33.105 53.4572 32.7615C51.8298 32.1147 50.9385 30.7756 50.9375 28.9899ZM55.3398 31.6175C55.6708 31.6363 56.0022 31.5921 56.3173 31.4871C57.3066 31.1678 58.0525 30.5705 58.2503 29.481C58.4314 28.4785 58.1376 27.6154 57.3174 26.9898C56.2174 26.149 54.5059 26.1207 53.3712 26.909C51.8546 27.9631 51.9011 30.143 53.4642 31.1223C54.0268 31.4753 54.6802 31.6478 55.3398 31.6175Z" fill="#EF5129"/>
<path d="M39.0855 26.3978C39.3941 26.1229 39.6543 25.8713 39.9343 25.6439C41.2204 24.5959 43.289 24.7465 44.396 25.9542C44.9727 26.5818 45.1706 27.369 45.1953 28.1775C45.2389 29.6389 45.2112 31.1023 45.2201 32.5657C45.2201 32.8588 45.1063 33.0073 44.8135 33.0033C44.6492 33.0033 44.484 32.9952 44.3188 33.0033C43.9597 33.0255 43.8242 32.8628 43.8242 32.498C43.8331 31.2034 43.8568 29.9067 43.8054 28.6141C43.7421 27.0345 42.3828 26.0967 40.8939 26.5504C39.7483 26.8991 39.0142 27.9168 39.0024 29.2003C38.9925 30.2928 38.9816 31.3863 39.0093 32.4788C39.0222 32.975 38.7729 33.0326 38.394 33.0083C38.0309 32.9841 37.6025 33.1225 37.6075 32.4838C37.6213 30.1978 37.6174 27.9107 37.6075 25.6237C37.6075 25.2508 37.7618 25.1012 38.113 25.1244C38.2447 25.1335 38.377 25.1335 38.5087 25.1244C38.8599 25.0992 39.0281 25.2386 39.0034 25.6207C38.9954 25.845 38.9578 26.0835 39.0855 26.3978Z" fill="#EF5129"/>
<path d="M102.093 29.0219C102.093 27.9102 102.12 26.7985 102.083 25.6919C102.061 25.0724 102.423 25.128 102.816 25.1179C103.209 25.1078 103.549 25.1371 103.488 25.699C103.467 25.9011 103.375 26.2154 103.56 26.3003C103.745 26.3852 103.896 26.0982 104.043 25.9526C105.238 24.7803 107.082 24.6065 108.395 25.5403C109.417 26.2629 109.651 27.3534 109.681 28.5055C109.72 29.8193 109.681 31.1331 109.696 32.4408C109.696 32.8512 109.558 33.0472 109.148 33.0048C109.099 32.9997 109.049 33.0048 109 33.0048C108.307 33.0048 108.307 33.0048 108.301 32.3155C108.29 31.1028 108.226 29.8951 108.268 28.6874C108.333 26.7672 106.25 25.89 104.786 26.8036C103.943 27.3301 103.464 28.0891 103.472 29.128C103.479 30.2397 103.45 31.3514 103.483 32.4631C103.499 33.0503 103.155 33.0068 102.775 33.0098C102.395 33.0129 102.06 33.0341 102.077 32.455C102.116 31.315 102.093 30.1659 102.093 29.0219Z" fill="#2B8DCB"/>
<path d="M61.4541 29.0322C61.4541 27.9206 61.4798 26.8089 61.4442 25.7022C61.4244 25.1029 61.7588 25.1151 62.1693 25.1171C62.5651 25.1171 62.9123 25.11 62.85 25.6871C62.8272 25.8892 62.7392 26.2126 62.9133 26.2934C63.1438 26.3945 63.2823 26.0853 63.4396 25.9316C64.5723 24.827 66.3303 24.6259 67.6342 25.4516C68.5988 26.058 68.9806 27.015 69.0251 28.0934C69.0865 29.5881 69.0499 31.0868 69.0578 32.5836C69.0578 32.8868 68.9183 33.0131 68.6324 33.005C68.4844 32.9964 68.3361 32.9964 68.1882 33.005C67.8083 33.0373 67.6599 32.8767 67.6649 32.4785C67.6777 31.2849 67.6797 30.0904 67.652 28.8968C67.6174 27.3354 66.8002 26.445 65.4419 26.44C64.768 26.4453 64.1221 26.7159 63.6387 27.1956C63.1553 27.6753 62.8717 28.3271 62.847 29.0151C62.8223 30.1268 62.8421 31.2384 62.8411 32.3451C62.8411 33.001 62.8411 33.003 62.1644 33.003C61.4719 33.003 61.4551 32.9878 61.4541 32.3117C61.4534 31.2182 61.4534 30.1251 61.4541 29.0322Z" fill="#EF5129"/>
<path d="M48.8627 27.5475C48.8627 29.1949 48.8439 30.8422 48.8736 32.4885C48.8835 33.0302 48.6302 33.0949 48.2078 33.0827C47.8121 33.0726 47.4629 33.1131 47.4668 32.5077C47.4856 29.1969 47.4738 25.8851 47.4767 22.5743C47.4767 22.0164 47.5292 22.0033 48.2414 21.9861C48.6886 21.975 48.8855 22.0871 48.8756 22.6056C48.8419 24.2529 48.8627 25.9002 48.8627 27.5475Z" fill="#EF5129"/>
<path d="M24.3613 29.1298C24.3613 28.002 24.3841 26.8741 24.3504 25.7483C24.3346 25.2106 24.5918 25.1348 25.0172 25.149C25.4129 25.1621 25.7651 25.0985 25.7582 25.717C25.7338 27.9706 25.7338 30.2247 25.7582 32.479C25.7661 33.1572 25.3447 33.0096 24.9668 33.0379C24.5453 33.0703 24.3336 32.9621 24.3495 32.4598C24.3841 31.3512 24.3603 30.2395 24.3613 29.1298Z" fill="#EF5129"/>
<path d="M129.907 22.025C129.089 22.025 128.494 21.3953 128.502 20.5454C128.5 20.3564 128.536 20.1689 128.606 19.9941C128.677 19.8193 128.781 19.6607 128.912 19.5276C129.044 19.3946 129.2 19.2899 129.372 19.2196C129.544 19.1493 129.728 19.1149 129.913 19.1184C130.29 19.1192 130.652 19.2731 130.918 19.5462C131.184 19.8193 131.333 20.1893 131.332 20.5747C131.332 20.9602 131.181 21.3295 130.914 21.6015C130.646 21.8734 130.284 22.0258 129.907 22.025Z" fill="#2B8DCB"/>
<path d="M120.607 20.5883C120.612 20.7773 120.58 20.9654 120.512 21.1413C120.444 21.3171 120.342 21.4771 120.212 21.6114C120.081 21.7457 119.926 21.8517 119.754 21.9229C119.583 21.994 119.399 22.0289 119.214 22.0254C119.025 22.0313 118.836 21.9982 118.66 21.9282C118.484 21.8583 118.323 21.7528 118.187 21.6181C118.051 21.4834 117.943 21.3223 117.869 21.1441C117.796 20.966 117.758 20.7746 117.758 20.5813C117.761 20.1911 117.913 19.8175 118.181 19.5403C118.45 19.2631 118.814 19.1042 119.196 19.0977C119.994 19.1007 120.609 19.7525 120.607 20.5883Z" fill="#2B8DCB"/>
<path d="M25.0462 21.6831C25.5893 21.6831 25.899 21.9863 25.9148 22.5442C25.9306 23.102 25.5597 23.5295 25.0245 23.5224C24.511 23.5164 24.1885 23.1687 24.1865 22.6129C24.1885 22.0308 24.5021 21.6882 25.0462 21.6831Z" fill="#EF5129"/>
</svg>
