<svg width="144" height="50" viewBox="0 0 144 50" fill="none" xmlns="http://www.w3.org/2000/svg">
<rect width="144" height="50" rx="4" fill="white"/>
<path d="M26.7303 39.2061H13.2473V20.1994H17.2516V35.7423H26.7303V39.2061Z" fill="#F8961D"/>
<path d="M32.1962 39.206H28.1919V20.1994H36.6338C38.4779 20.1994 39.9612 20.7858 41.0846 21.9597C42.208 23.1335 42.7698 24.5977 42.7698 26.3533C42.7698 28.1089 42.208 29.54 41.0846 30.6467C39.9612 31.7534 38.4769 32.3067 36.6338 32.3067H32.1972V39.2051L32.1962 39.206ZM32.1962 29.0727H35.9997C37.1136 29.0727 37.9343 28.8202 38.4627 28.3141C38.9911 27.809 39.2548 27.1166 39.2548 26.2389C39.2548 25.3611 38.9853 24.7321 38.4484 24.2355C37.9105 23.7398 37.0946 23.4911 35.9997 23.4911H32.1962V29.0727Z" fill="#F8961D"/>
<path d="M52.8907 39.206H44.2766V20.1994H53.6981C55.5422 20.1994 56.9627 20.6619 57.9623 21.5879C58.961 22.514 59.4609 23.7777 59.4609 25.3809C59.4609 26.1821 59.24 26.9029 58.7982 27.5423C58.3565 28.1817 57.7995 28.6443 57.1274 28.9309C59.0667 29.6564 60.0369 31.1925 60.0369 33.5392C60.0369 35.3137 59.4313 36.7023 58.2222 37.704C57.0122 38.7057 55.2356 39.207 52.8926 39.207L52.8907 39.206ZM52.9488 23.4911H48.1371V27.6132H53.1792C54.7929 27.6132 55.5993 26.9265 55.5993 25.5521C55.5993 24.8267 55.3927 24.3026 54.9795 23.9782C54.5664 23.6537 53.8894 23.492 52.9488 23.492V23.4911ZM48.1371 35.9711H53.2078C54.1103 35.9711 54.8253 35.7186 55.3537 35.2125C55.8821 34.7074 56.1458 34.0528 56.1458 33.2517C56.1458 31.6484 55.1852 30.8472 53.2649 30.8472H48.1362V35.9711H48.1371Z" fill="#F8961D"/>
<path d="M74.1494 39.2061H70.6629C70.5477 38.8438 70.4706 38.4238 70.4325 37.9471C69.4338 39.0349 68.0029 39.5787 66.1397 39.5787C64.5841 39.5787 63.4073 39.2307 62.6105 38.5335C61.8136 37.8374 61.4147 36.8972 61.4147 35.7139C61.4147 34.9316 61.5299 34.2543 61.7603 33.6811C61.9907 33.1079 62.2649 32.6605 62.5809 32.3361C62.898 32.0116 63.3826 31.7354 64.0357 31.5056C64.6888 31.2767 65.2648 31.1149 65.7646 31.0194C66.2635 30.9239 66.9842 30.8094 67.9258 30.676C68.8474 30.5427 69.4767 30.3658 69.8127 30.1464C70.1488 29.9269 70.3173 29.5694 70.3173 29.0728C70.3173 28.615 70.1012 28.2574 69.669 27.9992C69.2368 27.7419 68.656 27.6123 67.9258 27.6123C66.4082 27.6123 65.5533 28.3094 65.3619 29.7018H61.8755C61.9335 26.4006 64.0071 24.7501 68.0991 24.7501C70.2697 24.7501 71.8197 25.2126 72.7517 26.1386C73.6829 27.0646 74.1494 28.4523 74.1494 30.3034V39.2051V39.2061ZM70.3754 33.8533L70.404 32.3077C70.0965 32.6132 69.2901 32.8904 67.9839 33.1382C66.9271 33.3293 66.193 33.5913 65.7798 33.9252C65.3667 34.2591 65.1601 34.732 65.1601 35.3421C65.1601 36.3921 65.7646 36.9161 66.9747 36.9161C67.9343 36.9161 68.7369 36.6153 69.3805 36.0146C70.0241 35.414 70.3554 34.6932 70.3745 33.8533H70.3754Z" fill="#F8961D"/>
<path d="M88.5793 39.2061H84.8054V30.6761C84.8054 29.6072 84.6274 28.8779 84.2722 28.4863C83.9162 28.0957 83.2878 27.8999 82.3853 27.8999C80.445 27.8999 79.4758 28.9782 79.4758 31.1348V39.207H75.7304V25.1237H79.3025V27.1848C80.186 25.5626 81.7131 24.752 83.8838 24.752C85.2852 24.752 86.4191 25.1625 87.2836 25.9826C88.1481 26.8036 88.5803 27.9576 88.5803 29.4464V39.207L88.5793 39.2061Z" fill="#F8961D"/>
<path d="M102.973 39.2061H98.7665L95.6552 32.88L93.8406 34.7406V39.2061H90.0667V20.3678H93.8406V30.4746L98.5076 25.1218H103.089L98.3352 30.3024L102.974 39.2042L102.973 39.2061Z" fill="#F8961D"/>
<path fill-rule="evenodd" clip-rule="evenodd" d="M115.927 27.1282C111.238 27.1282 107.435 23.3513 107.435 18.6909H102.852C102.852 25.8645 108.705 31.6808 115.926 31.6808C123.148 31.6808 129 25.8645 129 18.6909H124.418C124.418 23.3503 120.616 27.1282 115.926 27.1282" fill="#F8961D"/>
<path fill-rule="evenodd" clip-rule="evenodd" d="M120.063 18.6909C120.063 18.8943 119.917 19.0172 119.916 19.0172C119.857 19.0825 118.914 19.6576 117.908 20.6574C116.901 21.6572 116.321 22.5936 116.256 22.6532C116.256 22.6532 116.132 22.797 115.927 22.797C115.723 22.797 115.599 22.6532 115.599 22.6532C115.535 22.5936 114.954 21.6572 113.948 20.6574C112.942 19.6576 111.999 19.0825 111.939 19.0172C111.939 19.0172 111.793 18.8943 111.793 18.6909H120.064H120.063Z" fill="#F8961D"/>
<path fill-rule="evenodd" clip-rule="evenodd" d="M115.927 10.2545C111.238 10.2545 107.435 14.0314 107.435 18.6908H111.791C111.791 18.4875 111.937 18.3645 111.937 18.3645C111.996 18.2992 112.94 17.7251 113.946 16.7243C114.951 15.7255 115.532 14.7881 115.597 14.7295C115.597 14.7295 115.721 14.5847 115.926 14.5847C116.132 14.5847 116.256 14.7285 116.256 14.7285C116.321 14.7872 116.901 15.7245 117.907 16.7243C118.913 17.7241 119.856 18.2992 119.915 18.3645C119.915 18.3645 120.062 18.4875 120.062 18.6908H124.419C124.419 14.0314 120.617 10.2545 115.927 10.2545Z" fill="#F8961D"/>
</svg>
