<svg width="144" height="50" viewBox="0 0 144 50" fill="none" xmlns="http://www.w3.org/2000/svg">
<rect width="144" height="50" rx="4" fill="white"/>
<path d="M84.1321 27.2288C84.0797 27.3836 84.0266 27.5385 83.9742 27.694C83.8438 27.7626 83.7241 27.8371 83.784 28.0129C83.5823 28.7036 83.2449 29.3427 82.97 30.0047C82.8295 30.3425 82.6218 30.6621 82.4841 30.9894C82.3355 31.341 82.2239 31.7226 82.0882 32.0892C82.0015 32.3232 81.8751 32.4401 81.5821 32.431C80.7318 32.4062 79.8802 32.4218 79.0293 32.4218C78.4297 32.4218 78.4123 32.4068 78.1958 31.854C77.7462 30.7045 77.2347 29.5793 76.7528 28.4429C76.2487 27.2549 75.7277 26.0734 75.2149 24.8887C74.9588 24.2973 74.692 23.7092 74.4245 23.1224C74.3815 23.0276 74.3082 22.9453 74.2148 22.8068C74.1099 23.1322 74.1328 23.4289 74.1153 23.6994C74.0857 24.1627 74.0326 24.6254 74.0205 25.0913C73.9923 26.1839 73.9197 27.2745 73.88 28.3671C73.8411 29.4479 73.8122 30.5307 73.7449 31.6096C73.6798 32.6512 73.7268 33.6928 73.6589 34.7332C73.6455 34.937 73.5789 35.0089 73.3591 35.0076C71.9483 34.9985 70.5368 34.9985 69.126 35.0076C68.9009 35.0089 68.8343 34.9383 68.8498 34.7292C68.9338 33.6098 68.9392 32.4859 69.044 31.3665C69.0891 30.8836 69.0776 30.3948 69.1139 29.9086C69.204 28.6899 69.2383 27.4679 69.3304 26.2499C69.3956 25.3912 69.4655 24.5326 69.534 23.6739C69.6167 22.6336 69.7041 21.5933 69.8042 20.5543C69.8862 19.6995 69.9763 18.8448 70.0684 17.9907C70.1672 17.0726 70.3292 16.1617 70.4051 15.2403C70.4185 15.0736 70.5126 14.9776 70.7136 14.9782C72.158 14.9841 73.6031 14.9841 75.0475 14.9776C75.223 14.9769 75.3043 15.0508 75.3722 15.1906C76.0463 16.572 76.7319 17.9482 77.3987 19.3336C78.1562 20.9065 78.8922 22.4892 79.5777 24.0934C79.7431 24.4803 79.8842 24.8769 80.0429 25.2671C80.0697 25.3337 80.0953 25.4448 80.1746 25.4376C80.2546 25.4304 80.3198 25.35 80.3554 25.2618C80.5786 24.7195 80.797 24.1751 81.0329 23.6373C81.3428 22.9316 81.6654 22.2311 81.986 21.5305C82.4283 20.5641 82.8436 19.5839 83.3316 18.639C83.6052 18.109 83.8277 17.5568 84.1207 17.0347C84.4339 16.4766 84.6645 15.8774 84.9642 15.3096C85.0805 15.0887 85.1827 14.973 85.4536 14.9756C86.8422 14.9874 88.2308 14.9874 89.6195 14.9756C89.8762 14.9737 89.9979 15.0521 89.9864 15.2984C89.9676 15.6938 90.1538 16.0728 90.0536 16.4838C90.0187 16.6263 90.1484 16.8132 90.1672 16.9981C90.2721 18.0247 90.4395 19.0448 90.4999 20.0766C90.5161 20.353 90.4973 20.6425 90.5342 20.896C90.5705 21.1476 90.5867 21.4201 90.6586 21.6743C90.6814 21.756 90.7009 21.8455 90.6922 21.9285C90.6411 22.4179 90.7614 22.8904 90.8293 23.3681C90.8353 23.4112 90.8394 23.455 90.8394 23.4981C90.8427 24.7266 91.039 25.9421 91.1042 27.1667C91.1472 27.9724 91.205 28.7768 91.2427 29.5825C91.3032 30.8888 91.3905 32.1931 91.453 33.4994C91.4732 33.9248 91.4866 34.3515 91.5041 34.7776C91.5108 34.9436 91.4591 35.0063 91.2783 35.0056C89.8339 34.9998 88.3888 35.0004 86.9443 35.0043C86.7891 35.0043 86.7111 34.9593 86.7306 34.8011C86.7333 34.7795 86.7306 34.7573 86.7306 34.7358C86.7084 33.7053 86.7098 32.6741 86.6573 31.6455C86.5982 30.4994 86.57 29.3525 86.5182 28.207C86.4779 27.3111 86.4591 26.4132 86.3898 25.5199C86.3213 24.6404 86.324 23.7536 86.164 22.8649C85.996 22.9061 85.9758 23.0649 85.9341 23.1779C85.6498 23.9471 85.2539 24.6685 84.932 25.4213C84.7861 25.763 84.5771 26.0787 84.5159 26.4524C84.3855 26.5211 84.2659 26.5955 84.3257 26.7713C84.321 26.8158 84.317 26.8609 84.3123 26.9053C84.2081 26.9896 84.0454 27.0438 84.1355 27.2288H84.1321Z" fill="#414BFF"/>
<path d="M109.487 17.2962C109.747 17.7713 110.087 18.2019 110.228 18.7404C110.397 19.386 110.512 20.0179 110.404 20.6962C110.315 21.2569 110.193 21.7868 109.907 22.2854C109.53 22.9448 108.986 23.4512 108.371 23.94C108.886 24.1883 109.311 24.5026 109.706 24.8836C110.413 25.5632 110.823 26.3781 111.065 27.291C111.393 28.526 111.342 29.7709 110.956 30.9706C110.479 32.4566 109.485 33.5387 107.992 34.1791C106.928 34.6353 105.819 34.8731 104.672 35.0103C102.69 35.2475 100.703 35.143 98.7176 35.1417C97.985 35.1417 97.2497 35.1384 96.5204 35.1123C96.0197 35.0946 95.5163 35.0855 95.0142 35.0659C94.7594 35.0561 94.6136 34.9744 94.6143 34.6601C94.6257 28.2254 94.623 21.7914 94.6217 15.3567C94.6217 15.1535 94.5975 15.0156 94.9201 14.9921C95.5438 14.9457 96.1642 14.9405 96.7886 14.9365C97.6577 14.9313 98.5254 14.8673 99.3945 14.8464C100.278 14.8254 101.166 14.7836 102.047 14.8287C103.183 14.8869 104.323 14.9333 105.447 15.1398C106.388 15.3129 107.263 15.6462 108.101 16.084C108.642 16.3676 108.992 16.8656 109.444 17.2492C109.457 17.2668 109.471 17.2825 109.487 17.2969V17.2962ZM99.4953 28.6874C99.4953 29.3507 99.5121 30.0146 99.4879 30.6772C99.4765 30.9804 99.6055 31.0797 99.8825 31.083C100.506 31.0909 101.131 31.1301 101.75 31.1274C102.498 31.1242 103.255 31.1092 104.003 30.968C105.147 30.7524 106.363 29.8571 106.22 28.4633C106.141 27.683 105.811 27.0747 105.079 26.7139C104.276 26.3186 103.393 26.2964 102.521 26.2526C101.574 26.2042 100.631 26.301 99.6882 26.3741C99.4778 26.3905 99.4946 26.499 99.4946 26.6323C99.4953 27.3171 99.4946 28.0026 99.4946 28.6874H99.4953ZM101.604 22.7213C102.555 22.7082 103.513 22.8075 104.438 22.4664C105.102 22.2214 105.598 21.8156 105.724 21.1347C105.851 20.4459 105.727 19.7794 105.093 19.3206C104.465 18.8658 103.72 18.6534 102.966 18.6299C102.306 18.6097 101.637 18.5685 100.973 18.6169C100.563 18.6469 100.154 18.6914 99.744 18.7096C99.5114 18.7201 99.4913 18.839 99.4919 19.0233C99.498 20.1335 99.5027 21.2431 99.4899 22.3534C99.4866 22.65 99.6217 22.7278 99.8919 22.7239C100.463 22.716 101.033 22.7213 101.604 22.7213Z" fill="#414BFF"/>
<path d="M56.677 25.993C57.446 25.9649 57.8392 26.193 58.0731 26.6276C58.3197 27.0869 58.3096 27.5823 58.0105 28.0129C57.8775 28.2044 57.6563 28.3592 57.4137 28.4612C55.4685 29.2774 53.52 30.0857 51.5863 30.9267C50.7212 31.3031 49.9496 31.1803 49.297 30.5732C48.7136 30.0308 48.4958 29.1434 48.9569 28.305C49.3534 27.5842 50.0397 27.398 50.7555 27.234C51.2341 27.1248 51.7281 27.0745 52.2026 26.9523C53.1765 26.7014 54.1686 26.5361 55.1479 26.3113C55.7354 26.1767 56.3181 26.0251 56.677 25.993Z" fill="#EA2D4B"/>
<path d="M52.5874 15.1899C52.9342 15.4081 53.0706 15.7571 53.1103 16.1204C53.2266 17.1816 53.3018 18.2474 53.406 19.3106C53.5062 20.3372 53.6305 21.3612 53.7273 22.3878C53.8059 23.2242 53.3328 23.9868 52.4758 24.3417C51.1846 24.8762 49.7489 23.813 49.8262 22.508C49.884 21.5311 49.9862 20.5601 50.1011 19.5884C50.1657 19.044 50.1932 18.4958 50.2362 17.9495C50.2604 17.6476 50.4251 17.3365 50.1778 17.049C50.1616 17.0307 50.1643 16.968 50.1811 16.9562C50.5232 16.7066 50.3854 16.3269 50.4278 16.0106C50.5253 15.2872 51.3479 14.7586 52.1149 14.9795C52.2493 15.018 52.3756 15.0834 52.506 15.1363C52.5235 15.169 52.539 15.2029 52.588 15.1905L52.5874 15.1899Z" fill="#EA2D4B"/>
<path d="M41.8958 30.3007C41.7923 29.0421 43.1231 28.09 44.4291 28.4801C44.9682 28.6409 45.3271 28.9585 45.604 29.4185C46.6129 31.0959 47.6312 32.7682 48.6521 34.4384C48.9069 34.8547 49.0715 35.2866 48.9344 35.7695C48.6925 36.6203 47.4766 37.1098 46.7157 36.3152C46.3124 35.8943 45.9273 35.4585 45.5348 35.0285C45.0374 34.4835 44.5393 33.9392 44.0446 33.3922C43.4162 32.6969 42.781 32.0062 42.168 31.2979C41.916 31.0064 41.8676 30.6366 41.8958 30.3007Z" fill="#EA2D4B"/>
<path d="M42.5099 23.5669C42.7452 24.3047 42.6457 24.9771 42.106 25.5691C41.1079 26.6643 40.1124 27.7621 39.117 28.86C38.7265 29.2906 38.334 29.7186 37.9542 30.1584C37.4763 30.7119 36.9332 30.7903 36.4701 30.6524C35.8128 30.457 35.4713 29.8826 35.5191 29.2109C35.5305 29.0514 35.6024 28.9155 35.6784 28.79C36.8048 26.9211 37.9266 25.0496 39.0773 23.1951C39.4927 22.5259 40.181 22.3135 40.9472 22.4018C41.6523 22.4834 42.1517 22.8814 42.4568 23.5055C42.4468 23.5486 42.471 23.5636 42.5099 23.5669Z" fill="#EA2D4B"/>
<path d="M46.5338 21.1505C45.9195 21.5164 45.2124 21.5497 44.6437 21.2393C44.0711 20.927 43.4662 20.71 42.8814 20.4421C41.8967 19.9899 40.8872 19.5887 39.8864 19.1711C39.3809 18.9607 38.8056 18.8477 38.4157 18.4209C37.956 17.9184 37.9049 17.4015 38.2437 16.8644C38.567 16.3514 39.0785 16.1704 39.7372 16.3102C41.2038 16.6213 42.6737 16.9167 44.139 17.231C44.8299 17.3793 45.5229 17.5283 46.1997 17.727C47.0271 17.9694 47.4788 18.583 47.5333 19.3848C47.5776 20.0389 47.3336 20.646 46.7079 21.0263C46.6709 21.0485 46.64 21.0799 46.6064 21.1073C46.562 21.0897 46.5472 21.1184 46.5345 21.1505H46.5338Z" fill="#EA2D4B"/>
<path d="M31.8906 16.853C31.8375 15.9688 32.5553 15.2977 33.2053 15.0906C34.032 14.8272 35.016 15.1304 35.4455 15.8009C36.4799 17.4149 37.4901 19.0434 38.493 20.6764C38.8216 21.2122 38.7282 21.931 38.3303 22.3682C37.9378 22.7988 37.269 22.9694 36.7158 22.776C36.4846 22.6956 36.2776 22.5643 36.1217 22.3885C34.9159 21.0345 33.7275 19.6655 32.5143 18.3174C32.1285 17.8887 31.8449 17.4444 31.8906 16.853Z" fill="#EA2D4B"/>
<path d="M50.6783 9.00179C51.6502 8.96911 52.5206 9.69381 52.6066 10.606C52.6638 11.2079 52.5435 11.7117 52.1496 12.1593C51.2846 13.1434 50.4309 14.1367 49.5383 15.096C49.0739 15.5946 48.6666 16.1507 48.1208 16.5735C47.2813 17.2237 46.1528 16.6983 45.8631 15.7756C45.6783 15.1855 45.974 14.7379 46.261 14.2811C47.1724 12.8278 48.0852 11.3752 49.0027 9.92579C49.3844 9.32264 49.9221 8.97173 50.6776 9.00179H50.6783Z" fill="#EA2D4B"/>
<path d="M62.7223 26.2526C62.1342 26.6048 61.5367 26.582 60.9183 26.3226C59.9087 25.8998 58.912 25.4319 57.8688 25.1051C57.4205 24.9647 57.0475 24.7235 56.6254 24.5628C56.3471 24.4569 56.0749 24.3341 55.7959 24.2289C55.2119 24.0086 54.8892 23.5754 54.8146 22.9958C54.7313 22.3528 55.0949 21.8796 55.6299 21.5875C56.052 21.3569 56.542 21.4582 57.0118 21.5673C58.6283 21.9417 60.2495 22.2952 61.8667 22.6651C62.6383 22.8415 63.3158 23.1702 63.6041 23.9511C63.9066 24.7712 63.5719 25.7691 62.8016 26.2062C62.7532 26.186 62.7398 26.2213 62.7223 26.252V26.2526Z" fill="#EA2D4B"/>
<path d="M49.8235 38.8724C49.9089 37.8236 49.9761 36.7741 50.0971 35.7279C50.1723 35.0764 50.1851 34.4184 50.2382 33.7643C50.3108 32.8657 50.5232 32.2816 51.6726 32.0803C52.2714 31.9757 53.1029 32.5763 53.1936 33.1931C53.2689 33.7035 53.2696 34.223 53.3421 34.7294C53.4658 35.5933 53.4383 36.4676 53.5922 37.327C53.6338 37.5602 53.6164 37.8007 53.6291 38.036C53.6634 38.6698 53.8678 39.3115 53.535 39.9402C52.9711 41.0066 51.6053 41.3314 50.6086 40.6237C49.9909 40.1852 49.7865 39.584 49.8235 38.8724Z" fill="#EA2D4B"/>
<path d="M32.5553 34.2956C32.4786 33.4552 33.3995 32.5776 34.1563 32.4391C35.4206 32.2078 36.6607 31.8569 37.9196 31.5922C38.6267 31.4432 39.3116 31.1812 40.0576 31.208C40.7634 31.2334 41.2561 31.6066 41.4214 32.3019C41.5726 32.937 41.25 33.6297 40.6437 33.8826C39.3996 34.4014 38.1468 34.9 36.8979 35.4071C36.3871 35.6143 35.8655 35.7999 35.3682 36.0331C34.1039 36.6258 32.9236 35.8659 32.5855 34.7824C32.5385 34.6315 32.564 34.4589 32.5559 34.2962L32.5553 34.2956Z" fill="#EA2D4B"/>
<path d="M109.486 17.2953C109.47 17.2811 109.457 17.265 109.444 17.2482C109.478 17.2463 109.495 17.2598 109.486 17.2953Z" fill="#414BFF"/>
</svg>
