<svg width="144" height="50" viewBox="0 0 144 50" fill="none" xmlns="http://www.w3.org/2000/svg">
<rect width="144" height="50" rx="4" fill="white"/>
<path d="M124.459 25.5353L124.305 25.3806L124.445 25.2124C125.426 24.0417 125.906 22.6422 125.838 21.1587C125.678 17.8114 122.626 15.1874 118.886 15.1874H110.844C109.509 15.1874 108.426 16.2572 108.426 17.5759V34.4771C108.426 35.7957 109.509 36.8655 110.844 36.8655H118.859C120.834 36.8655 122.715 36.1658 124.148 34.8975C125.61 33.6091 126.414 31.9035 126.414 30.1004C126.414 28.4116 125.718 26.7902 124.459 25.5353ZM113.132 19.5305H119.213C120.405 19.5305 121.144 20.5195 121.144 21.4379C121.144 22.6154 120.143 23.3453 119.213 23.3453H113.132V19.5305ZM119.25 32.5259H113.136V27.6816H119.25C120.201 27.6816 121.706 28.3612 121.706 30.1879C121.706 31.1668 120.851 32.5259 119.25 32.5259Z" fill="#21232A"/>
<path d="M98.5126 23.8402C96.6595 23.3423 94.4523 22.7738 94.3672 21.3003C94.3059 20.2642 95.1438 19.3862 96.4859 19.2214C99.204 18.8849 101.646 20.4661 102.924 20.7789C104.191 21.0884 105.226 20.0153 105.356 18.9657C105.557 17.3442 103.932 16.4594 103.322 16.0894C102.29 15.467 100.471 14.7236 97.6815 14.7236C92.8547 14.7236 89.4825 17.4788 89.4825 21.4248C89.4825 23.561 90.2797 25.1388 91.8703 26.3162C94.9667 28.6071 100.965 28.3347 100.972 30.6963C100.979 32.8156 97.0173 34.1242 92.6504 31.2714C92.2655 30.9721 91.8056 30.8106 91.3083 30.8106C90.14 30.8106 89.1488 31.7862 89.1454 32.9401C89.1454 33.3235 89.2476 33.7003 89.4451 34.03L89.3633 34.0771L89.4485 34.0368C89.4724 34.0771 89.4996 34.1209 89.5268 34.1612C89.9186 34.7432 90.5011 35.2881 91.2061 35.7456C92.3336 36.4723 94.3331 37.3436 97.4634 37.3436C100.011 37.3436 102.147 36.7145 103.646 35.5203C105.172 34.3058 105.976 32.5666 105.976 30.4842C105.972 26.3431 102.379 24.8831 98.5126 23.8402Z" fill="#21232A"/>
<path d="M84.2811 15.1942H82.7926C81.9376 15.1942 81.1575 15.6786 80.7863 16.4389L75.6973 26.8339L70.6083 16.4389C70.237 15.6786 69.457 15.1942 68.602 15.1942H67.1135C65.7884 15.1942 64.7019 16.264 64.7019 17.576V34.7429C64.7019 36.4249 66.5208 37.6965 68.3193 36.7344C69.0005 36.371 69.4093 35.6545 69.4093 34.8908V24.6708L73.6365 32.6874C74.0691 33.5083 74.8832 33.9187 75.6939 33.9187C76.5045 33.9187 77.3187 33.5083 77.7513 32.6874L81.9785 24.6708V34.8908C81.9785 35.6545 82.3872 36.3744 83.0685 36.7344C84.867 37.6931 86.6859 36.4249 86.6859 34.7429V17.576C86.6928 16.2674 85.6061 15.1942 84.2811 15.1942Z" fill="#21232A"/>
<path d="M36.1207 35.4019L24.4565 21.6712C22.4872 19.3532 22.7969 15.864 25.1439 13.919C27.491 11.9741 31.024 12.2799 32.9933 14.5979L44.6575 28.3286C46.6268 30.6467 46.3172 34.1358 43.9701 36.0808C41.623 38.0257 38.09 37.7199 36.1207 35.4019Z" fill="url(#paint0_radial_1_3127)"/>
<path d="M48.7334 19.2856L45.8414 32.9643C45.2159 35.9276 42.2465 37.8449 39.246 37.2272C36.2456 36.6095 34.3041 33.6768 34.9295 30.7136L37.8216 17.0349C38.4471 14.0716 41.4166 12.1542 44.417 12.7719C47.4205 13.3927 49.362 16.3223 48.7334 19.2856Z" fill="url(#paint1_radial_1_3127)"/>
<path d="M50.6675 35.4019L39.0034 21.6712C37.0341 19.3532 37.3437 15.864 39.6908 13.919C42.0379 11.9741 45.5709 12.2799 47.5402 14.5979L59.2044 28.3286C61.1738 30.6467 60.864 34.1358 58.517 36.0808C56.173 38.0257 52.64 37.7199 50.6675 35.4019Z" fill="url(#paint2_radial_1_3127)"/>
<path d="M28.7113 31.4106C28.9807 34.802 26.1382 37.6093 22.7043 37.3433C20.0042 37.1323 17.8181 34.9733 17.6045 32.3036C17.3351 28.9122 20.1776 26.1049 23.6115 26.3709C26.3116 26.582 28.5007 28.744 28.7113 31.4106Z" fill="url(#paint3_radial_1_3127)"/>
<defs>
<radialGradient id="paint0_radial_1_3127" cx="0" cy="0" r="1" gradientUnits="userSpaceOnUse" gradientTransform="translate(37.291 19.7232) scale(11.0887 10.9515)">
<stop stop-color="#9E0B0F"/>
<stop offset="0.1599" stop-color="#B91319"/>
<stop offset="0.3231" stop-color="#CE181F"/>
<stop offset="0.4857" stop-color="#DE1A22"/>
<stop offset="0.6456" stop-color="#E81C23"/>
<stop offset="0.8" stop-color="#ED1C24"/>
</radialGradient>
<radialGradient id="paint1_radial_1_3127" cx="0" cy="0" r="1" gradientUnits="userSpaceOnUse" gradientTransform="translate(47.2185 26.2057) rotate(0.790156) scale(11.1242 10.9865)">
<stop offset="0.3" stop-color="#9E0B0F"/>
<stop offset="0.4399" stop-color="#B91319"/>
<stop offset="0.5827" stop-color="#CE181F"/>
<stop offset="0.7249" stop-color="#DE1A22"/>
<stop offset="0.8649" stop-color="#E81C23"/>
<stop offset="1" stop-color="#ED1C24"/>
</radialGradient>
<radialGradient id="paint2_radial_1_3127" cx="0" cy="0" r="1" gradientUnits="userSpaceOnUse" gradientTransform="translate(39.6057 13.9592) scale(23.7346 23.4406)">
<stop offset="0.35" stop-color="#ED1C24"/>
<stop offset="1" stop-color="#F37021"/>
</radialGradient>
<radialGradient id="paint3_radial_1_3127" cx="0" cy="0" r="1" gradientUnits="userSpaceOnUse" gradientTransform="translate(21.1388 33.8025) scale(8.32804 8.2249)">
<stop offset="0.3" stop-color="#ED1C24"/>
<stop offset="1" stop-color="#9E0B0F"/>
</radialGradient>
</defs>
</svg>
