<svg width="144" height="50" viewBox="0 0 144 50" fill="none" xmlns="http://www.w3.org/2000/svg">
<rect width="144" height="50" rx="4" fill="white"/>
<path d="M135.829 35.6959H134.471L133.93 34.2907H131.458L130.947 35.6959H129.622L132.032 29.5097H133.352L135.829 35.6959ZM133.53 33.2484L132.677 30.9529L131.842 33.2484H133.53ZM131.96 29.1553L132.542 27.8936H133.871L132.711 29.1553H131.96Z" fill="#136DA0"/>
<path d="M119.247 35.6959V29.5098H121.116L122.239 33.7295L123.349 29.5098H125.222V35.6959H124.062V30.8263L122.834 35.6959H121.631L120.408 30.8263V35.6959H119.247Z" fill="#136DA0"/>
<path d="M117.906 35.6959H116.548L116.008 34.2907H113.535L113.024 35.6959H111.699L114.109 29.5098H115.429L117.906 35.6959ZM115.607 33.2485L114.754 30.9529L113.919 33.2485H115.607Z" fill="#136DA0"/>
<path d="M105.404 35.6959V29.5098H106.62L109.151 33.6409V29.5098H110.312V35.6959H109.059L106.565 31.6618V35.6959H105.404Z" fill="#136DA0"/>
<path d="M97.7552 33.4215V32.3792H100.447V34.8435C100.186 35.0967 99.806 35.3204 99.308 35.5145C98.8129 35.7058 98.3108 35.8014 97.8016 35.8014C97.1546 35.8014 96.5905 35.6664 96.1095 35.3963C95.6284 35.1235 95.2669 34.7352 95.025 34.2317C94.7831 33.7253 94.6621 33.1753 94.6621 32.5818C94.6621 31.9375 94.7971 31.3651 95.0672 30.8643C95.3373 30.3636 95.7325 29.9796 96.253 29.7123C96.6496 29.507 97.1433 29.4043 97.7341 29.4043C98.5021 29.4043 99.1013 29.5661 99.5317 29.8896C99.9649 30.2103 100.243 30.6547 100.367 31.223L99.1266 31.4551C99.0394 31.1513 98.8748 30.9122 98.6329 30.7377C98.3938 30.5605 98.0942 30.4719 97.7341 30.4719C97.1883 30.4719 96.7537 30.6449 96.4302 30.9909C96.1095 31.3369 95.9491 31.8503 95.9491 32.5311C95.9491 33.2654 96.1123 33.8167 96.4386 34.1853C96.7649 34.551 97.1925 34.7338 97.7214 34.7338C97.983 34.7338 98.2447 34.6832 98.5063 34.5819C98.7707 34.4778 98.9972 34.3526 99.1857 34.2064V33.4215H97.7552Z" fill="#136DA0"/>
<path d="M87.953 35.696V29.5099H89.1683L91.7001 33.641V29.5099H92.8606V35.696H91.6073L89.1134 31.662V35.696H87.953Z" fill="#136DA0"/>
<path d="M86.5822 35.6958H85.2235L84.6834 34.2907H82.2106L81.7 35.6958H80.375L82.7845 29.5097H84.1053L86.5822 35.6958ZM84.2825 33.2484L83.4301 30.9528L82.5946 33.2484H84.2825ZM84.1348 29.1552H83.3879L82.2232 27.8935H83.5525L84.1348 29.1552Z" fill="#136DA0"/>
<path d="M74.0714 35.696V29.5099H75.3205V31.9447H77.7679V29.5099H79.0169V35.696H77.7679V32.9912H75.3205V35.696H74.0714Z" fill="#136DA0"/>
<path d="M64.0469 35.6959V29.5098H65.2622L67.794 33.6409V29.5098H68.9544V35.6959H67.7012L65.2073 31.6618V35.6959H64.0469Z" fill="#136DA0"/>
<path d="M62.676 35.6956H61.3172L60.7771 34.2904H58.3043L57.7937 35.6956H56.4688L58.8782 29.5094H60.199L62.676 35.6956ZM60.3762 33.2481L59.5238 30.9526L58.6883 33.2481H60.3762ZM58.0976 29.155L58.9837 27.9102H60.0809L60.9543 29.155H60.0007L59.5112 28.5262L59.0555 29.155H58.0976Z" fill="#136DA0"/>
<path d="M52.5579 33.4215V32.3792H55.2501V34.8435C54.9885 35.0967 54.6087 35.3204 54.1108 35.5145C53.6157 35.7058 53.1135 35.8014 52.6043 35.8014C51.9573 35.8014 51.3933 35.6664 50.9122 35.3963C50.4312 35.1235 50.0697 34.7352 49.8277 34.2317C49.5858 33.7253 49.4648 33.1753 49.4648 32.5818C49.4648 31.9375 49.5999 31.3651 49.8699 30.8643C50.14 30.3636 50.5353 29.9796 51.0557 29.7123C51.4523 29.507 51.9461 29.4043 52.5368 29.4043C53.3048 29.4043 53.904 29.5661 54.3344 29.8896C54.7677 30.2103 55.0462 30.6547 55.1699 31.223L53.9293 31.4551C53.8421 31.1513 53.6776 30.9122 53.4356 30.7377C53.1965 30.5605 52.8969 30.4719 52.5368 30.4719C51.9911 30.4719 51.5564 30.6449 51.2329 30.9909C50.9122 31.3369 50.7519 31.8503 50.7519 32.5311C50.7519 33.2654 50.915 33.8167 51.2414 34.1853C51.5677 34.551 51.9953 34.7338 52.5242 34.7338C52.7858 34.7338 53.0474 34.6832 53.309 34.5819C53.5735 34.4778 53.7999 34.3526 53.9884 34.2064V33.4215H52.5579Z" fill="#136DA0"/>
<path d="M42.7559 35.696V29.5099H43.9711L46.503 33.641V29.5099H47.6634V35.696H46.4102L43.9163 31.662V35.696H42.7559Z" fill="#136DA0"/>
<path d="M73.295 13.4766H77.2415V23.4984H74.8129V18.0026H74.5093C73.9021 19.9423 72.9914 21.5587 72.0807 23.4984H69.6521L67.2235 18.0026V23.4984H64.7949V13.7998H68.4378C69.045 15.7396 69.9557 17.6793 70.8664 19.9423C71.7771 17.356 72.6878 15.093 73.295 13.4766Z" fill="#0072BC"/>
<path d="M114.58 23.4984V13.4766H118.527C119.741 15.4163 120.955 17.6793 121.866 19.619H122.169V13.4766H124.598V23.4984H120.652C119.437 21.5587 118.223 19.2957 117.009 17.0327V23.4984H114.58Z" fill="#0072BC"/>
<path d="M94.2412 23.4984V13.4766H96.9734C98.1877 13.4766 99.0984 13.4766 100.313 13.4766C102.741 13.7998 103.652 15.7396 102.438 18.0026C102.741 18.3258 103.045 18.9724 103.045 19.619C103.652 21.882 102.438 23.4984 100.313 23.4984C98.4913 23.4984 96.3662 23.4984 94.2412 23.4984ZM100.313 21.2354C100.313 20.5888 100.313 20.2656 100.313 19.619H96.9734V21.2354H100.313ZM100.313 17.356V16.0628H97.277V17.356H100.313Z" fill="#0072BC"/>
<path d="M128.545 19.7802V23.3363H125.812V13.3145H128.545V17.1939L131.884 13.6377H135.527L131.277 18.487C132.795 20.1034 134.313 22.0432 135.83 23.6596H132.491L128.545 19.7802Z" fill="#0072BC"/>
<path d="M83.9194 13.4766H87.2587C88.473 16.7094 89.6873 19.9423 90.9016 23.4984H88.1694C87.8659 22.8518 87.8659 22.5286 87.5623 21.882H83.9194L83.3123 23.4984H80.5801C81.4908 20.2656 82.7051 17.0327 83.9194 13.4766ZM85.7409 16.7094L84.8301 19.619H86.9551L85.7409 16.7094Z" fill="#0072BC"/>
<path d="M106.991 13.4766H110.33L113.973 23.4984H111.241L110.633 21.882H106.991L106.08 23.4984H103.348L106.991 13.4766ZM107.598 19.619H109.723L108.508 16.7094L107.598 19.619Z" fill="#0072BC"/>
<path d="M42.7568 13.6377H46.7033L50.3462 20.1034V13.6377H53.0784V23.3363H49.1319C47.9176 21.3965 46.7033 19.1335 45.489 16.8705V23.3363H43.0604L42.7568 13.6377Z" fill="#0072BC"/>
<path d="M64.1865 23.4984H61.4543C61.1507 22.8518 61.1507 22.5286 60.8472 21.882H56.9007L56.2936 23.4984H53.2578C54.4721 20.2656 55.6864 16.7094 56.9007 13.4766H60.24C61.4543 17.0327 62.9722 20.2656 64.1865 23.4984ZM59.6329 19.619C59.3293 18.6491 59.0257 17.6793 58.4186 16.7094C58.115 18.0026 57.8114 18.6491 57.2043 19.619H59.6329Z" fill="#0072BC"/>
<path d="M36.2908 24.5957C36.2908 27.9485 36.2128 31.3014 36.2908 34.7322C36.2908 35.7459 35.9009 36.6816 35.2771 37.3833C34.6534 38.0851 33.6397 38.475 32.704 38.475C29.5851 38.475 26.4661 38.475 23.3472 38.475H12.6648C11.1833 38.475 10.0916 37.8512 9.38987 36.6036C9.07797 36.0578 9 35.512 9 34.9662C9 28.1824 9 21.3208 9 14.537C9 13.6014 9.38987 12.6657 10.0137 12.0419C10.7154 11.3401 11.5731 11.0282 12.5088 11.0282C16.3295 11.0282 20.2282 11.0282 24.0489 11.0282H32.704C34.4974 10.7943 35.9789 12.0419 36.2908 13.7573C36.2908 13.9132 36.2908 14.1472 36.2908 14.3031C36.2908 17.734 36.2908 21.1648 36.2908 24.5957ZM22.6454 37.7732H32.782C33.5617 37.7732 34.3415 37.4613 34.8873 36.9155C35.4331 36.3697 35.745 35.5899 35.745 34.8102V14.3811C35.745 12.6657 34.4974 11.3401 32.782 11.3401C25.9983 11.3401 19.2925 11.3401 12.5088 11.3401C11.7291 11.3401 10.9493 11.652 10.4035 12.1978C9.85771 12.7436 9.54582 13.5234 9.54582 14.3031C9.54582 21.1648 9.54582 27.9485 9.54582 34.8102C9.54582 35.5899 9.85771 36.2917 10.4035 36.8375C10.9493 37.3833 11.7291 37.6952 12.4308 37.6952H22.6454V37.7732Z" fill="#0072BC"/>
<path d="M22.6455 37.7729H12.4309C11.6512 37.7729 10.9494 37.461 10.4036 36.9152C9.85779 36.3694 9.5459 35.5897 9.5459 34.8099C9.5459 27.9482 9.5459 21.1645 9.5459 14.3028C9.5459 13.5231 9.85779 12.7434 10.4036 12.1976C10.9494 11.6517 11.7292 11.3398 12.5089 11.3398C19.2926 11.3398 25.9984 11.3398 32.7821 11.3398C34.4975 11.3398 35.7451 12.6654 35.7451 14.3808V34.732C35.7451 35.5117 35.4332 36.2914 34.8874 36.8373C34.3415 37.3831 33.5618 37.695 32.7821 37.695H22.6455V37.7729ZM22.5675 16.3302C20.3842 20.0729 18.279 23.7377 16.1737 27.4024H21.164L25.1406 20.5407L22.5675 16.3302ZM17.1094 16.3302C14.9261 19.9949 12.8208 23.7377 10.7155 27.4024H15.7058C17.0314 25.1412 18.3569 22.802 19.6825 20.5407C18.8248 19.1372 17.9671 17.7337 17.1094 16.3302ZM28.1036 16.3302L21.7098 27.4024H26.2323L26.7781 26.3888C24.9847 25.3751 24.9067 23.4258 25.5305 22.2562C26.2323 21.0086 27.9477 20.2288 29.7411 21.2425L30.131 20.6187L30.4429 21.0866L30.2089 21.5544C31.2226 22.4901 31.4565 24.0496 30.7548 25.2192C30.053 26.4667 28.6495 27.0126 27.3239 26.6227L26.8561 27.4804H34.6534L28.1036 16.3302ZM28.1036 21.0866C26.7001 21.1645 25.6085 22.2562 25.6085 23.6597C25.6085 25.0632 26.7001 26.2328 28.1036 26.2328C29.0393 26.2328 29.897 25.765 30.3649 24.9852C30.8327 24.2055 30.8327 23.1919 30.3649 22.3341C29.897 21.5544 29.0393 21.0866 28.1036 21.0866ZM18.5129 29.4297C18.279 29.8976 18.123 30.3654 17.8891 30.9113C17.6552 30.3654 17.4212 29.8976 17.2653 29.4297H16.3296V31.8469H16.9534V30.5214L17.5772 31.8469H18.201C18.4349 31.3791 18.5908 30.9113 18.8248 30.5214H18.9027V31.8469H19.5265V29.4297H18.5129ZM29.1173 31.769H29.8191V30.2095C30.131 30.7553 30.4429 31.3011 30.7548 31.769H31.7684V29.3518H31.1446V30.8333H31.0666C30.7548 30.3654 30.4429 29.8196 30.2089 29.3518H29.1953L29.1173 31.769ZM10.7155 29.3518V31.769H11.3393V30.2095C11.6512 30.7553 11.9631 31.3011 12.275 31.769H13.2886V29.4297H12.5869V30.9892L11.6512 29.4297H10.7155V29.3518ZM23.8931 31.769C24.4389 31.769 24.9847 31.769 25.4525 31.769C25.9984 31.769 26.3102 31.3791 26.1543 30.8333C26.0763 30.6773 26.0763 30.5994 25.9984 30.4434C26.3103 29.8976 26.0763 29.3518 25.4525 29.3518C25.1406 29.3518 24.9067 29.3518 24.5948 29.3518H23.8931V31.769ZM32.7041 30.9113L33.7178 31.769H34.5755C34.1856 31.3791 33.7957 30.9892 33.4059 30.5214L34.4975 29.3518H33.5618L32.7041 30.2875V29.4297H32.0023V31.8469H32.7041V30.9113ZM21.242 29.3518C20.9301 30.1315 20.6182 30.9113 20.3063 31.769H21.008L21.164 31.3791H22.0997C22.1776 31.535 22.1776 31.613 22.2556 31.769H22.9574C22.6455 30.9892 22.3336 30.1315 22.0217 29.3518H21.242ZM16.1737 31.769C15.8618 30.9892 15.5499 30.1315 15.238 29.3518H14.3803C14.0684 30.1315 13.7565 30.9113 13.4446 31.769H14.2243L14.3803 31.3791H15.238C15.316 31.535 15.316 31.613 15.3939 31.769H16.1737ZM27.168 29.3518L26.2323 31.769H27.012L27.168 31.3791H28.1036L28.2596 31.769H28.9614L28.0257 29.3518H27.168Z" fill="white"/>
<path d="M22.5674 16.2521L25.0626 20.4627L21.0859 27.3244H16.0956C18.3568 23.6596 20.4621 19.9948 22.5674 16.2521Z" fill="#0072BC"/>
<path d="M17.1095 16.252C17.9672 17.6555 18.747 19.059 19.6047 20.4625C18.2791 22.7238 16.9536 25.063 15.628 27.3242H10.6377C12.8989 23.6595 15.0042 19.9947 17.1095 16.252Z" fill="#0072BC"/>
<path d="M28.1035 16.2521L34.5754 27.3244H26.778L27.2458 26.4666C28.5714 26.8565 29.9749 26.3107 30.6767 25.0631C31.3784 23.8155 31.1445 22.334 30.1309 21.3983L30.3648 20.9305L30.0529 20.5406L29.663 21.1644C27.9476 20.1508 26.1542 20.9305 25.4524 22.1781C24.7507 23.3477 24.9066 25.297 26.7 26.3107L26.1542 27.3244H21.6317L28.1035 16.2521Z" fill="#0072BC"/>
<path d="M28.1036 21.0867C29.5071 21.0867 30.6767 22.1783 30.6767 23.6598C30.6767 25.1414 29.5851 26.233 28.1815 26.233C26.778 26.233 25.6084 25.1414 25.6084 23.6598C25.6084 22.9581 25.8423 22.3343 26.3102 21.7885C26.778 21.2427 27.4018 21.0867 28.1036 21.0867ZM26.9339 23.6598L28.1036 24.9074L29.2732 23.7378L28.1036 22.4902L26.9339 23.6598Z" fill="#FFF200"/>
<path d="M18.5133 29.4297H19.527V31.8469H18.9032V30.5213H18.8252C18.6693 30.9892 18.4354 31.379 18.2014 31.8469H17.5777L16.9539 30.5213V31.8469H16.3301V29.5077H17.2658C17.4217 29.9755 17.6556 30.4433 17.8896 30.9892C18.1235 30.3654 18.3574 29.8196 18.5133 29.4297Z" fill="#0072BC"/>
<path d="M29.1172 31.7687V29.3516H30.1308C30.4427 29.8194 30.7546 30.3652 30.9886 30.8331H31.0665V29.3516H31.6903V31.7687H30.6767C30.3648 31.3009 30.0529 30.7551 29.741 30.2093V31.7687H29.1172Z" fill="#0072BC"/>
<path d="M10.7148 29.3516H11.7285L12.6642 30.911V29.3516H13.3659V31.6908H12.3523C12.0404 31.2229 11.7285 30.6771 11.4166 30.1313V31.6908H10.7928L10.7148 29.3516Z" fill="#0072BC"/>
<path d="M23.8926 31.7687V29.3516H24.5943C24.9062 29.3516 25.1402 29.3516 25.4521 29.3516C26.0758 29.4295 26.3098 29.8974 25.9979 30.4432C26.0758 30.5212 26.1538 30.6771 26.1538 30.8331C26.3098 31.3789 25.9979 31.7687 25.4521 31.7687C24.9842 31.7687 24.4384 31.7687 23.8926 31.7687ZM25.4521 31.2229C25.4521 31.067 25.4521 30.989 25.4521 30.8331H24.5943V31.2229H25.4521ZM25.4521 30.2872V29.9754H24.6723V30.2872H25.4521Z" fill="#0072BC"/>
<path d="M32.7037 30.911V31.7687H32.002V29.3516H32.7037V30.2872L33.5614 29.4295H34.4971L33.4055 30.5991C33.7954 30.989 34.1852 31.4569 34.5751 31.8467H33.7174L32.7037 30.911Z" fill="#0072BC"/>
<path d="M21.2425 29.3516H22.1002C22.4121 30.1313 22.724 30.911 23.0359 31.7687H22.3341C22.2561 31.6128 22.2561 31.5348 22.1782 31.3789H21.2425L21.0865 31.7687H20.3848C20.6187 30.989 20.9306 30.2093 21.2425 29.3516ZM21.7103 30.1313L21.4764 30.8331H22.0222L21.7103 30.1313Z" fill="#0072BC"/>
<path d="M16.1742 31.7687H15.4725C15.3945 31.6128 15.3945 31.5348 15.3165 31.3789H14.3029L14.1469 31.7687H13.3672C13.6791 30.989 13.991 30.1313 14.3029 29.3516H15.1606C15.4725 30.2093 15.8623 30.989 16.1742 31.7687ZM15.0046 30.8331C14.9267 30.5991 14.8487 30.3652 14.6927 30.1313C14.6148 30.4432 14.5368 30.5991 14.3808 30.8331H15.0046Z" fill="#0072BC"/>
<path d="M27.1681 29.3516H28.0258L28.9615 31.7687H28.2597L28.1038 31.3789H27.1681L26.9342 31.7687H26.2324L27.1681 29.3516ZM27.3241 30.8331H27.8699L27.558 30.1313L27.3241 30.8331Z" fill="#0072BC"/>
<path d="M26.9336 23.6598L28.1032 22.4902L29.2728 23.6598L28.1032 24.8294L26.9336 23.6598Z" fill="white"/>
<path d="M25.4524 31.2239H24.5947V30.834H25.4524C25.4524 30.9899 25.4524 31.0679 25.4524 31.2239Z" fill="#21232A"/>
<path d="M25.4526 30.2875H24.6729V29.9756H25.4526V30.2875Z" fill="#21232A"/>
<path d="M21.7098 30.1319L22.0216 30.8336H21.4758L21.7098 30.1319Z" fill="#21232A"/>
<path d="M15.0039 30.8336H14.4581C14.5361 30.5997 14.6141 30.3658 14.77 30.1319C14.848 30.3658 14.926 30.5997 15.0039 30.8336Z" fill="#21232A"/>
<path d="M27.3242 30.8336L27.5581 30.1318L27.87 30.8336H27.3242Z" fill="#21232A"/>
</svg>
