<svg width="144" height="50" viewBox="0 0 144 50" fill="none" xmlns="http://www.w3.org/2000/svg">
<rect width="144" height="50" rx="4" fill="white"/>
<path d="M32.4755 34.4286C21.1539 34.4286 12.0032 36.0989 12 38.1816C11.9932 40.2712 21.2468 41.9823 32.6644 41.9998C44.075 42.0237 53.3321 40.3363 53.3357 38.25C53.3357 36.1572 44.0853 34.4422 32.6712 34.4286H32.4755ZM17.8384 38.912C17.5233 38.912 17.2657 38.6521 17.2657 38.3351C17.2657 38.0146 17.5233 37.7598 17.8384 37.7543H47.4014V37.7598C47.7134 37.7721 47.9664 38.0269 47.9664 38.3425C47.9664 38.6521 47.7134 38.912 47.4014 38.9195H17.8384V38.912Z" fill="url(#paint0_linear_1_3137)"/>
<path d="M32.4338 34.3839C26.1892 34.3839 20.6178 34.9065 16.915 35.7379L17.2661 38.3283C17.2703 38.0107 17.5259 37.7598 17.8385 37.7543H47.4015V37.7598C47.7134 37.7721 47.9665 38.0269 47.9665 38.3426C47.9665 38.3613 47.9626 38.3795 47.9607 38.3983H47.9665L48.3273 35.7965C44.5899 34.9444 38.9394 34.3979 32.6192 34.3839H32.4338Z" fill="url(#paint1_linear_1_3137)"/>
<path d="M18.627 21.955C18.614 29.7738 24.9401 36.1338 32.7599 36.1406C38.1006 36.1516 42.7599 33.1953 45.1764 28.8239C45.3829 28.2554 45.4994 27.6406 45.501 27.0047C45.5065 24.0993 43.1592 21.7455 40.2554 21.7397C38.806 21.7345 37.4949 22.3208 36.54 23.2707L33.3332 26.4397C31.791 28.078 29.5997 29.0926 27.1725 29.0926C22.5038 29.0784 18.7218 25.2855 18.7305 20.6107C18.7305 20.4903 18.7341 20.3507 18.7396 20.218C18.6665 20.7865 18.6299 21.367 18.627 21.955Z" fill="url(#paint2_linear_1_3137)"/>
<path d="M32.7837 7.81659C27.5096 7.81659 22.9144 10.701 20.4781 14.9827C20.1898 15.6316 20.0283 16.349 20.0283 17.1053C20.0212 20.0072 22.3695 22.3606 25.2736 22.3661C26.7214 22.3713 28.0361 21.7834 28.9894 20.8389L32.2 17.6716C33.7438 16.0353 35.9296 15.0151 38.3552 15.0171C43.0274 15.0258 46.8092 18.8242 46.7972 23.4973C46.7972 23.6764 46.7897 23.8842 46.7791 24.085C46.8813 23.4018 46.9367 22.7119 46.9367 22.0061C46.9509 14.1801 40.6271 7.83083 32.8067 7.81659H32.7837Z" fill="url(#paint3_linear_1_3137)"/>
<path d="M18.7397 20.2184C18.7342 20.3511 18.7306 20.4907 18.7306 20.6111C18.7219 25.2859 22.5039 29.0788 27.1726 29.093C29.3684 29.093 31.375 28.2558 32.8858 26.8807L27.7674 21.7459C27.0234 22.1451 26.1763 22.3711 25.2732 22.3659C22.369 22.3604 20.0207 20.0069 20.0279 17.1051C20.0279 16.3488 20.1893 15.6313 20.4776 14.9825C19.5761 16.5599 18.971 18.3344 18.7397 20.2184Z" fill="url(#paint4_linear_1_3137)"/>
<path d="M38.0972 15.02C36.0492 15.0792 34.1753 15.8705 32.7402 17.1406L37.8852 22.3027C38.5978 21.9485 39.4025 21.74 40.2552 21.74C43.159 21.7458 45.5063 24.0996 45.5008 27.005C45.4992 27.6396 45.3833 28.2528 45.1779 28.8203H45.1788C45.9732 27.3728 46.5259 25.7753 46.7783 24.0847C46.789 23.8839 46.7964 23.6761 46.7964 23.497C46.8081 18.8954 43.1474 15.1534 38.5796 15.02H38.0972Z" fill="url(#paint5_linear_1_3137)"/>
<path d="M75.7423 25.9489L62.9384 12.708C62.3682 12.0502 61.4441 11.6234 60.5918 11.6234H59.4C58.0727 11.6234 56.9961 12.6883 56.9961 14.0021V30.5593H60.7494V16.2018L73.5584 29.4838C74.1276 30.1397 75.0524 30.5664 75.909 30.5664H77.1234C78.4349 30.5664 79.5024 29.4909 79.5024 28.1609V11.6234H75.7423V25.9489Z" fill="#ED383A"/>
<path d="M83.2363 16.3771V25.7911C83.2363 28.412 85.3539 30.5449 87.9516 30.5449H105.716V26.7916H88.8686C88.2076 26.7916 87.0058 26.3435 87.0058 24.9989V17.2678C87.0058 16.5889 87.586 15.4236 88.8686 15.4236H105.716V11.6233H87.9516C85.3539 11.6233 83.2363 13.7566 83.2363 16.3771Z" fill="#ED383A"/>
<path d="M128.246 18.0441C128.246 18.3918 128.199 19.209 127.189 19.209H113.208V15.3462H127.053C127.709 15.3462 128.246 15.9002 128.246 16.5775V18.0441ZM128.18 25.5868C128.18 26.2534 127.644 26.7915 126.985 26.7915H113.208V22.9627H126.985C127.644 22.9627 128.18 23.5005 128.18 24.1652V25.5868ZM131.955 16.3767C131.955 13.7562 129.843 11.6229 127.247 11.6229H109.479V30.5342H127.247C129.843 30.5342 131.955 28.4045 131.955 25.7875V23.9592C131.955 22.8782 131.589 21.8402 130.926 20.9981C131.525 20.3707 131.955 19.9119 131.955 18.7538V16.3767Z" fill="#ED383A"/>
<path d="M59.1829 36.8025L57.9753 34.3912H57.0078V38.1416H57.7802V35.6966L59.0144 38.1416H59.9586V34.3912H59.1829V36.8025Z" fill="#2B5AA3"/>
<path d="M62.3416 36.6248L62.7124 35.4813L63.0958 36.6248H62.3416ZM62.2946 34.3915L60.9961 38.1416H61.8416L62.1209 37.3199H63.3359L63.6081 38.1416H64.5183L63.1567 34.3915H62.2946Z" fill="#2B5AA3"/>
<path d="M65.1993 35.0867H66.1811V38.1414H67.014V35.0867H68.0012V34.3913H65.1993V35.0867Z" fill="#2B5AA3"/>
<path d="M69.1475 38.1416H69.9846V34.3915H69.1475V38.1416Z" fill="#2B5AA3"/>
<path d="M73.3894 35.5817V36.7641C73.3894 37.0888 73.3357 37.252 73.293 37.331C73.248 37.4135 73.1493 37.5249 72.8662 37.5249C72.5727 37.5249 72.4756 37.419 72.4294 37.3365C72.3863 37.2643 72.3365 37.1056 72.3365 36.7864V35.5998C72.3365 35.0795 72.6028 35.0044 72.863 35.0044C73.0419 35.0044 73.1749 35.0543 73.2639 35.1585C73.3432 35.2537 73.3894 35.3952 73.3894 35.5817ZM72.8662 34.3197C72.4255 34.3197 72.0834 34.4343 71.8488 34.671C71.6217 34.8966 71.5029 35.2158 71.5029 35.6063V36.7395C71.5029 37.2057 71.5877 37.546 71.7773 37.7846C72.0029 38.0698 72.3718 38.2129 72.8701 38.2129C73.361 38.2129 73.7247 38.0662 73.9521 37.7752C74.133 37.5353 74.2223 37.1979 74.2223 36.7395V35.5998C74.2223 35.2087 74.1058 34.8927 73.8712 34.6635C73.6331 34.4343 73.2946 34.3197 72.8662 34.3197Z" fill="#2B5AA3"/>
<path d="M77.9007 36.8025L76.6899 34.3912H75.7256V38.1416H76.4944V35.6966L77.7308 38.1416H78.676V34.3912H77.9007V36.8025Z" fill="#2B5AA3"/>
<path d="M81.0594 36.6246L81.4302 35.4811L81.8098 36.6246H81.0594ZM81.0109 34.3913L79.7139 38.1414H80.5578L80.8358 37.3197H82.0466L82.3207 38.1414H83.229L81.8729 34.3913H81.0109Z" fill="#2B5AA3"/>
<path d="M85.0923 34.3915H84.2539V38.1416H86.4828V37.4442H85.0923V34.3915Z" fill="#2B5AA3"/>
<path d="M91.6956 36.9758C91.6956 37.1406 91.66 37.2734 91.5895 37.3737C91.5215 37.4777 91.4164 37.5246 91.2695 37.5246C90.9863 37.5246 90.8964 37.4204 90.8537 37.3381C90.8106 37.2663 90.7602 37.1086 90.7602 36.7932V35.7961C90.7602 35.459 90.8106 35.2978 90.8501 35.2155C90.8964 35.1294 90.9892 35.0041 91.2695 35.0041C91.5452 35.0041 91.6562 35.1077 91.6562 35.3735V35.6387H92.4946V35.2729C92.4946 34.8358 92.2833 34.3197 91.2963 34.3197C90.6708 34.3197 89.9289 34.556 89.9289 35.707V36.7285C89.9289 37.1983 90.0117 37.5389 90.1838 37.7716C90.3945 38.064 90.7582 38.2159 91.2656 38.2159C92.0914 38.2159 92.5266 37.7846 92.5266 36.9758V36.8253H91.6956V36.9758Z" fill="#2B5AA3"/>
<path d="M93.875 38.1416H94.7115V34.3915H93.875V38.1416Z" fill="#2B5AA3"/>
<path d="M95.8574 35.0869H96.8408V38.1416H97.6756V35.0869H98.661V34.3915H95.8574V35.0869Z" fill="#2B5AA3"/>
<path d="M99.8076 38.1416H100.644V34.3915H99.8076V38.1416Z" fill="#2B5AA3"/>
<path d="M104.506 35.0403V34.3912H101.889V35.0872H103.525L101.824 37.4387V38.1416H104.544V37.4442H102.768L104.506 35.0403Z" fill="#2B5AA3"/>
<path d="M106.311 36.5809H107.68V35.8861H106.311V35.1074H107.791V34.4088H105.473V38.1621H107.823V37.4664H106.311V36.5809Z" fill="#2B5AA3"/>
<path d="M111.639 36.8025L110.43 34.3912H109.461V38.1416H110.235V35.6966L111.467 38.1416H112.415V34.3912H111.639V36.8025Z" fill="#2B5AA3"/>
<path d="M118.035 36.1839C118.041 36.1839 118.045 36.1822 118.051 36.1822V36.1858C118.045 36.1839 118.041 36.1839 118.035 36.1839ZM118.132 35.4564C118.132 35.7215 118.017 35.8365 117.738 35.8365H117.204V35.0873H117.719C117.856 35.0873 117.96 35.121 118.027 35.1838C118.099 35.2466 118.132 35.3363 118.132 35.4564ZM117.204 36.5316H117.58C118.185 36.5316 118.257 36.7864 118.257 37.0124C118.257 37.1448 118.212 37.2487 118.117 37.3238C118.017 37.4067 117.89 37.4443 117.736 37.4443H117.204V36.5316ZM118.606 36.1515C118.85 35.9903 118.967 35.7287 118.967 35.3774C118.967 35.0614 118.859 34.8182 118.626 34.6447C118.407 34.4741 118.132 34.3912 117.806 34.3912H116.365V38.1485H117.838C118.658 38.1485 119.088 37.7544 119.088 37.0231C119.088 36.6054 118.927 36.3095 118.606 36.1515Z" fill="#2B5AA3"/>
<path d="M121.395 36.6248L121.768 35.4813L122.15 36.6248H121.395ZM121.349 34.3915L120.048 38.1416H120.893L121.172 37.3199H122.384L122.658 38.1416H123.57L122.212 34.3915H121.349Z" fill="#2B5AA3"/>
<path d="M126.797 36.8025L125.586 34.3912H124.616V38.1416H125.39V35.6966L126.622 38.1416H127.572V34.3912H126.797V36.8025Z" fill="#2B5AA3"/>
<path d="M130.402 36.1155L131.929 34.3908H130.936L129.847 35.6354V34.3908H129.016V38.1416H129.847V36.6785L130.933 38.1416H131.979L130.402 36.1155Z" fill="#2B5AA3"/>
<defs>
<linearGradient id="paint0_linear_1_3137" x1="13.3889" y1="38.2143" x2="51.8778" y2="38.2143" gradientUnits="userSpaceOnUse">
<stop stop-color="#354571"/>
<stop offset="0.258364" stop-color="#354571"/>
<stop offset="1" stop-color="#2E60A5"/>
</linearGradient>
<linearGradient id="paint1_linear_1_3137" x1="16.915" y1="36.3912" x2="48.3272" y2="36.3912" gradientUnits="userSpaceOnUse">
<stop stop-color="#6E7398"/>
<stop offset="0.135182" stop-color="#6E7398"/>
<stop offset="0.515335" stop-color="white"/>
<stop offset="0.865797" stop-color="#6E7398"/>
<stop offset="1" stop-color="#6E7398"/>
</linearGradient>
<linearGradient id="paint2_linear_1_3137" x1="29.2576" y1="36.1124" x2="34.5633" y2="21.1214" gradientUnits="userSpaceOnUse">
<stop stop-color="#2C65AD"/>
<stop offset="0.456575" stop-color="#2C65AD"/>
<stop offset="1" stop-color="#313756"/>
</linearGradient>
<linearGradient id="paint3_linear_1_3137" x1="33.4861" y1="10.4525" x2="33.4861" y2="21.7468" gradientUnits="userSpaceOnUse">
<stop stop-color="#ED373A"/>
<stop offset="0.427059" stop-color="#ED373A"/>
<stop offset="1" stop-color="#752D2E"/>
</linearGradient>
<linearGradient id="paint4_linear_1_3137" x1="24.572" y1="16.8797" x2="27.3255" y2="28.3969" gradientUnits="userSpaceOnUse">
<stop stop-color="#2C65AD"/>
<stop offset="0.324" stop-color="#2C65AD"/>
<stop offset="1" stop-color="#313756"/>
</linearGradient>
<linearGradient id="paint5_linear_1_3137" x1="34.3344" y1="21.9203" x2="46.3833" y2="21.9203" gradientUnits="userSpaceOnUse">
<stop stop-color="#752D2E"/>
<stop offset="0.0312706" stop-color="#752D2E"/>
<stop offset="1" stop-color="#EC3A3B"/>
</linearGradient>
</defs>
</svg>
