<svg width="144" height="50" viewBox="0 0 144 50" fill="none" xmlns="http://www.w3.org/2000/svg">
<rect width="144" height="50" rx="4" fill="white"/>
<path d="M18.07 26.42C18.4744 29.9969 20.1073 33.3226 22.69 35.83C22.4108 35.093 22.3484 34.2914 22.51 33.52C23.04 31.3 25.26 29.79 28.37 29.35V18.68C20.2 17.26 17.53 22.42 18.07 26.42Z" fill="#E49F15"/>
<path d="M49.16 23C48.7562 19.4201 47.1234 16.091 44.54 13.58C44.8266 14.3154 44.8892 15.1191 44.72 15.89C44.19 18.06 42 19.57 38.86 20V30.68C47 32.1 49.61 26.86 49.16 23Z" fill="#E49F15"/>
<path d="M18.33 21.17C20.46 18.24 24.33 16.55 31.33 18.6C43.65 22.06 47.65 14 40.63 10.69C38.511 9.61523 36.1747 9.038 33.799 9.00226C31.4234 8.96652 29.0708 9.47321 26.9205 10.4838C24.7701 11.4943 22.8787 12.9821 21.39 14.8339C19.9014 16.6857 18.8548 18.8528 18.33 21.17Z" fill="#E49F15"/>
<path d="M48.8999 28.1C46.7599 31.04 42.8999 32.72 35.8999 30.68C23.4699 27.21 19.4699 35.3 26.4899 38.68C28.623 39.7573 30.9738 40.3337 33.3632 40.3654C35.7527 40.3972 38.1179 39.8834 40.2789 38.8632C42.4398 37.843 44.3396 36.3432 45.8335 34.4781C47.3274 32.613 48.3762 30.4316 48.8999 28.1Z" fill="#E49F15"/>
<path d="M66.7 12.32C59.24 12.32 53.23 17.9 53.23 24.74C53.23 31.58 59.29 37.15 66.7 37.15C74.11 37.15 80.18 31.58 80.18 24.74C80.18 17.9 74.15 12.32 66.7 12.32ZM66.7 32.65C65.7167 32.5957 64.7539 32.3478 63.8667 31.9205C62.9795 31.4932 62.1854 30.8949 61.53 30.16C60.202 28.6762 59.5122 26.7289 59.61 24.74C59.4897 22.739 60.169 20.7722 61.4985 19.272C62.8281 17.7718 64.699 16.861 66.7 16.74C68.6882 16.8562 70.5497 17.7542 71.878 19.2381C73.2064 20.722 73.8937 22.6711 73.79 24.66C73.8441 25.6447 73.7032 26.6304 73.3755 27.5605C73.0477 28.4906 72.5395 29.3468 71.88 30.08C70.5488 31.5615 68.688 32.4596 66.7 32.58" fill="#008C4F"/>
<path d="M125.66 29.69C125.632 28.7933 125.41 27.9132 125.01 27.11C124.581 26.2649 123.949 25.5398 123.17 25C122.714 24.6798 122.221 24.4177 121.7 24.22C122.532 23.8442 123.257 23.2668 123.81 22.54C124.569 21.4105 124.922 20.0564 124.81 18.7C124.809 17.9065 124.639 17.1223 124.31 16.4C124.01 15.6794 123.564 15.029 123 14.49C121.513 13.3546 119.667 12.7936 117.8 12.91H104.44V36.49H116.13C117.906 36.5365 119.678 36.2829 121.37 35.74C122.716 35.3209 123.895 34.4881 124.74 33.36C125.484 32.2763 125.837 30.9712 125.74 29.66L125.66 29.69ZM114.58 16.52C117.51 16.52 118.5 17.12 118.5 19.33C118.5 21.2 117.36 21.97 114.68 21.97H113.11L111.43 26.39H114.8C117.73 26.39 119.26 27.39 119.26 29.6C119.26 31.81 117.58 32.82 114.66 32.82H110.8V16.55L114.58 16.52Z" fill="#008C4F"/>
<path d="M102 30.73C100.421 31.9867 98.4583 32.6643 96.44 32.65C94.2547 32.723 92.1294 31.9276 90.529 30.4378C88.9286 28.9479 87.9834 26.8849 87.9 24.7C87.9834 22.5222 88.9231 20.4654 90.5148 18.9767C92.1065 17.488 94.2215 16.6878 96.4 16.75C98.4312 16.7315 100.407 17.409 102 18.67V13.85C99.9055 12.812 97.5975 12.2777 95.26 12.29C87.65 12.29 81.47 17.85 81.47 24.7C81.47 31.55 87.65 37.12 95.26 37.12C97.601 37.1324 99.9113 36.5874 102 35.53V30.73Z" fill="#008C4F"/>
</svg>
