<svg width="144" height="50" viewBox="0 0 144 50" fill="none" xmlns="http://www.w3.org/2000/svg">
<rect width="144" height="50" rx="4" fill="white"/>
<path fill-rule="evenodd" clip-rule="evenodd" d="M120.144 20.6813C119.882 20.6813 119.62 20.6762 119.364 20.6863C118.974 20.7016 118.651 20.9706 118.563 21.3463C118.538 21.4631 118.538 21.585 118.538 21.7068C118.538 23.2603 118.538 24.8139 118.538 26.3725C118.538 26.4639 118.528 26.5553 118.522 26.7076C118.415 26.5857 118.343 26.5147 118.281 26.4385C117.291 25.2911 116.296 24.1387 115.306 22.9913C114.741 22.3363 114.177 21.6865 113.618 21.0316C113.479 20.8691 113.315 20.7219 113.105 20.7066C112.761 20.6813 112.417 20.7016 112.063 20.7016V29.9061C112.443 29.9061 112.807 29.9416 113.166 29.8959C113.464 29.8604 113.679 29.6471 113.777 29.3578C113.823 29.2207 113.838 29.0734 113.838 28.9262C113.838 27.3625 113.838 25.7988 113.838 24.2351C113.838 24.1437 113.848 24.0574 113.854 23.9102C113.956 24.0168 114.018 24.0828 114.079 24.1539C115.588 25.8953 117.101 27.6316 118.589 29.3882C118.923 29.7842 119.282 29.9924 119.795 29.9314C119.964 29.9111 120.133 29.9264 120.298 29.9213C120.354 29.4796 120.334 20.8793 120.277 20.6914C120.236 20.6914 120.195 20.6813 120.154 20.6813H120.144Z" fill="#1E417C"/>
<path fill-rule="evenodd" clip-rule="evenodd" d="M87.6621 20.6813C87.5647 20.6813 87.4723 20.6813 87.3748 20.6914C87.0311 20.732 86.7181 21.0062 86.6514 21.3413C86.6206 21.4834 86.6155 21.6306 86.6155 21.7779C86.6155 23.306 86.6155 24.8393 86.6155 26.3674C86.6155 26.4588 86.6155 26.5502 86.6053 26.6974C86.4975 26.5857 86.4359 26.5197 86.3744 26.4537C85.3944 25.3165 84.4094 24.1843 83.4294 23.0471C82.8497 22.377 82.2648 21.7017 81.685 21.0265C81.4952 20.8031 81.2592 20.6813 80.9616 20.6863C80.7462 20.6863 80.5255 20.6863 80.3101 20.6863C80.2536 20.6863 80.1972 20.7066 80.1459 20.7168V29.901C80.1818 29.9111 80.2074 29.9264 80.2331 29.9264C80.4588 29.9264 80.6846 29.9264 80.9103 29.9314C81.5722 29.967 81.9621 29.4745 81.9108 28.9465C81.9005 28.8704 81.9108 28.7942 81.9108 28.713V24.225C81.9108 24.1387 81.9211 24.0473 81.9211 23.961C82.0339 24.0168 82.1006 24.0828 82.1571 24.1539C82.8343 24.9357 83.5115 25.7227 84.1888 26.5045C85.0763 27.5301 85.9639 28.5556 86.8464 29.5811C86.9849 29.7436 87.144 29.8908 87.3594 29.9061C87.6929 29.9264 88.0315 29.9061 88.3804 29.9061C88.4369 29.4897 88.4163 20.8742 88.3599 20.6762C88.129 20.6762 87.8982 20.6762 87.6621 20.6762V20.6813Z" fill="#1E417C"/>
<path fill-rule="evenodd" clip-rule="evenodd" d="M99.3751 24.8088C99.3392 24.7885 99.3135 24.7581 99.2725 24.7276C99.3341 24.6464 99.3854 24.5804 99.4316 24.5093C100.022 23.6513 99.9908 22.5394 99.3546 21.717C98.8261 21.0316 98.1079 20.7168 97.2562 20.6965C96.148 20.6762 95.0347 20.6864 93.9213 20.6813C93.8649 20.6813 93.8033 20.6914 93.7366 20.6965V29.9315C93.9932 29.9315 94.2343 29.9315 94.4754 29.9315C95.5888 29.9315 96.697 29.9416 97.8103 29.9112C98.6158 29.8909 99.3392 29.6167 99.8984 29.0125C101.176 27.6418 100.735 25.5856 99.37 24.8088H99.3751ZM95.5221 22.2856C95.5528 22.2704 95.5682 22.2551 95.5836 22.2551C96.1275 22.2653 96.6764 22.2551 97.2203 22.2907C97.6359 22.3211 97.9642 22.641 98.0463 23.0421C98.1284 23.4381 97.995 23.7681 97.682 24.027C97.5025 24.1742 97.2767 24.2351 97.0561 24.2453C96.5533 24.2605 96.0505 24.2453 95.5528 24.2453C95.4964 24.0574 95.481 22.6918 95.5272 22.2805L95.5221 22.2856ZM97.7795 28.3272C97.6153 28.3525 97.4512 28.3678 97.287 28.3678C96.7739 28.3728 96.266 28.3678 95.7529 28.3678C95.6863 28.3678 95.6144 28.3627 95.5169 28.3525V25.8496C95.5888 25.8395 95.6555 25.8242 95.717 25.8242C96.2711 25.8242 96.8252 25.8242 97.3793 25.8242C97.5435 25.8242 97.7077 25.8445 97.8667 25.875C98.4362 25.9765 98.8723 26.4538 98.8672 27.1087C98.8621 27.7382 98.4106 28.2256 97.7744 28.317L97.7795 28.3272Z" fill="#1E417C"/>
<path fill-rule="evenodd" clip-rule="evenodd" d="M49.419 21.0976C48.4852 20.6102 47.4847 20.4629 46.4381 20.5848C45.2068 20.7269 44.1601 21.2245 43.3444 22.1586C42.503 23.1182 42.149 24.2503 42.1951 25.5145C42.2362 26.5959 42.5851 27.5656 43.2931 28.3982C44.1088 29.3577 45.1606 29.8756 46.4125 30.0279C47.3667 30.1396 48.2954 30.0431 49.1573 29.6421C51.0094 28.7891 51.8611 27.2914 51.9483 25.2962C51.9227 25.0373 51.9124 24.758 51.8662 24.489C51.5995 22.971 50.7991 21.8185 49.419 21.0976ZM49.7525 26.8903C49.2137 27.8956 48.2133 28.4896 46.787 28.4947C45.8635 28.4642 44.9451 27.9413 44.3756 26.8954C43.8626 25.9562 43.8318 24.9713 44.2422 23.9914C44.6937 22.91 45.7917 22.0114 47.3308 22.1282C48.5211 22.2196 49.5934 23.0116 49.9987 24.296C50.2758 25.1896 50.1988 26.0628 49.7576 26.8903H49.7525Z" fill="#1E417C"/>
<path fill-rule="evenodd" clip-rule="evenodd" d="M126.434 24.9103C127.793 23.5091 129.138 22.1231 130.528 20.6965C130.405 20.6914 130.348 20.6812 130.287 20.6812C129.738 20.6812 129.194 20.6863 128.645 20.6812C128.327 20.6762 128.081 20.7879 127.865 21.0163C126.88 22.0571 125.885 23.0928 124.895 24.1285C124.828 24.1996 124.751 24.2706 124.684 24.3366C124.664 24.3316 124.648 24.3214 124.628 24.3163V20.6965C124.253 20.6965 123.915 20.6762 123.581 20.6965C123.248 20.7219 122.945 21.0112 122.878 21.3362C122.853 21.4631 122.842 21.59 122.842 21.722C122.842 24.3874 122.842 27.0528 122.842 29.7131C122.842 29.7791 122.858 29.8451 122.863 29.9162C123.217 29.9162 123.555 29.9263 123.894 29.9162C124.074 29.9162 124.222 29.8147 124.351 29.6928C124.551 29.505 124.633 29.2714 124.628 28.9973C124.628 27.9057 124.628 26.8142 124.628 25.7226C124.628 25.6313 124.638 25.5449 124.643 25.3876C124.777 25.5297 124.859 25.6211 124.946 25.7125C126.111 27.002 127.275 28.2865 128.43 29.5811C128.64 29.8146 128.881 29.9416 129.199 29.9365C129.738 29.9263 130.277 29.9365 130.815 29.9365C130.867 29.9365 130.918 29.9162 131 29.901C129.466 28.2256 127.958 26.5806 126.434 24.9205V24.9103Z" fill="#1E417C"/>
<path fill-rule="evenodd" clip-rule="evenodd" d="M107.974 23.4989C107.656 22.7577 107.328 22.0165 107.015 21.2752C106.891 20.9859 106.697 20.7726 106.384 20.7066C106.086 20.6457 105.783 20.6812 105.491 20.6812C104.152 23.768 102.828 26.8294 101.489 29.9263C101.92 29.9263 102.305 29.9263 102.695 29.9263C103.146 29.9263 103.449 29.7182 103.623 29.312C103.788 28.916 103.977 28.5251 104.126 28.124C104.198 27.926 104.306 27.8702 104.511 27.8753C105.588 27.8854 106.666 27.8753 107.743 27.8753H108.005C108.051 27.9717 108.087 28.0428 108.123 28.124C108.292 28.52 108.467 28.911 108.631 29.307C108.8 29.7182 109.103 29.9263 109.554 29.9213C109.893 29.9213 110.231 29.9213 110.57 29.9213C110.621 29.9213 110.668 29.9111 110.745 29.901C110.703 29.7994 110.668 29.708 110.632 29.6268C109.749 27.5808 108.862 25.5399 107.974 23.4939V23.4989ZM104.916 26.2963C105.316 25.3774 105.701 24.4839 106.117 23.5294C106.527 24.4788 106.917 25.3673 107.317 26.2963H104.916Z" fill="#1E417C"/>
<path fill-rule="evenodd" clip-rule="evenodd" d="M76.1183 23.6563C75.7746 22.8592 75.4257 22.0622 75.0819 21.2651C74.9537 20.9706 74.7485 20.7472 74.4201 20.7066C74.1431 20.6711 73.8506 20.6965 73.5582 20.6965C72.2294 23.7629 70.9057 26.8193 69.5615 29.9263C70.0283 29.9263 70.4337 29.9263 70.8441 29.9263C71.234 29.9263 71.5008 29.7283 71.6599 29.3882C71.7573 29.1851 71.8394 28.977 71.9266 28.7739C72.0498 28.4845 72.178 28.19 72.3012 27.9057H76.0875C76.1491 28.0479 76.2055 28.1697 76.262 28.2966C76.421 28.6571 76.5749 29.0226 76.7289 29.3882C76.8571 29.6725 77.0675 29.8908 77.3856 29.9111C77.8524 29.9416 78.3193 29.9213 78.8221 29.9213C78.7811 29.8248 78.7503 29.7487 78.7144 29.6725C77.8473 27.6671 76.9803 25.6668 76.1132 23.6614L76.1183 23.6563ZM72.9938 26.3065C73.3786 25.3876 73.7788 24.4991 74.1892 23.5446C74.6151 24.4889 74.9896 25.3774 75.3949 26.3065H72.9938Z" fill="#1E417C"/>
<path fill-rule="evenodd" clip-rule="evenodd" d="M67.1758 28.3728H65.8727C65.4417 28.3728 65.0107 28.3728 64.5695 28.3728V25.7633H67.4221V24.1996H66.4678C66.1446 24.1996 65.8265 24.1996 65.5033 24.1996C65.1954 24.1996 64.8825 24.2199 64.5695 24.1793V22.245H67.3862C67.4836 22.245 67.576 22.245 67.6735 22.2399C67.9813 22.2145 68.2686 21.9911 68.3353 21.7017C68.4123 21.3717 68.3764 21.0417 68.3661 20.7067H62.7892V29.9416H63.0611C64.5438 29.9416 66.0317 29.9416 67.5144 29.9416C67.6119 29.9416 67.7043 29.9416 67.8017 29.9315C68.1455 29.901 68.4482 29.6573 68.4841 29.3222C68.52 29.0176 68.4892 28.713 68.4892 28.383H67.1758V28.3728Z" fill="#1E417C"/>
<path fill-rule="evenodd" clip-rule="evenodd" d="M60.3266 27.6417C60.0341 27.6417 59.793 27.7483 59.5518 27.9057C58.7053 28.4591 57.7869 28.6013 56.8121 28.3474C55.3448 27.9616 54.488 26.6314 54.5136 25.2505C54.5547 22.8948 56.9199 21.458 59.008 22.4785C59.1876 22.5648 59.3774 22.6308 59.5724 22.6663C60.1265 22.7679 60.7883 22.3414 60.8858 21.8083C60.8653 21.788 60.8447 21.7576 60.8191 21.7373C60.7627 21.6865 60.7011 21.6357 60.6395 21.59C59.9058 21.0316 59.0747 20.7117 58.1563 20.6254C56.8634 20.5036 55.6629 20.7625 54.6111 21.5342C53.3798 22.4429 52.7744 23.6868 52.7539 25.1946C52.7282 27.0376 53.5029 28.4693 55.1293 29.3984C56.1092 29.9568 57.1815 30.1091 58.3 29.9822C59.2081 29.8807 60.0341 29.571 60.7627 29.0227C61.0243 28.8247 61.2706 28.6064 61.4655 28.3373C61.209 27.8854 60.8396 27.6468 60.3214 27.6417H60.3266Z" fill="#1E417C"/>
<path fill-rule="evenodd" clip-rule="evenodd" d="M25.603 36.3283C29.9486 36.3283 33.7401 33.9879 35.7615 30.5152C27.7424 28.9668 24.3563 33.7543 17.2043 32.8202C19.3335 34.988 22.3092 36.3283 25.603 36.3283Z" fill="#1E417C"/>
<path fill-rule="evenodd" clip-rule="evenodd" d="M25.603 13.1369C19.1333 13.1369 13.8848 18.3306 13.8848 24.7326C13.8848 25.6261 13.9874 26.4943 14.1772 27.3269C14.8031 27.5046 16.173 27.5198 19.1436 26.9055C20.4211 26.6415 22.3348 26.3725 24.7872 26.8598C24.6179 26.3725 24.5307 25.8546 24.5307 25.3164C24.5307 22.6714 26.7009 20.5238 29.3739 20.5238C32.0469 20.5238 34.2172 22.6714 34.2172 25.3164C34.2172 26.9106 33.4322 28.322 32.2214 29.1952C33.3501 29.1902 34.8944 29.3018 36.1257 29.84C36.8902 28.3017 37.3212 26.5654 37.3212 24.7377C37.3212 18.3306 32.0726 13.1369 25.603 13.1369Z" fill="#89D2DD"/>
<path fill-rule="evenodd" clip-rule="evenodd" d="M25.2284 27.7991C21.006 26.8751 18.5023 29.0734 14.9365 28.9567L14.9724 29.0531C16.1781 30.5508 17.4761 31.1854 18.9127 31.3327L19.5079 31.3682C21.7909 31.3987 24.4127 30.3884 27.5423 29.7537C26.5726 29.3628 25.762 28.6723 25.2284 27.7991Z" fill="#0F9BD7"/>
<path d="M43.1188 35.7343V32.3734H43.8268L45.2428 34.8256V32.3734H45.8739V35.7343H45.1761L43.7498 33.2873V35.7343H43.1188Z" fill="#1E417C"/>
<path d="M49.7988 33.3634H49.0446C48.9779 33.272 48.8958 33.1908 48.8034 33.1248C48.7059 33.0588 48.6033 33.008 48.4956 32.9725C48.3827 32.9369 48.2698 32.9166 48.157 32.9166C47.8594 32.9166 47.5977 33.0131 47.372 33.206C47.295 33.272 47.2283 33.3532 47.1668 33.4446C47.1052 33.536 47.0642 33.6376 47.0282 33.7442C46.9975 33.8508 46.9769 33.9523 46.9769 34.0539C46.9769 34.196 47.0077 34.3331 47.0642 34.4753C47.1257 34.6174 47.2027 34.7342 47.3002 34.8357C47.4182 34.9576 47.5516 35.0489 47.7055 35.1149C47.8594 35.1809 48.0133 35.2114 48.1826 35.2114C48.3827 35.2114 48.5725 35.1556 48.7572 35.0439C48.9419 34.9322 49.0805 34.79 49.1728 34.6073H47.7517V34.0183H49.9681V34.0894C49.9681 34.4093 49.886 34.7037 49.7218 34.9626C49.5576 35.2266 49.337 35.4348 49.06 35.582C48.7829 35.7343 48.4853 35.8105 48.1621 35.8105C47.921 35.8105 47.6901 35.7648 47.4695 35.6785C47.2489 35.5922 47.0539 35.4653 46.8846 35.3079C46.7153 35.1505 46.5819 34.9626 46.4895 34.7494C46.3921 34.5362 46.3459 34.3077 46.3459 34.064C46.3459 33.8203 46.3921 33.5919 46.4895 33.3786C46.587 33.1654 46.7153 32.9776 46.8846 32.8151C47.0539 32.6526 47.2489 32.5308 47.4695 32.4394C47.6901 32.348 47.921 32.3023 48.157 32.3023C48.393 32.3023 48.6136 32.3429 48.8342 32.4292C49.0548 32.5156 49.2498 32.6374 49.4191 32.7948C49.5884 32.9522 49.7167 33.14 49.7988 33.3482V33.3634Z" fill="#1E417C"/>
<path d="M50.1014 35.7344L51.5175 32.3734H52.01L53.4414 35.7344H52.7488L52.3794 34.8662H51.1789L50.8043 35.7344H50.1066H50.1014ZM51.0968 32.145L51.5996 31.6779H51.9587L52.4615 32.145H51.9638L51.7791 31.9266L51.5893 32.145H51.0916H51.0968ZM51.4046 34.257H52.1331L51.7689 33.2416L51.4046 34.257Z" fill="#1E417C"/>
<path d="M53.7801 35.7343V32.3734H54.4881L55.9041 34.8256V32.3734H56.5352V35.7343H55.8374L54.4111 33.2873V35.7343H53.7801Z" fill="#1E417C"/>
<path d="M58.4694 35.7343V32.3734H59.1004V33.7188H60.3112V32.3734H60.9423V35.7343H60.3112V34.323H59.1004V35.7343H58.4694Z" fill="#1E417C"/>
<path d="M61.317 35.7343L62.733 32.3734H63.2255L64.657 35.7343H63.9643L63.5949 34.8662H62.3944L62.0198 35.7343H61.3221H61.317ZM62.4098 31.7236L62.6047 31.3732L63.3692 31.8352L63.1896 32.15L62.4149 31.7286L62.4098 31.7236ZM62.615 34.2569H63.3435L62.9793 33.2416L62.615 34.2569Z" fill="#1E417C"/>
<path d="M64.9954 35.7343V32.3734H65.7034L67.1195 34.8256V32.3734H67.7505V35.7343H67.0528L65.6265 33.2873V35.7343H64.9954Z" fill="#1E417C"/>
<path d="M71.6755 33.3634H70.9213C70.8546 33.272 70.7725 33.1908 70.6802 33.1248C70.5878 33.0588 70.4801 33.008 70.3724 32.9725C70.2595 32.9369 70.1466 32.9166 70.0337 32.9166C69.7362 32.9166 69.4745 33.0131 69.2488 33.206C69.1718 33.272 69.1051 33.3532 69.0435 33.4446C68.982 33.536 68.9409 33.6376 68.905 33.7442C68.8742 33.8508 68.8537 33.9523 68.8537 34.0539C68.8537 34.196 68.8845 34.3331 68.9409 34.4753C69.0025 34.6174 69.0795 34.7342 69.1769 34.8357C69.2949 34.9576 69.4283 35.0489 69.5823 35.1149C69.7362 35.1809 69.8901 35.2114 70.0594 35.2114C70.2595 35.2114 70.4493 35.1556 70.634 35.0439C70.8187 34.9322 70.9572 34.79 71.0496 34.6073H69.6284V34.0183H71.8448V34.0894C71.8448 34.4093 71.7627 34.7037 71.5986 34.9626C71.4344 35.2266 71.2138 35.4348 70.9367 35.582C70.6597 35.7343 70.3621 35.8105 70.0389 35.8105C69.7977 35.8105 69.5669 35.7648 69.3462 35.6785C69.1256 35.5922 68.9307 35.4653 68.7614 35.3079C68.5921 35.1505 68.4587 34.9626 68.3663 34.7494C68.2688 34.5362 68.2227 34.3077 68.2227 34.064C68.2227 33.8203 68.2688 33.5919 68.3663 33.3786C68.4587 33.1654 68.5921 32.9776 68.7614 32.8151C68.9307 32.6526 69.1256 32.5308 69.3462 32.4394C69.5669 32.348 69.7977 32.3023 70.0337 32.3023C70.2697 32.3023 70.4904 32.3429 70.711 32.4292C70.9316 32.5156 71.1266 32.6374 71.2959 32.7948C71.4652 32.9522 71.5934 33.14 71.6755 33.3482V33.3634Z" fill="#1E417C"/>
<path d="M73.8867 35.7343V32.9776H73.2659V32.3734H75.154V32.9776H74.5178V35.7343H73.8867Z" fill="#1E417C"/>
<path d="M75.4773 35.7343V32.3734H76.3341L77.2422 34.9423L78.1657 32.3734H79.0225V35.7343H78.3915V33.2162L77.5141 35.7343H76.9806L76.1032 33.2162V35.7343H75.4722H75.4773Z" fill="#1E417C"/>
<path d="M81.2388 35.7343V32.9776H80.618V32.3734H82.5061V32.9776H81.8699V35.7343H81.2388Z" fill="#1E417C"/>
<path d="M82.8241 35.7343V32.3734H83.5321L84.9481 34.8256V32.3734H85.5792V35.7343H84.8815L83.4552 33.2873V35.7343H82.8241Z" fill="#1E417C"/>
<path d="M86.2257 35.7343V32.3734H86.8568V33.7188H88.0676V32.3734H88.6986V35.7343H88.0676V34.323H86.8568V35.7343H86.2257Z" fill="#1E417C"/>
<path d="M89.3553 35.7343V32.3734H89.9864V33.7188H91.1972V32.3734H91.8283V35.7343H91.1972V34.323H89.9864V35.7343H89.3553Z" fill="#1E417C"/>
<path d="M93.7677 35.7343V32.3734H94.6245L95.5326 34.9423L96.4561 32.3734H97.3129V35.7343H96.6819V33.2162L95.8045 35.7343H95.271L94.3936 33.2162V35.7343H93.7626H93.7677Z" fill="#1E417C"/>
<path d="M98.2415 35.7343V32.9776H97.6207V32.3734H99.5087V32.9776H98.8725V35.7343H98.2415Z" fill="#1E417C"/>
<path d="M100.873 35.7343L99.5549 32.3734H100.217L101.13 34.9322L102.043 32.3734H102.705L101.392 35.7343H100.873Z" fill="#1E417C"/>
<path d="M105.255 35.7343H104.526V34.2773H104.085V33.795H104.526V32.3734H105.24C105.378 32.3734 105.512 32.3785 105.64 32.3937C105.773 32.4039 105.896 32.4242 106.009 32.4496C106.122 32.475 106.24 32.5156 106.353 32.5663C106.466 32.6171 106.574 32.6831 106.666 32.7643C106.851 32.9166 106.989 33.1096 107.092 33.3482C107.194 33.5868 107.246 33.8254 107.246 34.0691C107.246 34.1859 107.23 34.3027 107.205 34.4245C107.179 34.5463 107.138 34.658 107.087 34.7748C107.035 34.8865 106.974 34.9931 106.902 35.0896C106.83 35.186 106.748 35.2723 106.656 35.3536C106.471 35.5059 106.266 35.6125 106.04 35.6633C105.814 35.714 105.547 35.7394 105.245 35.7394L105.255 35.7343ZM105.691 33.8V34.2823H105.157V35.1353H105.234C105.368 35.1353 105.491 35.1353 105.599 35.12C105.706 35.1048 105.814 35.0896 105.917 35.054C106.025 35.0185 106.122 34.9677 106.209 34.9017C106.338 34.8053 106.44 34.6834 106.512 34.5362C106.584 34.389 106.62 34.2367 106.62 34.0691C106.62 33.9523 106.604 33.8406 106.568 33.729C106.532 33.6173 106.481 33.5157 106.414 33.4193C106.348 33.3228 106.266 33.2466 106.168 33.1806C106.04 33.0943 105.901 33.0385 105.753 33.0131C105.604 32.9928 105.419 32.9776 105.204 32.9776H105.157V33.8H105.691Z" fill="#1E417C"/>
<path d="M107.466 35.7343L108.882 32.3734H109.375L110.806 35.7343H110.114L109.744 34.8662H108.544L108.169 35.7343H107.471H107.466ZM108.769 34.262H109.498L109.134 33.2466L108.769 34.262ZM108.893 36.4451V36.0085H109.38V36.4451H108.893Z" fill="#1E417C"/>
<path d="M111.15 35.7343V32.3734H111.781V35.7343H111.15Z" fill="#1E417C"/>
<path d="M113.72 35.7343V32.3734H114.434C114.572 32.3734 114.705 32.3785 114.834 32.3937C114.962 32.409 115.09 32.4242 115.203 32.4496C115.316 32.475 115.434 32.5156 115.547 32.5663C115.66 32.6171 115.762 32.6831 115.86 32.7643C116.045 32.9166 116.183 33.1096 116.291 33.3482C116.393 33.5868 116.445 33.8254 116.445 34.0691C116.445 34.1859 116.429 34.3027 116.404 34.4245C116.378 34.5463 116.342 34.658 116.291 34.7748C116.24 34.8865 116.178 34.9931 116.106 35.0896C116.034 35.186 115.952 35.2723 115.86 35.3536C115.675 35.5059 115.47 35.6125 115.244 35.6633C115.018 35.714 114.752 35.7394 114.449 35.7394H113.72V35.7343ZM114.351 35.1302H114.428C114.562 35.1302 114.685 35.1302 114.793 35.115C114.9 35.1048 115.008 35.0845 115.111 35.049C115.219 35.0134 115.316 34.9627 115.403 34.8967C115.531 34.8002 115.634 34.6783 115.706 34.5311C115.778 34.3839 115.814 34.2316 115.814 34.064C115.814 33.9473 115.798 33.8356 115.762 33.7239C115.726 33.6122 115.675 33.5106 115.608 33.4142C115.542 33.3177 115.46 33.2416 115.362 33.1756C115.234 33.0893 115.095 33.0334 114.947 33.008C114.798 32.9877 114.613 32.9725 114.398 32.9725H114.351V35.1251V35.1302Z" fill="#1E417C"/>
<path d="M116.896 32.3734H117.527V34.4702C117.527 34.5768 117.527 34.658 117.537 34.724C117.543 34.79 117.563 34.856 117.594 34.9271C117.64 35.0134 117.707 35.0845 117.784 35.1353C117.861 35.186 117.948 35.2114 118.045 35.2114C118.128 35.2114 118.21 35.1911 118.287 35.1454C118.364 35.0997 118.425 35.0439 118.471 34.9728C118.512 34.9068 118.538 34.8307 118.548 34.7596C118.558 34.6834 118.564 34.587 118.564 34.4702V32.3734H119.195V32.9776C119.282 32.9776 119.343 32.9319 119.379 32.8405C119.415 32.7491 119.436 32.5968 119.436 32.3785H119.774C119.774 32.6476 119.713 32.8506 119.605 32.9928C119.497 33.135 119.364 33.206 119.2 33.206V34.4753C119.2 34.6733 119.184 34.8408 119.148 34.988C119.118 35.1353 119.051 35.2673 118.948 35.384C118.836 35.5211 118.697 35.6227 118.538 35.7039C118.379 35.7851 118.215 35.8207 118.045 35.8207C117.892 35.8207 117.732 35.7851 117.579 35.709C117.419 35.6328 117.286 35.5363 117.178 35.4145C117.096 35.3231 117.04 35.2317 116.999 35.1353C116.958 35.0388 116.932 34.9373 116.922 34.8357C116.906 34.7342 116.901 34.6123 116.901 34.4753V32.3785L116.896 32.3734Z" fill="#1E417C"/>
<path d="M121.519 32.3125C121.75 32.3125 121.96 32.348 122.14 32.414C122.324 32.48 122.478 32.5612 122.601 32.6678C122.724 32.7745 122.832 32.8862 122.914 33.008C123.007 33.008 123.073 32.9471 123.125 32.8303C123.171 32.7135 123.196 32.5409 123.196 32.3226H123.55C123.55 32.5105 123.525 32.6678 123.479 32.7998C123.427 32.9318 123.366 33.0334 123.289 33.0994C123.212 33.1654 123.135 33.2009 123.053 33.2009C123.13 33.3228 123.191 33.4446 123.232 33.5817C123.273 33.7137 123.294 33.8812 123.294 34.0742C123.294 34.3889 123.212 34.6834 123.053 34.9525C122.894 35.2215 122.678 35.4348 122.406 35.5871C122.134 35.7445 121.842 35.8206 121.524 35.8206C121.288 35.8206 121.062 35.7749 120.842 35.6835C120.621 35.5922 120.431 35.4652 120.267 35.3079C120.103 35.1454 119.974 34.9575 119.882 34.7494C119.79 34.5362 119.744 34.3128 119.744 34.0792C119.744 33.7594 119.821 33.4649 119.98 33.1958C120.139 32.9268 120.354 32.7135 120.626 32.5562C120.898 32.3988 121.196 32.3175 121.514 32.3175L121.519 32.3125ZM122.668 34.0742C122.668 33.866 122.617 33.6731 122.514 33.4954C122.411 33.3177 122.273 33.1755 122.093 33.074C121.914 32.9725 121.724 32.9217 121.519 32.9217V32.9369C121.314 32.9369 121.119 32.9877 120.944 33.0943C120.77 33.1958 120.631 33.338 120.534 33.5106C120.436 33.6832 120.385 33.8762 120.385 34.0843C120.385 34.2925 120.436 34.4803 120.539 34.6529C120.641 34.8255 120.78 34.9677 120.954 35.0692C121.129 35.1708 121.319 35.2215 121.519 35.2215C121.719 35.2215 121.914 35.1708 122.088 35.0692C122.263 34.9626 122.406 34.8255 122.509 34.6478C122.612 34.4702 122.663 34.2823 122.663 34.0792L122.668 34.0742Z" fill="#1E417C"/>
<path d="M123.781 35.7343V32.3734H124.489L125.905 34.8256V32.3734H126.536V35.7343H125.839L124.412 33.2873V35.7343H123.781Z" fill="#1E417C"/>
<path d="M130.461 33.3634H129.712C129.646 33.272 129.564 33.1908 129.471 33.1248C129.374 33.0588 129.271 33.008 129.163 32.9725C129.05 32.9369 128.938 32.9166 128.825 32.9166C128.527 32.9166 128.266 33.0131 128.04 33.206C127.963 33.272 127.896 33.3532 127.835 33.4446C127.773 33.536 127.727 33.6376 127.696 33.7442C127.665 33.8508 127.645 33.9523 127.645 34.0539C127.645 34.196 127.676 34.3331 127.732 34.4753C127.794 34.6174 127.87 34.7342 127.968 34.8357C128.086 34.9576 128.219 35.0489 128.373 35.1149C128.527 35.1809 128.681 35.2114 128.85 35.2114C129.05 35.2114 129.24 35.1556 129.425 35.0439C129.61 34.9322 129.748 34.79 129.841 34.6073H128.419V34.0183H130.636V34.0894C130.636 34.4093 130.554 34.7037 130.39 34.9626C130.225 35.2266 130.005 35.4348 129.728 35.582C129.451 35.7343 129.153 35.8105 128.835 35.8105C128.594 35.8105 128.363 35.7648 128.142 35.6785C127.922 35.5922 127.727 35.4653 127.563 35.3079C127.393 35.1505 127.26 34.9626 127.162 34.7494C127.065 34.5362 127.019 34.3077 127.019 34.064C127.019 33.8203 127.065 33.5919 127.162 33.3786C127.26 33.1654 127.388 32.9776 127.558 32.8151C127.727 32.6526 127.922 32.5308 128.137 32.4394C128.358 32.348 128.589 32.3023 128.825 32.3023C129.061 32.3023 129.281 32.3429 129.502 32.4292C129.723 32.5156 129.918 32.6374 130.087 32.7948C130.256 32.9522 130.384 33.14 130.467 33.3482L130.461 33.3634Z" fill="#1E417C"/>
</svg>
