<svg width="144" height="50" viewBox="0 0 144 50" fill="none" xmlns="http://www.w3.org/2000/svg">
<rect width="144" height="50" rx="4" fill="white"/>
<path d="M124.51 9.38111C123.666 9.38726 122.826 9.49757 122.01 9.70955C136.726 9.49972 122.995 25.1555 113.105 32.7917L119.209 41.0028C124.683 36.1583 128.834 31.3685 131.425 26.6335C133.879 22.3455 134.637 18.7052 133.14 15.9135C131.858 14.0223 130.368 12.281 128.697 10.7223C127.488 9.82418 126.016 9.35251 124.51 9.38111Z" fill="url(#paint0_radial_1_3146)"/>
<path fill-rule="evenodd" clip-rule="evenodd" d="M46.0846 33.7589H50.2357C50.6726 33.7881 51.1096 33.7032 51.5039 33.5126C51.729 33.2839 51.8551 32.9759 51.8551 32.655C51.8551 32.3341 51.729 32.0261 51.5039 31.7974C51.1111 31.6013 50.6742 31.5102 50.2357 31.5328H46.0846V33.7589ZM13.4319 34.1148H17.0266C17.535 34.1434 18.0439 34.0689 18.5228 33.8958C18.6987 33.8034 18.8397 33.656 18.9242 33.4761C19.03 33.2735 19.0833 33.0477 19.0793 32.8192C19.0789 32.5942 19.0258 32.3723 18.9242 32.1715C18.8397 31.9916 18.6987 31.8442 18.5228 31.7518C18.0441 31.578 17.535 31.5035 17.0266 31.5328H13.4319V34.1148ZM64.1033 36.0854L62.5614 32.7645L60.9922 36.0854H64.1033ZM46.0846 38.6126H50.0989C50.6429 38.6437 51.1866 38.5468 51.6863 38.3298C51.8557 38.2153 51.9915 38.0577 52.0797 37.8733C52.1679 37.6889 52.2053 37.4843 52.1881 37.2806C52.2064 37.0758 52.1684 36.8699 52.0784 36.685C51.9884 36.5002 51.8497 36.3433 51.6772 36.2314C51.1829 36.0065 50.6409 35.9062 50.0989 35.9394H46.0846V38.6126ZM116.7 8.99805L122.803 17.2091C112.923 24.8454 99.1828 40.5011 113.899 40.2913C110.988 41.0029 108.881 40.492 107.239 39.2786C105.562 37.7237 104.066 35.9854 102.777 34.0965C101.281 31.3048 102.029 27.7101 104.493 23.3765C107.075 18.6324 111.198 13.8334 116.7 8.99805ZM91.4279 35.684L89.9225 36.87V39.7621C89.9159 39.8575 89.9452 39.9519 90.0046 40.0267C90.0925 40.1049 90.1995 40.1584 90.3148 40.1818H90.4517V40.7566H86.5833V40.1818H86.7111C86.8292 40.1587 86.9392 40.1053 87.0304 40.0267C87.0858 39.9502 87.1117 39.8563 87.1034 39.7621V30.3833C87.112 30.292 87.086 30.2008 87.0304 30.1278C86.9441 30.0544 86.8405 30.0041 86.7293 29.9819H86.6016V29.4071H90.4699V29.9819H90.3331C90.2157 30.0072 90.1062 30.0604 90.0137 30.137C89.9623 30.2153 89.9367 30.3079 89.9408 30.4015V33.9049L94.2653 30.4198C94.32 30.3742 94.5207 30.2099 94.5298 30.137C94.539 30.064 94.247 30.0001 94.1923 29.991L94.028 29.9819V29.398H99.0277V29.9819H98.8908C98.7642 29.9989 98.641 30.0359 98.5259 30.0913C98.285 30.2545 98.0535 30.4312 97.8325 30.6205L97.1939 31.1405L93.5445 34.06L97.7778 39.0596C98.0303 39.3878 98.3111 39.6931 98.6171 39.972C98.7922 40.1049 99.0005 40.187 99.2193 40.2092H99.3652V40.7931H94.5663V40.2092H94.7032C94.7032 40.2092 95.0042 40.1362 95.0042 40.0906C94.9026 39.9069 94.7801 39.7354 94.6393 39.5797L91.4279 35.684ZM74.5587 33.4488V39.7621C74.5547 39.8558 74.5802 39.9484 74.6317 40.0267C74.7264 40.1053 74.8393 40.1586 74.9601 40.1818H75.0879V40.7566H71.4385V40.1818H71.5662C71.687 40.1586 71.8 40.1053 71.8947 40.0267C71.9461 39.9484 71.9717 39.8558 71.9677 39.7621V30.3833C71.9716 30.2925 71.946 30.2028 71.8947 30.1278C71.8005 30.0467 71.6877 29.9902 71.5662 29.9636H71.4385V29.3888H75.617V29.9819H75.4802C75.3616 29.9819 75.2612 30.0548 75.2612 30.1917C75.2853 30.3127 75.3496 30.422 75.4437 30.5019L81.3921 36.5507V30.3833C81.3961 30.2925 81.3705 30.2028 81.3191 30.1278C81.225 30.0467 81.1121 29.9902 80.9907 29.9636H80.863V29.3888H84.5123V29.9819H84.3846C84.2632 30.0085 84.1503 30.0649 84.0562 30.1461C84.0048 30.2211 83.9792 30.3107 83.9832 30.4015V39.7621C83.9792 39.8558 84.0047 39.9484 84.0562 40.0267C84.1508 40.1053 84.2638 40.1586 84.3846 40.1818H84.5123V40.7566H80.6166V40.1727H80.7535C80.8539 40.1727 80.9633 40.118 80.9633 39.9994C80.8713 39.831 80.7509 39.6798 80.6075 39.5523L74.5587 33.4488ZM64.97 37.9466H60.0981L59.3591 39.4155C59.2848 39.5516 59.2354 39.6999 59.2132 39.8534C59.2132 40.0632 59.4777 40.1453 59.642 40.1818H59.7697V40.7566H55.7098V40.1727H55.8466C55.9997 40.1485 56.1442 40.0857 56.2663 39.9902C56.4202 39.8177 56.5436 39.6203 56.6312 39.4063L60.7824 30.8942C60.8838 30.718 60.9461 30.5219 60.9648 30.3194C60.9648 30.1096 60.7824 30.0184 60.5999 29.9545H60.4813V29.3888H64.8332V29.9545H64.7054C64.5503 30.0001 64.3405 30.0822 64.3405 30.2647C64.3496 30.4254 64.3964 30.5817 64.4774 30.7209L68.7745 39.2604C68.8864 39.5134 69.0373 39.7473 69.2215 39.9537C69.3481 40.0709 69.5071 40.1472 69.6777 40.1727H69.8237V40.7566H65.3167V40.1727H65.4536C65.6543 40.1727 65.855 40.0723 65.855 39.8351C65.8327 39.6845 65.7832 39.5393 65.709 39.4063L64.97 37.9466ZM53.3742 34.7899C53.8863 35.0083 54.3196 35.3778 54.6162 35.8489C54.9129 36.32 55.0589 36.8703 55.0346 37.4266C55.0577 37.9075 54.9653 38.387 54.7654 38.8251C54.5654 39.2631 54.2636 39.6469 53.8851 39.9446C53.4762 40.2488 53.011 40.4689 52.5166 40.5924C51.9187 40.7329 51.306 40.8003 50.6919 40.7931H42.7454V40.2183H42.8731C42.9939 40.1951 43.1069 40.1418 43.2016 40.0632C43.2531 39.9849 43.2786 39.8923 43.2746 39.7986V30.3924C43.2786 30.2988 43.2531 30.2062 43.2016 30.1278C43.1075 30.0467 42.9946 29.9902 42.8731 29.9636H42.7454V29.3888H50.555C51.1675 29.3738 51.7798 29.4289 52.3797 29.5531C52.8296 29.6587 53.2523 29.8577 53.6205 30.137C53.974 30.4172 54.2553 30.7779 54.441 31.1889C54.6267 31.6 54.7113 32.0495 54.6879 32.4999C54.6983 32.9651 54.5813 33.4242 54.3498 33.8278C54.1183 34.2313 53.7809 34.564 53.3742 34.7899ZM13.4319 36.2861V39.7713C13.4268 39.8636 13.456 39.9547 13.514 40.0267C13.6042 40.1067 13.7147 40.1604 13.8334 40.1818H13.9611V40.7566H10.0928V40.1818H10.2205C10.3422 40.156 10.4552 40.0994 10.5489 40.0176C10.6003 39.9426 10.6259 39.853 10.6219 39.7621V30.3924C10.6259 30.2988 10.6004 30.2062 10.5489 30.1278C10.453 30.0532 10.3402 30.0031 10.2205 29.9819H10.0928V29.4071H17.3094C17.9762 29.393 18.6428 29.448 19.2983 29.5713C19.7808 29.6762 20.2371 29.878 20.6394 30.1643C21.0388 30.4612 21.3534 30.8575 21.5518 31.3139C21.7767 31.7998 21.892 32.3294 21.8893 32.8649C21.9052 33.606 21.6812 34.3324 21.2507 34.9359C20.8763 35.4399 20.3577 35.8185 19.7636 36.0216C18.9551 36.2569 18.1143 36.3616 17.2729 36.3317L13.4319 36.2861ZM33.0746 36.8062H30.4562C30.3635 36.7988 30.2708 36.8212 30.1916 36.87C30.1124 36.962 30.0561 37.0714 30.0274 37.1893V37.3171H29.4526V34.3976H30.0274V34.5253C30.0546 34.642 30.1076 34.7511 30.1825 34.8446C30.2654 34.8926 30.3607 34.9148 30.4562 34.9085H35.9759V35.4559H35.8481C35.7295 35.4773 35.619 35.531 35.5288 35.611C35.4734 35.6875 35.4475 35.7815 35.4558 35.8756V38.1929C35.4484 38.2886 35.4707 38.3842 35.5197 38.4666C35.6165 38.5417 35.7286 38.5946 35.8481 38.6217H35.9759V39.1053L35.8846 39.16C33.9716 40.3 31.7974 40.9284 29.5712 40.9847C27.9491 41.0477 26.3497 40.587 25.0095 39.6709C24.2879 39.1444 23.7061 38.4492 23.3149 37.6461C22.9237 36.843 22.7349 35.9564 22.7652 35.0636C22.7334 34.2284 22.8975 33.3973 23.2445 32.6369C23.5914 31.8764 24.1115 31.2078 24.7632 30.6844C26.1957 29.6113 27.9566 29.0695 29.7446 29.1516C30.3569 29.152 30.9678 29.21 31.5693 29.325C32.2402 29.4726 32.899 29.6708 33.5399 29.918C33.7746 30.0238 34.0236 30.0945 34.2789 30.1278C34.388 30.1074 34.4891 30.0569 34.5709 29.9819L34.6621 29.9089L35.1547 30.1643L33.6676 33.1294L33.1841 32.874V32.7736C33.1859 32.6714 33.1704 32.5696 33.1385 32.4725C33.0647 32.3821 32.9787 32.3023 32.883 32.2353C32.4505 31.9535 31.9718 31.7497 31.4689 31.6332C30.8744 31.4687 30.261 31.3828 29.6442 31.3777C28.6225 31.3326 27.6187 31.6564 26.816 32.2901C26.412 32.6362 26.0925 33.0702 25.8822 33.5589C25.6719 34.0475 25.5762 34.5779 25.6026 35.1092C25.5811 35.6289 25.6803 36.1464 25.8924 36.6213C26.1045 37.0962 26.4237 37.5155 26.8251 37.8462C27.6788 38.4965 28.737 38.8201 29.8084 38.7586C30.4227 38.7588 31.0349 38.6884 31.6331 38.5487C32.133 38.439 32.6172 38.2674 33.0746 38.0378V36.8062Z" fill="#1F72CE"/>
<defs>
<radialGradient id="paint0_radial_1_3146" cx="0" cy="0" r="1" gradientUnits="userSpaceOnUse" gradientTransform="translate(123.506 31.1796) rotate(41.2221) scale(11.7217 13.06)">
<stop stop-color="#FFF461"/>
<stop offset="1" stop-color="#F5821F"/>
</radialGradient>
</defs>
</svg>
