<svg width="144" height="50" viewBox="0 0 144 50" fill="none" xmlns="http://www.w3.org/2000/svg">
<rect width="144" height="50" rx="4" fill="white"/>
<path d="M23.6571 12.5206C24.2475 12.4713 24.8375 12.415 25.4289 12.3757C25.8291 12.3489 26.2306 12.3333 26.6311 12.3151C27.2187 12.2887 27.8057 12.2708 28.3937 12.2748C29.3329 12.2811 30.2683 12.336 31.185 12.5523C32.1551 12.7813 33.0122 13.2074 33.6407 13.9831C34.1246 14.5806 34.3954 15.2816 34.5754 16.0144C34.7626 16.7756 34.8715 17.5467 34.781 18.3308C34.7081 18.9613 34.5911 19.5819 34.341 20.1761C34.1045 20.7385 33.8197 21.2738 33.4155 21.7349C33.115 22.078 32.7482 22.3618 32.3524 22.5994C31.7556 22.9576 31.0996 23.1518 30.4044 23.2408C29.5377 23.3516 28.668 23.3301 27.7986 23.3275C27.6298 23.3272 27.5801 23.3632 27.5811 23.5346C27.5893 24.8628 27.5828 26.1914 27.5893 27.5197C27.59 27.6804 27.5437 27.7224 27.3804 27.7215C26.1955 27.7148 25.0104 27.7181 23.8255 27.7172C23.7694 27.7172 23.7136 27.7079 23.6574 27.7029C23.6571 22.642 23.6571 17.5811 23.6571 12.5206ZM27.5886 17.7816C27.5886 18.5584 27.5886 19.3351 27.5886 20.1119C27.5886 20.4259 27.5876 20.7401 27.5896 21.0541C27.59 21.1093 27.5668 21.1877 27.6655 21.1894C28.0146 21.1954 28.3661 21.2145 28.7071 21.1255C29.3128 20.9677 29.8188 20.6581 30.2002 20.1658C30.4615 19.8287 30.6422 19.4523 30.7634 19.0513C30.8688 18.7023 30.9175 18.3384 30.9325 17.9768C30.9648 17.1894 30.8899 16.412 30.5473 15.6839C30.2196 14.9875 29.6898 14.5151 28.9024 14.3546C28.5683 14.2868 28.2304 14.2858 27.8921 14.3374C27.7928 14.3527 27.6608 14.3116 27.5968 14.3609C27.5277 14.4145 27.591 14.5442 27.5907 14.6408C27.5869 15.6875 27.5883 16.7342 27.5883 17.7809L27.5886 17.7816Z" fill="#0072BC"/>
<path d="M51.047 40.9997C51.0654 40.906 50.9898 40.9381 50.949 40.9345C50.7537 40.917 50.5567 40.916 50.3617 40.9087C49.9802 40.8945 49.6036 40.8316 49.2214 40.8303C49.0955 40.83 48.973 40.7717 48.84 40.7952C48.7923 40.8035 48.7624 40.7578 48.7621 40.7066C48.7621 40.6626 48.7617 40.6182 48.7617 40.5742C48.7617 36.7331 48.7617 32.8916 48.7617 29.0504C48.7617 28.8298 48.7641 28.8413 48.9853 28.8248C49.4634 28.7894 49.9397 28.7246 50.4182 28.6994C51.1004 28.6637 51.783 28.622 52.4673 28.6498C52.7596 28.6617 53.0519 28.673 53.3432 28.6964C54.2268 28.7676 55.1061 28.8662 55.9146 29.2592C56.4461 29.5172 56.9364 29.8374 57.3196 30.2837C57.6255 30.6397 57.8038 31.0529 57.8572 31.5243C57.9137 32.0235 57.8225 32.4896 57.5935 32.929C57.3301 33.4341 56.8912 33.7653 56.3852 34.0243C56.1419 34.1487 55.8877 34.2479 55.6346 34.3498C55.5992 34.3641 55.5488 34.3614 55.5515 34.4067C55.5532 34.4372 55.5978 34.4428 55.6322 34.4524C55.9813 34.5516 56.3239 34.6727 56.637 34.852C57.3067 35.2354 57.8776 35.7158 58.0968 36.4783C58.2121 36.8796 58.2237 37.2892 58.1679 37.7103C58.1124 38.1291 58.0253 38.5314 57.8542 38.9191C57.7269 39.2076 57.536 39.4392 57.2944 39.6493C56.7636 40.1104 56.147 40.4075 55.4773 40.6133C54.9006 40.7903 54.3085 40.8951 53.7049 40.9355C53.6065 40.9421 53.6065 40.9408 53.5647 41H51.047V40.9997ZM51.5744 37.1717C51.5744 37.7887 51.5744 38.406 51.5744 39.023C51.5744 39.1067 51.5669 39.1666 51.6939 39.1907C52.4111 39.3287 53.1257 39.327 53.8304 39.1438C55.2429 38.7762 55.6676 37.7943 55.3307 36.6676C55.1323 36.0033 54.6005 35.6589 53.9621 35.4465C53.2394 35.2057 52.4874 35.1918 51.7343 35.1812C51.6074 35.1795 51.5703 35.2123 51.5717 35.337C51.5782 35.9484 51.5748 36.5601 51.5748 37.1717H51.5744ZM51.5744 32.1185C51.5744 32.6309 51.5754 33.143 51.5734 33.6554C51.5734 33.7395 51.5707 33.798 51.6935 33.7974C52.2182 33.7947 52.7426 33.7977 53.2591 33.6882C53.7035 33.5939 54.1343 33.4679 54.4861 33.1701C54.9271 32.797 55.0802 32.3143 55.0646 31.7579C55.0496 31.2206 54.8108 30.8289 54.3231 30.5834C53.9087 30.3747 53.4507 30.3449 52.9988 30.3208C52.5619 30.2973 52.1284 30.3582 51.6976 30.4402C51.5734 30.4637 51.5731 30.5103 51.5734 30.5983C51.5751 31.1051 51.5744 31.612 51.5744 32.1188V32.1185Z" fill="#FF9D0B"/>
<path d="M63.8061 40.9997C63.8109 40.8962 63.7238 40.9395 63.6829 40.9372C62.9176 40.8889 62.169 40.7612 61.4477 40.5035C60.8988 40.3073 60.3894 40.041 59.9726 39.6351C59.4686 39.1442 59.1689 38.5513 59.0753 37.8609C59.014 37.4087 58.9946 36.9584 59.1096 36.5102C59.2196 36.0818 59.4278 35.7033 59.7167 35.3649C60.3697 34.5997 61.2428 34.1908 62.1997 33.9208C62.6805 33.7852 63.1728 33.7088 63.6707 33.6519C64.0787 33.6052 64.4866 33.5814 64.8963 33.5745C64.9702 33.5731 65.0233 33.5698 65.0277 33.4713C65.0461 33.0849 65.0076 32.7114 64.783 32.3786C64.6044 32.1136 64.3607 31.9204 64.0569 31.8052C63.587 31.6273 63.0987 31.5571 62.5971 31.6077C62.0074 31.6673 61.431 31.7851 60.8906 32.0345C60.6885 32.1278 60.6933 32.1255 60.5854 31.9319C60.3254 31.4652 60.0624 30.9997 59.7963 30.5362C59.748 30.4522 59.7905 30.4317 59.8562 30.3983C60.418 30.1128 61.0196 29.9464 61.6358 29.818C62.2265 29.6949 62.823 29.6265 63.426 29.6231C64.2321 29.6188 65.0083 29.7502 65.7559 30.0671C66.4054 30.3427 66.939 30.7357 67.3255 31.311C67.6423 31.7824 67.8087 32.2992 67.8223 32.8665C67.8839 35.4499 67.8295 38.0336 67.8519 40.617C67.853 40.7467 67.7989 40.7986 67.6838 40.7993C67.2578 40.8019 66.841 40.9008 66.4139 40.9071C66.2537 40.9094 66.0907 40.9306 65.928 40.9336C65.8845 40.9342 65.8273 40.923 65.8471 40.9991H63.8054L63.8061 40.9997ZM65.0253 37.0623C65.0253 36.4179 65.0222 35.7734 65.028 35.129C65.029 35.0112 64.993 34.9772 64.8749 34.9834C64.4489 35.0056 64.0225 35.0268 63.606 35.1207C63.1575 35.2216 62.7206 35.3665 62.3848 35.6881C61.7954 36.2531 61.6984 36.9667 61.8516 37.7084C61.9438 38.155 62.1844 38.55 62.5815 38.8378C62.9224 39.0846 63.3049 39.2315 63.7166 39.2715C64.1049 39.3089 64.4996 39.293 64.8834 39.1855C64.9872 39.1564 65.029 39.123 65.028 39.0128C65.0226 38.3628 65.0253 37.713 65.0253 37.063V37.0623Z" fill="#FF9D0B"/>
<path d="M49.5895 12.4877C49.3359 13.1324 49.1257 13.7617 48.8905 14.3829C48.7075 14.8663 48.5397 15.3559 48.3638 15.8425C48.1712 16.3748 47.9766 16.9064 47.7826 17.4387C47.5907 17.9654 47.3988 18.4924 47.2069 19.0191C47.0132 19.551 46.8193 20.083 46.6257 20.6149C46.1721 21.8608 45.7178 23.1067 45.2646 24.3529C44.877 25.4185 44.4888 26.4837 44.1056 27.5506C44.0624 27.6714 44.0052 27.7223 43.8647 27.7213C42.8725 27.715 41.8799 27.7144 40.8876 27.7216C40.7441 27.7226 40.6917 27.6674 40.6495 27.5493C40.3888 26.8231 40.1203 26.0993 39.8587 25.3735C39.7154 24.9762 39.5633 24.5815 39.4166 24.1855C39.2979 23.8646 39.1781 23.5434 39.0675 23.2198C38.9532 22.886 38.8184 22.5602 38.6997 22.2284C38.5769 21.8856 38.4598 21.5419 38.3278 21.2018C38.2043 20.8829 38.0862 20.5607 37.9759 20.2368C37.864 19.908 37.7166 19.5904 37.619 19.2596C37.556 19.0462 37.4111 18.858 37.4155 18.6208C37.4169 18.5493 37.3393 18.4792 37.3117 18.4037C36.8976 17.2733 36.4866 16.1422 36.0738 15.0115C35.7825 14.2139 35.4916 13.416 35.1956 12.62C35.153 12.5055 35.1802 12.485 35.297 12.4854C36.7826 12.4883 38.2682 12.4883 39.7539 12.4854C39.8553 12.4854 39.9002 12.5118 39.9284 12.6124C40.3429 14.0793 40.7634 15.5445 41.1806 17.0103C41.5311 18.2423 41.8792 19.4746 42.2263 20.7072C42.2954 20.9524 42.3508 21.2008 42.4216 21.4453C42.4356 21.4929 42.427 21.5902 42.5162 21.5737C42.5825 21.5614 42.6179 21.48 42.623 21.4221C42.6404 21.228 42.7255 21.0536 42.77 20.87C42.816 20.6798 42.8738 20.4899 42.9289 20.3043C42.9895 20.1002 43.0647 19.8918 43.1205 19.6886C43.1852 19.4531 43.2508 19.2162 43.3196 18.9807C43.3951 18.722 43.4897 18.4669 43.5612 18.2095C43.6564 17.8668 43.7626 17.5264 43.8572 17.1833C44.0464 16.4979 44.2608 15.8184 44.4738 15.1392C44.5483 14.902 44.597 14.6592 44.698 14.426C44.809 14.1702 44.8307 13.8794 44.9243 13.6148C45.0468 13.2677 45.1332 12.9124 45.2261 12.5585C45.2408 12.5026 45.2608 12.485 45.3136 12.487C45.3531 12.4887 45.3929 12.487 45.4327 12.487C46.7482 12.487 48.0637 12.487 49.3795 12.487C49.4414 12.487 49.5037 12.487 49.5891 12.487L49.5895 12.4877Z" fill="#0072BC"/>
<path d="M68.8025 22.4064C68.8025 20.6921 68.8042 18.9781 68.799 17.2641C68.7987 17.1311 68.8453 17.0878 68.9699 17.059C69.6324 16.9068 70.2993 16.7781 70.9741 16.6958C71.6539 16.6127 72.3365 16.5208 73.0232 16.5873C73.749 16.6574 74.4796 16.7216 75.1349 17.0842C75.3922 17.2264 75.6433 17.3743 75.8434 17.5906C75.8985 17.6502 75.9271 17.6819 76.0203 17.6072C76.6182 17.1278 77.294 16.8063 78.0667 16.6862C78.4992 16.619 78.9327 16.5671 79.3703 16.5909C80.187 16.6356 80.9539 16.8509 81.6022 17.3458C82.0122 17.6591 82.3035 18.0769 82.4967 18.559C82.7125 19.0969 82.7867 19.653 82.7867 20.2236C82.7867 22.6598 82.785 25.096 82.7901 27.5321C82.7901 27.6823 82.7526 27.7247 82.5954 27.723C81.7791 27.7151 80.9624 27.7157 80.1461 27.723C80.0015 27.7243 79.9702 27.6823 79.9702 27.5477C79.9743 25.0563 79.974 22.5652 79.9723 20.0738C79.9723 19.734 79.8899 19.4128 79.6987 19.1233C79.5302 18.8686 79.271 18.7436 78.9851 18.6592C78.3726 18.4789 77.8224 18.6076 77.3215 18.9791C77.2327 19.0449 77.2092 19.1273 77.2096 19.2345C77.2126 21.9959 77.2099 24.7572 77.2164 27.5186C77.2167 27.687 77.1738 27.7257 77.0041 27.7237C76.1935 27.7144 75.3827 27.7157 74.5718 27.7227C74.4272 27.724 74.3836 27.6952 74.384 27.5447C74.3897 25.0424 74.3914 22.5401 74.3846 20.0377C74.3836 19.6292 74.2632 19.2444 73.9436 18.9563C73.6592 18.6999 73.292 18.6172 72.9204 18.5834C72.5271 18.5474 72.1422 18.6268 71.7615 18.723C71.6311 18.7561 71.5886 18.812 71.5889 18.9457C71.5941 20.6487 71.5923 22.3518 71.5923 24.0552C71.5923 25.218 71.5889 26.3812 71.5964 27.544C71.5975 27.6966 71.5505 27.724 71.4062 27.723C70.5954 27.7164 69.7848 27.7161 68.974 27.723C68.8297 27.7243 68.7984 27.684 68.7987 27.5487C68.8035 25.8347 68.8018 24.1204 68.8018 22.4061L68.8025 22.4064Z" fill="#FF9D0B"/>
<path d="M90.194 40.7681C88.9891 40.7681 87.7927 40.7668 86.5963 40.7705C86.5047 40.7705 86.4428 40.7331 86.3921 40.6755C86.1675 40.4204 85.948 40.1617 85.7258 39.905C85.5833 39.74 85.4383 39.5769 85.2954 39.4121C84.9946 39.0644 84.6969 38.7144 84.394 38.3684C84.1779 38.1212 83.954 37.8804 83.7376 37.6339C83.5134 37.3786 83.2939 37.1195 83.0717 36.8625C82.9771 36.753 82.8808 36.6451 82.7583 36.5062C82.7583 36.8112 82.757 37.0725 82.7583 37.3339C82.7634 38.2046 82.7692 39.0753 82.7757 39.9461C82.7774 40.1829 82.7798 40.4195 82.7883 40.6563C82.7913 40.741 82.7668 40.7708 82.6753 40.7705C81.8076 40.7675 80.9402 40.7675 80.0725 40.7705C79.9875 40.7705 79.9616 40.7427 79.9735 40.6666C79.9769 40.6451 79.9742 40.6226 79.9742 40.6004C79.9742 36.7526 79.9752 32.9049 79.9705 29.0571C79.9705 28.9023 80.0004 28.8546 80.1702 28.8566C80.9811 28.8665 81.7919 28.8645 82.6028 28.8576C82.7468 28.8563 82.7934 28.8827 82.7913 29.0349C82.7733 30.4343 82.7644 31.834 82.7532 33.2334C82.7529 33.2926 82.7532 33.3518 82.7532 33.4226C83.2007 32.9968 83.5855 32.538 83.9955 32.1016C84.4675 31.5991 84.9197 31.0791 85.3958 30.5792C85.601 30.3638 85.7963 30.1395 85.9902 29.9146C86.0266 29.8722 86.0634 29.8702 86.1069 29.8702C87.3374 29.8702 88.5678 29.8709 89.7986 29.8722C89.8084 29.8722 89.8183 29.8802 89.8323 29.8861C89.8193 29.9437 89.7662 29.9692 89.7291 30.0052C88.6634 31.043 87.5899 32.0728 86.533 33.1192C85.9378 33.7088 85.3413 34.297 84.7407 34.8812C84.6724 34.9477 84.6771 34.9771 84.7414 35.0436C85.4679 35.7913 86.1917 36.5412 86.9124 37.2939C87.3421 37.7428 87.7705 38.193 88.2027 38.64C88.6845 39.1382 89.1612 39.641 89.6417 40.1402C89.7955 40.3 89.9507 40.4585 90.1062 40.6163C90.145 40.6557 90.1827 40.6934 90.1946 40.7681H90.194Z" fill="#FF9D0B"/>
<path d="M56.7626 22.2436C56.7319 21.6028 56.8051 20.9617 56.9688 20.3315C57.2318 19.3168 57.7129 18.4203 58.5381 17.7279C59.169 17.1986 59.9074 16.879 60.7244 16.7179C61.3158 16.6011 61.9105 16.5389 62.5115 16.5862C63.2084 16.6412 63.8889 16.7685 64.5334 17.0517C65.8625 17.6353 66.6563 18.6535 67.0715 19.9811C67.2307 20.4899 67.3185 21.0093 67.3549 21.5436C67.3825 21.9498 67.4005 22.3534 67.3791 22.7587C67.3308 23.6645 67.1627 24.5465 66.7465 25.3649C66.5403 25.7705 66.2807 26.1466 65.9639 26.4864C65.2496 27.2522 64.3418 27.6621 63.323 27.8626C62.7888 27.9675 62.242 28.0002 61.6972 27.9642C60.8805 27.9102 60.0877 27.7481 59.3616 27.3611C59.0305 27.1844 58.7287 26.9664 58.4473 26.717C58.0444 26.36 57.717 25.9478 57.4652 25.4843C57.1964 24.9898 57.0127 24.4604 56.899 23.91C56.7864 23.3631 56.7387 22.811 56.7622 22.2436H56.7626ZM59.5841 22.3157C59.564 22.9122 59.6249 23.5424 59.8335 24.1574C60.0676 24.8478 60.4351 25.4377 61.1272 25.7695C62.0763 26.2247 63.2567 25.9531 63.9052 25.0169C64.3575 24.3642 64.4888 23.6145 64.5514 22.8517C64.5895 22.3865 64.5793 21.9207 64.5269 21.4536C64.4738 20.9802 64.3918 20.5167 64.2105 20.0751C63.8603 19.2226 63.1498 18.5113 61.9909 18.5662C61.2885 18.5996 60.7468 18.8848 60.3266 19.4068C59.9475 19.8776 59.7821 20.4423 59.6596 21.0153C59.5715 21.4275 59.5766 21.8499 59.5844 22.3157H59.5841Z" fill="#FF9D0B"/>
<path d="M69.5173 35.4548C69.5173 33.7458 69.5193 32.0367 69.5136 30.328C69.5132 30.1927 69.5534 30.1418 69.6857 30.1147C70.3132 29.9863 70.9417 29.8652 71.578 29.7832C71.9438 29.7359 72.3106 29.7117 72.6774 29.6786C73.1919 29.6323 73.705 29.6208 74.2171 29.6532C74.9879 29.7021 75.7399 29.8398 76.4405 30.1828C77.0993 30.5057 77.6311 30.951 77.9465 31.6103C78.166 32.0688 78.2926 32.5548 78.2936 33.061C78.2991 35.5692 78.2943 38.0775 78.3001 40.5858C78.3004 40.743 78.2521 40.7724 78.1027 40.7711C77.2919 40.7641 76.481 40.7648 75.6701 40.7711C75.5377 40.7721 75.5024 40.74 75.5027 40.6096C75.5071 38.3825 75.5109 36.1555 75.501 33.9284C75.4993 33.5238 75.4656 33.1182 75.3554 32.7205C75.2016 32.1664 74.814 31.8637 74.2736 31.7062C73.751 31.5541 73.2321 31.6044 72.7125 31.7251C72.5774 31.7565 72.3848 31.7317 72.3225 31.8316C72.2565 31.9372 72.297 32.1082 72.297 32.2508C72.2963 35.0237 72.2946 37.7967 72.3011 40.5696C72.3014 40.7423 72.2517 40.774 72.086 40.7724C71.2809 40.7638 70.4755 40.7651 69.6704 40.7717C69.5387 40.7727 69.5142 40.735 69.5146 40.6153C69.5187 38.8953 69.5173 37.1754 69.5173 35.4554V35.4548Z" fill="#FF9D0B"/>
<path d="M48.3214 22.229C48.2897 21.487 48.4054 20.7238 48.6725 19.9847C48.906 19.3383 49.25 18.7557 49.7291 18.2469C50.1857 17.7623 50.7278 17.3977 51.3328 17.1182C51.8885 16.8615 52.4724 16.697 53.0849 16.6173C53.4517 16.5697 53.8168 16.5561 54.1812 16.5865C55.0152 16.6563 55.8339 16.793 56.6002 17.1483C56.7356 17.2111 56.7135 17.2713 56.6587 17.362C56.3954 17.7967 56.1456 18.239 55.9112 18.6889C55.87 18.7683 55.8377 18.7743 55.7465 18.7445C55.1476 18.5483 54.5399 18.3826 53.8981 18.4759C53.1318 18.5873 52.5095 18.94 52.0147 19.5275C51.5788 20.0446 51.3277 20.6394 51.1926 21.2792C51.0878 21.7758 51.0868 22.2826 51.146 22.7914C51.2324 23.5374 51.5094 24.2096 51.9735 24.7969C52.5935 25.5812 53.4037 26.0146 54.4565 25.9603C54.8866 25.9382 55.2977 25.8644 55.6781 25.6735C55.7883 25.6179 55.8152 25.6451 55.8605 25.7278C56.114 26.1899 56.3709 26.6508 56.6251 27.1126C56.7309 27.3051 56.7309 27.3088 56.5291 27.4117C56.0289 27.6664 55.4851 27.7766 54.9342 27.8646C54.3024 27.9651 53.6657 27.9681 53.0308 27.9284C52.7412 27.9102 52.4499 27.8424 52.1705 27.7607C51.6469 27.6075 51.1429 27.4067 50.6822 27.1093C50.3671 26.9058 50.0666 26.6872 49.8114 26.4166C49.2401 25.8111 48.8304 25.1187 48.5902 24.3248C48.3864 23.6509 48.3071 22.9681 48.3217 22.2297L48.3214 22.229Z" fill="#FF9D0B"/>
<path d="M119.059 25.4442C118.772 25.69 118.527 25.9764 118.257 26.2388C116.16 28.277 114.062 30.3135 111.968 32.3543C110.247 34.0319 108.531 35.7135 106.817 37.3977C106.703 37.5092 106.649 37.5138 106.531 37.399C103.832 34.769 101.129 32.1439 98.4272 29.5169C97.3214 28.4414 96.2178 27.3629 95.1137 26.2858C95.082 26.2547 95.0538 26.2203 95.0242 26.1872C95.0242 26.1872 95.018 26.1819 95.0177 26.1819C95.0105 26.1749 95.0037 26.168 94.9966 26.161C94.9874 26.1617 94.983 26.1574 94.9837 26.1485C94.9765 26.1419 94.9697 26.1349 94.9626 26.128C94.9534 26.1286 94.949 26.1243 94.9496 26.1154C94.9425 26.1088 94.9357 26.1018 94.9285 26.0949C94.9194 26.0955 94.9149 26.0912 94.9156 26.0823C94.9085 26.0757 94.9017 26.0687 94.8945 26.0618C94.8853 26.0625 94.8809 26.0582 94.8816 26.0492C94.8744 26.0426 94.8676 26.0357 94.8605 26.0287C94.8513 26.0294 94.8469 26.0251 94.8476 26.0165C94.8404 26.0095 94.8336 26.0026 94.8265 25.9956C94.8173 25.9963 94.8129 25.992 94.8135 25.9834C94.8064 25.9764 94.7992 25.9695 94.7921 25.9622L94.7822 25.9599L94.7795 25.9503C94.7724 25.9434 94.7652 25.9364 94.7581 25.9291L94.7482 25.9268L94.7455 25.9172C94.7383 25.9103 94.7312 25.9033 94.724 25.8961C94.7152 25.897 94.7108 25.8931 94.7114 25.8841C94.7043 25.8772 94.6972 25.8702 94.6904 25.8633C94.6812 25.864 94.6767 25.86 94.6774 25.8511C94.6703 25.8441 94.6631 25.8372 94.6563 25.8302L94.6465 25.8279C94.6465 25.8279 94.6437 25.8196 94.6437 25.8186L94.6397 25.8064L94.6264 25.8057C94.6172 25.7978 94.608 25.7899 94.5992 25.7819L94.5998 25.7733L94.591 25.774C94.5825 25.7654 94.5736 25.7571 94.5651 25.7488L94.5658 25.7406H94.557C94.5485 25.7326 94.5396 25.724 94.5311 25.7158L94.5318 25.7075H94.5229C94.5148 25.7002 94.5069 25.6926 94.4988 25.6853C94.5076 25.6684 94.5168 25.6516 94.5257 25.6347C94.7628 25.7684 94.9956 25.9103 95.23 26.0482C95.6074 26.2702 96.0154 26.4207 96.4244 26.5673C97.2536 26.8644 98.0985 27.1131 98.9649 27.2888C99.2102 27.3384 99.4555 27.3877 99.7009 27.437C100.351 27.5482 101.002 27.6491 101.657 27.7341C102.235 27.8089 102.818 27.8433 103.395 27.9227C103.561 27.9452 103.731 27.9462 103.898 27.9548C105.181 28.0209 106.464 28.0497 107.748 28.0226C108.445 28.008 109.144 27.9756 109.839 27.919C110.145 27.8942 110.453 27.8727 110.757 27.8244C111.398 27.7655 112.037 27.6861 112.672 27.5856C113.74 27.4168 114.797 27.2031 115.833 26.8994C116.861 26.5981 117.856 26.2259 118.75 25.6317C118.85 25.5656 118.918 25.4465 119.059 25.4442Z" fill="url(#paint0_linear_1_3131)"/>
<path d="M119.435 24.5521V25.0483C119.361 25.0318 119.357 25.1003 119.339 25.1347C119.286 25.2346 119.197 25.3008 119.122 25.3798C119.113 25.3904 119.103 25.401 119.094 25.4113C119.083 25.4222 119.071 25.4331 119.06 25.444C118.919 25.4463 118.85 25.5654 118.751 25.6316C117.857 26.2257 116.861 26.5979 115.834 26.8993C114.797 27.203 113.74 27.4167 112.673 27.5854C112.037 27.686 111.399 27.7654 110.758 27.8243C110.758 27.1636 110.759 26.5026 110.76 25.842C110.757 25.7761 110.752 25.7103 110.752 25.6445C110.75 24.3669 110.749 23.0889 110.745 21.8113C110.745 21.7051 110.755 21.6554 110.891 21.6707C111.559 21.7467 112.226 21.8304 112.891 21.933C113.881 22.0855 114.859 22.2873 115.819 22.5698C116.352 22.727 116.884 22.8884 117.394 23.1084C117.935 23.3453 118.46 23.6099 118.918 23.9818C119.092 24.1227 119.244 24.2838 119.346 24.4836C119.369 24.5276 119.371 24.527 119.435 24.5521Z" fill="url(#paint1_linear_1_3131)"/>
<path d="M83.2291 17.1757C83.2205 17.1926 83.2115 17.2094 83.2029 17.2263C83.1828 17.1902 83.0882 17.1926 83.1328 17.132C83.1642 17.0893 83.2063 17.137 83.2291 17.1757Z" fill="#F7951E"/>
<path d="M83.4305 17.4365C83.4375 17.4435 83.4444 17.4507 83.4514 17.4577C83.4388 17.456 83.4322 17.4491 83.4305 17.4365Z" fill="#F7951E"/>
<path d="M83.4646 17.47C83.4715 17.4769 83.4785 17.4842 83.4854 17.4911C83.4729 17.4895 83.4663 17.4822 83.4646 17.47Z" fill="#F7951E"/>
<path d="M83.4988 17.5032C83.5057 17.5101 83.5127 17.5171 83.5193 17.524C83.507 17.5223 83.5001 17.5154 83.4988 17.5032Z" fill="#F7951E"/>
<path d="M83.5328 17.5362C83.5398 17.5431 83.5464 17.5501 83.5533 17.557C83.5411 17.5554 83.5342 17.5484 83.5328 17.5362Z" fill="#F7951E"/>
<path d="M83.567 17.5692C83.574 17.5762 83.5806 17.5831 83.5875 17.5901C83.5753 17.5884 83.5683 17.5815 83.567 17.5692Z" fill="#F7951E"/>
<path d="M83.6014 17.6025C83.6084 17.6095 83.615 17.6164 83.622 17.6234C83.6097 17.6217 83.6028 17.6148 83.6014 17.6025Z" fill="#F7951E"/>
<path d="M83.6346 17.6357C83.6416 17.6427 83.6482 17.6496 83.6552 17.6566C83.6429 17.6549 83.636 17.648 83.6346 17.6357Z" fill="#F7951E"/>
<path d="M83.2633 17.2815L83.2719 17.2812L83.2712 17.2898L83.2633 17.2894V17.2815Z" fill="#F7951E"/>
<path d="M83.703 17.7012C83.71 17.7081 83.7166 17.7151 83.7235 17.722C83.7113 17.7204 83.7043 17.7134 83.703 17.7012Z" fill="#F7951E"/>
<path d="M94.8755 21.0264C94.8755 21.0264 94.8755 21.027 94.8753 21.0272C94.8753 21.0272 94.8752 21.0273 94.8749 21.0276L94.8755 21.0264Z" fill="#109BD8"/>
<path d="M94.9134 20.9961C94.9134 20.9961 94.9128 20.9965 94.9126 20.9967H94.912L94.9134 20.9961Z" fill="#109BD8"/>
<path d="M119.469 20.9264C119.429 20.9701 119.406 20.9033 119.378 20.8847C118.705 20.4328 117.965 20.1149 117.2 19.845C116.405 19.5644 115.588 19.3636 114.763 19.1893C114.412 19.1148 114.058 19.0493 113.706 18.9795C113.486 18.9468 113.267 18.9137 113.048 18.8813C112.516 18.8019 111.982 18.7351 111.447 18.6851C110.856 18.6302 110.264 18.5912 109.671 18.5531C108.708 18.4916 107.744 18.4668 106.779 18.4744C106.445 18.477 106.111 18.4955 105.777 18.4869C105.372 18.5429 104.962 18.529 104.555 18.5587C104.104 18.5918 103.653 18.6259 103.202 18.6613C103.183 18.6626 103.165 18.6818 103.147 18.6927C102.693 18.6861 102.249 18.7771 101.802 18.8327C101.158 18.9124 100.518 19.0206 99.8834 19.1542C98.5267 19.4404 97.1918 19.793 95.944 20.405C95.6347 20.5569 95.3431 20.7349 95.059 20.9264C95.0141 20.9569 94.978 21.0055 94.913 20.9969C94.9133 20.9966 94.914 20.9962 94.9144 20.9959L94.912 20.9969C94.9484 20.9555 94.9821 20.9119 95.0216 20.8732C95.4813 20.4252 95.9369 19.9727 96.4034 19.5314C97.2299 18.749 97.9996 17.912 98.8306 17.1342C99.4985 16.509 100.154 15.8715 100.811 15.2356C100.831 15.2168 100.855 15.2022 100.877 15.1854C101.046 14.9941 101.224 14.8095 101.406 14.6316C103.221 12.8537 105.045 11.0842 106.867 9.31263C106.887 9.29377 106.91 9.27822 106.932 9.26135C106.981 9.15979 107.128 9.13134 107.138 9H107.274C107.23 9.06749 107.307 9.08039 107.333 9.1052C110.05 11.7495 112.768 14.3934 115.492 17.031C115.78 17.3099 116.063 17.5944 116.355 17.8696C117.387 18.8452 118.396 19.8433 119.418 20.8288C119.446 20.8556 119.515 20.8775 119.469 20.9264Z" fill="url(#paint2_linear_1_3131)"/>
<path d="M94.9134 20.9961C94.9134 20.9961 94.9128 20.9965 94.9126 20.9967H94.912L94.9134 20.9961Z" fill="#0072BC"/>
<path d="M103.159 24.7372C103.159 24.8302 103.12 24.8494 103.037 24.8391C102.643 24.7915 102.249 24.7435 101.855 24.6995C101.119 24.6178 100.394 24.4722 99.6658 24.3425C99.3854 24.2923 99.1118 24.2049 98.8348 24.1345C98.237 23.9945 97.6476 23.8268 97.0709 23.6194C96.8034 23.5231 96.5261 23.448 96.2838 23.2935C95.835 23.1053 95.4076 22.878 95.0303 22.576C94.8591 22.4393 94.6951 22.2865 94.5808 22.0953C94.3848 21.7678 94.3786 21.4197 94.7512 21.1372C94.7638 21.128 94.7764 21.1187 94.7893 21.1091L94.7904 21.1084C94.8189 21.1031 94.839 21.0896 94.8414 21.0591C94.8414 21.0591 94.8417 21.0578 94.8417 21.0575L94.8434 21.0585C94.8635 21.0578 94.8747 21.0476 94.8768 21.0277C94.889 21.0175 94.9016 21.0075 94.9139 20.9969C94.9789 21.0055 95.0149 20.9569 95.0599 20.9265C95.344 20.7349 95.6356 20.557 95.9449 20.4051C97.1927 19.7931 98.5276 19.4404 99.8842 19.1543C100.519 19.0206 101.159 18.9124 101.803 18.8327C102.25 18.7771 102.694 18.6862 103.148 18.6928C103.147 18.9346 103.146 19.1764 103.145 19.4183C103.147 20.1792 103.15 20.94 103.152 21.7009C103.154 22.7129 103.155 23.7249 103.159 24.7372Z" fill="url(#paint3_linear_1_3131)"/>
<path d="M94.8398 21.0575C94.8381 21.0889 94.8186 21.1031 94.7902 21.1081C94.8067 21.0912 94.8232 21.0744 94.8398 21.0575Z" fill="#0072BC"/>
<path d="M94.8751 21.0264C94.8731 21.0479 94.8612 21.0588 94.8397 21.0588C94.8516 21.0479 94.8632 21.0373 94.8751 21.0264Z" fill="#0072BC"/>
<path d="M94.7879 21.1094C94.7757 21.1186 94.7634 21.1282 94.7509 21.1375C94.7631 21.1282 94.7753 21.1186 94.7879 21.1094Z" fill="#0072BC"/>
<path d="M83.2295 17.2483L83.2381 17.248L83.2371 17.2566L83.2295 17.2562V17.2483Z" fill="#F7951E"/>
<path d="M83.2977 17.3148L83.3063 17.3145L83.3053 17.3231L83.2977 17.3227V17.3148Z" fill="#F7951E"/>
<path d="M106.952 16.9517C106.961 16.9414 106.97 16.9312 106.978 16.9209C106.983 16.9424 106.97 16.9491 106.952 16.9517Z" fill="#F7951E"/>
<path d="M83.3329 17.3467L83.3458 17.3473L83.3498 17.3596C83.3395 17.3612 83.3339 17.3569 83.3329 17.3467Z" fill="#F7951E"/>
<path d="M83.3632 17.3711C83.3701 17.378 83.3771 17.3853 83.3837 17.3923C83.3714 17.3906 83.3645 17.3837 83.3632 17.3711Z" fill="#F7951E"/>
<path d="M83.3964 17.4043C83.4033 17.4112 83.4103 17.4185 83.4172 17.4255C83.405 17.4238 83.398 17.4169 83.3964 17.4043Z" fill="#F7951E"/>
<path d="M83.6698 17.6689C83.6767 17.6759 83.6834 17.6828 83.6903 17.6898C83.6781 17.6881 83.6711 17.6812 83.6698 17.6689Z" fill="#F7951E"/>
<defs>
<linearGradient id="paint0_linear_1_3131" x1="94.4988" y1="31.4634" x2="119.059" y2="31.4634" gradientUnits="userSpaceOnUse">
<stop stop-color="#F7941D"/>
<stop offset="1" stop-color="#F9ED32"/>
</linearGradient>
<linearGradient id="paint1_linear_1_3131" x1="112.269" y1="24.6467" x2="123.2" y2="20.7568" gradientUnits="userSpaceOnUse">
<stop stop-color="#F7941D"/>
<stop offset="1" stop-color="#F9ED32"/>
</linearGradient>
<linearGradient id="paint2_linear_1_3131" x1="94.7446" y1="14.578" x2="123.042" y2="16.5612" gradientUnits="userSpaceOnUse">
<stop stop-color="#0072BC"/>
<stop offset="1" stop-color="#00AEEF"/>
</linearGradient>
<linearGradient id="paint3_linear_1_3131" x1="106.741" y1="21.7671" x2="94.2248" y2="21.7671" gradientUnits="userSpaceOnUse">
<stop stop-color="#0072BC"/>
<stop offset="1" stop-color="#00AEEF"/>
</linearGradient>
</defs>
</svg>
