<svg width="144" height="50" viewBox="0 0 144 50" fill="none" xmlns="http://www.w3.org/2000/svg">
<rect width="144" height="50" rx="4" fill="white"/>
<path d="M20.647 16.3289C19.4434 15.3987 17.7717 15 15.6988 15C15.2308 15 14.8296 15 14.4952 15.0664C14.094 15.1329 13.7597 15.1329 13.3585 15.1993C12.6898 15.3322 12.0211 15.5316 11.3524 15.7973C10.0151 16.2625 9.01206 16.9934 8.20965 17.7907C7.47411 18.6545 7.00603 19.6512 6.80543 20.7807L6.73856 21.3787L6.67169 22.1761C6.67169 23.6379 7.20664 24.701 8.20965 25.4319C9.27953 26.1628 10.7506 26.7608 12.6229 27.2259C13.7597 27.5581 14.629 27.8904 15.2308 28.0897C15.632 28.3555 15.8326 28.6877 15.8326 29.0199V29.3522C15.632 30.2159 14.7627 30.6811 13.2916 30.6811C12.6229 30.6811 12.088 30.4817 11.6199 30.2159C11.085 29.8837 10.8175 29.3522 10.8175 28.6877H5.06687C5 28.7542 5 28.9535 5 29.3522C5 30.9468 5.60181 32.2093 6.73856 33.206C8.07592 34.402 9.81448 35 12.088 35C14.4283 35 16.5012 34.4684 18.3067 33.4718C20.1121 32.4751 21.2489 30.814 21.6501 28.5548L21.7169 27.4252C21.7169 26.2292 21.2489 25.2326 20.3127 24.4352C19.3766 23.7043 18.1061 23.1063 16.4344 22.7076L14.4952 22.1761C13.7597 21.9767 13.2247 21.711 12.9573 21.5116C12.6898 21.2458 12.5561 20.9801 12.5561 20.6478V20.4485C12.6898 19.7841 13.3585 19.4518 14.4952 19.4518C15.9663 19.4518 16.7019 19.9169 16.7019 20.9801H22.3856V20.7143C22.4525 18.7209 21.8507 17.2591 20.647 16.3289Z" fill="#2A76CE"/>
<path d="M60.7009 25.4318C59.631 24.7674 58.4274 24.4352 57.0232 24.4352C56.6888 24.4352 56.3545 24.4352 56.087 24.5016C54.7497 24.6345 53.546 25.0332 52.543 25.7641C51.2057 26.6279 50.4032 28.0232 50.0689 29.8172L50.002 30.2823L49.9352 30.8803C49.9352 32.2092 50.4701 33.2724 51.4063 33.9368C52.4093 34.6013 53.6798 34.9999 55.1509 34.9999C55.4852 34.9999 55.8195 34.9999 56.087 34.9335C56.2876 34.9335 56.4213 34.8671 56.5551 34.8671C56.9563 34.8006 57.2906 34.7342 57.5581 34.6677C57.8256 34.6013 58.0262 34.5348 58.2936 34.4019C58.8286 34.1362 59.2967 33.9368 59.6979 33.671C60.0991 33.4053 60.5003 33.0066 60.8346 32.6079C61.5702 31.7441 62.0382 30.7475 62.2388 29.485L62.3057 28.4883C62.3057 27.093 61.7708 26.0298 60.7009 25.4318ZM57.4244 31.2126C57.09 31.8106 56.6888 32.1428 56.087 32.2093C55.9533 32.2757 55.7527 32.2757 55.6189 32.2757C54.6828 32.2757 54.2147 31.7441 54.2147 30.6146C54.3484 29.6179 54.6159 28.7541 54.8834 28.0896C55.1509 27.5581 55.5521 27.2923 56.087 27.093C56.2876 27.0265 56.4882 27.0265 56.6888 27.0265C57.5581 27.0265 58.0262 27.6245 58.0262 28.8205C58.0262 29.7508 57.7587 30.5481 57.4244 31.2126Z" fill="#2A76CE"/>
<path d="M33.9539 25.0332C33.2852 24.6345 32.1485 24.4352 30.4768 24.4352H30.1424C29.5406 24.4352 29.0057 24.4352 28.4707 24.5016C25.6623 24.7674 24.1243 25.897 23.79 27.7574H27.8689C28.0027 27.4252 28.2033 27.1594 28.4707 27.0265C28.7382 26.8936 29.0726 26.7607 29.5406 26.7607C30.343 26.7607 30.7443 27.0265 30.7443 27.4916C30.7443 27.8239 30.5437 28.0232 30.0756 28.2225C29.875 28.289 29.34 28.4219 28.4707 28.5548C28.337 28.5548 28.2033 28.6212 28.0027 28.6212L26.3978 28.8205L25.328 29.0199C24.5924 29.2192 23.9906 29.485 23.4557 29.8837C22.8539 30.3488 22.4527 31.0132 22.252 31.877C22.252 31.9435 22.2521 32.0099 22.1852 32.1428V32.5415C22.1852 33.2724 22.4527 33.8039 22.9876 34.1362C23.7231 34.6013 24.5256 34.8671 25.3948 34.8671H25.5954C26.5985 34.8671 27.5346 34.6677 28.4039 34.2691C28.872 34.0697 29.34 33.8039 29.8081 33.4717V34.5348H34.1545L34.2214 34.3355C33.9539 34.0697 33.8202 33.8704 33.7533 33.6046L33.887 32.9401L34.8232 28.0896C34.8901 27.6245 34.9569 27.2259 34.9569 26.8272C34.9569 26.0963 34.6226 25.4983 33.9539 25.0332ZM29.4738 32.0099C29.2732 32.2092 29.0726 32.4086 28.7382 32.5415C28.6045 32.6079 28.5376 32.6079 28.4039 32.6744C28.2033 32.7408 28.0027 32.7408 27.8021 32.7408C27.0665 32.7408 26.6653 32.475 26.6653 32.0099V31.9435C26.7322 31.5448 26.9328 31.279 27.2003 31.1461L27.8689 30.8803C28.0027 30.8139 28.2033 30.7475 28.4707 30.7475C28.5376 30.7475 28.6714 30.7475 28.7382 30.7475C29.4069 30.6146 29.875 30.4817 30.2093 30.3488C30.0756 31.0132 29.875 31.5448 29.4738 32.0099Z" fill="#2A76CE"/>
<path d="M47.3945 25.4983C46.4584 24.7674 45.1879 24.4352 43.5162 24.4352C41.4433 24.4352 39.8385 24.9667 38.568 26.0298C37.3644 27.093 36.6288 28.3554 36.3613 29.8837L36.2945 30.3488L36.2276 30.8803C36.2276 32.0764 36.6957 33.0066 37.565 33.8039C38.5011 34.6013 39.7716 34.9335 41.5102 34.9335C43.1818 34.9335 44.5861 34.6013 45.7897 33.8704C46.9933 33.2059 47.7957 32.1428 48.1969 30.8139H43.9843C43.5831 31.8106 42.9812 32.2757 42.112 32.2757C41.1089 32.2757 40.574 31.7441 40.574 30.6146C40.7077 29.5514 40.9752 28.6877 41.2427 28.0232C41.577 27.3588 42.2457 26.9601 43.0481 26.9601C43.4493 26.9601 43.7837 27.093 43.9843 27.3588C44.1849 27.5581 44.3186 27.8903 44.3186 28.1561V28.4219H48.5981V27.8903C48.5313 26.9601 48.1969 26.0963 47.3945 25.4983Z" fill="#2A76CE"/>
<path d="M122.286 25.0996C121.684 24.6345 120.815 24.4352 119.745 24.4352C118.274 24.4352 116.936 25.0332 115.8 26.2956L116.134 24.7009H112.256L110.383 34.7342H114.663L115.599 29.6179C115.8 28.8205 116 28.289 116.335 27.9568C116.602 27.691 117.07 27.5581 117.605 27.5581C118.408 27.5581 118.809 27.9568 118.809 28.7541V29.0863V29.4186L117.806 34.7342H122.018L123.155 28.6877C123.222 28.289 123.289 27.8903 123.289 27.4916C123.155 26.3621 122.888 25.5647 122.286 25.0996Z" fill="#2A76CE"/>
<path d="M138 24.3023H133.052L129.775 27.3588L131.447 18.3222H127.234L124.158 34.6677H128.371L129.04 31.5448L129.909 30.7475L131.514 34.6677H136.596L133.319 28.1561L138 24.3023Z" fill="#2A76CE"/>
<path d="M81.6976 25.0996C81.1627 24.6345 80.2934 24.4352 79.2235 24.4352C77.6855 24.4352 76.3482 25.0332 75.1446 26.2956C74.7434 25.0996 73.7404 24.4352 72.0687 24.4352H72.0018C71.4 24.4352 70.7313 24.5681 70.0626 24.9667C69.3939 25.299 68.7921 25.6976 68.3909 26.2292L68.6584 24.7009H64.7801L62.9078 34.7342H67.1204L68.0566 29.6179C68.2572 28.887 68.4578 28.3554 68.7921 28.0896C69.1265 27.7574 69.5277 27.6245 69.9958 27.6245C70.7313 27.6245 71.0656 27.9568 71.0656 28.6877L70.9988 29.5514L69.9958 34.7342H74.2084L75.1446 29.6179C75.2783 28.7541 75.5458 28.1561 75.8801 27.8903C76.2145 27.691 76.5488 27.5581 76.95 27.5581C77.3512 27.5581 77.6855 27.6245 77.8861 27.8239C78.0199 27.9568 78.1536 28.2225 78.1536 28.6212C78.1536 28.887 78.0867 29.2192 78.0199 29.6179L77.0837 34.7342H81.2964L82.4332 28.7541C82.5 28.2225 82.5669 27.7574 82.5669 27.3588C82.5669 26.2292 82.2994 25.4983 81.6976 25.0996Z" fill="#2A76CE"/>
<path d="M108.444 25.0332C107.776 24.6345 106.639 24.4352 104.967 24.4352H104.633C104.031 24.4352 103.496 24.4352 102.961 24.5016C100.153 24.7674 98.6146 25.897 98.2803 27.7574H102.359C102.493 27.4252 102.694 27.1594 102.961 27.0265C103.229 26.8936 103.563 26.7607 104.031 26.7607C104.833 26.7607 105.235 27.0265 105.235 27.4916C105.235 27.8239 104.967 28.0232 104.566 28.2225C104.365 28.289 103.83 28.4219 102.961 28.5548C102.827 28.5548 102.627 28.6212 102.493 28.6212L100.955 28.8205L99.8851 29.0199C99.1496 29.2192 98.5478 29.485 98.0797 29.8837C97.4779 30.3488 97.0767 31.0132 96.8761 31.877C96.8761 31.9435 96.8092 32.0099 96.8092 32.1428V32.5415C96.8092 33.2724 97.0767 33.8039 97.6116 34.1362C98.3472 34.6013 99.1496 34.8671 100.019 34.8671H100.219C101.222 34.8671 102.159 34.6677 103.028 34.2691C103.496 34.0697 103.964 33.8039 104.365 33.4717V34.5348H108.712L108.779 34.3355C108.511 34.0697 108.377 33.8704 108.31 33.6046L108.444 32.9401L109.38 28.0896C109.447 27.6245 109.514 27.2259 109.514 26.8272C109.447 26.0963 109.113 25.4983 108.444 25.0332ZM104.031 32.0099C103.83 32.2092 103.63 32.4086 103.295 32.5415C103.229 32.6079 103.095 32.6079 102.961 32.6744C102.76 32.7408 102.56 32.7408 102.359 32.7408C101.624 32.7408 101.222 32.475 101.222 32.0099V31.9435C101.289 31.5448 101.49 31.279 101.757 31.1461L102.359 30.8803C102.493 30.8139 102.694 30.7475 102.961 30.7475C103.028 30.7475 103.162 30.7475 103.229 30.7475C103.897 30.6146 104.365 30.4817 104.7 30.3488C104.633 31.0132 104.365 31.5448 104.031 32.0099Z" fill="#2A76CE"/>
<path d="M92.4628 24.4352C91.7941 24.4352 91.1923 24.5016 90.6573 24.701C90.4567 24.8339 90.2561 24.9003 89.9887 25.0332C89.6543 25.2325 89.32 25.4319 89.0525 25.6977L90.3899 18.2558H86.1103L83.235 34.6678H87.0465L87.3808 33.2724C87.782 34.3355 88.7182 34.9335 90.1224 35H90.323C92.0616 35 93.5327 34.3355 94.6025 33.0066C95.6724 31.6777 96.2742 30.1495 96.2742 28.4219C96.2742 27.1594 95.9399 26.1628 95.2043 25.4983C94.4019 24.7674 93.5327 24.4352 92.4628 24.4352ZM91.2591 31.1462C90.9248 31.6113 90.5236 31.9435 90.0555 32.0764C89.9218 32.0764 89.7881 32.1428 89.6543 32.1428C88.7182 32.1428 88.2501 31.5448 88.2501 30.4153C88.4507 29.485 88.6513 28.8206 88.9856 28.2226C89.2531 27.8239 89.5875 27.5581 90.1224 27.4917C90.2561 27.4917 90.4567 27.4252 90.5905 27.4252C91.5266 27.4252 91.9947 27.9568 91.9947 29.0864C91.9278 29.8837 91.7272 30.5481 91.2591 31.1462Z" fill="#2A76CE"/>
</svg>
