<svg width="144" height="50" viewBox="0 0 144 50" fill="none" xmlns="http://www.w3.org/2000/svg">
<rect width="144" height="50" rx="4" fill="white"/>
<path d="M34.9212 27.8831L36.8696 26.8641H35.462L33.3358 28.0297V26.8641H32.2913V29.4886H33.3358V28.6969L34.1878 28.257L35.625 29.4886H36.9882L34.9212 27.8831Z" fill="#0066B2"/>
<path d="M30.1725 26.8641V28.6162L28.0463 26.8641H27.0314V29.4886H28.0019V27.7732L30.1133 29.4886H31.1578V26.8641H30.1725Z" fill="#0066B2"/>
<path d="M23.8087 28.4549H23.1049L23.8087 27.4799V26.8641H23.253L21.2231 29.4886H22.3492L22.7715 28.8875H23.8013V28.4476L23.8087 28.4549Z" fill="#0066B2"/>
<path d="M23.8088 26.8641V27.4799L24.5275 28.4549H23.8088V28.8948H24.8534L25.3127 29.4959H26.461L24.3645 26.8715H23.8088V26.8641Z" fill="#0066B2"/>
<path d="M20.6157 28.3378C20.4379 28.2205 20.2083 28.1399 19.8823 28.0959C20.1119 28.0446 20.2897 27.9639 20.4231 27.8686C20.5564 27.7587 20.6157 27.6414 20.6157 27.5314C20.6157 27.4214 20.5639 27.3042 20.4527 27.2235C20.3564 27.1282 20.2083 27.0622 20.0601 26.9963C19.8971 26.9449 19.7193 26.9156 19.5193 26.901C19.3044 26.8863 18.9933 26.8716 18.5858 26.8716H18.571H16.5115V29.4961H18.571C19.0822 29.4961 19.4081 29.4814 19.5563 29.4814C19.8378 29.4668 20.0675 29.4155 20.2601 29.3495C20.4379 29.2835 20.6009 29.1882 20.7046 29.0929C20.8157 28.9756 20.8824 28.851 20.8824 28.7337C20.8824 28.5871 20.7861 28.4551 20.6231 28.3451L20.6157 28.3378ZM17.5561 27.3042H18.571C18.8303 27.3042 19.0007 27.3042 19.06 27.3188C19.2378 27.3188 19.3711 27.3481 19.4526 27.3995C19.5489 27.4508 19.586 27.5094 19.586 27.5901C19.586 27.6854 19.5341 27.7513 19.4378 27.8027C19.3415 27.854 19.1933 27.8833 19.0081 27.898H18.5636H17.5486V27.2968L17.5561 27.3042ZM19.6304 28.9243C19.5341 28.9903 19.4007 29.0196 19.2526 29.0416C19.1563 29.0416 18.9266 29.0563 18.5636 29.0563H17.5486V28.3451H18.5636C18.9562 28.3598 19.2007 28.3598 19.3341 28.3965C19.4822 28.4111 19.5785 28.4624 19.66 28.5064C19.7415 28.5724 19.7712 28.6384 19.7712 28.697C19.7712 28.7923 19.7193 28.873 19.623 28.9243H19.6304Z" fill="#0066B2"/>
<path d="M34.0543 14.4922L35.6768 16.0976H47.4783C47.1375 15.5478 46.7597 15.0127 46.3522 14.4922H34.0617H34.0543Z" fill="#EC1C24"/>
<path d="M40.2402 9.68446C38.0621 8.66545 35.5952 8.07898 33.0096 8.07898C30.4241 8.07898 27.9497 8.65812 25.7568 9.68446H40.2402Z" fill="#EC1C24"/>
<path d="M37.3142 17.6951L38.9218 19.3006H49.0343C48.8416 18.7508 48.6046 18.2156 48.3601 17.6951H37.3142Z" fill="#EC1C24"/>
<path d="M44.8928 12.8874C44.2853 12.3229 43.6482 11.7731 42.974 11.2819H23.0233C22.3491 11.7658 21.6972 12.3156 21.1119 12.8874H44.8928Z" fill="#EC1C24"/>
<path d="M23.8901 22.5108L25.4977 20.9053H16.4891C16.3558 21.4405 16.2447 21.9757 16.178 22.5108H23.8901Z" fill="#EC1C24"/>
<path d="M30.343 16.0976L31.9654 14.4922H19.6527C19.2452 15.0127 18.8674 15.5478 18.5266 16.0976H30.343Z" fill="#EC1C24"/>
<path d="M49.9824 24.1083H16.0151C16.0002 24.3868 16.0002 24.6433 16.0002 24.8998C16.0002 25.1784 16.0002 25.4495 16.0151 25.7061H41.122V28.3446L33.0395 36.3923L27.098 30.5141H16.9633C19.3044 37.0592 25.6089 41.7207 33.0025 41.7207C42.3815 41.7207 49.9899 34.1935 49.9899 24.8925C49.9899 24.636 49.9899 24.3721 49.975 24.1009L49.9824 24.1083Z" fill="#EC1C24"/>
<path d="M27.1127 19.3006L28.7352 17.6951H17.6374C17.3929 18.2156 17.1633 18.7508 16.9633 19.3006H27.1127Z" fill="#EC1C24"/>
<path d="M95.4995 23.1482C94.4919 23.7932 93.2918 24.1156 91.8397 24.1156C89.8839 24.1156 88.3726 23.6612 87.1132 22.6278C85.913 21.5943 85.35 19.9159 85.35 17.5412C85.35 15.3497 85.9131 13.7373 87.1799 12.7038C88.3726 11.7364 90.0173 11.2233 91.9731 11.2233C93.3585 11.2233 94.6179 11.4798 95.5662 12.0588C96.5737 12.6379 97.2701 13.4148 97.5812 14.3822L102.878 13.4807C102.249 12.0002 101.367 10.8348 100.167 9.99929C98.085 8.65069 95.4995 8.0057 92.225 8.0057C88.506 8.0057 85.5426 8.84125 83.209 10.5856C80.942 12.3227 79.8011 14.7121 79.8011 17.8637C79.8011 20.7588 80.9346 23.1482 83.209 24.8266C85.476 26.4977 88.38 27.3992 91.9138 27.3992C94.7512 27.3992 97.0849 26.8861 98.974 25.8527C100.796 24.8852 102.123 23.3387 102.945 21.3451L97.7146 20.1871C97.2775 21.543 96.5811 22.5691 95.5069 23.1482H95.4995Z" fill="#0767B0"/>
<path d="M72.4224 16.7056C71.1185 16.2585 69.1627 15.8041 66.429 15.3497C63.762 14.9026 62.0655 14.5141 61.3543 14.1257C60.8357 13.8032 60.569 13.4147 60.569 12.9676C60.569 12.4473 60.8283 12.0661 61.4135 11.8023C62.3248 11.3478 63.562 11.0913 65.1918 11.0913C66.8216 11.0913 67.9255 11.3478 68.7108 11.7363C69.4961 12.1907 70.0146 12.8357 70.2073 13.7959L75.7413 13.6639C75.6746 11.9195 74.7634 10.5709 73.0076 9.5375C71.3185 8.51872 68.7108 8.00566 65.2585 8.00566C63.1767 8.00566 61.3543 8.20355 59.8504 8.65064C58.3539 9.10506 57.2426 9.68408 56.4647 10.5196C55.6202 11.3552 55.2275 12.264 55.2275 13.2242C55.2275 14.7047 56.0795 15.9287 57.7686 16.9621C58.9391 17.7317 61.0283 18.3107 64.0213 18.8311C66.3031 19.2196 67.7995 19.4761 68.4515 19.6667C69.4294 19.8572 70.0813 20.1797 70.474 20.5096C70.8666 20.7661 70.9926 21.1545 70.9926 21.6016C70.9926 22.3126 70.5999 22.8916 69.6887 23.4047C68.7775 23.9177 67.4143 24.1742 65.6511 24.1742C63.8879 24.1742 62.5915 23.9177 61.6136 23.3387C60.6356 22.7597 59.9837 21.8582 59.6577 20.5682L54.2496 20.9566C54.6423 23.0822 55.7461 24.6287 57.5686 25.7281C59.4577 26.8201 62.1321 27.4065 65.5844 27.4065C67.9255 27.4065 69.948 27.15 71.5704 26.6955C73.1336 26.2411 74.3708 25.5375 75.2153 24.636C76.1266 23.6685 76.5192 22.701 76.5192 21.609C76.5192 20.4509 76.1932 19.4175 75.4746 18.6479C74.6967 17.8123 73.7188 17.1674 72.415 16.7129L72.4224 16.7056Z" fill="#0767B0"/>
<path d="M126.681 18.7653C125.8 17.9884 124.6 17.4094 122.97 17.0869C124.103 16.6984 125.044 16.1854 125.674 15.4085C126.37 14.6975 126.681 13.862 126.681 13.0264C126.681 12.1909 126.429 11.4799 125.859 10.8349C125.355 10.1899 124.666 9.67689 123.844 9.22247C123.029 8.83402 122.081 8.57749 121.073 8.45289C120.066 8.38693 118.495 8.32096 116.354 8.32096C116.354 8.32096 116.295 8.32096 116.287 8.32096V10.1167C116.287 10.7983 116.287 11.414 116.287 11.414C117.606 11.414 118.428 11.4726 118.806 11.4799C119.688 11.5459 120.318 11.8024 120.821 12.1249C121.258 12.5134 121.451 12.9678 121.451 13.5468C121.451 14.1918 121.199 14.6389 120.695 15.0347C120.192 15.4158 119.436 15.6137 118.554 15.6796C118.177 15.7456 117.421 15.7456 116.287 15.7456C116.287 15.7456 116.287 16.4419 116.287 17.1748V15.7456C115.843 15.7456 115.28 15.7456 114.65 15.7456H111.124V11.4286H114.206C115.028 11.4286 115.717 11.4286 116.287 11.4286V8.32829H105.834V27.0841H114.776C115.347 27.0841 115.843 27.0841 116.287 27.0841V23.9252H111.124V18.9046H116.287V17.4753C116.287 18.2156 116.287 18.9046 116.287 18.9046C118.236 18.9046 119.562 18.9632 120.192 19.1611C120.947 19.3517 121.518 19.6082 121.888 19.9966C122.266 20.3851 122.459 20.8981 122.459 21.4185C122.459 22.1295 122.207 22.6425 121.703 23.031C121.199 23.4194 120.569 23.676 119.747 23.8079C119.243 23.8739 118.11 23.9398 116.287 23.9398C116.287 23.9398 116.287 24.5702 116.287 25.2664V27.0988C118.866 27.0328 120.503 27.0328 121.258 26.9742C122.703 26.8423 123.911 26.5198 124.852 26.0727C125.8 25.5596 126.615 24.9146 127.118 24.1451C127.682 23.3022 128 22.4666 128 21.6311C128 20.539 127.563 19.6302 126.681 18.7946V18.7653Z" fill="#0767B0"/>
<path d="M54.4944 41.706V33.2919H55.4723L57.5096 38.9062V33.2919H58.4431V41.706H57.4355L55.4278 36.2237V41.706H54.4944Z" fill="#0767B0"/>
<path d="M61.8288 38.6131V37.1912H63.9995V40.5408C63.7846 40.8852 63.4809 41.1857 63.0808 41.4496C62.6808 41.7135 62.2733 41.8454 61.8659 41.8454C61.3473 41.8454 60.8879 41.6621 60.5027 41.2957C60.1175 40.9292 59.8211 40.4015 59.6285 39.7125C59.4359 39.0236 59.3396 38.2833 59.3396 37.4698C59.3396 36.5902 59.4507 35.8133 59.6656 35.1317C59.8804 34.4501 60.199 33.9297 60.6212 33.5632C60.9398 33.2847 61.3399 33.1454 61.814 33.1454C62.4289 33.1454 62.9178 33.3653 63.266 33.8051C63.6142 34.2448 63.8365 34.8458 63.9402 35.6228L62.9401 35.9379C62.866 35.5275 62.74 35.1977 62.54 34.9631C62.3474 34.7212 62.1029 34.604 61.814 34.604C61.3695 34.604 61.0213 34.8385 60.762 35.3076C60.5027 35.7767 60.3768 36.473 60.3768 37.4038C60.3768 38.4006 60.5101 39.1482 60.7694 39.6539C61.0361 40.1523 61.3769 40.4015 61.8066 40.4015C62.014 40.4015 62.2289 40.3355 62.4437 40.1963C62.6585 40.057 62.8364 39.8884 62.9919 39.6906V38.6205H61.8436L61.8288 38.6131Z" fill="#0767B0"/>
<path d="M69.4224 41.7061H68.326L67.8889 39.7932H65.896L65.4886 41.7061H64.4218L66.3627 33.292H67.4295L69.4224 41.7061ZM65.733 32.8156L66.4442 31.1225H67.3258L68.0296 32.8156H67.2592L66.8665 31.9581L66.4961 32.8156H65.7256H65.733ZM67.5703 38.3786L66.8813 35.2563L66.2072 38.3786H67.5703Z" fill="#0767B0"/>
<path d="M69.9631 41.706V33.2919H70.941L72.9783 38.9062V33.2919H73.9118V41.706H72.9043L70.8966 36.2237V41.706H69.9631Z" fill="#0767B0"/>
<path d="M76.9194 41.706V33.2919H77.927V36.6048H79.8976V33.2919H80.9051V41.706H79.8976V38.0267H77.927V41.706H76.9194Z" fill="#0767B0"/>
<path d="M86.4392 41.7061H85.3428L84.9057 39.7932H82.9128L82.498 41.7061H81.4312L83.3721 33.292H84.4389L86.4318 41.7061H86.4392ZM84.4686 32.8156H83.8685L82.9276 31.1006H83.9944L84.4612 32.8156H84.4686ZM84.5871 38.3786L83.8981 35.2563L83.224 38.3786H84.5797H84.5871Z" fill="#0767B0"/>
<path d="M86.9801 41.706V33.2919H87.958L89.9953 38.9062V33.2919H90.9288V41.706H89.9212L87.9136 36.2237V41.706H86.9801Z" fill="#0767B0"/>
<path d="M94.3217 38.6131V37.1912H96.4924V40.5408C96.2775 40.8852 95.9738 41.1857 95.5737 41.4496C95.1737 41.7135 94.7662 41.8454 94.3588 41.8454C93.8402 41.8454 93.3809 41.6621 92.9956 41.2957C92.6104 40.9292 92.3141 40.4015 92.1214 39.7125C91.9288 39.0236 91.8325 38.2833 91.8325 37.4698C91.8325 36.5902 91.9436 35.8133 92.1585 35.1317C92.3733 34.4501 92.6919 33.9297 93.1142 33.5632C93.4327 33.2847 93.8328 33.1454 94.3069 33.1454C94.9218 33.1454 95.4108 33.3653 95.759 33.8051C96.1072 34.2448 96.3294 34.8458 96.4331 35.6228L95.433 35.9379C95.3663 35.5275 95.233 35.1977 95.0329 34.9631C94.8403 34.7212 94.5958 34.604 94.3069 34.604C93.8698 34.604 93.5142 34.8385 93.2549 35.3076C92.9956 35.7767 92.8623 36.473 92.8623 37.4038C92.8623 38.4006 92.9956 39.1482 93.2549 39.6539C93.5142 40.1523 93.8624 40.4015 94.2921 40.4015C94.4995 40.4015 94.7144 40.3355 94.9218 40.1963C95.1367 40.057 95.3145 39.8884 95.47 39.6906V38.6205H94.3143L94.3217 38.6131Z" fill="#0767B0"/>
<path d="M99.0927 38.9723L100.071 38.811C100.13 39.3681 100.248 39.7712 100.434 40.035C100.611 40.2989 100.856 40.4235 101.16 40.4235C101.486 40.4235 101.73 40.3062 101.893 40.0717C102.056 39.8445 102.138 39.5733 102.138 39.2581C102.138 39.0602 102.101 38.8917 102.034 38.7524C101.967 38.6131 101.841 38.4885 101.671 38.3859C101.552 38.32 101.286 38.1954 100.863 38.0195C100.323 37.7922 99.9447 37.5137 99.7299 37.1839C99.4261 36.7222 99.2705 36.1578 99.2705 35.4908C99.2705 35.0657 99.3446 34.6626 99.4854 34.2888C99.6261 33.915 99.8336 33.6292 100.108 33.4386C100.382 33.2407 100.708 33.1454 101.086 33.1454C101.708 33.1454 102.182 33.38 102.501 33.8417C102.819 34.3035 102.982 34.9191 102.997 35.696L101.989 35.7693C101.945 35.3369 101.856 35.0291 101.715 34.8385C101.575 34.648 101.36 34.5527 101.078 34.5527C100.797 34.5527 100.56 34.6553 100.389 34.8605C100.285 34.9924 100.226 35.161 100.226 35.3809C100.226 35.5788 100.278 35.7474 100.374 35.8939C100.5 36.0698 100.811 36.2604 101.3 36.4583C101.789 36.6562 102.152 36.8541 102.389 37.0666C102.627 37.2792 102.804 37.5577 102.938 37.9242C103.071 38.2833 103.138 38.7304 103.138 39.2654C103.138 39.7492 103.056 40.1963 102.901 40.6214C102.745 41.0392 102.515 41.3543 102.226 41.5595C101.938 41.7648 101.575 41.8674 101.145 41.8674C100.515 41.8674 100.034 41.6255 99.6928 41.1271C99.352 40.636 99.152 39.9178 99.0853 38.9796L99.0927 38.9723Z" fill="#0767B0"/>
<path d="M108.487 41.7061H107.39L106.953 39.7932H104.96L104.545 41.7061H103.479L105.42 33.292H106.479L108.479 41.7061H108.487ZM106.516 32.8156H105.916L104.975 31.1006H106.049L106.516 32.8156ZM106.634 38.3786L105.946 35.2563L105.271 38.3786H106.627H106.634Z" fill="#0767B0"/>
<path d="M108.99 41.706V33.2919H109.998V41.706H108.99Z" fill="#0767B0"/>
<path d="M115.206 38.6131V37.1912H117.377V40.5408C117.162 40.8852 116.858 41.1857 116.458 41.4496C116.058 41.7135 115.651 41.8454 115.243 41.8454C114.725 41.8454 114.265 41.6621 113.88 41.2957C113.495 40.9292 113.198 40.4015 113.006 39.7125C112.813 39.0236 112.717 38.2833 112.717 37.4698C112.717 36.5902 112.828 35.8133 113.043 35.1317C113.258 34.4501 113.576 33.9297 113.999 33.5632C114.317 33.2847 114.717 33.1454 115.191 33.1454C115.806 33.1454 116.295 33.3653 116.643 33.8051C116.992 34.2448 117.214 34.8458 117.318 35.6228L116.317 35.9379C116.251 35.5275 116.117 35.1977 115.917 34.9631C115.725 34.7212 115.48 34.604 115.191 34.604C114.754 34.604 114.399 34.8385 114.139 35.3076C113.88 35.7767 113.754 36.473 113.754 37.4038C113.754 38.4006 113.887 39.1482 114.147 39.6539C114.406 40.1523 114.754 40.4015 115.184 40.4015C115.391 40.4015 115.606 40.3355 115.821 40.1963C116.036 40.057 116.214 39.8884 116.369 39.6906V38.6205H115.221L115.206 38.6131Z" fill="#0767B0"/>
<path d="M118.103 37.5503C118.103 36.6928 118.177 35.9745 118.332 35.3955C118.443 34.9631 118.599 34.582 118.799 34.2448C118.992 33.9077 119.206 33.6511 119.443 33.4899C119.755 33.27 120.11 33.1527 120.518 33.1527C121.251 33.1527 121.836 33.5339 122.281 34.3034C122.725 35.073 122.94 36.1431 122.94 37.5137C122.94 38.8843 122.725 39.9324 122.281 40.702C121.844 41.4642 121.258 41.8527 120.525 41.8527C119.792 41.8527 119.192 41.4716 118.754 40.7093C118.317 39.947 118.095 38.8989 118.095 37.5577L118.103 37.5503ZM119.14 37.4917C119.14 38.4445 119.266 39.1701 119.532 39.6612C119.792 40.1523 120.125 40.4015 120.525 40.4015C120.925 40.4015 121.258 40.1596 121.51 39.6685C121.77 39.1775 121.896 38.4519 121.896 37.4771C121.896 36.5022 121.77 35.7913 121.518 35.3149C121.266 34.8385 120.933 34.6039 120.518 34.6039C120.103 34.6039 119.769 34.8458 119.517 35.3222C119.266 35.806 119.14 36.5242 119.14 37.4917ZM121.044 32.8082H120.444L119.503 31.0932H120.577L121.044 32.8082Z" fill="#0767B0"/>
<path d="M123.725 41.706V33.2919H124.703L126.741 38.9062V33.2919H127.674V41.706H126.667L124.659 36.2237V41.706H123.725Z" fill="#0767B0"/>
</svg>
