<svg width="77" height="30" viewBox="0 0 77 30" fill="none" xmlns="http://www.w3.org/2000/svg">
    <path fill-rule="evenodd" clip-rule="evenodd" d="M15.6816 6.09375C16.0325 6.09375 16.3903 6.1545 16.7143 6.2895C17.045 6.4245 17.342 6.62024 17.5918 6.86999C17.8415 7.11973 18.044 7.41673 18.179 7.74072C18.314 8.06472 18.3883 8.41571 18.3883 8.77346C18.3883 9.1312 18.3208 9.47544 18.179 9.80619C18.044 10.1302 17.8415 10.4272 17.5918 10.6769C17.342 10.9267 17.0383 11.1224 16.7143 11.2574C16.3835 11.3924 16.0325 11.4599 15.6816 11.4532C15.0538 11.4532 14.5813 11.2507 14.1291 10.9604L10.7744 8.77346L14.1291 6.58649C14.5746 6.29625 15.0336 6.09375 15.6816 6.09375ZM14.6556 29.5564L2.08728 21.3688C2.08728 21.3688 0.507806 20.4643 0.150062 18.7768C-0.35618 16.4076 1.31779 14.3759 1.31779 14.3759L17.6323 25.0002C18.8878 25.8237 19.232 27.4977 18.4288 28.7666C17.5985 30.0694 15.8908 30.3529 14.6623 29.5564H14.6556Z" fill="#38D200"/>
    <path fill-rule="evenodd" clip-rule="evenodd" d="M2.7067 29.9878C2.35571 29.9878 1.99797 29.9271 1.67397 29.7921C1.34323 29.6571 1.04623 29.4613 0.796487 29.2116C0.546741 28.9619 0.344243 28.6649 0.209245 28.3409C0.0742471 28.0169 0 27.6659 0 27.3081C0 26.9504 0.0674972 26.6061 0.209245 26.2754C0.344243 25.9514 0.546741 25.6544 0.796487 25.4047C1.04623 25.1549 1.34998 24.9592 1.67397 24.8242C2.00472 24.6892 2.35571 24.6217 2.7067 24.6284C3.33444 24.6284 3.80694 24.8309 4.25918 25.1212L7.61387 27.3081L4.25918 29.4951C3.81369 29.7853 3.35469 29.9878 2.7067 29.9878ZM2.74045 12.6136C2.74045 12.6136 0.816736 11.4526 0.816736 8.75944C0.816736 6.06623 2.74045 4.93225 2.74045 4.93225L9.61184 0.436825C10.2193 0.0453315 10.9551 -0.0896646 11.6571 0.058833C12.3658 0.207331 12.98 0.632574 13.3715 1.24006C13.763 1.84755 13.9048 2.58329 13.7495 3.28528C13.601 3.99402 13.1758 4.60826 12.5683 4.99975L6.77689 8.77294L16.6452 15.1988C16.6452 15.1988 18.4204 16.2181 18.7714 17.9325C19.2574 20.3287 17.6105 22.3065 17.6105 22.3065L2.7337 12.6136H2.74045Z" fill="#0473EA"/>
    <path fill-rule="evenodd" clip-rule="evenodd" d="M33.91 8.96257L32.9245 8.31458L33.8897 7.69359C34.0112 7.61934 34.153 7.57209 34.2947 7.57209C34.4365 7.57209 34.5782 7.61259 34.6997 7.68684L34.72 7.70034C34.801 7.75434 34.8752 7.82184 34.9292 7.90284C34.9832 7.98384 35.0237 8.07834 35.044 8.17283C35.0642 8.26733 35.0642 8.36858 35.044 8.46983C35.0237 8.56433 34.99 8.65882 34.936 8.74657C34.882 8.82757 34.8145 8.90182 34.7335 8.95582C34.6525 9.00982 34.558 9.05032 34.4635 9.07057C34.369 9.09082 34.2677 9.09082 34.1665 9.07057C34.072 9.05032 33.9775 9.01657 33.8897 8.96257H33.91ZM65.0405 13.6267H64.0685V7.70034H65.0405V8.96257C65.513 8.08508 66.2689 7.59234 67.2072 7.59234V8.71283C66.0259 8.54408 65.0405 9.34057 65.0405 10.8053V13.6335V13.6267ZM57.4266 10.6838C57.4266 11.9123 58.2771 12.81 59.4853 12.81C60.6935 12.81 61.5643 11.9055 61.5643 10.6838C61.5643 9.46206 60.7003 8.51708 59.4853 8.51708C58.2703 8.51708 57.4266 9.42831 57.4266 10.6838ZM61.5643 12.621C61.0715 13.3163 60.3155 13.7415 59.3908 13.7415C57.6561 13.7415 56.4209 12.4523 56.4209 10.6973C56.4209 8.94232 57.6628 7.59234 59.3908 7.59234C60.3155 7.59234 61.0715 8.02434 61.5643 8.73308V7.70034H62.5498V13.6267H61.5643V12.6143V12.621ZM68.2737 10.6838C68.2737 11.9123 69.1241 12.81 70.3324 12.81C71.5406 12.81 72.4113 11.9055 72.4113 10.6838C72.4113 9.46206 71.5474 8.51708 70.3324 8.51708C69.1174 8.51708 68.2737 9.42831 68.2737 10.6838ZM72.4113 12.594C71.9321 13.3028 71.1626 13.7347 70.2379 13.7347C68.5032 13.7347 67.2679 12.4455 67.2679 10.6905C67.2679 8.93557 68.5032 7.58559 70.2379 7.58559C71.1626 7.58559 71.9321 8.03109 72.4113 8.75332V6.39761L73.3968 5.79688V13.6267H72.4113V12.594ZM50.238 10.6838C50.238 11.9123 51.0884 12.81 52.2967 12.81C53.5049 12.81 54.3756 11.9055 54.3756 10.6838C54.3756 9.46206 53.5116 8.51708 52.2967 8.51708C51.0817 8.51708 50.238 9.42831 50.238 10.6838ZM54.3756 12.594C53.8964 13.3028 53.1269 13.7347 52.2022 13.7347C50.4674 13.7347 49.2322 12.4455 49.2322 10.6905C49.2322 8.93557 50.4674 7.58559 52.2022 7.58559C53.1269 7.58559 53.8964 8.03109 54.3756 8.75332V6.39761L55.3611 5.79688V13.6267H54.3756V12.594ZM43.9876 13.6267H43.0156V7.70034H43.9876V8.71283C44.433 8.02434 45.1418 7.59234 46.0463 7.59234C47.538 7.59234 48.3345 8.68582 48.3345 10.1438V13.6335H47.349V10.3125C47.349 9.15832 46.8428 8.54408 45.81 8.54408C44.7165 8.54408 43.9943 9.48231 43.9943 10.6635V13.6335L43.9876 13.6267ZM36.3737 10.6838C36.3737 11.9123 37.2309 12.81 38.4324 12.81C39.6339 12.81 40.5114 11.9055 40.5114 10.6838C40.5114 9.46206 39.6474 8.51708 38.4324 8.51708C37.2174 8.51708 36.3737 9.42831 36.3737 10.6838ZM40.5114 12.621C40.0186 13.3163 39.2626 13.7415 38.3379 13.7415C36.6032 13.7415 35.3679 12.4523 35.3679 10.6973C35.3679 8.94232 36.6099 7.59234 38.3379 7.59234C39.2626 7.59234 40.0186 8.02434 40.5114 8.73308V7.70034H41.4968V13.6267H40.5114V12.6143V12.621ZM32.5397 11.649C32.5397 12.4793 33.046 12.8033 33.6805 12.8033C34.1732 12.8033 34.6592 12.6548 35.0642 12.3713V13.323C34.6525 13.6267 34.0922 13.7415 33.5995 13.7415C32.3372 13.7415 31.5678 13.1745 31.5678 11.5748V6.40436L32.5397 5.80362V11.649ZM28.5033 12.9383C29.1985 12.9383 29.7048 12.6345 29.7048 12.0945C29.7048 11.7705 29.536 11.514 29.0906 11.3385L27.6866 10.7715C26.9643 10.461 26.5661 10.0493 26.5661 9.27981C26.5661 8.24708 27.3963 7.59909 28.5978 7.59909C29.293 7.59909 29.9478 7.79484 30.4 8.13908V9.16507C29.86 8.68583 29.1985 8.40908 28.6113 8.40908C27.9836 8.40908 27.5381 8.69932 27.5381 9.17857C27.5381 9.53631 27.7068 9.75906 28.1726 9.93456L29.5765 10.5015C30.3325 10.8255 30.6835 11.2845 30.6835 11.919C30.6835 13.0463 29.7723 13.7482 28.4831 13.7482C27.7001 13.7482 26.9913 13.5322 26.4716 13.1475V12.0878C27.0993 12.675 27.7946 12.945 28.4898 12.945L28.5033 12.9383ZM52.8974 16.2997L53.8761 16.9544L52.9042 17.5754C52.7827 17.6497 52.6409 17.6969 52.4992 17.6969C52.3574 17.6969 52.2157 17.6564 52.0942 17.5754L52.0739 17.5619C51.9052 17.4539 51.7904 17.2852 51.7499 17.0894C51.7094 16.8937 51.7499 16.6912 51.8512 16.5224C51.9592 16.3537 52.1279 16.2389 52.3237 16.1985C52.5194 16.158 52.7219 16.1985 52.8907 16.3065L52.8974 16.2997ZM51.3247 20.3361C51.3247 21.1664 51.8309 21.4904 52.4654 21.4904C52.9582 21.4904 53.4442 21.3419 53.8491 21.0584V22.0101C53.4374 22.3139 52.8772 22.4286 52.3844 22.4286C51.1222 22.4286 50.3527 21.8616 50.3527 20.2619V14.4975L51.3247 15.0982V20.3361ZM71.3449 19.3776C71.3449 20.6061 72.1953 21.5039 73.4036 21.5039C74.6118 21.5039 75.4825 20.5994 75.4825 19.3776C75.4825 18.1559 74.6186 17.2109 73.4036 17.2109C72.2021 17.2109 71.3449 18.1222 71.3449 19.3776ZM75.4825 21.2879C75.0033 21.9966 74.2338 22.4286 73.3023 22.4286C71.5676 22.4286 70.3324 21.1394 70.3324 19.3844C70.3324 17.6294 71.5744 16.2795 73.3023 16.2795C74.2271 16.2795 74.9965 16.7249 75.4825 17.4472V14.4975L76.468 15.0982V22.3004H75.4825V21.2811V21.2879ZM64.9662 18.9254H68.6314C68.5369 17.9129 67.8957 17.1704 66.8494 17.1704C65.7694 17.1704 65.1147 17.9264 64.9595 18.9254H64.9662ZM69.6304 19.7219H64.9527C65.0945 20.7951 65.9382 21.5039 67.1194 21.5039C67.8754 21.5039 68.6112 21.2879 69.2389 20.8424V21.7806C68.6044 22.2126 67.8822 22.4151 67.1194 22.4151C65.2565 22.4151 63.92 21.2136 63.92 19.3979C63.92 17.5822 65.0472 16.2727 66.8427 16.2727C68.6382 16.2727 69.6709 17.5349 69.6709 19.2291C69.6709 19.3911 69.6574 19.5599 69.6371 19.7219H69.6304ZM61.679 22.3071H60.707V16.3807H61.679V17.6429C62.1448 16.7654 62.9075 16.2727 63.8457 16.2727V17.3932C62.6645 17.2244 61.679 18.0209 61.679 19.4856V22.3138V22.3071ZM54.9291 18.9254H58.5943C58.4998 17.9129 57.8586 17.1704 56.8123 17.1704C55.7324 17.1704 55.0776 17.9264 54.9224 18.9254H54.9291ZM59.5933 19.7219H54.9156C55.0574 20.7951 55.9011 21.5039 57.0823 21.5039C57.8383 21.5039 58.5741 21.2879 59.2018 20.8424V21.7806C58.5673 22.2126 57.8451 22.4151 57.0823 22.4151C55.2194 22.4151 53.8829 21.2136 53.8829 19.3979C53.8829 17.5822 55.0101 16.2727 56.8056 16.2727C58.6011 16.2727 59.6338 17.5349 59.6338 19.2291C59.6338 19.3911 59.6203 19.5599 59.6001 19.7219H59.5933ZM47.4435 22.3071H46.4715V16.3807H47.4435V17.6429C47.9092 16.7654 48.672 16.2727 49.6102 16.2727V17.3932C48.429 17.2244 47.4435 18.0209 47.4435 19.4856V22.3138V22.3071ZM39.8296 19.3574C39.8296 20.5859 40.6869 21.4836 41.8883 21.4836C43.0898 21.4836 43.9673 20.5791 43.9673 19.3574C43.9673 18.1357 43.1033 17.1907 41.8883 17.1907C40.6869 17.1907 39.8296 18.1019 39.8296 19.3574ZM43.9673 21.2946C43.4746 21.9899 42.7186 22.4151 41.7938 22.4151C40.0591 22.4151 38.8239 21.1259 38.8239 19.3709C38.8239 17.6159 40.0591 16.2659 41.7938 16.2659C42.7186 16.2659 43.4746 16.6979 43.9673 17.4067V16.3739H44.9528V22.3004H43.9673V21.2879V21.2946ZM33.5792 22.3071H32.6072V14.4975L33.5792 15.0982V17.3864C34.0247 16.6979 34.7335 16.2659 35.6379 16.2659C37.1297 16.2659 37.9262 17.3594 37.9262 18.8174V22.3071H36.9407V18.9862C36.9407 17.8319 36.4344 17.2177 35.4017 17.2177C34.3082 17.2177 33.586 18.1559 33.586 19.3371V22.3071H33.5792ZM29.6373 21.4904C30.346 21.4904 31.0075 21.2946 31.5273 20.8559V21.8549C30.9468 22.2531 30.265 22.4218 29.5428 22.4218C27.7271 22.4218 26.4648 21.1596 26.4648 19.3439C26.4648 17.5282 27.7608 16.2795 29.5698 16.2795C30.2785 16.2795 30.94 16.4819 31.4665 16.8802V17.9737C31.0008 17.4674 30.346 17.2042 29.6238 17.2042C28.3616 17.2042 27.4706 18.0817 27.4706 19.3439C27.4706 20.6061 28.3751 21.4971 29.6373 21.4971V21.4904Z" fill="#525355"/>
</svg>
