<svg width="144" height="50" viewBox="0 0 144 50" fill="none" xmlns="http://www.w3.org/2000/svg">
<rect width="144" height="50" rx="4" fill="white"/>
<path d="M12.7256 12.2031H37.1101V38.1926H12.7256V12.2031Z" fill="#D6171F"/>
<path d="M82.0174 17.7833H82.9784C84.7735 17.7833 86.5686 17.7501 88.3571 17.7833C89.5967 17.8026 90.7769 18.0548 91.878 18.7622C93.6335 19.8881 94.0852 22.949 91.9044 24.3604C91.4939 24.6266 91.0604 24.8612 90.5412 25.1694C90.8346 25.2832 91.0621 25.3953 91.2961 25.4706C92.239 25.7805 93.0912 26.2586 93.6945 27.1078C94.9605 28.9079 94.0176 31.0127 92.3214 31.8953C91.1758 32.4906 89.9577 32.6675 88.7049 32.6693C86.6642 32.6693 84.6251 32.6693 82.5894 32.6693C81.9234 32.6693 81.8641 32.5799 82.0339 31.834C82.3652 31.7499 82.7015 31.6851 83.041 31.6396C83.735 31.5836 83.9361 31.3892 83.9378 30.6363C83.9378 27.5456 83.9378 24.4549 83.9378 21.3608C83.9378 20.818 83.9048 20.2716 83.9378 19.7323C83.9691 19.1912 83.6971 18.9793 83.2916 18.8638C83.0509 18.8077 82.8086 18.7692 82.563 18.7517C81.9383 18.6746 81.8756 18.5818 82.0174 17.7833ZM86.4895 25.6597C86.4647 25.9976 86.445 26.143 86.445 26.2883C86.445 27.5999 86.445 28.9132 86.445 30.2265C86.445 30.9112 86.707 31.2474 87.312 31.4488C88.1329 31.7219 88.939 31.6501 89.7549 31.4295C90.861 31.1301 91.6159 30.0794 91.6374 28.7661C91.6621 27.2672 91.0901 26.2428 89.8686 25.9906C88.7873 25.7595 87.6615 25.7612 86.4895 25.6562V25.6597ZM86.4581 24.616C87.2345 24.616 87.9565 24.6931 88.6571 24.5968C89.5934 24.4707 90.3829 23.9804 90.6582 22.9473C90.9747 21.774 91.0901 20.5833 90.2544 19.5519C90.1027 19.3716 89.9181 19.2245 89.7137 19.1212C88.6637 18.5906 87.5642 18.8603 86.4581 18.8235V24.616Z" fill="#21232A"/>
<path d="M51.918 18.447C52.2493 17.9287 52.5972 17.5382 53.2697 17.8989V22.7686H52.434C52.19 22.1172 51.9642 21.4501 51.6889 20.8057C51.2735 19.8338 50.6455 19.0178 49.6614 18.7306C48.6608 18.4382 47.5844 18.2999 46.7042 19.0879C45.4976 20.1683 45.8388 22.2013 47.3619 22.977C48.2059 23.4113 49.1389 23.6652 49.996 24.0854C50.9752 24.5635 52.0021 25.0188 52.8543 25.6947C54.4483 26.9537 54.2999 29.5418 53.1593 30.9847C52.1851 32.2157 50.9059 32.8023 49.4389 32.9371C48.0674 33.0755 46.6844 32.8128 45.4415 32.1789C45.1959 32.0528 44.914 31.9338 44.7575 32.2822C44.5085 32.8443 44.0948 32.7112 43.5723 32.6412V27.6104C44.2893 27.395 44.441 27.5211 44.7344 28.4544C45.2042 29.9708 46.0828 31.13 47.5119 31.6886C48.4861 32.0721 49.5048 32.1176 50.4872 31.6518C51.7779 31.0407 52.2164 29.0638 51.3328 27.8905C50.8664 27.2777 50.2466 26.8171 49.546 26.565C48.2652 26.0659 46.9416 25.6281 45.7531 24.94C44.0635 23.9594 43.6909 22.7284 43.925 20.909C44.0948 19.5869 44.9536 18.6659 46.063 18.095C47.7789 17.2177 49.518 17.258 51.2356 18.137C51.435 18.2438 51.6493 18.3279 51.918 18.447Z" fill="#21232A"/>
<path d="M130.903 22.3311C131.058 22.8004 130.938 23.0368 130.491 23.1699C128.78 23.6777 127.568 24.9525 126.312 26.2605C126.879 27.003 127.422 27.7052 127.959 28.4126C128.513 29.1376 129.065 29.8643 129.614 30.5945C130.135 31.2809 130.717 31.864 131.674 31.843C131.693 32.0916 131.707 32.3018 131.726 32.5749C131.482 32.603 131.281 32.6432 131.078 32.645C130.532 32.6537 129.978 32.5819 129.443 32.659C128.673 32.7711 128.274 32.3473 127.86 31.7519C126.899 30.3703 125.884 29.0325 124.903 27.7017C124.155 27.847 123.886 28.1675 123.884 28.8626C123.884 29.3512 123.907 29.8398 123.884 30.3266C123.836 31.4648 124.201 31.5873 125.185 31.822C125.29 31.8325 125.396 31.8325 125.501 31.822C125.518 32.0759 125.531 32.3018 125.551 32.5977H120.273V31.8955C120.609 31.8307 120.939 31.7834 121.255 31.6959C121.595 31.5996 121.766 31.3579 121.766 30.9534C121.755 26.9014 121.759 22.8512 121.75 18.8045C121.75 18.0953 121.427 17.7363 120.749 17.6102C120.489 17.5805 120.231 17.5192 119.981 17.4316C119.859 17.3773 119.709 17.1795 119.714 17.0534C119.72 16.9273 119.887 16.6927 119.999 16.6839C121.173 16.5893 122.348 16.5176 123.527 16.4685C123.914 16.4528 123.884 16.8065 123.884 17.0814C123.884 18.6749 123.884 20.2684 123.884 21.8618C123.884 23.5499 123.884 25.2379 123.884 26.926C123.892 27.0135 123.904 27.0976 123.922 27.1816C124.041 27.1431 124.156 27.1413 124.219 27.0801C125.238 26.0767 126.256 25.0716 127.257 24.0489C127.376 23.9281 127.489 23.5902 127.44 23.5376C127.272 23.3573 127.057 23.2347 126.823 23.1857C126.18 23.0928 126.131 23.0561 126.248 22.3434L130.903 22.3311Z" fill="#21232A"/>
<path d="M72.6344 17.9202C73.2542 17.7468 73.5838 17.8729 73.8311 18.5138C75.2174 22.0842 76.6597 25.6319 78.0823 29.1848C78.2537 29.6156 78.4169 30.0516 78.6098 30.4736C78.8949 31.1145 79.3367 31.5541 80.0257 31.6644C80.2499 31.7117 80.4691 31.7729 80.6867 31.8482C80.8499 32.5592 80.784 32.6607 80.1494 32.6625C78.374 32.6625 76.5987 32.6625 74.8234 32.6625C74.7377 32.6625 74.652 32.6485 74.4954 32.6345C74.4822 32.3806 74.4707 32.1389 74.4558 31.8465C74.9256 31.7677 75.3328 31.6889 75.7432 31.6346C76.2575 31.5663 76.4372 31.2424 76.2361 30.7275C75.8141 29.6454 75.3806 28.5632 74.9701 27.4723C74.8284 27.0976 74.6438 26.9242 74.23 26.9312C72.8783 26.961 71.5283 26.9417 70.0497 26.9417C69.6689 28.1447 69.303 29.3582 68.8991 30.5594C68.6651 31.2581 68.9865 31.3895 69.6376 31.5961C70.0514 31.7274 70.4882 31.7747 70.9415 31.8657V32.5994H65.365C65.1771 32.1494 65.182 31.8115 65.7178 31.7362C66.8387 31.5698 67.4354 30.8011 67.8491 29.7452C68.8827 27.1063 69.9525 24.4867 71.0173 21.8671C71.5464 20.5485 72.0954 19.2335 72.6344 17.9202ZM72.5025 21.5431L72.3525 21.5291L70.653 25.8193H74.2317L72.5025 21.5431Z" fill="#21232A"/>
<path d="M107.214 23.0876V22.3924C107.384 22.3451 107.557 22.3119 107.73 22.2909C108.643 22.2401 109.556 22.2068 110.468 22.1595C110.842 22.1403 111.028 22.2996 111.018 22.7146C111.018 22.9388 111.038 23.1787 111.058 23.5814C111.434 23.2855 111.693 23.0876 111.95 22.8792C113.087 21.9476 114.378 21.8216 115.703 22.1805C116.807 22.48 117.561 23.7162 117.579 25.1329C117.602 26.8209 117.62 28.5089 117.579 30.197C117.553 31.2896 117.691 31.6696 119.048 31.8728C119.061 32.0846 119.077 32.3105 119.092 32.5539C118.98 32.5959 118.863 32.6257 118.744 32.6432C117.251 32.6485 115.756 32.659 114.261 32.6345C114.119 32.6345 113.9 32.4348 113.855 32.2808C113.774 32.0006 113.936 31.8307 114.229 31.822C114.422 31.8167 114.615 31.7887 114.801 31.7362C115.217 31.6153 115.436 31.3719 115.426 30.8519C115.4 28.9957 115.426 27.1378 115.418 25.2834C115.418 24.175 114.669 23.3923 113.624 23.3713C112.914 23.3608 112.222 23.6059 111.66 24.0664C111.236 24.3921 110.975 24.7896 110.994 25.4288C111.043 27.0398 111.005 28.6525 111.003 30.2688C111.003 31.4332 111.16 31.6276 112.265 31.843C112.35 31.8587 112.433 31.885 112.569 31.9183C112.579 32.1302 112.591 32.3403 112.602 32.6012C112.382 32.624 112.213 32.6555 112.044 32.6555C110.638 32.6642 109.231 32.6642 107.822 32.673C107.56 32.673 107.319 32.673 107.305 32.2913C107.29 31.9095 107.501 31.8482 107.807 31.829C108.627 31.7747 108.851 31.5085 108.852 30.6295C108.857 28.7173 108.857 26.8034 108.852 24.8912C108.852 23.7845 108.633 23.4973 107.609 23.2224C107.499 23.1787 107.382 23.1384 107.214 23.0876Z" fill="#21232A"/>
<path d="M102.328 31.4557C101.166 32.5641 99.9529 33.0579 98.5418 32.9178C97.1918 32.7847 96.2803 31.9057 96.1319 30.4838C96.005 29.3824 96.572 28.323 97.5264 27.88C98.7248 27.3161 99.9908 26.9256 101.222 26.4616C101.306 26.4318 101.392 26.4126 101.476 26.3828C102.363 26.0571 102.449 25.9258 102.261 24.9522C102.175 24.5021 102.099 24.0118 101.867 23.6476C101.372 22.8701 99.7897 22.6267 99.1105 23.2239C98.949 23.3674 98.9506 23.8367 99.01 24.1239C99.1221 24.6562 99.066 25.094 98.6457 25.4232C98.2039 25.7699 97.7358 25.875 97.2198 25.5773C96.5094 25.1623 96.4632 24.0644 97.1341 23.3587C97.8034 22.6548 98.6309 22.2905 99.5111 22.1207C100.553 21.9123 101.626 21.9718 102.64 22.2975C103.606 22.6162 104.339 23.6844 104.38 24.9259C104.415 26.0308 104.38 27.1375 104.374 28.2424C104.374 29.0304 104.356 29.8167 104.374 30.6047C104.389 31.3489 104.656 31.6028 105.346 31.6185C105.605 31.6255 105.861 31.6623 106.151 31.6886V32.41C105.465 32.748 104.766 32.9914 104.014 32.8705C103.263 32.7497 102.627 32.382 102.328 31.4557ZM102.353 27.0815C100.986 27.3459 99.8375 27.7329 98.9193 28.6627C98.3424 29.2493 98.255 30.004 98.5287 30.7815C98.7858 31.5187 99.3792 31.6518 100.032 31.6308C100.172 31.6308 100.314 31.643 100.454 31.6308C101.029 31.6028 102.144 30.9356 102.177 30.5118C102.267 29.4209 102.292 28.3265 102.358 27.0815H102.353Z" fill="#21232A"/>
<path d="M64.9482 26.8195C64.6977 26.8353 64.4718 26.858 64.2493 26.8598C62.3668 26.8598 60.486 26.8738 58.6052 26.8598C58.1569 26.8598 57.9821 26.9824 58.0168 27.5059C58.0942 28.6862 58.2525 29.8156 59.0668 30.7174C59.5745 31.297 60.2849 31.628 61.0284 31.6315C61.9613 31.6612 62.8745 31.656 63.58 30.8803C63.8965 30.5335 64.1619 30.1396 64.4751 29.7368L65.235 30.1553C64.7125 31.1972 64.0152 31.9817 63.0691 32.4195C61.0317 33.358 59.0783 33.1321 57.3228 31.6542C56.6354 31.0746 56.2415 30.2289 56.0074 29.3341C55.4601 27.252 55.7255 25.3083 57.0953 23.6553C58.3085 22.1932 59.8976 21.8675 61.6531 22.0934C63.7581 22.363 65.2894 24.4871 64.9482 26.8195ZM62.746 25.8372C62.8201 24.1736 62.0784 22.9706 61.0218 22.9706C59.0899 22.9706 57.997 24.0143 58.0777 25.8372H62.746Z" fill="#21232A"/>
<path d="M24.93 37.2226C18.6546 37.3102 13.5776 31.8083 13.6056 25.1227C13.632 18.4949 18.8771 13.1541 24.9497 13.1768C31.0784 13.1961 36.0351 18.5281 36.2296 24.7672C36.4439 31.8048 31.0257 37.3645 24.93 37.2226ZM31.235 25.2207C29.7284 24.487 28.4773 23.6658 27.424 22.5433C26.369 21.4192 25.591 20.0726 24.9448 18.5877C22.6156 22.5784 23.1514 22.4208 18.6661 25.2645C20.1035 25.8914 21.3678 26.7284 22.4145 27.8684C23.4909 29.0503 24.3431 30.4425 24.925 31.9676C26.1844 28.7719 28.2317 26.5936 31.235 25.2207ZM25.7706 35.5206C28.4839 35.2369 30.6136 34.0094 32.3164 31.9396C33.6647 30.3216 34.4659 28.2694 34.5977 26.1103C32.2076 26.4062 30.1966 27.3133 28.563 29.0626C26.9278 30.8137 26.0278 32.9412 25.7706 35.5206ZM15.2144 26.1208C15.5029 28.9505 16.6122 31.2742 18.6035 33.0883C20.1068 34.4822 21.986 35.3315 23.9706 35.5153C23.9871 31.8311 21.0068 26.6881 15.2177 26.1208H15.2144ZM24.0003 15.0067C20.5436 14.2572 15.0677 20.0551 15.2589 24.2174C18.8755 24.8985 24.3448 19.1568 24.0003 15.0067ZM25.7756 15.0067C26.0294 17.4652 26.8915 19.577 28.5136 21.3088C30.1702 23.0757 32.1763 24.0598 34.517 24.2874C35.112 20.435 29.4812 14.4271 25.7756 15.0032V15.0067Z" fill="white"/>
<path d="M31.2349 25.22C28.2316 26.5928 26.1843 28.7712 24.9249 31.9669C24.343 30.4417 23.4908 29.0496 22.4144 27.8676C21.3677 26.7207 20.1034 25.8907 18.666 25.2638C23.1513 22.42 22.6155 22.5776 24.9447 18.5869C25.5909 20.0718 26.364 21.4149 27.4239 22.5426C28.4821 23.6703 29.7283 24.4863 31.2349 25.22Z" fill="#D6171F"/>
<path d="M25.7715 35.5206C26.0303 32.9413 26.9221 30.8172 28.5605 29.0627C30.199 27.3081 32.2051 26.4063 34.5953 26.1104C34.4651 28.2694 33.6623 30.3217 32.3139 31.9397C30.6144 34.0095 28.4847 35.237 25.7715 35.5206Z" fill="#D6171F"/>
<path d="M15.2178 26.1201C21.0069 26.684 23.9872 31.8304 23.9806 35.5146C21.9959 35.3308 20.1168 34.4815 18.6134 33.0877C16.6172 31.2735 15.5079 28.9499 15.2178 26.1201Z" fill="#D6171F"/>
<path d="M24.0009 15.0064C24.3454 19.1564 18.8761 24.8982 15.2629 24.2171C15.0683 20.0548 20.5443 14.2569 24.0009 15.0064Z" fill="#D6171F"/>
<path d="M25.7754 15.0024C29.481 14.4263 35.1118 20.4343 34.5168 24.2779C32.1761 24.0538 30.17 23.0679 28.5134 21.3011C26.8913 19.5728 26.0276 17.461 25.7754 15.0024Z" fill="#D6171F"/>
</svg>
