<svg width="144" height="50" viewBox="0 0 144 50" fill="none" xmlns="http://www.w3.org/2000/svg">
<rect width="144" height="50" rx="4" fill="white"/>
<path fill-rule="evenodd" clip-rule="evenodd" d="M115.993 34.0452C115.225 34.6672 113.995 34.9819 112.316 34.9819C111.324 34.9819 110.753 34.618 110.597 33.8829C110.527 33.3197 110.501 32.7528 110.52 32.1864V24.5643H112.879C114.67 24.5643 115.886 25.2306 116.556 26.5682C116.997 27.4648 117.217 28.8622 117.215 30.7603C117.215 32.2749 116.81 33.3641 115.993 34.0329V34.0452ZM110.526 15.6465C110.526 15.0343 110.663 14.604 110.933 14.3606C111.204 14.1171 111.674 14.0016 112.355 14.0016C113.707 14.0016 114.663 14.2098 115.225 14.6261C115.857 15.0867 116.173 15.9063 116.173 17.0848V19.7894C116.173 22.1908 114.827 23.3915 112.136 23.3915H110.526V15.6465V15.6465ZM122.868 27.1091C122.462 26.3583 121.836 25.7215 121.058 25.2675C119.737 24.5024 118.295 23.9221 116.78 23.5464V23.48C117.592 23.3009 118.381 23.0488 119.136 22.7276C121.232 21.7048 122.281 20.2197 122.283 18.2724C122.299 17.166 121.849 16.0951 121.022 15.2752C120.211 14.4479 119.151 13.8501 117.969 13.5541C117.707 13.4475 117.432 13.3699 117.149 13.323L116.507 13.2222C116.406 13.2 116.326 13.1779 116.25 13.1558H115.889L115.32 13.1435C113.727 13.0249 112.127 12.9798 110.529 13.0083H101.508V13.7164C103.556 13.7164 104.58 14.6704 104.578 16.5783V32.3781C104.578 34.2861 103.555 35.2401 101.508 35.2401V35.9482H114.686C115.761 35.9728 116.833 35.8229 117.849 35.5056C119.111 35.0576 120.295 34.4481 121.364 33.696C122.742 32.7551 123.43 31.3127 123.428 29.3686C123.441 28.5858 123.247 27.8114 122.862 27.1091H122.868Z" fill="#4956DA"/>
<path fill-rule="evenodd" clip-rule="evenodd" d="M91.3817 24.9599H82.9772V32.3749C82.9772 34.2834 83.9346 35.2376 85.8495 35.2376V35.9459H74.5292V35.2425C76.4458 35.2425 77.4032 34.2883 77.4015 32.3798V16.571C77.4015 14.6625 76.4441 13.7083 74.5292 13.7083V13H85.8495V13.7083C83.9329 13.7083 82.9755 14.6625 82.9772 16.571V23.3121H91.3817V16.571C91.3817 14.6625 90.4243 13.7083 88.5094 13.7083V13H99.822V13.7083C97.9054 13.7083 96.948 14.6625 96.9497 16.571V32.3749C96.9531 34.2866 97.9105 35.2425 99.822 35.2425V35.9508H88.5069V35.2425C90.4234 35.2425 91.3817 34.2866 91.3817 32.3749V24.9599Z" fill="#4956DA"/>
<path fill-rule="evenodd" clip-rule="evenodd" d="M70.1459 13.0101V20.624H69.4189L68.2674 18.1442C67.7742 17.0903 67.0324 16.1594 66.0996 15.4241C65.0262 14.5741 63.6657 14.1245 62.2709 14.1589C60.8717 14.1589 59.8237 14.622 59.1268 15.5481C58.6637 16.1314 58.4089 16.8408 58.3998 17.5724C58.3821 18.4387 58.6845 19.2834 59.2541 19.9585C59.9864 20.8425 61.2812 21.6016 63.1385 22.2359C65.8555 23.1603 67.8897 24.3175 69.2411 25.7075C70.4806 26.934 71.1681 28.574 71.1568 30.2774C71.1568 32.9393 70.0743 34.9206 67.9092 36.2212C66.3844 37.1322 64.4263 37.5885 62.0348 37.5902C61.2173 37.5628 60.4068 37.4361 59.6229 37.2131C57.5162 36.6463 56.2612 36.3629 55.8579 36.3629C55.7014 36.3629 55.5554 36.4667 55.4148 36.6691L55.306 36.9753L55.1654 37.5522H54.2951V29.1261H55.1309L55.8924 31.5653C56.184 32.3589 56.6285 33.0935 57.2031 33.7313C57.7489 34.3972 58.3892 34.9874 59.1055 35.4849C59.9722 36.1043 61.0209 36.4486 62.1038 36.4692C65.4274 36.4692 67.0884 35.1998 67.0866 32.661C67.0866 31.4093 66.1819 30.2234 64.3723 29.1033C63.8417 28.7794 62.3762 28.0802 59.9758 27.0056C58.0814 26.1622 56.6786 25.0522 55.7677 23.6756C55.026 22.5987 54.6261 21.3405 54.6162 20.0521C54.6162 17.8727 55.3971 16.1124 56.959 14.7713C58.1919 13.6535 59.8218 13.0209 61.5227 13H61.7349C62.8059 13.0017 63.8719 13.1378 64.9056 13.4049L68.2063 14.288C68.4319 14.288 68.668 14.1058 68.9148 13.7287L69.3101 13L70.1459 13.0101Z" fill="#4956DA"/>
<path fill-rule="evenodd" clip-rule="evenodd" d="M20.6629 13.0076H33.3504L33.1126 13.1621C30.6535 14.7727 29.2371 16.1352 28.5498 17.328C27.8625 18.5208 27.9095 19.5135 28.3616 20.4353C28.7146 21.097 29.1802 21.6963 29.7388 22.208C30.3294 22.7753 31.0141 23.3248 31.704 23.882C32.3939 24.4391 33.0498 24.9608 33.6431 25.5281C34.2243 26.0578 34.7203 26.669 35.1143 27.3413C35.7755 28.5544 35.8591 29.932 34.8034 31.6034C33.7476 33.2749 31.6073 35.2021 27.7919 37.575L27.7449 37.5902H20.5714V13.0253L20.6629 13.0076ZM39.8496 13.0076L39.8287 13.0228C37.1135 14.8082 35.5847 16.315 34.887 17.6091C34.1892 18.9032 34.3121 20.058 34.9209 21.0785C35.6631 22.3194 37.1161 23.3957 38.5952 24.4898C39.3348 25.0368 40.0796 25.5888 40.7433 26.1637C41.3827 26.6927 41.9437 27.3045 42.4106 27.982C43.145 29.1014 43.3801 30.3676 42.6589 31.8871C41.9376 33.4065 40.2364 35.235 37.1057 37.4256L36.8887 37.5826H49.2365V13.0177L39.8496 13.0076ZM35.3129 13.0076L35.292 13.0203C32.4174 14.793 30.7319 16.2897 29.9008 17.5787C29.0698 18.8677 29.0724 20.0174 29.5716 21.0355C29.9236 21.6984 30.3903 22.298 30.9514 22.8082C31.5315 23.3679 32.2057 23.9098 32.8852 24.4568C33.5647 25.0039 34.2519 25.5534 34.8556 26.1308C35.4378 26.6597 35.9339 27.271 36.3269 27.944C36.9384 29.0634 37.0377 30.3321 36.1518 31.8567C35.2659 33.3812 33.3504 35.2173 29.9688 37.4281L29.7231 37.5851H31.1813L31.231 37.5699C35.0699 35.1413 37.0821 33.1736 37.9576 31.5097C38.833 29.8459 38.5665 28.4505 37.8348 27.2248C37.4064 26.5493 36.8782 25.9384 36.2668 25.4116C35.6448 24.8418 34.9445 24.2998 34.2519 23.7629C32.8199 22.6563 31.4113 21.5673 30.7423 20.3239C30.2589 19.4223 30.2928 18.4195 31.0036 17.2545C31.7145 16.0896 33.1309 14.7221 35.3887 13.1646L35.6109 13.0101L35.3129 13.0076ZM34.8844 37.5724L34.934 37.5547C38.4829 35.1894 40.4219 33.2495 41.2817 31.5958C42.1415 29.9421 41.9245 28.5569 41.1353 27.3413C40.6683 26.6685 40.1092 26.0602 39.4733 25.5331C38.8174 24.9633 38.0882 24.4239 37.3591 23.8845C35.867 22.7778 34.3931 21.6863 33.6483 20.4429C33.353 19.9802 33.1848 19.4521 33.1596 18.9086C33.1344 18.3652 33.2532 17.8245 33.5045 17.3381C34.0533 16.1605 35.2999 14.8208 37.529 13.2406L37.6806 13.1444L37.9132 13H37.5839L37.4166 13.1038C34.8216 14.793 33.2093 16.2415 32.3678 17.5103C31.5263 18.7791 31.4531 19.9313 31.9915 20.9342C32.6605 22.1751 34.0533 23.2539 35.4671 24.3454C36.8757 25.4369 38.3104 26.5436 39.0761 27.8326C39.7529 28.9722 40.0351 30.241 39.3113 31.7782C38.5874 33.3154 36.8156 35.1615 33.4131 37.4129L33.1831 37.5699L34.8844 37.5724Z" fill="#F58220"/>
</svg>
