<svg width="144" height="50" viewBox="0 0 144 50" fill="none" xmlns="http://www.w3.org/2000/svg">
<rect width="144" height="50" rx="4" fill="white"/>
<path d="M24.3659 16.5828C19.7536 16.5828 16 20.3363 16 24.9486C16 29.5609 19.7536 33.3145 24.3659 33.3145C28.9782 33.3145 32.7317 29.5609 32.7317 24.9486C32.7317 20.3363 28.992 16.5828 24.3659 16.5828ZM24.5459 31.7909C23.5487 31.9294 21.9143 31.6801 20.8062 30.9737C19.9752 30.4612 19.3103 29.6994 18.8948 28.813C18.507 28.0235 18.3269 27.0539 18.7425 27.1093C18.9364 27.137 19.1026 27.4972 19.4627 27.9681C19.712 28.2867 19.9475 28.5637 20.1137 28.5914C20.1968 28.6052 20.2522 28.5775 20.3076 28.4667C20.4184 28.2728 20.5569 27.885 20.8062 27.5803C21.0001 27.3448 21.2633 27.234 21.4018 27.8019C21.4711 28.0789 21.5126 28.3559 21.5542 28.6329C21.5957 28.993 21.6234 29.2147 21.7481 29.2701C21.8727 29.3255 22.0666 29.2562 22.3991 29.1316C22.6345 29.0484 22.9392 28.9376 23.3271 28.8268C23.6872 28.7299 23.9088 28.7853 23.6733 29.3255C23.521 29.6856 23.3132 30.0319 23.0777 30.3504C23.0085 30.4335 23.0223 30.5582 23.1054 30.6274C23.3271 30.8075 23.5764 30.946 23.8395 31.043C24.0888 31.1538 24.3382 31.2369 24.6013 31.3061C24.9199 31.4169 24.8645 31.7355 24.5459 31.7909ZM28.8397 29.9903C28.5349 30.5028 27.8701 31.043 27.0806 31.4169C26.956 31.4723 26.8313 31.4585 26.8036 31.3615C26.7759 31.2646 26.8451 31.1815 26.9144 31.0845C27.9394 29.741 27.1776 28.5221 25.5155 27.5664C24.2828 26.86 23.5071 26.4584 22.593 25.9182C19.9336 24.3392 19.4211 22.9818 19.3242 22.1785C19.061 20.1424 20.7508 18.605 22.4822 18.2449C22.5376 18.231 22.6761 18.2172 22.7176 18.328C22.7592 18.4388 22.6622 18.5219 22.6068 18.5634C21.8312 18.9928 21.0694 19.8931 21.1525 20.9042C21.194 21.4721 21.4433 22.2754 22.9669 23.3558C23.8811 24.0068 25.0168 24.547 27.2745 25.9043C29.6569 27.3448 29.3798 29.09 28.8397 29.9903ZM29.2136 22.3308C28.6734 22.9957 28.1194 22.7464 27.7039 21.8045C27.4407 21.2089 27.0945 21.0704 26.8451 21.2228C26.582 21.389 26.6789 21.7907 26.9837 22.2616C27.1499 22.5386 27.1222 22.8987 26.8867 23.1342C26.6374 23.3696 26.2773 23.4527 25.9448 23.3558C25.2662 23.2034 24.6013 22.3031 25.0861 20.3225C25.28 19.533 24.906 19.1867 24.6567 18.882C24.5321 18.7296 24.5182 18.6327 24.5598 18.5773C24.6013 18.5219 24.726 18.508 24.9199 18.5496C25.1831 18.605 25.5709 18.7435 25.8756 18.785C26.1111 18.8127 26.3327 18.8266 26.5681 18.8127C27.1499 18.7712 27.7177 18.882 28.2441 19.1452C29.1028 19.5745 29.1859 20.3086 28.715 20.2532C28.5211 20.1978 28.3272 20.1286 28.161 20.0178C28.0502 19.9623 27.9394 19.9485 27.8701 19.9901C27.787 20.0593 27.7731 20.1701 27.8147 20.2532C27.9255 20.4748 28.2856 20.5995 28.7704 20.7241C29.643 20.9873 29.6569 21.7907 29.2136 22.3308Z" fill="#0046FF"/>
<path d="M24.5459 31.7909C23.5486 31.9294 21.9142 31.6801 20.8062 30.9737C19.9751 30.4612 19.3103 29.6994 18.8948 28.813C18.507 28.0235 18.3269 27.054 18.7424 27.1094C18.9363 27.1371 19.1025 27.4972 19.4627 27.9681C19.712 28.2867 19.9474 28.5637 20.1136 28.5914C20.1968 28.6052 20.2522 28.5775 20.3076 28.4667C20.4184 28.2728 20.5569 27.885 20.8062 27.5803C21.0001 27.3448 21.2633 27.234 21.4018 27.8019C21.471 28.0789 21.5126 28.3559 21.5541 28.6329C21.5957 28.9931 21.6234 29.2147 21.748 29.2701C21.8727 29.3255 22.0666 29.2562 22.399 29.1316C22.6345 29.0485 22.9392 28.9377 23.327 28.8268C23.6871 28.7299 23.9088 28.7853 23.6733 29.3255C23.5209 29.6856 23.3132 30.0319 23.0777 30.3504C23.0085 30.4335 23.0223 30.5582 23.1054 30.6274C23.327 30.8075 23.5763 30.946 23.8395 31.043C24.0888 31.1538 24.3381 31.2369 24.6013 31.3061C24.9199 31.4169 24.8645 31.7355 24.5459 31.7909ZM28.8396 29.9903C28.5349 30.5028 27.8701 31.043 27.0806 31.4169C26.9559 31.4723 26.8313 31.4585 26.8036 31.3615C26.7759 31.2646 26.8451 31.1815 26.9144 31.0845C27.9393 29.741 27.1775 28.5221 25.5154 27.5664C24.2827 26.86 23.5071 26.4584 22.5929 25.9182C19.9336 24.3392 19.4211 22.9818 19.3242 22.1785C19.061 20.1424 20.7508 18.605 22.4821 18.2449C22.5375 18.231 22.676 18.2172 22.7176 18.328C22.7591 18.4388 22.6622 18.5219 22.6068 18.5634C21.8311 18.9928 21.0694 19.8931 21.1525 20.9042C21.194 21.4721 21.4433 22.2754 22.9669 23.3558C23.8811 24.0068 25.0168 24.547 27.2745 25.9043C29.6568 27.3448 29.3798 29.09 28.8396 29.9903ZM29.2136 22.3308C28.6734 22.9957 28.1194 22.7464 27.7039 21.8045C27.4407 21.2089 27.0944 21.0704 26.8451 21.2228C26.582 21.389 26.6789 21.7907 26.9836 22.2616C27.1498 22.5386 27.1221 22.8987 26.8867 23.1342C26.6374 23.3696 26.2772 23.4528 25.9448 23.3558C25.2661 23.2034 24.6013 22.3031 25.0861 20.3225C25.28 19.533 24.906 19.1867 24.6567 18.882C24.532 18.7296 24.5182 18.6327 24.5597 18.5773C24.6013 18.5219 24.726 18.508 24.9199 18.5496C25.183 18.605 25.5708 18.7435 25.8756 18.785C26.111 18.8127 26.3326 18.8266 26.5681 18.8127C27.1498 18.7712 27.7177 18.882 28.244 19.1452C29.1028 19.5745 29.1859 20.3086 28.715 20.2532C28.5211 20.1978 28.3272 20.1286 28.1609 20.0178C28.0501 19.9624 27.9393 19.9485 27.8701 19.9901C27.787 20.0593 27.7731 20.1701 27.8147 20.2532C27.9255 20.4748 28.2856 20.5995 28.7704 20.7242C29.643 20.9873 29.6568 21.7907 29.2136 22.3308Z" fill="white"/>
<path d="M36.3745 27.8987C36.5823 28.0649 36.8039 28.2173 37.0393 28.3281C37.2887 28.4528 37.538 28.5636 37.8011 28.6467C38.0505 28.7298 38.3136 28.799 38.5768 28.8406C38.8122 28.8821 39.0477 28.9098 39.2832 28.9098C39.8234 28.9098 40.2389 28.799 40.5436 28.5774C40.8483 28.3558 41.0007 28.0234 41.0007 27.5663C41.0145 27.2616 40.9314 26.9569 40.7514 26.6937C40.5851 26.4582 40.2804 26.2228 39.8511 26.0012C39.6017 25.8765 39.3524 25.7519 39.1308 25.6411C38.9092 25.5302 38.6876 25.4333 38.466 25.3086C38.2444 25.184 38.0505 25.0732 37.8565 24.9485C37.6488 24.8239 37.4549 24.6715 37.2748 24.5191C36.9424 24.2283 36.6515 23.8682 36.4299 23.4803C36.1945 23.051 36.0836 22.5662 36.0975 22.0814C36.0975 21.7213 36.1668 21.3612 36.333 21.0287C36.4853 20.7102 36.7208 20.4193 36.9978 20.1977C37.3164 19.9622 37.6765 19.7683 38.0643 19.6575C38.5214 19.519 39.0062 19.4636 39.4771 19.4636C40.5159 19.4498 41.5547 19.6437 42.5243 20.0453V21.7074C42.5381 21.8044 42.4827 21.9013 42.3857 21.9429C42.2888 21.9706 42.178 21.9429 42.1087 21.8736C41.4577 21.2919 40.6128 20.9733 39.7402 20.9595C39.2693 20.9595 38.9092 21.0564 38.646 21.2642C38.3967 21.472 38.2582 21.7767 38.2721 22.1091C38.2721 22.3307 38.3136 22.5662 38.3967 22.7739C38.4937 22.9679 38.6183 23.1341 38.7984 23.2587C39.1308 23.5357 39.4909 23.7712 39.8788 23.9651C40.2666 24.1729 40.6405 24.3529 41.0007 24.533C41.3192 24.6715 41.624 24.8516 41.9148 25.0455C42.178 25.2255 42.3996 25.4333 42.5935 25.6826C42.7874 25.9181 42.9259 26.1951 43.0229 26.4859C43.1198 26.8322 43.1752 27.1923 43.1614 27.5525C43.1752 27.9957 43.0783 28.4389 42.8705 28.8406C42.6766 29.2007 42.3857 29.5054 42.0533 29.727C41.6794 29.9763 41.2638 30.1425 40.8206 30.2395C40.322 30.3503 39.8234 30.4057 39.3109 30.4057C38.8954 30.4057 38.4798 30.3503 38.0782 30.2672C37.6903 30.1841 37.3025 30.0733 36.9424 29.9348C36.6515 29.824 36.3884 29.6716 36.1529 29.4777C35.959 29.3115 35.9036 29.1453 35.9728 28.9791L36.3745 27.8987Z" fill="#0046FF"/>
<path d="M44.3526 19.6577H46.6102V23.342C46.8872 23.1066 47.2058 22.9265 47.5521 22.788C47.9122 22.6495 48.3139 22.5664 48.7017 22.5802C49.0895 22.5802 49.4635 22.6356 49.8236 22.7465C50.1422 22.8434 50.433 23.0096 50.6962 23.2312C50.9317 23.439 51.1256 23.6883 51.2502 23.9792C51.3887 24.2839 51.458 24.6163 51.4441 24.9487V30.2536H49.3804V25.198C49.3804 24.4639 48.9787 24.1038 48.1754 24.1038C47.8984 24.1038 47.6352 24.1592 47.3859 24.27C47.1089 24.3947 46.8457 24.5332 46.6102 24.7133V30.2259H44.5326V20.9736C44.5326 20.7935 44.5188 20.6134 44.4634 20.4334C44.408 20.281 44.311 20.1287 44.2002 20.0179C44.1309 19.9486 44.1032 19.8516 44.1448 19.7547C44.1863 19.6854 44.2695 19.6439 44.3526 19.6577Z" fill="#0046FF"/>
<path d="M55.3361 22.8156V30.2257H53.2585V24.1175C53.2585 23.9375 53.2447 23.7713 53.1893 23.605C53.1339 23.4527 53.0369 23.3142 52.9261 23.2034C52.8568 23.1341 52.8291 23.0372 52.8568 22.9402C52.8845 22.8571 52.9676 22.8156 53.0507 22.8156H55.3361ZM55.4192 20.4748C55.4331 20.8072 55.2946 21.1396 55.0591 21.3751C54.5466 21.846 53.771 21.846 53.2585 21.3751C53.023 21.1396 52.8984 20.8072 52.9122 20.4748C52.8984 20.1424 53.023 19.8099 53.2585 19.5745C53.771 19.1035 54.5466 19.1035 55.0591 19.5745C55.2946 19.8099 55.4192 20.1285 55.4192 20.4748Z" fill="#0046FF"/>
<path d="M57.0122 22.8155H59.2145V23.5357C59.4915 23.2726 59.7962 23.0371 60.1286 22.8432C60.5026 22.6354 60.9181 22.5385 61.3336 22.5523C61.7076 22.5523 62.0816 22.6077 62.4278 22.7186C62.7464 22.8155 63.0511 22.9817 63.3004 23.2033C63.5497 23.4111 63.7575 23.6881 63.8822 23.9928C64.0345 24.3252 64.1038 24.6992 64.0899 25.0732V30.2257H62.0262V25.2532C62.0262 24.8377 61.9292 24.5191 61.7491 24.3391C61.5691 24.159 61.2505 24.0621 60.835 24.0621C60.558 24.0621 60.281 24.1175 60.0178 24.2283C59.7546 24.3529 59.5053 24.5191 59.2837 24.7131V30.2257H57.2061V24.1452C57.2061 23.9651 57.1923 23.7851 57.1368 23.605C57.0814 23.4526 56.9845 23.3141 56.8737 23.2033C56.7906 23.1064 56.7629 23.0233 56.8044 22.9402C56.846 22.8571 56.9291 22.8155 57.0122 22.8155Z" fill="#0046FF"/>
<path d="M65.6826 19.6577H67.9403V23.342C68.2173 23.1066 68.5359 22.9265 68.8821 22.788C69.2422 22.6495 69.6301 22.5802 70.0179 22.5802C70.4057 22.5802 70.7797 22.6356 71.1398 22.7465C71.4584 22.8434 71.7492 23.0096 72.0124 23.2312C72.2479 23.439 72.4418 23.6883 72.5664 23.9792C72.7049 24.2839 72.7742 24.6163 72.7603 24.9487V30.2536H70.6966V25.198C70.6966 24.4639 70.2949 24.1038 69.4916 24.1038C69.2145 24.1038 68.9514 24.1592 68.7021 24.27C68.425 24.3947 68.1757 24.5332 67.9264 24.7133V30.2259H65.8488V20.9736C65.8488 20.7935 65.835 20.6134 65.7795 20.4334C65.7241 20.281 65.6272 20.1425 65.5164 20.0179C65.4333 19.9209 65.4194 19.8378 65.461 19.7547C65.5164 19.6854 65.5995 19.6439 65.6826 19.6577Z" fill="#0046FF"/>
<path d="M77.4696 23.9514C77.0541 23.9514 76.6524 24.0207 76.2646 24.173C75.9045 24.3115 75.5582 24.4916 75.2258 24.6994C75.0735 24.7963 74.9626 24.824 74.8795 24.7825C74.7964 24.7409 74.7549 24.644 74.7549 24.4916V23.1204C75.1981 22.9265 75.6552 22.8018 76.14 22.7187C76.6247 22.6356 77.1095 22.5802 77.5943 22.5802C78.6192 22.5802 79.4087 22.7741 79.9766 23.1758C80.5445 23.5774 80.8215 24.1869 80.8215 25.0041V30.2397H78.7855V29.4363C78.5084 29.7826 78.1622 30.0596 77.7605 30.2258C77.3588 30.392 76.9294 30.4751 76.5001 30.4751C76.1538 30.4751 75.8075 30.4197 75.489 30.3089C74.9072 30.1012 74.4363 29.6579 74.2009 29.0901C74.0762 28.7853 74.0069 28.4668 74.0208 28.1344C74.0208 27.3449 74.2978 26.7216 74.8518 26.2506C75.4059 25.7936 76.2646 25.5581 77.4281 25.5581H78.7716V25.0041C78.7716 24.6301 78.6608 24.3669 78.4392 24.2007C78.2176 24.0345 77.8852 23.9514 77.4696 23.9514ZM78.7439 26.9293H77.4004C76.8879 26.9293 76.5278 27.0401 76.3062 27.2479C76.0846 27.4695 75.9737 27.7742 75.9876 28.0789C75.9737 28.3421 76.0707 28.5914 76.2369 28.7853C76.417 28.9792 76.6801 29.0762 76.9433 29.0624C77.2896 29.0624 77.6358 28.9931 77.9406 28.8269C78.2453 28.6745 78.5223 28.4529 78.7439 28.2036V26.9293Z" fill="#0046FF"/>
<path d="M82.3452 22.8155H84.5474V23.5357C84.8245 23.2726 85.1292 23.0371 85.4616 22.8432C85.8356 22.6354 86.2511 22.5385 86.6666 22.5523C87.0406 22.5523 87.4145 22.6077 87.7608 22.7186C88.0794 22.8155 88.3841 22.9817 88.6334 23.2033C88.8827 23.4111 89.0905 23.6881 89.2151 23.9928C89.3675 24.3252 89.4368 24.6992 89.4229 25.0732V30.2257H87.3591V25.2532C87.3591 24.8377 87.2622 24.5191 87.0821 24.3391C86.9021 24.1452 86.5835 24.0621 86.168 24.0621C85.891 24.0621 85.6139 24.1175 85.3508 24.2283C85.0738 24.3529 84.8245 24.5191 84.6167 24.7131V30.2257H82.5391V24.1452C82.5391 23.9651 82.5252 23.7851 82.4698 23.605C82.4144 23.4526 82.3175 23.3141 82.2067 23.2033C82.1236 23.1064 82.0959 23.0233 82.1374 22.9402C82.1651 22.8571 82.2621 22.8017 82.3452 22.8155Z" fill="#0046FF"/>
<path d="M93.8413 19.9486H97.4702C97.9688 19.9486 98.4536 20.004 98.9384 20.1286C99.3401 20.2256 99.714 20.4057 100.046 20.6411C100.337 20.8489 100.587 21.1398 100.753 21.4583C100.919 21.7907 101.016 22.1647 101.002 22.5387C101.002 23.5359 100.614 24.27 99.8387 24.741C100.337 24.921 100.781 25.2396 101.099 25.6551C101.404 26.0568 101.556 26.6108 101.556 27.2895C101.57 27.7327 101.473 28.1759 101.279 28.5638C101.085 28.9377 100.822 29.2424 100.476 29.4918C100.102 29.7549 99.6725 29.935 99.2293 30.0458C98.7029 30.1704 98.1627 30.2397 97.6226 30.2259H94.0352V21.2783C94.0352 21.0982 94.0214 20.9181 93.966 20.7381C93.9106 20.5857 93.8136 20.4472 93.7028 20.3364C93.6335 20.2672 93.6058 20.1702 93.6335 20.0732C93.6751 19.9763 93.7582 19.9347 93.8413 19.9486ZM96.1959 24.1315H97.3317C97.8303 24.1315 98.2181 24.0346 98.4675 23.8268C98.7168 23.619 98.8553 23.2728 98.8553 22.7741C98.8553 22.2755 98.7168 21.9154 98.4536 21.7076C98.1904 21.4999 97.7888 21.4029 97.2763 21.4029H96.1821L96.1959 24.1315ZM99.3401 27.1648C99.3401 26.6108 99.1877 26.2091 98.883 25.9598C98.5783 25.7105 98.1212 25.5858 97.4979 25.5858H96.1959V28.7438H97.5118C98.135 28.7438 98.5921 28.6192 98.8968 28.356C99.2015 28.0928 99.3401 27.7189 99.3401 27.1648Z" fill="#0046FF"/>
<path d="M105.878 23.9514C105.462 23.9514 105.06 24.0207 104.673 24.173C104.312 24.3115 103.966 24.4916 103.634 24.6994C103.481 24.7963 103.371 24.824 103.287 24.7825C103.204 24.7409 103.177 24.644 103.177 24.4916V23.1204C103.62 22.9265 104.077 22.8018 104.548 22.7187C105.033 22.6356 105.517 22.5802 106.002 22.5802C107.027 22.5802 107.831 22.7741 108.385 23.1758C108.939 23.5774 109.216 24.1869 109.216 25.0041V30.2397H107.18V29.4363C106.903 29.7826 106.556 30.0596 106.155 30.2258C105.753 30.392 105.324 30.4751 104.894 30.4751C104.548 30.4751 104.202 30.4197 103.883 30.3089C103.592 30.1981 103.329 30.0458 103.094 29.8241C102.872 29.6164 102.706 29.3671 102.581 29.0901C102.456 28.7853 102.387 28.4668 102.401 28.1344C102.401 27.3449 102.678 26.7216 103.232 26.2506C103.786 25.7936 104.645 25.5581 105.808 25.5581H107.138V25.0041C107.138 24.6301 107.027 24.3669 106.806 24.2007C106.584 24.0345 106.293 23.9514 105.878 23.9514ZM107.152 26.9293H105.808C105.296 26.9293 104.936 27.0401 104.714 27.2479C104.493 27.4695 104.382 27.7742 104.396 28.0789C104.382 28.3421 104.465 28.5914 104.645 28.7853C104.825 28.9792 105.088 29.0762 105.351 29.0485C105.698 29.0485 106.044 28.9792 106.349 28.813C106.653 28.6607 106.93 28.4529 107.152 28.1898V26.9293Z" fill="#0046FF"/>
<path d="M110.753 22.8155H112.955V23.5357C113.232 23.2726 113.537 23.0371 113.87 22.8432C114.244 22.6354 114.659 22.5385 115.075 22.5523C115.449 22.5523 115.823 22.6077 116.169 22.7186C116.487 22.8155 116.792 22.9817 117.041 23.2033C117.291 23.4111 117.498 23.6881 117.623 23.9928C117.775 24.3252 117.845 24.6992 117.831 25.0732V30.2257H115.767V25.2532C115.767 24.8377 115.67 24.5191 115.49 24.3391C115.31 24.159 114.991 24.0621 114.576 24.0621C114.299 24.0621 114.022 24.1175 113.759 24.2283C113.496 24.3529 113.246 24.5191 113.025 24.7131V30.2257H110.947V24.1452C110.947 23.9651 110.933 23.7851 110.878 23.605C110.822 23.4526 110.725 23.3141 110.615 23.2033C110.532 23.1064 110.504 23.0233 110.545 22.9402C110.587 22.8571 110.67 22.8155 110.753 22.8155Z" fill="#0046FF"/>
<path d="M119.604 30.2256V20.9733C119.604 20.7933 119.59 20.6132 119.535 20.4332C119.479 20.2808 119.382 20.1423 119.271 20.0176C119.188 19.9207 119.174 19.8376 119.216 19.7545C119.258 19.6852 119.341 19.6298 119.424 19.6437H121.681V25.7103L124.299 22.8155H126.668L123.828 25.9735L127 30.2256H124.729L122.443 27.1369C122.36 27.0123 122.263 26.9015 122.152 26.8184C122.055 26.7768 121.958 26.7491 121.861 26.7491H121.681V30.2256H119.604Z" fill="#0046FF"/>
</svg>
