<svg width="144" height="50" viewBox="0 0 144 50" fill="none" xmlns="http://www.w3.org/2000/svg">
<rect width="144" height="50" rx="4" fill="white"/>
<path fill-rule="evenodd" clip-rule="evenodd" d="M72.3059 11.3394L67.7533 7L58.7373 15.7656L67.7533 24.6179L72.3059 20.1918L67.7533 15.7656L72.3059 11.3394Z" fill="#E7172C"/>
<path fill-rule="evenodd" clip-rule="evenodd" d="M76.77 7L72.3066 11.3394L76.8593 15.7656L72.3066 20.1918L76.77 24.6179L85.786 15.7656L76.77 7Z" fill="#E7172C"/>
<path fill-rule="evenodd" clip-rule="evenodd" d="M23.6571 35.2373H25.621V41.7463H28.0312V35.2373H29.9951V33.2411H23.6571V35.2373Z" fill="#E7172C"/>
<path fill-rule="evenodd" clip-rule="evenodd" d="M31.5123 33.2412H31.1552V41.7464H31.5123H33.4761H36.5112V39.8371H33.4761V38.4485H36.3327V36.6259H33.4761V35.1505H36.5112V33.2412H31.5123Z" fill="#E7172C"/>
<path fill-rule="evenodd" clip-rule="evenodd" d="M40.0818 37.4952C40.171 35.0651 42.9383 34.1104 44.4559 36.1065V33.5897C42.3134 32.635 40.2603 32.8954 38.7427 34.6312C37.4037 36.5405 37.5823 38.6234 38.5642 40.1856C40.171 42.0949 42.2242 42.4421 44.4559 41.4874V39.0573C43.2954 40.4459 40.2603 40.5327 40.0818 37.4952Z" fill="#E7172C"/>
<path fill-rule="evenodd" clip-rule="evenodd" d="M51.3302 36.5391H48.2058V33.2411H45.7956V41.7463H48.2058V38.2748H51.3302V41.7463H53.7404V33.2411H51.3302V36.5391Z" fill="#E7172C"/>
<path fill-rule="evenodd" clip-rule="evenodd" d="M57.5778 37.4952C57.6671 35.0651 60.4344 34.1104 61.952 36.1065V33.5897C59.8095 32.635 57.7564 32.8954 56.2388 34.6312C54.8998 36.5405 55.0784 38.6234 56.0603 40.1856C57.6671 42.0949 59.7203 42.4421 61.952 41.4874V39.0573C60.8807 40.4459 57.7564 40.5327 57.5778 37.4952Z" fill="#E7172C"/>
<path fill-rule="evenodd" clip-rule="evenodd" d="M67.6652 33.0673C65.0764 33.0673 63.0233 35.0634 63.0233 37.4935C63.0233 39.9235 65.0764 41.9197 67.6652 41.9197C70.254 41.9197 72.3071 39.9235 72.3071 37.4935C72.3071 35.0634 70.254 33.0673 67.6652 33.0673ZM67.6652 40.0971C66.4155 40.0971 65.3442 38.9689 65.3442 37.5803C65.3442 36.1917 66.4155 35.0634 67.6652 35.0634C68.9149 35.0634 69.9862 36.1917 69.9862 37.5803C69.9862 38.9689 68.9149 40.0971 67.6652 40.0971Z" fill="#E7172C"/>
<path fill-rule="evenodd" clip-rule="evenodd" d="M89.9848 37.2346C90.8775 37.061 91.5916 36.5403 91.5916 35.412C91.5916 34.2838 90.699 33.4159 88.8243 33.3291C88.1995 33.3291 87.6639 33.3291 86.6819 33.3291H85.0751V41.8343H86.5926H86.7712C87.6639 41.8343 88.378 41.8343 89.2707 41.8343C90.8775 41.8343 92.038 40.5325 91.8594 39.4043C91.9487 37.8421 91.1453 37.3213 89.9848 37.2346ZM88.378 34.9781C89.1814 34.9781 89.4492 35.3252 89.4492 35.846C89.4492 36.4535 89.0029 36.627 88.4673 36.627C88.1995 36.627 87.8424 36.627 87.3961 36.627C87.3961 36.1063 87.3961 35.4988 87.3961 34.8913C87.7531 34.9781 88.1102 34.9781 88.378 34.9781ZM88.378 40.0986C88.1102 40.0986 87.7531 40.0986 87.3068 40.0986C87.3068 39.5778 87.3068 38.7967 87.3068 38.1892C87.6639 38.1892 88.0209 38.1892 88.2887 38.1892C89.0921 38.1024 89.717 38.5364 89.717 39.1439C89.8063 39.8382 89.0029 40.0986 88.378 40.0986Z" fill="#21232A"/>
<path fill-rule="evenodd" clip-rule="evenodd" d="M96.9462 33.2411H95.4287L92.3936 41.7463H94.8038L95.2501 40.1842H98.6423L99.0886 41.7463H101.41L98.3745 33.2411H96.9462ZM95.7857 38.622L96.9462 34.6297L98.1067 38.622H95.7857Z" fill="#21232A"/>
<path fill-rule="evenodd" clip-rule="evenodd" d="M108.73 39.056C107.927 37.3202 106.052 35.1505 104.624 33.2412C104.534 33.2412 104.445 33.2412 104.356 33.2412H102.303V41.7464H104.624C104.624 39.8371 104.713 37.841 104.534 35.9316C105.427 38.0145 107.212 39.8371 108.641 41.7464H108.73H110.962V33.2412H108.641C108.641 35.1505 108.462 37.1467 108.73 39.056Z" fill="#21232A"/>
<path fill-rule="evenodd" clip-rule="evenodd" d="M120.692 33.2412H117.924L115.157 37.0599L115.068 37.1467V33.2412H112.747V41.7464H115.068V37.9278C115.961 39.2296 117.032 40.4446 117.924 41.7464C118.817 41.7464 119.888 41.7464 120.87 41.7464C119.799 40.3578 118.46 38.8824 117.389 37.407L120.692 33.2412Z" fill="#21232A"/>
<path fill-rule="evenodd" clip-rule="evenodd" d="M80.2517 33.2411L78.5556 38.8823L76.9488 33.2411H74.6278L73.2888 41.7463H75.4312L76.2346 36.1919L77.7522 41.7463H78.5556H79.4483L80.9658 36.1919L81.6799 41.7463H83.9116L82.5726 33.2411H80.2517Z" fill="#E7172C"/>
</svg>
