<svg width="144" height="50" viewBox="0 0 144 50" fill="none" xmlns="http://www.w3.org/2000/svg">
<rect width="144" height="50" rx="4" fill="white"/>
<path d="M69.7134 16.0513C67.5243 15.8785 65.3581 16.13 63.2689 16.864C62.9264 16.9844 62.8175 17.1271 62.8185 17.4718C62.8325 20.1225 62.8265 22.7731 62.8265 25.4237C62.8265 28.0909 62.8335 30.7571 62.8185 33.4242C62.8165 33.7844 62.9164 33.9 63.2929 33.8883C64.1398 33.8621 64.9896 33.8582 65.8365 33.8893C66.248 33.9048 66.3318 33.7572 66.3279 33.3922C66.3119 31.5493 66.3279 29.7075 66.3149 27.8647C66.3119 27.4714 66.3718 27.2928 66.8452 27.4326C67.2506 27.552 67.6821 27.5889 68.1185 27.5792C68.8815 27.5608 69.6255 27.4268 70.3665 27.2763C71.6408 27.018 72.8023 26.5442 73.7151 25.5966C75.4967 23.746 75.8292 20.005 73.5662 17.833C72.4607 16.7727 71.1824 16.1679 69.7134 16.0513ZM71.2064 23.1586C71.0007 23.5061 70.6981 23.7431 70.4154 24.0101C70.3795 24.1072 70.3066 24.1576 70.2047 24.1732C69.0532 24.8489 67.7869 24.7033 66.5336 24.6577C66.3119 24.6499 66.3229 24.4926 66.3229 24.347C66.3229 22.6508 66.3269 20.9536 66.3169 19.2574C66.3159 19.0302 66.4177 18.9428 66.6195 18.8971C67.6691 18.6641 68.7407 18.601 69.7553 18.934C70.8359 19.2884 71.4091 20.1341 71.502 21.2351C71.5569 21.8876 71.5669 22.5459 71.2054 23.1586H71.2064Z" fill="#A564DA"/>
<path d="M89.9091 27.4841C89.6005 26.2772 88.7177 25.5849 87.7051 25.0034C87.4334 24.847 87.0709 24.8412 86.7833 24.5596C86.9481 24.4655 87.0799 24.3723 87.2267 24.3091C88.8935 23.5965 89.4757 22.2352 89.5826 20.5934C89.6105 20.1671 89.4168 19.7739 89.3419 19.37C89.1641 18.4146 88.7137 17.6816 87.8948 17.1437C86.6485 16.3261 85.2313 16.0756 83.7743 16.0358C82.1634 15.9921 80.5895 16.265 79.0296 16.666C78.5472 16.7903 78.4943 16.9932 78.4953 17.3942C78.5063 22.2119 78.5033 27.0287 78.5003 31.8465C78.5003 32.0378 78.5033 32.2387 78.4493 32.4193C78.3335 32.8067 78.4463 33.0087 78.8558 33.1369C79.8475 33.4456 80.8352 33.7864 81.8898 33.767C82.2583 33.7602 82.5289 33.9903 82.8855 33.9854C83.8112 33.9719 84.738 34.0039 85.6478 33.7845C87.4784 33.3437 89.1452 32.6795 89.9151 30.8066C90.2117 30.0842 90.2407 29.3298 90.2087 28.5618C90.1918 28.1696 90.002 27.8414 89.9111 27.4851L89.9091 27.4841ZM80.5995 21.0235C80.5995 20.2157 80.6185 19.4069 80.5905 18.5991C80.5785 18.2505 80.7113 18.1233 81.0419 18.0515C82.48 17.7379 83.9131 17.5 85.3672 17.966C86.2879 18.2612 87.006 18.8574 87.3495 19.6856C87.9767 21.1944 87.0669 22.9712 85.5259 23.6091C85.0676 23.7984 84.5922 23.8392 84.1328 23.8654C83.0892 23.9256 82.0386 23.878 80.992 23.8916C80.6844 23.8955 80.5905 23.7868 80.5955 23.4955C80.6105 22.6712 80.6005 21.8469 80.6005 21.0225L80.5995 21.0235ZM87.9527 29.7813C87.8738 30.4736 87.2696 30.8503 86.7903 31.2853C86.7543 31.3843 86.6784 31.4368 86.5756 31.4552C85.8725 31.9154 85.1055 32.2193 84.2526 32.2242C83.4128 32.229 82.5719 32.195 81.733 32.1426C81.4044 32.1222 81.0818 32.0018 80.7563 31.9319C80.5645 31.8911 80.6025 31.7436 80.6025 31.6232C80.5995 29.7143 80.6045 27.8064 80.5955 25.8976C80.5945 25.616 80.7183 25.5529 80.98 25.5296C82.3062 25.4112 83.6295 25.4335 84.9407 25.6432C87.4304 26.0432 88.2054 27.5695 87.9527 29.7794V29.7813Z" fill="#A564DA"/>
<path d="M59.0813 16.0205C55.3872 16.0283 51.6931 16.0302 47.999 16.0186C47.6325 16.0176 47.5496 16.1506 47.5596 16.473C47.5796 17.1196 47.5656 17.7662 47.5656 18.4138C47.5656 19.1469 47.5646 19.1333 48.3026 19.0469C48.6312 19.0081 48.9697 19.0605 49.2993 19.0284C49.7996 18.9799 50.279 19.2129 50.7793 19.11C51.775 18.9061 51.785 18.9148 51.785 19.8965C51.785 24.2958 51.783 28.6941 51.786 33.0934C51.786 34.0235 51.7091 33.8691 52.5689 33.8788C53.284 33.8876 54.001 33.8546 54.7151 33.8895C55.1665 33.9119 55.3103 33.7847 55.3063 33.3312C55.2833 31.0515 55.2953 28.7708 55.2953 26.4901C55.2953 24.1773 55.3033 21.8645 55.2873 19.5518C55.2843 19.1615 55.3832 19.0119 55.8126 19.0236C56.8932 19.0517 57.9758 19.0187 59.0563 19.042C59.3929 19.0488 59.4958 18.942 59.4908 18.6333C59.4788 17.8895 59.4778 17.1448 59.4918 16.4011C59.4978 16.1011 59.3779 16.0186 59.0803 16.0195L59.0813 16.0205Z" fill="#A564DA"/>
<path d="M127.126 33.8412C127.126 33.8305 127.127 33.8199 127.128 33.8102C127.128 33.7995 127.128 33.7888 127.13 33.7791C126.093 32.6916 125.057 31.6023 124.016 30.5187C122.998 29.4584 121.982 28.3953 120.946 27.3515C120.72 27.1243 120.762 27.0098 120.965 26.8107C121.629 26.1573 122.295 25.5068 122.937 24.831C124.232 23.4678 125.59 22.1629 126.921 20.8317C127.007 20.7463 127.155 20.6938 127.118 20.4754C126.447 20.4754 125.771 20.487 125.096 20.4696C124.806 20.4618 124.601 20.554 124.4 20.757C123.204 21.9677 121.993 23.1649 120.791 24.3698C120.421 24.7397 120.034 25.0902 119.703 25.499C119.361 25.9223 118.963 26.3029 118.591 26.7029C118.541 26.669 118.491 26.635 118.441 26.6V26.0825C118.441 23.1891 118.444 20.2958 118.438 17.4024C118.438 16.9694 118.625 16.4111 118.361 16.1344C118.069 15.8285 117.481 16.0479 117.023 16.0334C116.388 16.013 116.387 16.0285 116.387 16.6664C116.387 22.1949 116.387 27.7234 116.387 33.2519C116.387 33.349 116.394 33.4461 116.387 33.5432C116.368 33.8014 116.501 33.8791 116.748 33.8713C117.147 33.8597 117.548 33.8451 117.945 33.8752C118.342 33.9053 118.452 33.7655 118.449 33.3849C118.43 31.5421 118.439 29.6992 118.443 27.8564C118.443 27.6913 118.398 27.5137 118.507 27.3389C119.493 28.3826 120.457 29.3992 121.416 30.4206C122.395 31.4624 123.368 32.5081 124.343 33.5538C124.516 33.7393 124.7 33.8781 124.982 33.8713C125.696 33.8529 126.411 33.8519 127.126 33.8441V33.8412Z" fill="#A564DA"/>
<path d="M43.46 16.5198C43.46 16.5189 43.461 16.5189 43.461 16.5179C43.2423 16.4965 43.0945 16.6296 42.9387 16.748C41.4317 17.8966 39.8558 18.9569 38.3678 20.1307C38.0532 20.3793 37.7336 20.6434 37.3432 20.789C35.4756 22.2658 33.5042 23.6086 31.6018 25.0388C30.658 25.7466 29.7133 26.4525 28.7685 27.1603C28.2912 27.2603 28.0625 27.7593 27.5841 27.8594C27.624 28.7478 27.8308 29.6167 27.9137 30.4983C28.0744 32.2159 28.414 33.9131 28.4759 35.6404C28.9393 36.4424 29.4956 37.1026 30.5831 36.9871C31.2932 36.9113 31.6916 36.421 32.0602 35.922C32.6334 35.1462 33.0409 34.2724 33.5122 33.4374C33.7379 33.0383 34.0535 32.6868 34.1913 32.2402C34.5598 31.6673 34.8694 31.0576 35.2399 30.4896C36.2077 29.006 37.0426 27.4506 37.9543 25.9369C38.981 24.232 39.9807 22.5115 40.9853 20.7939C41.8172 19.3715 42.6391 17.9432 43.466 16.5179H43.464C43.464 16.5179 43.462 16.5198 43.46 16.5198Z" fill="url(#paint0_linear_1_3124)"/>
<path d="M102.281 28.4574C102.281 27.1321 102.296 25.8068 102.278 24.4815C102.247 22.1629 100.501 20.5026 98.1198 20.4851C97.6145 20.4812 97.1132 20.457 96.6048 20.4735C95.707 20.5026 94.8422 20.6337 93.9953 20.9172C92.8798 21.291 92.8878 21.2842 93.2822 22.3309C93.4231 22.7056 93.6248 22.7872 93.9993 22.6318C95.0449 22.1988 96.1385 21.96 97.2769 22.0532C97.9081 22.1046 98.5882 22.0755 99.1325 22.4571C100.098 23.1338 100.432 24.0766 100.279 25.2135C100.245 25.464 100.166 25.5155 99.9224 25.5446C99.2114 25.6301 98.5183 25.4505 97.7773 25.5912C96.5579 25.8233 95.3595 25.9961 94.251 26.6088C93.2463 27.1632 92.5402 27.7943 92.2836 29.0012C91.959 30.5275 92.4843 31.6838 93.461 32.7344C94.245 33.5781 95.3825 33.7179 96.453 33.8568C97.3239 33.9704 98.2307 33.9539 99.1055 33.8568C100.024 33.7548 100.923 33.4907 101.806 33.1985C102.157 33.082 102.292 32.8956 102.287 32.5295C102.268 31.1722 102.28 29.8148 102.28 28.4565L102.281 28.4574ZM100.353 29.4128C100.353 30.107 100.346 30.8013 100.356 31.4955C100.359 31.744 100.269 31.8936 100.01 31.9382C98.8489 32.1382 97.7024 32.4315 96.497 32.2412C95.5073 32.0848 94.3179 31.346 94.1241 30.3032C93.9813 29.5352 94.2679 28.9312 94.7213 28.3555C95.4554 27.4234 96.5789 27.335 97.6285 27.1049C98.3935 26.937 99.1794 27.0059 99.9574 26.9874C100.264 26.9806 100.364 27.0865 100.358 27.3787C100.342 28.0564 100.353 28.7351 100.353 29.4128Z" fill="#A564DA"/>
<path d="M114.347 23.9115C114.202 22.7366 113.641 21.8172 112.586 21.2035C111.503 20.5734 110.289 20.4326 109.068 20.4015C107.604 20.3646 106.184 20.6608 104.803 21.1161C104.379 21.256 104.118 21.4938 104.13 22.0308C104.173 23.8891 104.147 25.7494 104.147 27.6088C104.152 27.6088 104.157 27.6088 104.163 27.6088C104.163 29.203 104.157 30.7983 104.167 32.3925C104.17 32.8586 103.962 33.4615 104.249 33.7538C104.562 34.0732 105.197 33.812 105.687 33.8693C106.143 33.9227 106.273 33.7596 106.271 33.311C106.252 29.9807 106.271 26.6495 106.248 23.3182C106.245 22.9017 106.406 22.6939 106.764 22.5628C107.61 22.2521 108.493 22.0443 109.385 22.1686C109.759 22.2211 110.161 21.9803 110.473 22.2259C111.119 22.7327 111.919 23.1075 112.166 23.9882C112.216 24.1668 112.562 24.2357 112.427 24.495C112.288 24.76 112.339 25.0329 112.339 25.3018C112.333 27.6466 112.328 29.9914 112.342 32.3362C112.345 32.8285 112.109 33.4615 112.459 33.7761C112.778 34.0635 113.415 33.8198 113.909 33.8703C114.332 33.913 114.455 33.7431 114.45 33.3538C114.432 31.9469 114.459 30.54 114.427 29.1341C114.387 27.3932 114.564 25.6494 114.349 23.9105L114.347 23.9115Z" fill="#A564DA"/>
<path d="M27.5832 27.8576C27.4154 26.508 27.2496 25.1584 27.0769 23.8088C27.0589 23.6709 27.003 23.537 26.964 23.4001C26.991 22.6971 26.7842 22.0165 26.7513 21.3174C26.7313 20.9096 26.6294 20.5067 26.5645 20.1008C26.4557 19.1687 26.3478 18.2357 26.235 17.3036C26.192 16.9424 26.1361 16.5831 26.0852 16.2229C25.5629 15.7714 24.8828 15.6287 24.2676 15.3637C22.418 14.5665 20.5525 13.8014 18.693 13.0247C18.2915 12.9868 17.902 13.0713 17.5405 13.2121C16.5169 13.6121 16.1703 14.7345 16.7096 15.7899C17.4846 17.3045 18.3784 18.7571 19.2892 20.1989C19.8974 21.2951 20.5106 22.3883 21.2276 23.4234C21.5152 24.0933 21.9357 24.6933 22.3032 25.3215C23.1121 26.7032 23.9031 28.0955 24.717 29.4752C25.5549 30.8956 26.4008 32.3122 27.2656 33.7172C27.6621 34.3609 27.9487 35.0716 28.475 35.6386C28.4131 33.9114 28.0735 32.2142 27.9127 30.4966C27.8299 29.615 27.6231 28.746 27.5832 27.8576Z" fill="url(#paint1_linear_1_3124)"/>
<path d="M43.4591 16.5185V16.5166C43.4591 16.5166 43.4581 16.5166 43.4581 16.5185H43.4591Z" fill="#F17923"/>
<path d="M41.9476 13.0214C40.0881 12.9767 38.2276 13.0155 36.367 13.0214H32.0727C31.9069 13.0146 31.7422 13.0019 31.5774 13.001C27.4479 13 23.3183 13 19.1888 13C19.024 13 18.8593 13.0165 18.6935 13.0252C20.553 13.802 22.4185 14.5671 24.2681 15.3642C24.8833 15.6293 25.5634 15.772 26.0857 16.2235C27.1752 16.6546 28.2648 17.0837 29.3523 17.5168C29.8617 17.7197 30.367 17.9323 30.8743 18.1401C31.9649 18.5974 33.0564 19.0557 34.148 19.512C34.2808 19.5674 34.4066 19.6528 34.5644 19.6179C35.4582 20.0791 36.412 20.4092 37.3427 20.7878C37.7332 20.6422 38.0528 20.3781 38.3674 20.1295C39.8554 18.9557 41.4313 17.8954 42.9383 16.7468C43.0941 16.6284 43.2419 16.4954 43.4606 16.5167C43.4896 16.4633 43.5185 16.4089 43.5475 16.3546C43.5545 16.3419 43.5605 16.3303 43.5675 16.3177C44.1387 15.7157 44.3275 14.2709 43.7393 13.6758C43.2379 13.168 42.5848 13.0369 41.9476 13.0214Z" fill="url(#paint2_linear_1_3124)"/>
<path d="M43.4601 16.5164H43.464C43.5591 16.4824 43.5446 16.3912 43.563 16.3184C43.5562 16.331 43.5504 16.3426 43.5436 16.3553C43.5154 16.4096 43.4873 16.463 43.4601 16.5174V16.5164Z" fill="#F69022"/>
<path d="M43.4622 16.5177H43.4603V16.519C43.4609 16.519 43.4616 16.5184 43.4629 16.5177H43.4622Z" fill="#F69022"/>
<path d="M43.4591 16.5179H43.461C43.461 16.5179 43.461 16.5166 43.4617 16.5166H43.4591V16.5179Z" fill="#F69022"/>
<path d="M127.162 33.8337C127.151 33.8152 127.142 33.7968 127.131 33.7783C127.13 33.789 127.13 33.7997 127.129 33.8094C127.129 33.8201 127.127 33.8308 127.127 33.8405C127.139 33.8375 127.15 33.8356 127.162 33.8327V33.8337Z" fill="#5D2D84"/>
<path d="M127.127 33.8406C127.127 33.83 127.128 33.8193 127.129 33.8096C127.129 33.8203 127.127 33.8309 127.127 33.8406Z" fill="#5D2D84"/>
<path d="M70.2032 24.1735C70.3051 24.157 70.379 24.1065 70.414 24.0104C70.2881 23.9978 70.2242 24.059 70.2032 24.1735Z" fill="#5D2D84"/>
<path d="M86.5743 31.4552C86.6772 31.4358 86.7531 31.3843 86.7891 31.2853C86.6542 31.2658 86.5983 31.3416 86.5743 31.4552Z" fill="#5D2D84"/>
<defs>
<linearGradient id="paint0_linear_1_3124" x1="39.6091" y1="16.8267" x2="25.7028" y2="39.4904" gradientUnits="userSpaceOnUse">
<stop stop-color="#F7941D"/>
<stop offset="1" stop-color="#F15A29"/>
</linearGradient>
<linearGradient id="paint1_linear_1_3124" x1="26.249" y1="41.9089" x2="20.9372" y2="12.2073" gradientUnits="userSpaceOnUse">
<stop stop-color="#F7941D"/>
<stop offset="1" stop-color="#F15A29"/>
</linearGradient>
<linearGradient id="paint2_linear_1_3124" x1="18.6935" y1="16.8944" x2="44.0988" y2="16.8944" gradientUnits="userSpaceOnUse">
<stop stop-color="#F7941D"/>
<stop offset="1" stop-color="#F15A29"/>
</linearGradient>
</defs>
</svg>
