<svg width="144" height="50" viewBox="0 0 144 50" fill="none" xmlns="http://www.w3.org/2000/svg">
<rect width="144" height="50" rx="4" fill="white"/>
<path fill-rule="evenodd" clip-rule="evenodd" d="M103.854 5.37598C101.923 5.75049 101.151 6.62434 101.28 7.8727C101.409 9.62041 103.339 12.8662 104.24 14.3642C105.913 16.8609 107.844 19.2328 110.032 21.355C111.834 22.9779 112.863 23.3524 114.794 20.9805C116.338 18.9831 117.883 16.9858 119.17 14.489C119.685 13.3655 120.2 12.242 120.715 10.8688C121.229 9.2459 120.972 7.8727 119.427 6.87401C120.972 7.62303 121.615 8.87139 121.744 10.3694C121.873 11.7426 121.358 13.3655 121.101 14.489C120.328 17.3603 119.17 20.2315 117.883 22.7282C116.853 24.7256 115.566 26.9727 114.279 28.7204C111.319 32.5903 108.616 31.3419 105.398 28.7204C103.339 27.0975 101.409 24.9753 99.6066 22.7282C97.9334 20.4812 96.0028 16.9858 94.8445 14.489C93.3 10.8688 94.4584 9.12107 96.389 7.8727C98.1909 6.37467 101.28 5.62565 103.854 5.37598Z" fill="url(#paint0_linear_1_3115)"/>
<path fill-rule="evenodd" clip-rule="evenodd" d="M103.726 13.4889C106.686 12.9895 114.537 12.615 117.368 13.9882C118.269 14.3627 118.655 14.9869 118.527 15.7359C118.784 15.2366 119.041 14.7372 119.299 14.2379C119.814 13.1144 120.329 11.9908 120.843 10.6176C121.358 8.99476 120.715 7.62156 119.17 6.62287C118.527 6.3732 117.883 6.12353 117.24 5.87385C115.438 5.37451 113.379 5.12484 111.448 5C110.676 5 109.775 5 108.874 5C107.329 5 105.527 5.12484 103.726 5.37451C101.795 5.74902 101.023 6.62287 101.151 7.87123C101.28 9.24443 102.696 11.866 103.726 13.4889Z" fill="url(#paint1_linear_1_3115)"/>
<path fill-rule="evenodd" clip-rule="evenodd" d="M95.8746 44.8223C97.4191 44.6974 98.8348 43.8236 99.2209 41.5765C99.4784 40.0785 99.4784 37.7066 99.0922 36.3334C98.8348 35.7092 98.5774 35.2099 98.1913 34.8354C97.4191 34.2112 96.6468 34.0864 95.8746 34.0864C94.7162 34.0864 93.944 34.2112 93.1717 34.9602C93.043 35.085 92.9143 35.2099 92.9143 34.9602V30.0916H90.0828V44.0733C91.1124 44.9471 94.4588 45.072 95.8746 44.8223ZM20.4525 44.5726C21.096 44.5726 20.9673 44.5726 21.2247 44.1981C23.6702 40.9524 25.9869 34.0864 25.9869 30.2164C24.8285 30.2164 23.6702 30.3413 22.5118 30.5909C21.3534 36.8328 20.4525 38.5805 18.6506 41.7014C16.8487 38.4556 15.9478 36.8328 14.7894 30.5909C13.631 30.3413 12.4727 30.0916 11.3143 30.2164C11.3143 34.0864 13.631 40.9524 16.0765 44.1981C16.4626 44.6974 16.3339 44.5726 16.8487 44.5726H20.4525ZM101.28 34.7105L101.538 37.2073C102.696 37.0824 103.597 36.8328 104.755 36.7079C106.557 36.7079 107.587 36.5831 107.587 37.8314C106.3 37.8314 104.884 37.8314 103.597 37.8314C101.924 37.8314 100.508 38.5805 100.765 41.8262C101.023 45.6961 105.785 45.4465 107.973 43.8236V44.6974H110.547C110.547 40.7027 110.805 36.5831 110.032 35.4596C108.617 33.3373 103.854 34.0864 101.28 34.7105ZM41.1743 44.3229C41.0456 43.5739 41.0456 42.7001 40.9169 41.951C39.7585 42.2007 37.8279 42.4504 36.6695 42.4504C35.3825 42.4504 34.8676 41.8262 34.8676 39.9537C35.2538 40.453 35.8973 40.7027 36.6695 40.7027C38.4714 40.7027 40.0159 40.7027 41.8178 40.7027C41.9465 37.5818 42.2039 34.9602 38.9863 34.336C37.6992 34.0864 36.026 34.0864 34.7389 34.4609C33.4519 34.8354 32.6796 35.4596 32.2935 36.7079C31.5213 39.0798 31.7787 42.7001 33.3232 44.0733C35.1251 45.4465 38.8575 44.9471 41.1743 44.3229ZM36.1547 36.5831H37.5705C38.214 36.5831 38.8575 37.0824 38.8575 37.8314V38.3308H34.8676V37.8314C34.8676 37.0824 35.3825 36.5831 36.1547 36.5831ZM125.992 44.6974L126.121 40.2033C126.121 39.9537 126.378 40.3282 126.507 40.453C127.408 41.951 128.309 43.0746 129.724 44.4478C130.111 44.8223 130.239 44.8223 130.883 44.8223H133.714C131.526 43.0746 130.368 41.7014 129.21 39.704C128.952 39.2046 128.952 39.3295 129.338 38.8301C129.724 38.3308 130.239 37.7066 130.883 37.0824L133.457 34.2112H130.754C130.239 34.2112 130.239 34.0864 129.982 34.4609C128.952 35.4596 127.794 36.7079 126.893 37.7066C126.764 37.8314 126.635 37.9563 126.507 37.9563C126.121 38.206 126.249 38.206 126.249 37.8314V30.2164H123.418V44.8223L125.992 44.6974ZM59.9654 44.3229L59.708 41.951C58.421 42.0759 57.0052 42.4504 55.7181 42.2007C54.3023 42.0759 54.1736 41.3269 54.1736 40.3282C54.1736 39.704 54.1736 38.955 54.1736 38.3308C54.1736 37.4569 54.431 36.9576 55.7181 36.7079C57.1339 36.5831 58.421 36.9576 59.708 36.9576L59.9654 34.5857C55.0746 33.4622 51.9856 34.0864 51.3421 37.7066C51.2134 38.4556 51.2134 40.9524 51.4708 41.7014C52.243 44.9471 55.332 45.4465 59.9654 44.3229ZM44.5206 34.2112C43.8771 34.2112 43.3623 34.2112 42.7187 34.2112C42.7187 35.085 42.7187 35.9589 42.7187 36.7079C43.3623 36.7079 43.8771 36.7079 44.5206 36.7079C44.5206 37.5818 44.5206 38.4556 44.5206 39.3295C44.5206 40.2033 44.5206 41.0772 44.5206 41.8262C44.5206 42.9497 44.7781 43.8236 45.4216 44.3229C45.679 44.5726 46.0651 44.5726 46.5799 44.6974C47.7383 44.8223 49.0254 44.6974 50.055 44.4478C50.055 43.6988 50.055 42.9497 49.9263 42.3256C48.768 42.3256 47.4809 42.5752 47.4809 42.0759C47.4809 40.2033 47.4809 38.5805 47.4809 36.7079C48.3818 36.7079 49.1541 36.7079 50.055 36.7079C50.055 35.8341 50.055 35.085 50.055 34.2112C49.1541 34.2112 48.3818 34.2112 47.4809 34.2112C47.4809 33.3373 47.4809 32.5883 47.4809 31.7145C46.5799 31.7145 45.5503 31.7145 44.6493 31.7145C44.5206 32.4635 44.5206 33.3373 44.5206 34.2112ZM27.1452 44.6974H29.9768L30.1055 34.0864H27.1452V44.6974ZM64.985 34.0864H67.4304C69.361 34.0864 71.0342 35.5844 71.0342 37.4569V41.4517C71.0342 43.3242 69.4897 44.8223 67.4304 44.8223H64.985C63.0544 44.8223 61.3812 43.3242 61.3812 41.4517V37.4569C61.5099 35.5844 63.0544 34.0864 64.985 34.0864ZM65.6285 36.5831C64.985 36.5831 64.3415 37.0824 64.3415 37.8314V41.0772C64.3415 41.7014 64.8563 42.3256 65.6285 42.3256H67.0443C67.6878 42.3256 68.3314 41.8262 68.3314 41.0772V37.8314C68.3314 37.2073 67.8165 36.5831 67.0443 36.5831H65.6285ZM75.6676 44.6974C75.6676 41.951 75.6676 39.3295 75.7963 36.5831C76.4399 36.5831 77.2121 36.5831 77.8557 36.5831C78.3705 36.5831 79.014 36.9576 79.014 37.4569V37.8314V44.5726H81.8456L81.9743 36.4582C82.7465 36.4582 83.5187 36.4582 84.291 36.4582C84.9345 36.4582 85.4493 36.8328 85.4493 37.4569V44.5726H88.2809L88.4096 36.9576C88.4096 35.3347 87.5086 33.9615 85.578 33.9615C84.9345 33.9615 84.4197 33.9615 83.7762 33.9615C82.8752 33.9615 82.3604 34.0864 81.8456 34.7105C81.4594 35.085 81.5881 35.085 81.202 34.7105C80.6872 34.0864 79.915 33.9615 79.1427 33.9615C78.7566 33.9615 78.2418 33.9615 77.8557 33.9615C77.0834 33.9615 76.5686 34.2112 76.0538 34.8354C75.5389 35.3347 75.6676 35.4596 75.6676 34.7105C75.6676 34.4609 75.6676 34.2112 75.6676 34.0864C74.8954 34.0864 74.1232 34.0864 73.2222 34.0864C73.2222 37.5818 73.2222 41.0772 73.2222 44.5726H75.6676V44.6974ZM115.181 44.6974C115.181 41.951 115.181 39.3295 115.309 36.5831C116.082 36.5831 116.725 36.5831 117.369 36.5831C118.012 36.5831 118.527 36.9576 118.527 37.5818C118.527 39.9537 118.527 42.3256 118.527 44.6974C119.428 44.6974 120.458 44.6974 121.358 44.6974C121.358 42.3256 121.358 39.9537 121.487 37.7066C121.487 35.8341 120.715 34.2112 118.398 34.2112C118.012 34.2112 117.497 34.2112 117.111 34.2112C116.339 34.2112 115.824 34.4609 115.309 34.9602C114.794 35.4596 114.794 35.7092 114.794 34.9602V34.2112H112.349C112.349 37.7066 112.349 41.202 112.349 44.6974C113.25 44.6974 114.151 44.6974 115.181 44.6974ZM104.498 40.2033C105.528 40.2033 106.557 40.2033 107.587 40.2033C107.587 40.7027 107.587 41.202 107.587 41.7014C107.587 42.3256 105.656 42.3256 104.369 42.3256C103.468 42.3256 103.597 42.3256 103.468 41.5765C103.468 41.3269 103.468 40.9524 103.468 40.7027C103.597 40.0785 103.726 40.2033 104.498 40.2033ZM96.5181 41.202C96.5181 41.8262 96.0033 42.4504 95.231 42.4504C94.7162 42.4504 94.3301 42.4504 93.8153 42.4504C92.7856 42.4504 92.7856 42.4504 92.7856 41.0772V37.9563C92.7856 36.5831 92.7856 36.5831 93.8153 36.5831C94.3301 36.5831 94.7162 36.5831 95.231 36.5831C95.8746 36.5831 96.5181 37.0824 96.5181 37.8314V41.202Z" fill="#2F9971"/>
<defs>
<linearGradient id="paint0_linear_1_3115" x1="93.8314" y1="18.1278" x2="121.575" y2="18.1278" gradientUnits="userSpaceOnUse">
<stop stop-color="#7FBA43"/>
<stop offset="1" stop-color="#005E3E"/>
</linearGradient>
<linearGradient id="paint1_linear_1_3115" x1="101.21" y1="10.356" x2="120.766" y2="10.356" gradientUnits="userSpaceOnUse">
<stop offset="1.33195e-07" stop-color="#005E3E"/>
<stop offset="1" stop-color="#88C143"/>
</linearGradient>
</defs>
</svg>
