<svg width="144" height="50" viewBox="0 0 144 50" fill="none" xmlns="http://www.w3.org/2000/svg">
<rect width="144" height="50" rx="4" fill="white"/>
<path d="M122.028 11H123.284C125.723 11.1395 128.115 12.0349 129.981 13.5697C132.206 15.3604 133.665 17.9767 134 20.7557V23.4417C133.832 24.6045 133.497 25.744 132.983 26.8138C132.445 26.5696 131.931 26.2905 131.381 26.0929C130.806 25.8952 130.256 25.651 129.682 25.465C128.474 25.0464 127.23 24.7789 125.975 24.5347C125.975 22.651 125.987 20.7557 125.963 18.872C125.759 18.8371 125.556 18.8022 125.353 18.8022C124.073 18.8022 122.793 18.8022 121.514 18.8022C120.772 18.8139 120.042 18.779 119.313 18.8371C119.277 19.372 119.265 19.9069 119.289 20.4534C119.253 21.8138 119.277 23.1743 119.265 24.5347C118.488 24.6975 117.686 24.8138 116.921 25.0347C115.629 25.3603 114.385 25.8254 113.177 26.3603C112.878 26.4882 112.615 26.6742 112.304 26.7556C112.173 26.5928 112.113 26.4068 112.029 26.2208C111.551 25.0464 111.276 23.7906 111.216 22.5348C111.096 20.2208 111.754 17.872 113.082 15.9418C114.397 13.9883 116.395 12.4884 118.643 11.686C119.743 11.2907 120.88 11.0698 122.028 11Z" fill="#0E7CD0"/>
<path d="M14.4004 25.4423C15.6682 25.4539 16.9359 25.4191 18.2037 25.4656C19.3638 28.8841 20.5359 32.3027 21.7319 35.7096C23.0475 32.3027 24.3272 28.8841 25.6069 25.4656C26.6355 25.4191 27.6521 25.4539 28.6806 25.4423C28.561 25.826 28.3936 26.1981 28.2381 26.5702C26.4322 30.9655 24.6262 35.3492 22.8202 39.7445C21.8156 39.791 20.811 39.7794 19.8063 39.7445C18.2635 35.6864 16.7206 31.6283 15.1778 27.5702C14.9266 26.8725 14.6276 26.1981 14.4004 25.5005V25.4423H14.4004Z" fill="#B80711"/>
<path d="M101.385 25.4436C102.318 25.432 103.251 25.4436 104.184 25.4436C104.255 25.4553 104.435 25.3971 104.435 25.5367C104.483 26.2925 104.447 27.0483 104.459 27.8041C104.471 29.3622 104.435 30.9203 104.471 32.4784C105.511 31.5482 106.432 30.4901 107.461 29.5366C107.58 29.4087 107.783 29.4552 107.939 29.4436C108.968 29.4552 109.996 29.432 111.025 29.4552C110.582 29.9785 110.032 30.4203 109.542 30.8971C109.099 31.2924 108.692 31.7226 108.262 32.118C107.76 32.618 107.221 33.0831 106.755 33.5947C106.946 33.9435 107.221 34.2342 107.461 34.5598C108.573 35.99 109.673 37.4203 110.773 38.8505C111.001 39.1528 111.252 39.4319 111.443 39.7691C110.439 39.8156 109.434 39.7807 108.429 39.7923C108.226 39.7923 108.035 39.8039 107.843 39.7691C107.748 39.7109 107.688 39.6063 107.628 39.5249C106.863 38.2807 106.073 37.0482 105.284 35.8156C105.009 35.4086 104.782 34.9784 104.483 34.5947C104.435 36.3156 104.471 38.0482 104.459 39.7691C103.442 39.8039 102.413 39.8039 101.397 39.7691C101.349 38.1644 101.385 36.5482 101.373 34.9435C101.385 31.7692 101.361 28.6064 101.385 25.4436Z" fill="#0E7CD0"/>
<path d="M113.082 28.1392C115.761 26.7555 118.763 25.9997 121.789 25.8602C125.377 25.7207 129.001 26.5346 132.182 28.1625C130.878 30.1625 128.845 31.6973 126.573 32.5113C124.037 33.4299 121.167 33.4066 118.631 32.4764C117.555 32.0811 116.526 31.5345 115.629 30.8369C114.637 30.0927 113.752 29.1857 113.082 28.1392Z" fill="#B80711"/>
<path d="M43.7149 27.0006C44.7434 26.9773 45.76 26.8494 46.7886 26.8262C46.8125 27.6866 46.7886 28.5471 46.8005 29.4192C47.6138 29.4773 48.4271 29.4192 49.2404 29.4424C49.2763 30.0122 49.2523 30.5703 49.2643 31.1401C48.4391 31.1401 47.6138 31.1401 46.8005 31.1401C46.8005 32.7796 46.8005 34.4307 46.8005 36.0703C46.8125 36.6168 46.8603 37.1865 47.1474 37.6749C47.3387 38.0005 47.7573 38.0935 48.1281 38.0702C48.5347 38.047 48.9055 37.8493 49.2763 37.6981C49.4676 38.233 49.6949 38.7563 49.8503 39.3144C49.0371 39.6749 48.1759 39.9423 47.2909 40.0004H46.5733C45.9873 39.9539 45.4012 39.7911 44.9228 39.4539C44.3966 39.0818 44.0258 38.5237 43.8823 37.9074C43.7507 37.3028 43.7029 36.6865 43.7149 36.0703C43.7149 34.4307 43.7149 32.7912 43.7149 31.1517C43.2365 31.1168 42.7581 31.1401 42.2797 31.1517C42.2557 30.5819 42.2557 30.0006 42.2797 29.4308C42.7581 29.4308 43.2365 29.4773 43.7029 29.4075C43.7149 28.6052 43.7149 27.8029 43.7149 27.0006Z" fill="#B80711"/>
<path d="M59.0594 30.1513C60.0043 29.4188 61.2601 29.0815 62.4561 29.2327C63.1856 29.2908 63.9271 29.535 64.4773 30.0234C65.0155 30.5001 65.3504 31.1745 65.47 31.8606C65.5657 32.4536 65.6135 33.0582 65.6015 33.6629C65.6015 35.6978 65.6135 37.7326 65.5896 39.7558C64.573 39.7675 63.5564 39.7791 62.5517 39.7558C62.5398 38.2791 62.5159 36.8024 62.5517 35.314C62.4919 34.3954 62.6115 33.4652 62.4082 32.5583C62.3006 32.0815 61.9657 31.6513 61.4873 31.4652C60.9491 31.2676 60.3511 31.3025 59.8129 31.4769C59.2986 31.6397 58.9039 32.0583 58.7245 32.5466C58.5571 33.0001 58.5451 33.5001 58.5332 33.9768C58.5332 35.9071 58.5332 37.8373 58.5332 39.7558C57.5166 39.7558 56.5 39.7558 55.4834 39.7558C55.4236 39.4303 55.4714 39.1047 55.4595 38.7791C55.4475 37.0233 55.4714 35.2675 55.4355 33.5117C55.4475 32.1513 55.4595 30.7908 55.4595 29.4304C56.4761 29.4071 57.4927 29.4188 58.5093 29.4071C58.5451 29.7792 58.5212 30.1513 58.5332 30.5234C58.7126 30.4187 58.88 30.2792 59.0594 30.1513Z" fill="#B80711"/>
<path d="M93.5632 29.8601C94.5081 29.2787 95.6921 29.081 96.7924 29.2555C97.3067 29.3485 97.809 29.488 98.2396 29.7787C98.8615 30.1857 99.2921 30.8136 99.4834 31.5113C99.7346 32.4531 99.6628 33.4298 99.6987 34.3949C99.6987 36.1856 99.6987 37.9647 99.6987 39.7553C98.7778 39.7786 97.8449 39.7902 96.924 39.7553C96.8283 39.7437 96.7207 39.767 96.6369 39.7321C96.625 37.7786 96.6369 35.8135 96.625 33.8601C96.613 33.395 96.5771 32.9182 96.4575 32.4647C96.3379 31.9996 95.9672 31.5926 95.4888 31.4531C94.9625 31.2903 94.3885 31.3252 93.8742 31.488C93.2403 31.6973 92.8097 32.3019 92.7021 32.9182C92.5825 33.581 92.5945 34.2554 92.6184 34.9182C92.6184 36.5228 92.6184 38.1391 92.6184 39.7437C91.6018 39.7786 90.5732 39.7786 89.5566 39.7437C89.4968 37.7089 89.5566 35.6856 89.5327 33.6508C89.5447 32.2438 89.5088 30.8368 89.5566 29.4415C90.5732 29.4183 91.5898 29.4183 92.6064 29.4415C92.6184 29.802 92.6064 30.1624 92.6184 30.5229C92.9533 30.3252 93.2283 30.0462 93.5632 29.8601Z" fill="#0E7CD0"/>
<path d="M28.0706 29.4432C29.0872 29.42 30.1038 29.42 31.1204 29.4432C31.1204 32.5595 31.1204 35.6757 31.1204 38.792C31.1204 39.1175 31.1562 39.4315 31.1323 39.7571C30.5822 39.7919 30.02 39.7687 29.4699 39.7803C29.0034 39.7687 28.537 39.7919 28.0586 39.7571C28.0706 36.3152 28.0706 32.885 28.0706 29.4432Z" fill="#B80711"/>
<path d="M50.6865 29.455C51.7151 29.3969 52.7317 29.4434 53.7602 29.4434C53.7722 30.0713 53.8081 30.6992 53.7722 31.3271C53.7722 34.141 53.7722 36.9433 53.7722 39.7572C52.7556 39.7805 51.727 39.7921 50.7104 39.7572C50.7224 38.42 50.6865 37.0712 50.6985 35.734C50.6865 34.2457 50.7344 32.7573 50.7104 31.269C50.6746 30.6643 50.6985 30.0597 50.6865 29.455Z" fill="#B80711"/>
<path d="M35.1991 29.6043C36.3114 29.1508 37.5672 29.081 38.7393 29.3252C39.6961 29.5229 40.5691 30.081 41.0954 30.8949C41.7532 31.8949 41.9924 33.0926 42.0641 34.267C42.0761 34.4763 42.0881 34.7089 41.9804 34.8949C41.8847 35.0344 41.6934 35.0461 41.5379 35.0461C39.4688 35.0461 37.3997 35.0461 35.3307 35.0461C35.3546 35.6972 35.534 36.3716 35.9406 36.8949C36.3951 37.4995 37.1486 37.8716 37.914 37.9297C39.0143 38.0344 40.0907 37.6507 41.0117 37.0809C41.3465 37.6391 41.6695 38.1972 41.9445 38.7786C40.7844 39.4297 39.4927 39.8832 38.1532 39.9762H37.2443C36.2396 39.9065 35.235 39.6274 34.4097 39.046C33.2496 38.2437 32.4124 36.9995 32.1852 35.6391C31.9579 34.3368 32.0656 32.9298 32.7353 31.7554C33.2855 30.8019 34.1586 30.0229 35.1991 29.6043ZM36.0243 31.488C35.5579 31.9996 35.4383 32.6972 35.3665 33.36C36.6463 33.36 37.914 33.36 39.1937 33.36C39.2177 32.8252 39.1339 32.267 38.8828 31.7903C38.6436 31.3368 38.1532 31.0112 37.627 30.988C37.0529 30.9298 36.419 31.0577 36.0243 31.488Z" fill="#B80711"/>
<path d="M67.2991 25.4427C68.4951 25.4427 69.6791 25.4427 70.8751 25.4427C71.796 25.4427 72.705 25.4195 73.6259 25.5241C74.4272 25.6055 75.2644 25.8032 75.9103 26.3032C76.6757 26.8613 77.0345 27.8148 76.9986 28.7218C76.9986 29.559 76.6757 30.4194 76.0299 31.0008C75.6113 31.4311 75.0492 31.6752 74.5229 31.9659C75.0492 32.0706 75.5993 32.1403 76.0777 32.4194C76.8312 32.8148 77.4531 33.4659 77.6923 34.2682C77.9793 35.1752 77.9435 36.1636 77.6086 37.0589C77.178 38.1054 76.2093 38.8728 75.1448 39.2798C73.7216 39.7914 72.1788 39.7914 70.6838 39.7798C69.5595 39.7682 68.4233 39.8031 67.2991 39.7682C67.2871 36.338 67.2991 32.9078 67.2991 29.466C67.2752 28.1171 67.2632 26.7799 67.2991 25.4427ZM70.4804 27.5357C70.4924 28.7799 70.4685 30.0125 70.4924 31.2566C71.3894 31.3031 72.3701 31.2334 73.1116 30.6985C73.8053 30.2218 74.1163 29.3032 73.8412 28.5241C73.7216 28.1753 73.4346 27.8846 73.0997 27.7218C72.7528 27.559 72.3582 27.5474 71.9754 27.5241C71.4731 27.5009 70.9708 27.5009 70.4804 27.5357ZM70.4804 33.338C70.4924 33.8147 70.4565 34.3031 70.4685 34.7915C70.5163 35.7566 70.4446 36.7333 70.4924 37.6984C71.4014 37.7217 72.3582 37.8031 73.2193 37.4659C73.913 37.1868 74.4512 36.524 74.499 35.7915C74.5468 35.2798 74.499 34.7333 74.2 34.2915C73.889 33.7915 73.303 33.5241 72.7289 33.4194C71.9874 33.3031 71.2339 33.3148 70.4804 33.338Z" fill="#0E7CD0"/>
<path d="M80.1808 30.0466C81.604 29.2559 83.3143 29.0001 84.9169 29.3141C85.8498 29.4769 86.7468 29.9885 87.2611 30.7675C87.7993 31.535 87.871 32.4885 87.8591 33.3838C87.8591 34.5582 87.8591 35.7442 87.8591 36.9186C87.871 37.8838 88.0146 38.8372 88.3255 39.7442C87.3448 39.7791 86.3641 39.7558 85.3953 39.7674C85.2877 39.7442 85.0963 39.8023 85.0485 39.6628C84.9648 39.3256 84.9289 38.9651 84.8452 38.6279C84.4864 38.907 84.1515 39.2326 83.7448 39.4535C83.2425 39.7558 82.6684 39.9186 82.0824 39.9884H81.3768C80.4439 39.9186 79.5588 39.407 79.0446 38.6396C78.5303 37.8837 78.4107 36.907 78.6618 36.0349C78.8412 35.4187 79.212 34.8722 79.7143 34.4652C80.5635 33.7443 81.6399 33.3373 82.7163 33.035C83.398 32.8489 84.1036 32.7559 84.7854 32.5466C84.6418 32.1047 84.4385 31.6513 84.0438 31.3838C83.5774 31.0582 82.9555 31.0117 82.4053 31.128C81.616 31.2792 80.9582 31.7443 80.3482 32.2094C80.0253 31.814 79.7502 31.3955 79.4512 30.9885C79.3914 30.8838 79.2718 30.7908 79.3077 30.6629C79.5469 30.4071 79.8698 30.2327 80.1808 30.0466ZM82.4173 35.2094C82.0824 35.3954 81.8073 35.6628 81.6399 36C81.3768 36.5582 81.5322 37.2791 82.0465 37.6512C82.3336 37.8721 82.7163 37.8837 83.0631 37.8372C83.685 37.721 84.2591 37.3024 84.5342 36.7442C84.8691 36.0233 84.905 35.2094 84.8571 34.4303C84.0199 34.5931 83.1588 34.7791 82.4173 35.2094Z" fill="#0E7CD0"/>
</svg>
