<svg width="144" height="50" viewBox="0 0 144 50" fill="none" xmlns="http://www.w3.org/2000/svg">
<rect width="144" height="50" rx="4" fill="white"/>
<path d="M22.6952 15.9886H19.05L19.0043 16.1016C18.9054 16.335 18.8521 16.5835 18.8521 16.8245C18.8521 16.9299 18.8674 17.0504 18.8902 17.1709C18.913 17.2989 18.9511 17.4119 19.0043 17.5098L19.0576 17.6077H19.9251L17.9846 23.5266L16.105 17.6077H16.9877L17.0334 17.5098C17.0866 17.4043 17.1247 17.2914 17.1399 17.1709C17.1627 17.0579 17.178 16.945 17.178 16.832C17.178 16.6061 17.1247 16.3651 17.041 16.1166L17.0029 15.9962H13.198L13.1523 16.1091C13.0534 16.3651 13.0001 16.6061 13.0001 16.8471C13.0001 16.9525 13.0153 17.073 13.0381 17.1935C13.061 17.314 13.1066 17.4269 13.1599 17.5248L13.2056 17.6152H13.9437L16.7594 26.2752H18.9891L21.9266 17.6152H22.6723L22.718 17.5173C22.7713 17.4119 22.8093 17.2989 22.8321 17.1709C22.855 17.0504 22.8626 16.9375 22.8626 16.832C22.8626 16.6061 22.8169 16.3651 22.7332 16.1091L22.6876 15.9962L22.6952 15.9886Z" fill="#123985"/>
<path d="M26.6827 24.6336H25.9749V18.8126H23.1669L23.1288 18.9331C23.0451 19.1515 22.9994 19.3623 22.9994 19.5732C22.9994 19.784 23.0375 20.0024 23.1212 20.2133L23.1593 20.3338H23.867V24.6412H23.1593L23.1212 24.7541C23.0375 24.965 22.9918 25.1833 22.9918 25.3942C22.9918 25.6051 23.0299 25.8159 23.1136 26.0343L23.1516 26.1548H26.6674L26.7055 26.0343C26.7816 25.8159 26.8272 25.6051 26.8272 25.3942C26.8272 25.1833 26.7892 24.9725 26.7055 24.7541L26.6598 24.6336H26.6827Z" fill="#123985"/>
<path d="M24.7498 18.2102C25.077 18.2102 25.3662 18.0897 25.6097 17.8487C25.8456 17.6078 25.9674 17.3066 25.9674 16.9602C25.9674 16.6138 25.8456 16.305 25.6097 16.0716C25.3738 15.8306 25.0846 15.7026 24.7498 15.7026C24.4149 15.7026 24.1334 15.8231 23.8974 16.0716C23.6539 16.3125 23.5398 16.6138 23.5398 16.9602C23.5398 17.3066 23.6615 17.6078 23.8974 17.8487C24.1334 18.0897 24.4225 18.2102 24.7498 18.2102Z" fill="#123985"/>
<path d="M33.3339 19.8366C33.0828 19.4827 32.7404 19.1815 32.3218 18.9631C31.8957 18.7372 31.363 18.6242 30.7389 18.6242C30.153 18.6242 29.6355 18.7372 29.2017 18.9631C28.7756 19.1815 28.4179 19.4827 28.1363 19.8442C27.8624 20.2056 27.6569 20.6198 27.5275 21.0792C27.4058 21.531 27.3373 22.0054 27.3373 22.4723C27.3373 22.9392 27.4058 23.4362 27.5504 23.8805C27.695 24.3398 27.9157 24.7615 28.2201 25.1155C28.5245 25.4769 28.9278 25.7781 29.4072 25.9965C29.8866 26.2149 30.4802 26.3279 31.1423 26.3279C31.5913 26.3279 32.0403 26.2601 32.474 26.1321C32.9078 26.004 33.2731 25.861 33.5851 25.7028L33.684 25.6577V23.8202L33.4177 23.9708C33.0067 24.1967 32.6186 24.3699 32.2686 24.4904C31.9337 24.6034 31.5456 24.6636 31.1271 24.6636C30.8911 24.6636 30.6781 24.6185 30.4802 24.5281C30.29 24.4453 30.1225 24.3248 29.978 24.1742C29.841 24.0235 29.7268 23.8428 29.6431 23.632C29.5822 23.4738 29.5366 23.3157 29.5137 23.1425H33.996V22.3217C33.996 21.9 33.9504 21.4632 33.8514 21.034C33.7525 20.5897 33.5699 20.1906 33.3263 19.8291M30.7085 20.2207C31.0814 20.2207 31.3554 20.3487 31.5456 20.6047C31.7206 20.8532 31.8196 21.1921 31.85 21.6213H29.529C29.5975 21.2147 29.7192 20.8758 29.8866 20.6198C30.0769 20.3412 30.3356 20.2132 30.7085 20.2132" fill="#123985"/>
<path d="M38.4707 24.5657C38.3413 24.5883 38.1967 24.6033 38.0445 24.6033C37.8923 24.6033 37.7782 24.5657 37.6944 24.4979C37.6488 24.4603 37.5727 24.3548 37.5727 24.031V20.3486H38.9273L38.9653 20.2206C39.0414 19.9721 39.0795 19.7537 39.0795 19.5655C39.0795 19.3546 39.0414 19.1438 38.9653 18.9254L38.9197 18.8049H37.5803V16.1768L35.4647 17.2612V18.8049H34.6733L34.6352 18.9254C34.5515 19.1438 34.5135 19.3546 34.5135 19.5655C34.5135 19.7537 34.5515 19.9721 34.6352 20.2282L34.6733 20.3486H35.4647V23.9105C35.4647 24.6485 35.6322 25.2208 35.967 25.6199C36.3094 26.0266 36.8726 26.2299 37.6412 26.2299C37.8543 26.2299 38.0978 26.2073 38.3641 26.1621C38.6305 26.1169 38.8892 26.0416 39.1403 25.9362L39.2545 25.891V24.2494L38.9958 24.3774C38.7827 24.4828 38.6076 24.5506 38.4859 24.5732" fill="#123985"/>
<path d="M50.8901 15.9358C50.7607 15.9057 50.639 15.8906 50.5172 15.8906C50.2889 15.8906 50.0226 15.9434 49.7334 16.0488L49.6192 16.094V16.3651C49.3833 16.1994 49.117 16.0638 48.8354 15.9659C48.4245 15.8229 48.0059 15.7476 47.595 15.7476C46.834 15.7476 46.1491 15.8982 45.5555 16.1919C44.9619 16.4855 44.4597 16.8847 44.0564 17.3741C43.653 17.8711 43.341 18.451 43.1432 19.1061C42.9453 19.7613 42.8388 20.4541 42.8388 21.1845C42.8388 21.915 42.9377 22.6228 43.1432 23.2479C43.3486 23.8879 43.653 24.4377 44.064 24.9046C44.4749 25.3714 44.9848 25.7404 45.5936 26.004C46.2024 26.26 46.9101 26.3956 47.7167 26.3956C48.1125 26.3956 48.4854 26.3579 48.843 26.2826C49.1931 26.2148 49.5203 26.117 49.8095 26.0115C50.0987 25.9061 50.365 25.7931 50.6009 25.6651C50.8368 25.5371 51.0271 25.4317 51.1869 25.3263L51.2706 25.2735V22.8563L50.9738 23.1123C50.7607 23.293 50.5324 23.4738 50.2965 23.647C50.0682 23.8126 49.8171 23.9633 49.5584 24.0913C49.2996 24.2193 49.018 24.3247 48.7136 24.4075C48.4169 24.4904 48.0972 24.528 47.7472 24.528C47.3971 24.528 47.0851 24.4603 46.7807 24.3247C46.4687 24.1892 46.2024 23.9783 45.9665 23.7072C45.7229 23.4286 45.5327 23.0747 45.3881 22.6454C45.2435 22.2162 45.1674 21.6966 45.1674 21.1092C45.1674 20.6574 45.2207 20.2131 45.3196 19.7688C45.4185 19.3396 45.5784 18.948 45.7914 18.6091C45.9969 18.2778 46.2632 17.9992 46.5753 17.7958C46.8873 17.6 47.2602 17.4946 47.6939 17.4946C48.3179 17.4946 48.7897 17.6603 49.0941 17.9766C49.4062 18.3004 49.566 18.7145 49.566 19.2116V20.1152L49.6801 20.1604C49.9693 20.2733 50.2432 20.3336 50.502 20.3336C50.6314 20.3336 50.7683 20.3185 50.8977 20.2884C51.0271 20.2583 51.1564 20.2131 51.2706 20.1529L51.3619 20.1001V16.1241L51.2706 16.0714C51.1564 16.0111 51.0347 15.9659 50.9129 15.9358" fill="#123985"/>
<path d="M64.3216 26.9077H63.4921V25.5673C63.6138 25.6802 63.766 25.7857 63.9334 25.876C64.2759 26.0568 64.6792 26.1547 65.1206 26.1547C65.7446 26.1547 66.2697 26.0191 66.6883 25.7555C67.0992 25.492 67.434 25.1606 67.6775 24.7615C67.9287 24.3699 68.1037 23.9332 68.195 23.4738C68.294 23.022 68.3396 22.5852 68.3396 22.1786C68.3396 21.659 68.2635 21.1771 68.1265 20.7478C67.9819 20.3186 67.7765 19.9421 67.5177 19.6258C67.2514 19.3095 66.9242 19.061 66.5361 18.8878C66.1479 18.7146 65.7218 18.6242 65.25 18.6242C64.7021 18.6242 64.2455 18.7297 63.8878 18.9405C63.6823 19.061 63.4997 19.1965 63.3399 19.3472L63.2942 18.805H60.6231L60.5775 18.9255C60.5014 19.1363 60.4557 19.3547 60.4557 19.5655C60.4557 19.7764 60.4937 19.9872 60.5775 20.2056L60.6231 20.3261H61.3841V26.9077H60.6231L60.5775 27.0282C60.5014 27.239 60.4557 27.4574 60.4557 27.6683C60.4557 27.8791 60.4937 28.0975 60.5775 28.3084L60.6231 28.4288H64.3139L64.3596 28.3084C64.4357 28.0975 64.4738 27.8791 64.4738 27.6683C64.4738 27.4574 64.4357 27.2466 64.352 27.0282L64.3063 26.9077H64.3216ZM64.8086 20.2885C65.1206 20.2885 65.3717 20.3638 65.5468 20.4993C65.737 20.6499 65.8816 20.8382 65.9805 21.049C66.0795 21.2674 66.1403 21.5009 66.1708 21.7418C66.2012 21.9903 66.2164 22.2087 66.2164 22.3819C66.2164 23.0446 66.0795 23.5717 65.8283 23.9708C65.5848 24.3398 65.2576 24.5206 64.8466 24.5206C64.6868 24.5206 64.527 24.4904 64.3596 24.4302C64.1998 24.3775 64.0628 24.2721 63.9334 24.129C63.7965 23.9784 63.6823 23.775 63.591 23.504C63.4997 23.2329 63.454 22.8789 63.454 22.4422C63.454 22.2539 63.4692 22.0205 63.4921 21.7644C63.5149 21.5234 63.5758 21.2825 63.6747 21.0566C63.766 20.8457 63.903 20.6575 64.0933 20.5068C64.2683 20.3638 64.5118 20.296 64.8238 20.296" fill="#123985"/>
<path d="M69.0627 24.6335L69.0171 24.7465C68.941 24.9573 68.8953 25.1757 68.8953 25.3866C68.8953 25.5974 68.941 25.8083 69.0171 26.0266L69.0627 26.1396H72.5709L72.6166 26.0191C72.6927 25.8007 72.7383 25.5899 72.7383 25.379C72.7383 25.1682 72.7003 24.9573 72.6166 24.7389L72.5709 24.6185H71.8632V18.7974H69.0627L69.0171 18.9179C68.941 19.1363 68.8953 19.3472 68.8953 19.558C68.8953 19.7689 68.941 19.9872 69.0171 20.1981L69.0627 20.3186H69.7704V24.626H69.0627V24.6335Z" fill="#123985"/>
<path d="M70.6455 18.2102C70.9728 18.2102 71.2619 18.0822 71.4979 17.8487C71.7338 17.6078 71.8555 17.3066 71.8555 16.9602C71.8555 16.6138 71.7338 16.305 71.4979 16.0716C71.2619 15.8306 70.9728 15.7026 70.6455 15.7026C70.3183 15.7026 70.0291 15.8231 69.7932 16.0716C69.5573 16.3125 69.4356 16.6062 69.4356 16.9602C69.4356 17.3141 69.5573 17.6078 69.7932 17.8487C70.0367 18.0897 70.3183 18.2102 70.6455 18.2102Z" fill="#123985"/>
<path d="M77.6617 24.242L77.403 24.37C77.1823 24.4755 77.0073 24.5432 76.8931 24.5734C76.7638 24.596 76.6268 24.611 76.467 24.611C76.3224 24.611 76.2006 24.5734 76.1093 24.5056C76.0636 24.4679 75.9951 24.3625 75.9951 24.0387V20.3563H77.3497L77.3878 20.2283C77.4639 19.9798 77.5019 19.7614 77.5019 19.5732C77.5019 19.3623 77.4639 19.1515 77.3802 18.9331L77.3421 18.8126H75.9951V16.1845L73.8796 17.2689V18.8126H73.0881L73.0501 18.9331C72.9664 19.1515 72.9283 19.3623 72.9283 19.5732C72.9283 19.7614 72.9664 19.9798 73.0501 20.2358L73.0881 20.3563H73.8796V23.9182C73.8796 24.6562 74.047 25.236 74.3818 25.6276C74.7243 26.0343 75.2874 26.2376 76.056 26.2376C76.2767 26.2376 76.5202 26.215 76.779 26.1698C77.0453 26.1246 77.3041 26.0493 77.5476 25.9439L77.6541 25.8987V24.2571L77.6617 24.242Z" fill="#123985"/>
<path d="M86.7101 24.6335L86.6645 24.754C86.5808 24.9724 86.5427 25.1833 86.5427 25.3941C86.5427 25.605 86.5808 25.8158 86.6645 26.0342L86.7101 26.1472H90.2183L90.264 26.0267C90.3477 25.8083 90.3857 25.5974 90.3857 25.3866C90.3857 25.1757 90.3477 24.9574 90.264 24.7465L90.2183 24.6335H89.5106V15.9886H86.7025L86.6569 16.1091C86.5731 16.3275 86.5351 16.5383 86.5351 16.7492C86.5351 16.96 86.5731 17.1709 86.6569 17.3893L86.7025 17.5022H87.4102V24.6335H86.7025H86.7101Z" fill="#123985"/>
<path d="M59.9763 24.641H59.2153V18.8049H57.2976L57.1606 19.4375C57.0236 19.3019 56.8638 19.189 56.6736 19.0836C56.3311 18.9028 55.9354 18.8125 55.4864 18.8125C54.8624 18.8125 54.3373 18.948 53.9188 19.2116C53.5078 19.4751 53.173 19.8065 52.9295 20.2056C52.6859 20.5972 52.5109 21.0339 52.412 21.4933C52.3131 21.9451 52.2674 22.3819 52.2674 22.7885C52.2674 23.3081 52.3359 23.7901 52.4805 24.2193C52.6251 24.6485 52.8305 25.0326 53.0893 25.3413C53.3556 25.6576 53.6829 25.9061 54.071 26.0793C54.4515 26.2525 54.8852 26.3429 55.357 26.3429C55.8974 26.3429 56.3616 26.2375 56.7192 26.0266C56.9247 25.9061 57.1149 25.763 57.2747 25.6049L57.3509 26.1546H59.9763L60.0219 26.0341C60.098 25.8157 60.1437 25.6049 60.1437 25.394C60.1437 25.1832 60.1057 24.9723 60.0219 24.754L59.9763 24.641ZM55.806 24.6787C55.4864 24.6787 55.2353 24.6109 55.0679 24.4678C54.8776 24.3097 54.733 24.1289 54.6417 23.9181C54.5428 23.6997 54.4819 23.4663 54.4515 23.2253C54.4286 22.9693 54.4134 22.7509 54.4134 22.5852C54.4134 21.9225 54.5428 21.3879 54.8015 20.9963C55.0374 20.6273 55.3647 20.4466 55.7832 20.4466C55.943 20.4466 56.1028 20.4767 56.2702 20.5369C56.4224 20.5972 56.5746 20.6951 56.6964 20.8381C56.8258 20.9812 56.9475 21.1921 57.0388 21.4632C57.1302 21.7343 57.1758 22.0882 57.1758 22.525C57.1758 22.7132 57.1606 22.9467 57.1378 23.2027C57.1149 23.4512 57.0465 23.6922 56.9551 23.9106C56.8638 24.1214 56.7268 24.3097 56.5366 24.4678C56.3616 24.6109 56.118 24.6787 55.8136 24.6787" fill="#123985"/>
<path d="M78.9176 25.3338C79.1839 25.6501 79.5112 25.8986 79.8993 26.0718C80.2874 26.245 80.7135 26.3353 81.1853 26.3353C81.7333 26.3353 82.1899 26.2299 82.5475 26.0191C82.7606 25.8986 82.9432 25.7555 83.1031 25.5974L83.1715 26.1471H85.8046L85.8502 26.0266C85.9263 25.8082 85.972 25.5974 85.972 25.3865C85.972 25.1757 85.934 24.9648 85.8502 24.7464L85.8046 24.6259H85.0436V18.7899H83.1259L82.9889 19.4299C82.8519 19.2944 82.6845 19.1814 82.5019 19.076C82.167 18.8953 81.7637 18.8049 81.3147 18.8049C80.6907 18.8049 80.1656 18.9405 79.7471 19.204C79.3361 19.4676 79.0013 19.7989 78.7578 20.198C78.5143 20.5896 78.3392 21.0264 78.2403 21.4857C78.1414 21.9451 78.0957 22.3819 78.0957 22.781C78.0957 23.3006 78.1642 23.7825 78.3088 24.2118C78.4534 24.641 78.6588 25.0175 78.9176 25.3338ZM82.9585 23.2027C82.9356 23.4512 82.8671 23.6922 82.7758 23.9105C82.6845 24.1214 82.5399 24.3097 82.3573 24.4678C82.1823 24.6109 81.9387 24.6786 81.6267 24.6786C81.3147 24.6786 81.0636 24.6109 80.881 24.4678C80.6983 24.3097 80.5461 24.1289 80.4548 23.9181C80.3559 23.6997 80.2874 23.4662 80.2645 23.2253C80.2417 22.9692 80.2265 22.7584 80.2265 22.5852C80.2265 21.9225 80.3559 21.3879 80.6146 20.9963C80.8581 20.6273 81.1777 20.4465 81.5963 20.4465C81.7561 20.4465 81.9235 20.4767 82.0833 20.5369C82.2431 20.5972 82.3877 20.6951 82.5171 20.8381C82.6465 20.9812 82.7606 21.1921 82.8519 21.4632C82.9432 21.7343 82.9889 22.0882 82.9889 22.5249C82.9889 22.7057 82.9737 22.9316 82.9509 23.2027" fill="#123985"/>
<path d="M73.4232 39.3856H72.7383V34.0767H70.9271L70.8054 34.6189C70.6912 34.5134 70.5542 34.4231 70.4097 34.3402C70.0977 34.167 69.7248 34.0842 69.3138 34.0842C68.7431 34.0842 68.256 34.2122 67.8679 34.4532C67.4874 34.6942 67.183 35.0029 66.9547 35.3719C66.7264 35.7334 66.5742 36.1249 66.4753 36.5542C66.384 36.9759 66.3383 37.375 66.3383 37.744C66.3383 38.2184 66.4068 38.6552 66.5438 39.0543C66.6656 39.4534 66.8558 39.7998 67.0993 40.0859C67.3429 40.3721 67.6472 40.6055 68.0049 40.7712C68.3626 40.9369 68.7583 41.0197 69.1921 41.0197C69.6943 41.0197 70.1205 40.9218 70.4477 40.726C70.6227 40.6281 70.7749 40.5152 70.9043 40.3872L70.9652 40.8465H73.4232L73.4689 40.711C73.545 40.5076 73.583 40.3118 73.583 40.1161C73.583 39.9203 73.545 39.7245 73.4689 39.5212L73.4232 39.3856ZM69.5954 39.4233C69.3138 39.4233 69.1007 39.363 68.9409 39.235C68.7735 39.0995 68.6442 38.9338 68.5681 38.7531C68.4843 38.5573 68.4235 38.3539 68.393 38.1431C68.3702 37.9096 68.3626 37.7139 68.3626 37.5632C68.3626 36.9683 68.4843 36.4864 68.705 36.14C68.9257 35.8087 69.1997 35.658 69.565 35.658C69.7095 35.658 69.8541 35.6806 69.9987 35.7409C70.1357 35.7936 70.2651 35.884 70.3792 36.0044C70.4934 36.14 70.5999 36.3283 70.676 36.5617C70.7597 36.8027 70.8054 37.1265 70.8054 37.5181C70.8054 37.6837 70.7978 37.8871 70.7673 38.1205C70.7445 38.3464 70.6912 38.5573 70.6075 38.7531C70.5314 38.9413 70.402 39.107 70.2422 39.235C70.09 39.363 69.877 39.4233 69.603 39.4233" fill="#123985"/>
<path d="M65.1207 36.3056C64.9685 36.1023 64.7934 35.9291 64.6032 35.8011C64.5119 35.7408 64.4205 35.6806 64.3292 35.6279C64.5956 35.3869 64.7934 35.1158 64.9076 34.8221C65.0598 34.4456 65.1359 34.0841 65.1359 33.7227C65.1359 33.3612 65.075 33.06 64.9532 32.7588C64.8315 32.4576 64.6412 32.1865 64.3901 31.953C64.1466 31.7196 63.827 31.5389 63.4617 31.4108C63.0964 31.2828 62.655 31.2151 62.1604 31.2151H57.5868L57.5335 31.3732C57.465 31.6217 57.427 31.8551 57.427 32.0585C57.427 32.2844 57.465 32.5028 57.5411 32.7061L57.602 32.8416H58.3554V39.235H57.5868L57.5335 39.3856C57.4574 39.6115 57.4194 39.8299 57.4194 40.0482C57.4194 40.2666 57.4574 40.485 57.5335 40.7109L57.5868 40.8615H62.305C62.8529 40.8615 63.3323 40.7862 63.7433 40.6431C64.1542 40.4925 64.5119 40.2817 64.7858 40.0181C65.0674 39.7546 65.2729 39.4307 65.4022 39.0693C65.5392 38.7154 65.6001 38.3238 65.6001 37.9171C65.6001 37.5707 65.5544 37.2695 65.4631 37.0059C65.3718 36.7499 65.25 36.5165 65.0978 36.3131M62.9214 33.4742C62.9594 33.6022 62.9747 33.7302 62.9747 33.8658C62.9747 34.2197 62.8757 34.4983 62.6779 34.7092C62.4952 34.9125 62.1756 35.0104 61.7342 35.0104H60.4253V32.9094H61.7418C62.0082 32.9094 62.2213 32.9395 62.3887 32.9922C62.5409 33.0449 62.6626 33.1127 62.7464 33.2031C62.8225 33.2784 62.8833 33.3763 62.9062 33.4817M60.4177 36.7047H61.993C62.4343 36.7047 62.792 36.8102 63.0584 37.0135C63.3095 37.2093 63.4313 37.4804 63.4313 37.8719C63.4313 38.2635 63.3247 38.5873 63.1192 38.8283C62.929 39.0618 62.5942 39.1747 62.1223 39.1747H60.4177V36.6972V36.7047Z" fill="#123985"/>
<path d="M81.9081 39.333H81.2004V36.2907C81.2004 35.4699 80.9873 34.8298 80.5764 34.378C80.1579 33.9186 79.5415 33.6852 78.7576 33.6852C78.2401 33.6852 77.7836 33.7981 77.4335 34.009C77.2737 34.1069 77.1367 34.2048 77.0149 34.3102L76.9769 33.8584H74.4276L74.3743 34.0014C74.2982 34.2123 74.2601 34.4156 74.2601 34.6189C74.2601 34.8222 74.2982 35.0256 74.3743 35.2364L74.4276 35.3795H75.1353V39.3254H74.4276L74.3743 39.4685C74.2982 39.6794 74.2601 39.8902 74.2601 40.086C74.2601 40.2818 74.2982 40.4927 74.3743 40.7035L74.4276 40.8466H77.8216L77.8749 40.7035C77.951 40.4927 77.989 40.2893 77.989 40.086C77.989 39.8827 77.951 39.6718 77.8749 39.4685L77.8216 39.3254H77.2204V36.8781C77.2204 36.5467 77.2661 36.2681 77.3346 36.0723C77.4107 35.8765 77.502 35.7184 77.6085 35.6129C77.6998 35.5075 77.8216 35.4322 77.9357 35.3946C78.0727 35.3569 78.2097 35.3343 78.3239 35.3343C78.6435 35.3343 78.8566 35.4096 78.9479 35.5678C79.062 35.7636 79.1229 36.0572 79.1229 36.4488V39.3254H78.5217L78.4684 39.4685C78.3923 39.6794 78.3543 39.8827 78.3543 40.086C78.3543 40.2893 78.3923 40.5002 78.4684 40.7035L78.5217 40.8466H81.9081L81.9614 40.7035C82.0375 40.4927 82.0756 40.2893 82.0756 40.086C82.0756 39.8827 82.0299 39.6794 81.9614 39.4685L81.9081 39.3254V39.333Z" fill="#123985"/>
<path d="M90.401 39.7846C90.3782 39.6868 90.3553 39.5889 90.3325 39.4985L90.2869 39.3328H89.5411L87.8593 36.5014L89.153 35.3869H90.0357L90.089 35.2513C90.1727 35.048 90.226 34.8372 90.226 34.6263C90.226 34.4155 90.1803 34.1971 90.089 33.9938L90.0357 33.8582H86.4438L86.3906 34.0013C86.3145 34.2046 86.2764 34.4155 86.2764 34.6037C86.2764 34.8221 86.3221 35.0254 86.4134 35.2137L86.4743 35.3342H86.6797L85.7437 36.1249V30.8385H82.9661L82.9128 30.9816C82.8215 31.2 82.7834 31.4184 82.7834 31.6141C82.7834 31.825 82.8291 32.0358 82.9204 32.2542L82.9737 32.3898H83.6662V39.3253H82.9737L82.9128 39.4533C82.8215 39.6642 82.7758 39.875 82.7758 40.0859C82.7758 40.2967 82.8139 40.5 82.89 40.7034L82.9433 40.8464H86.0938L86.1623 40.7485C86.2307 40.6506 86.2764 40.5452 86.2992 40.4323C86.3297 40.3268 86.3373 40.2214 86.3373 40.1235C86.3373 39.9051 86.284 39.6943 86.1851 39.4985L86.1242 39.3705H85.7361V38.2409L86.2688 37.7891L87.182 39.3705H86.8776L86.8167 39.491C86.7178 39.6868 86.6645 39.8976 86.6645 40.1235C86.6645 40.2289 86.6797 40.3268 86.7026 40.4323C86.7254 40.5377 86.7634 40.6431 86.8167 40.7335L86.8776 40.8464H90.2336L90.2869 40.7034C90.363 40.4925 90.401 40.2892 90.401 40.0859C90.401 39.9804 90.401 39.875 90.3706 39.7771" fill="#123985"/>
<mask id="mask0_1_3123" style="mask-type:luminance" maskUnits="userSpaceOnUse" x="100" y="7" width="27" height="29">
<path d="M113.497 7.59229C108.292 7.59229 103.612 9.84388 100.408 13.4133C100.454 13.4434 103.977 15.9209 105.035 19.4904C105.956 22.3218 105.24 24.6939 104.89 25.8611C104.746 26.3054 104.616 26.712 104.502 27.0735C103.794 29.2272 103.505 30.1233 103.452 31.5541V31.5993C103.399 33.753 105.02 35.5452 107.067 35.5979C108.383 35.628 109.593 34.9428 110.301 33.7756C111.473 31.5691 111.024 28.9109 110.856 28.1428V28.1202C110.856 28.1202 110.849 28.0901 110.841 28.0675V28.0524C110.529 26.7421 110.004 25.3415 109.327 24.0011C108.315 21.8323 107.691 20.1003 107.417 18.6921C107.188 17.4948 107.196 16.5083 107.447 15.5143C105.294 14.204 105.598 12.344 105.971 11.35L106.115 10.9584L106.123 10.9358L106.138 10.8981H106.146C106.146 10.8981 106.876 11.9298 108.132 12.4118C108.261 12.4569 108.391 12.5021 108.528 12.5322C108.71 12.5774 108.901 12.6151 109.083 12.6377C109.243 12.6527 109.403 12.6603 109.57 12.6603C109.601 12.6603 109.624 12.6603 109.654 12.6603C110.057 12.6301 110.468 12.5021 110.689 12.4193C110.727 12.4042 110.697 12.4193 110.689 12.4193L110.849 12.3515C112.31 11.7867 115.004 10.9358 116.815 12.1858C117.842 12.8184 118.337 13.7371 118.337 13.7371C121.214 14.7989 121.487 16.7643 121.663 18.0671L121.739 18.6394L121.267 18.3005C120.346 17.6153 119.615 17.2915 118.961 17.2764H118.9C118.413 17.2764 117.858 17.412 117.409 17.6379C115.925 18.3984 115.673 19.7464 115.666 19.7614C115.202 21.4257 115.841 22.8715 118.132 25.3114C118.162 25.3415 121.373 28.4741 122.013 29.4606C123.055 30.8312 123.77 32.1942 124.136 33.4969C124.136 33.5045 124.159 33.5572 124.197 33.6099C124.197 33.6099 124.303 33.753 124.44 33.753C124.516 33.753 124.592 33.7078 124.668 33.6099C125.057 32.8644 124.843 31.7423 124.592 30.9291C124.463 30.5224 124.006 29.4305 123.999 29.423V29.4079C123.999 29.4079 123.984 29.3778 123.976 29.3627C123.04 27.2316 122.576 24.9348 122.637 22.736C122.682 21.1696 122.956 19.6184 123.474 18.1424C123.542 17.9014 123.626 17.6454 123.725 17.3969C123.725 17.3969 123.74 17.3592 123.77 17.2839C124.25 16.0414 124.79 15.1378 125.011 14.814C125.376 14.2115 125.78 13.5865 126.244 13.0518C123.055 9.69327 118.527 7.59982 113.497 7.59982V7.59229Z" fill="white"/>
</mask>
<g mask="url(#mask0_1_3123)">
<path d="M120.55 -3.00323L88.6609 13.7754L106.103 46.2356L137.992 29.457L120.55 -3.00323Z" fill="url(#paint0_linear_1_3123)"/>
</g>
<mask id="mask1_1_3123" style="mask-type:luminance" maskUnits="userSpaceOnUse" x="110" y="12" width="1" height="1">
<path d="M110.682 12.4343C110.666 12.4424 110.658 12.4424 110.682 12.4343Z" fill="white"/>
</mask>
<g mask="url(#mask1_1_3123)">
<path d="M110.684 12.4204L110.663 12.4314L110.674 12.4522L110.695 12.4412L110.684 12.4204Z" fill="url(#paint1_linear_1_3123)"/>
</g>
<mask id="mask2_1_3123" style="mask-type:luminance" maskUnits="userSpaceOnUse" x="96" y="13" width="35" height="30">
<path d="M109.776 15.6648C108.17 18.8577 110.56 22.0657 112.302 24.4151L112.409 24.5507C112.683 24.9197 112.934 25.3037 113.177 25.7179C113.741 26.5688 114.471 27.8867 114.798 29.3325L114.814 29.3702C114.814 29.3702 114.814 29.3927 114.814 29.4078C114.814 29.4153 114.814 29.4229 114.814 29.4379C114.836 29.5283 114.852 29.6337 114.874 29.7542C114.874 29.7843 114.882 29.8069 114.89 29.837V29.8596C115.011 30.5223 115.042 31.2001 114.989 31.8703C114.973 32.0886 114.943 32.3221 114.897 32.5631C114.661 34.3327 113.862 35.9593 112.63 37.1416C111.397 38.3314 109.814 38.9865 108.185 38.9865C108.124 38.9865 108.071 38.9865 108.025 38.9865C108.01 38.9865 107.987 38.9865 107.972 38.9865C107.957 38.9865 107.949 38.9865 107.934 38.9865C105.628 38.9714 104.015 37.4352 104 37.4202V37.4051C103.17 36.7123 102.562 35.8162 102.234 34.8147C101.298 32.3974 101.93 29.7241 101.938 29.694C102.105 28.8204 102.364 27.9996 102.592 27.2767C102.942 26.1471 103.277 25.0929 103.254 24.0838V24.0763V24.0612C103.254 24.0085 103.254 23.9633 103.254 23.9181C103.254 21.9527 102.326 20.0776 100.781 18.9104C100.347 18.5941 99.373 17.9842 97.714 17.4495C96.6182 19.7162 96.0018 22.2464 96.0018 24.9197C96.0018 34.4833 103.84 42.2396 113.505 42.2396C123.169 42.2396 131 34.4833 131 24.9197C131 22.0054 130.277 19.2643 128.991 16.8546C128.557 17.2161 127.134 18.4962 126.183 20.552C126.092 20.7554 126.015 20.9436 125.939 21.1168C125.939 21.1243 125.939 21.1394 125.932 21.1469C125.369 22.5702 125.064 24.0687 125.026 25.6125C125.011 26.1245 125.026 26.6441 125.072 27.1562C125.11 27.5704 125.201 28.0749 125.338 28.6698C125.536 29.4681 125.802 30.319 125.878 30.56C126.16 31.3808 126.845 34.2574 123.717 36.8177L123.672 36.8554C123.314 37.1566 122.933 37.4503 122.561 37.7139C122.294 37.8946 122.005 38.0753 121.685 38.2711C121.602 38.3314 121.51 38.3841 121.434 38.4368C121.054 38.6552 120.673 38.866 120.278 39.0467C120.194 39.0769 120.141 39.0919 120.087 39.0919C120.011 39.0919 119.95 39.0693 119.912 39.0166C119.844 38.9263 119.867 38.7907 119.882 38.7229L119.897 38.6853C121.122 34.8674 120.156 31.9305 119.128 30.1383C118.558 29.212 117.766 28.3234 117.348 27.8716L117.325 27.849C117.226 27.7511 117.135 27.6532 117.036 27.5553L116.982 27.5026C116.648 27.1562 116.298 26.7948 115.955 26.4258C115.186 25.5974 114.578 24.7314 114.136 23.8504C113.284 22.0807 113.375 20.6349 113.611 19.7312C113.817 18.9179 114.167 18.3908 114.281 18.2327C114.129 18.2477 113.992 18.2553 113.847 18.2553C111.754 18.2553 111.633 16.3124 111.625 16.2898V16.2522L112.021 16.3727C112.021 16.3727 112.865 16.6287 113.748 16.6588C114.334 16.6739 114.798 16.5835 115.133 16.4028C115.78 16.1016 116.107 15.597 116.138 14.9193C116.062 13.9328 115.278 13.496 114.578 13.4057C114.387 13.3831 114.19 13.368 113.999 13.3605C113.954 13.3605 113.9 13.3605 113.855 13.3605C111.001 13.3605 109.829 15.5895 109.776 15.6799V15.6648Z" fill="white"/>
</mask>
<g mask="url(#mask2_1_3123)">
<path d="M123.277 -1.00718L83.8962 19.7133L103.707 56.5818L143.088 35.8613L123.277 -1.00718Z" fill="url(#paint2_linear_1_3123)"/>
</g>
<defs>
<linearGradient id="paint0_linear_1_3123" x1="101.152" y1="28.2086" x2="127.041" y2="14.2979" gradientUnits="userSpaceOnUse">
<stop stop-color="#82222F"/>
<stop offset="0.12" stop-color="#82222F"/>
<stop offset="0.77" stop-color="#ED1A39"/>
<stop offset="1" stop-color="#ED1A39"/>
</linearGradient>
<linearGradient id="paint1_linear_1_3123" x1="111.338" y1="12.6248" x2="111.352" y2="12.6173" gradientUnits="userSpaceOnUse">
<stop stop-color="#82222F"/>
<stop offset="0.12" stop-color="#82222F"/>
<stop offset="0.77" stop-color="#ED1A39"/>
<stop offset="1" stop-color="#ED1A39"/>
</linearGradient>
<linearGradient id="paint2_linear_1_3123" x1="904.257" y1="-388.707" x2="935.022" y2="-405.237" gradientUnits="userSpaceOnUse">
<stop stop-color="#82222F"/>
<stop offset="0.12" stop-color="#82222F"/>
<stop offset="0.77" stop-color="#ED1A39"/>
<stop offset="1" stop-color="#ED1A39"/>
</linearGradient>
</defs>
</svg>
