<svg width="144" height="50" viewBox="0 0 144 50" fill="none" xmlns="http://www.w3.org/2000/svg">
<rect width="144" height="50" rx="4" fill="white"/>
<path d="M50.5103 18.2155H48.4675V28.5596H50.5103V18.2155Z" fill="#1E4485"/>
<path d="M30.1262 18.4763L24.3021 28.5597H35.9502L30.1262 18.4763Z" fill="#EC2227"/>
<path d="M18 28.5597H24.3021L21.1293 23.1269L18 28.5597Z" fill="#EC2227"/>
<path d="M22.2595 21.1276L24.8238 25.6042L29.5178 17.4767L26.9535 13L22.2595 21.1276Z" fill="#EC2227"/>
<path d="M41.6439 25.9953L37.7322 18.2155H35.3853L40.6008 28.5596H42.6436L47.8591 18.2155H45.5121L41.6439 25.9953Z" fill="#1E4485"/>
<path d="M74.632 18.2155L69.46 28.5596H71.7635L72.9805 26.1257H78.3699L79.5868 28.5596H81.8903L76.7183 18.2155H74.632ZM73.8497 24.4307L75.6752 20.7798L77.5006 24.4307H73.8497Z" fill="#1E4485"/>
<path d="M97.5372 18.2155L92.3651 28.5596H94.6686L95.8856 26.1257H101.275L102.492 28.5596H104.796L99.6234 18.2155H97.5372ZM96.7549 24.4307L98.5803 20.7798L100.406 24.4307H96.7549Z" fill="#1E4485"/>
<path d="M53.9872 24.083H59.3332V22.3445H53.9872V19.954H59.6809V18.2155H51.9445V28.5596H59.8982V26.8211H53.9872V24.083Z" fill="#1E4485"/>
<path d="M60.6807 19.954H63.81V28.5596H65.8962V19.954H68.9821V18.2155H60.6807V19.954Z" fill="#1E4485"/>
<path d="M83.9767 18.2155H88.1057C88.9315 18.2155 89.5399 18.2589 89.9311 18.3024C90.3223 18.3893 90.7134 18.5197 91.0177 18.737C91.3219 18.9543 91.5827 19.2586 91.8 19.6063C92.0173 19.954 92.1042 20.3886 92.1042 20.8233C92.1042 21.3013 91.9739 21.736 91.7131 22.1706C91.4523 22.5618 91.1046 22.866 90.67 23.0833C91.2785 23.2572 91.8 23.5614 92.1042 24.0395C92.452 24.4741 92.6258 24.9957 92.6258 25.6042C92.6258 26.0823 92.4954 26.5169 92.2781 26.995C92.0608 27.4296 91.7565 27.7773 91.3654 28.0381C90.9742 28.2989 90.5396 28.4727 89.9746 28.5162C89.6269 28.5596 88.8011 28.5596 87.4537 28.6031H83.9332V18.2155H83.9767ZM86.0629 19.954V22.3445H87.4103C88.2361 22.3445 88.7141 22.3445 88.9315 22.301C89.2792 22.2575 89.5834 22.1271 89.7573 21.9098C89.9746 21.6925 90.0615 21.4317 90.0615 21.084C90.0615 20.7798 89.9746 20.519 89.8007 20.3017C89.6269 20.0844 89.3661 19.9975 89.0184 19.954C88.8011 19.9105 88.2361 19.9105 87.2364 19.9105L86.0629 19.954ZM86.0629 24.0395V26.8211H87.9753C88.7141 26.8211 89.1922 26.8211 89.4095 26.7777C89.7138 26.7342 89.9746 26.6038 90.1484 26.3865C90.3223 26.1692 90.4527 25.8649 90.4527 25.5172C90.4527 25.213 90.3657 24.9522 90.2353 24.7349C90.105 24.5176 89.8876 24.3437 89.5834 24.2568C89.2792 24.1699 88.6707 24.1264 87.7145 24.1264H86.0629V24.0395Z" fill="#1E4485"/>
<path d="M125.614 18.2155L121.529 22.301L125.788 28.5596H123.267L120.008 23.8222L118.704 25.1261V28.5596H116.617V18.2155H118.704V22.5618L123.05 18.2155H125.614Z" fill="#1E4485"/>
<path d="M43.6865 35.2965C43.6865 35.6007 43.6431 35.905 43.5996 36.2092C43.5127 36.47 43.4258 36.7308 43.2519 36.9481C43.0781 37.1654 42.9042 37.3392 42.6434 37.4262C42.3826 37.5566 42.0784 37.6 41.7307 37.6C41.4265 37.6 41.1657 37.5566 40.9484 37.5131C40.7311 37.4696 40.5137 37.3827 40.3834 37.3392V35.4703H39.9922V34.8619H40.2964V33.2537C40.4703 33.1668 40.6441 33.1233 40.8614 33.0799C41.0788 33.0364 41.3395 32.993 41.6003 32.993C41.948 32.993 42.2957 33.0364 42.5565 33.1668C42.8173 33.2972 43.0346 33.4276 43.2084 33.6449C43.3823 33.8622 43.4692 34.0795 43.5561 34.3838C43.6431 34.6445 43.6865 34.9488 43.6865 35.2965ZM42.6 35.253C42.6 34.688 42.513 34.2968 42.3826 34.0361C42.2523 33.7753 41.9915 33.6449 41.6438 33.6449C41.5134 33.6449 41.4265 33.6449 41.3395 33.6884V34.8184H41.8611V35.4269H41.3395V36.8177C41.383 36.8177 41.4265 36.8611 41.4699 36.8611C41.5134 36.8611 41.6003 36.8611 41.6438 36.8611C41.8176 36.8611 41.948 36.8177 42.0784 36.7742C42.2088 36.7308 42.2957 36.6004 42.3826 36.47C42.4696 36.3396 42.513 36.1657 42.5565 35.9484C42.6 35.818 42.6 35.5573 42.6 35.253Z" fill="#1E4485"/>
<path d="M47.7722 35.2964C47.7722 35.6007 47.7287 35.9049 47.6853 36.2092C47.6418 36.4699 47.5114 36.7307 47.381 36.948C47.2506 37.1653 47.0768 37.3392 46.816 37.4261C46.5987 37.5565 46.3379 37.6 46.0337 37.6C45.7294 37.6 45.4687 37.5565 45.2513 37.4261C45.034 37.2957 44.8602 37.1219 44.6863 36.948C44.5559 36.7307 44.4256 36.5134 44.3821 36.2092C44.3386 35.9484 44.2952 35.6441 44.2952 35.2964C44.2952 34.9922 44.3386 34.688 44.3821 34.3837C44.4256 34.1229 44.5559 33.8622 44.6863 33.6448C44.8167 33.4275 44.9906 33.2537 45.2513 33.1667C45.4687 33.0364 45.7294 32.9929 46.0337 32.9929C46.3379 32.9929 46.5987 33.0364 46.816 33.1667C47.0333 33.2971 47.2072 33.471 47.381 33.6448C47.5114 33.8622 47.6418 34.0795 47.6853 34.3837C47.7287 34.688 47.7722 34.9922 47.7722 35.2964ZM46.6856 32.7756L45.9902 32.2975L45.2948 32.7756L45.034 32.5148L45.7294 31.8194C45.8164 31.7325 45.9033 31.689 46.0337 31.689C46.1641 31.689 46.251 31.7325 46.3379 31.8194L47.0333 32.5148L46.6856 32.7756ZM46.6856 35.253C46.6856 35.0791 46.6856 34.8618 46.6422 34.688C46.6422 34.5141 46.5987 34.3402 46.5552 34.1664C46.5118 34.036 46.4248 33.9056 46.3379 33.8187C46.251 33.7318 46.1206 33.6883 45.9902 33.6883C45.8598 33.6883 45.7294 33.7318 45.6425 33.8187C45.5556 33.9056 45.4687 34.036 45.4252 34.1664C45.3817 34.2968 45.3383 34.4706 45.3383 34.688C45.3383 34.9053 45.2948 35.0791 45.2948 35.253C45.2948 35.4268 45.2948 35.6441 45.3383 35.818C45.3383 35.9918 45.3817 36.1657 45.4252 36.3395C45.4687 36.4699 45.5556 36.6003 45.6425 36.6872C45.7294 36.7742 45.8598 36.8176 45.9902 36.8176C46.1206 36.8176 46.251 36.7742 46.3379 36.6872C46.4248 36.6003 46.5118 36.4699 46.5552 36.3395C46.5987 36.2092 46.6422 36.0353 46.6422 35.818C46.6856 35.6441 46.6856 35.4703 46.6856 35.253Z" fill="#1E4485"/>
<path d="M51.0753 37.5565L49.5541 35.0357C49.4672 34.9053 49.4237 34.8184 49.3802 34.7314C49.3368 34.688 49.3368 34.6445 49.3368 34.6011C49.3368 34.6445 49.3368 34.688 49.3368 34.7314C49.3368 34.7749 49.3368 34.8184 49.3368 34.9053C49.3368 34.9488 49.3368 35.0357 49.3368 35.0791V37.5565H48.4675V33.0364H49.3802L50.7711 35.3399C50.8145 35.3834 50.8145 35.4703 50.858 35.5138C50.9015 35.5572 50.9015 35.6007 50.9449 35.6442L50.9884 35.7746C50.9884 35.7311 50.9884 35.6876 50.9884 35.6442C50.9884 35.6007 50.9884 35.5572 50.9884 35.5138C50.9884 35.4703 50.9884 35.4269 50.9884 35.3399V33.0799H51.9011V37.5565H51.0753Z" fill="#1E4485"/>
<path d="M55.8996 37.3393C55.7692 37.4262 55.5954 37.4697 55.3781 37.5131C55.1607 37.5566 54.9434 37.5566 54.6392 37.5566C54.2915 37.5566 53.9872 37.5131 53.7699 37.3827C53.5092 37.2958 53.2918 37.122 53.118 36.9047C52.9441 36.6873 52.8138 36.47 52.7268 36.1658C52.6399 35.8615 52.5964 35.5573 52.5964 35.2096C52.5964 34.8619 52.6399 34.5577 52.7268 34.2969C52.8138 34.0361 52.9441 33.7753 53.118 33.558C53.2918 33.3407 53.5092 33.2103 53.7699 33.0799C54.0307 32.9495 54.335 32.9061 54.6392 32.9061C54.9 32.9061 55.1173 32.9495 55.3346 32.993C55.5085 33.0365 55.6823 33.1234 55.8562 33.1668L55.5519 33.8188C55.465 33.7753 55.3781 33.7319 55.2477 33.6884C55.1173 33.6449 54.9869 33.6449 54.7696 33.6449C54.4219 33.6449 54.1176 33.7753 53.9438 34.0361C53.7699 34.2969 53.6395 34.688 53.6395 35.2096C53.6395 35.7312 53.7265 36.1223 53.9003 36.3831C54.0742 36.6439 54.2915 36.7743 54.5523 36.7743C54.6392 36.7743 54.7261 36.7743 54.7696 36.7743C54.813 36.7743 54.8565 36.7308 54.9 36.7308V35.4704H54.3784V34.9054H55.8996V37.3393Z" fill="#1E4485"/>
<path d="M60.6371 37.5565V35.6007H59.5071V37.5565H58.464V33.0364H59.5071V34.9053H60.6371V33.0364H61.6802V37.5131L60.6371 37.5565Z" fill="#1E4485"/>
<path d="M65.0268 37.5565L64.766 36.6003H63.4186L63.1144 37.5565H62.1582L63.6359 33.0798H64.6791L66.1133 37.5565H65.0268ZM63.8967 32.7321L63.0709 31.8194C63.0709 31.776 63.1579 31.7325 63.2013 31.689C63.2882 31.6456 63.3752 31.6456 63.4621 31.6456C63.549 31.6456 63.6359 31.6456 63.7663 31.689C63.8533 31.7325 63.9402 31.7325 64.0271 31.776L64.4617 32.6887L63.8967 32.7321ZM64.201 34.5141C64.1575 34.4272 64.1575 34.3837 64.1575 34.2968C64.1575 34.2533 64.114 34.1664 64.114 34.123C64.114 34.0795 64.114 34.036 64.114 33.9926C64.114 34.036 64.114 34.0795 64.0706 34.123C64.0706 34.1664 64.0706 34.2099 64.0271 34.2968C64.0271 34.3403 63.9836 34.4272 63.9836 34.5141L63.549 35.9919H64.5921L64.201 34.5141Z" fill="#1E4485"/>
<path d="M69.1557 37.5565L67.678 35.0357C67.5911 34.9053 67.5476 34.8184 67.5042 34.7314C67.4607 34.688 67.4607 34.6445 67.4607 34.6011C67.4607 34.6445 67.4607 34.688 67.4607 34.7314C67.4607 34.7749 67.4607 34.8184 67.4607 34.9053C67.4607 34.9488 67.4607 35.0357 67.4607 35.0791V37.5565H66.5914V33.0364H67.5042L68.895 35.3399C68.9384 35.3834 68.9384 35.4703 68.9819 35.5138C69.0254 35.5572 69.0254 35.6007 69.0688 35.6442L69.1123 35.7746C69.1123 35.7311 69.1123 35.6876 69.1123 35.6442C69.1123 35.6007 69.1123 35.5572 69.1123 35.5138C69.1123 35.4703 69.1123 35.4269 69.1123 35.3399V33.0799H70.025V37.5565H69.1557Z" fill="#1E4485"/>
<path d="M72.9806 37.5565V35.6007H71.8506V37.5565H70.8075V33.0364H71.8506V34.9053H72.9806V33.0364H74.0238V37.5131L72.9806 37.5565Z" fill="#1E4485"/>
<path d="M79.2827 37.3392C79.0654 37.5131 78.7177 37.6 78.2831 37.6C77.9788 37.6 77.7181 37.5566 77.5007 37.4262C77.2834 37.2958 77.1096 37.1219 76.9357 36.9046C76.8053 36.6873 76.6749 36.4265 76.6315 36.1657C76.5446 35.905 76.5446 35.6007 76.5446 35.2965C76.5446 34.9922 76.588 34.688 76.6315 34.4272C76.7184 34.1665 76.8053 33.9057 76.9357 33.6884C77.0661 33.471 77.2834 33.2972 77.5007 33.1668C77.7181 33.0364 77.9788 32.993 78.2831 32.993C78.5004 32.993 78.6742 33.0364 78.8481 33.0799C79.0219 33.1233 79.1523 33.2103 79.2393 33.2537L79.0219 33.9057C78.9785 33.8622 78.8916 33.8187 78.8046 33.8187C78.7177 33.7753 78.6308 33.7753 78.5004 33.7753C78.3265 33.7753 78.1961 33.8187 78.0658 33.9057C77.9354 33.9926 77.8484 34.123 77.805 34.2534C77.7181 34.3838 77.6746 34.5576 77.6311 34.7315C77.5877 34.9053 77.5877 35.1226 77.5877 35.2965C77.5877 35.4703 77.5877 35.6877 77.6311 35.8615C77.6746 36.0354 77.7181 36.2092 77.805 36.3396C77.8919 36.47 77.9788 36.6004 78.0658 36.6873C78.1961 36.7742 78.3265 36.8177 78.5004 36.8177C78.6308 36.8177 78.7177 36.8177 78.8046 36.7742C78.8916 36.7308 78.935 36.7308 79.0219 36.6873L79.2827 37.3392Z" fill="#1E4485"/>
<path d="M82.9771 36.2092C82.9771 36.4265 82.9336 36.6003 82.8467 36.7742C82.7598 36.948 82.6729 37.0784 82.5425 37.2088C82.4121 37.3392 82.2382 37.4261 82.0644 37.4696C81.8905 37.5131 81.6732 37.5565 81.4559 37.5565C81.2386 37.5565 81.0213 37.5131 80.8474 37.4696C80.6736 37.4261 80.4997 37.2957 80.3693 37.2088C80.2389 37.0784 80.1085 36.948 80.0651 36.7742C80.0216 36.6003 79.9347 36.4265 79.9347 36.2092V33.0364H80.9778V36.2092C80.9778 36.4265 81.0213 36.5569 81.1517 36.6438C81.2386 36.7307 81.369 36.7742 81.5428 36.7742C81.6732 36.7742 81.8036 36.7307 81.934 36.6438C82.0209 36.5569 82.1078 36.383 82.1078 36.2092V33.0798H83.064V36.2092H82.9771ZM81.369 32.7321L80.5432 31.8194C80.5432 31.776 80.6301 31.7325 80.6736 31.689C80.7605 31.6456 80.8474 31.6456 80.9343 31.6456C81.0213 31.6456 81.1082 31.6456 81.2386 31.689C81.3255 31.7325 81.4124 31.7325 81.4994 31.776L81.934 32.6887L81.369 32.7321Z" fill="#1E4485"/>
<path d="M86.4108 37.5565L84.933 35.0357C84.8461 34.9053 84.8026 34.8184 84.7592 34.7314C84.7592 34.688 84.7157 34.6445 84.7157 34.6011C84.7157 34.6445 84.7157 34.688 84.7157 34.7314C84.7157 34.7749 84.7157 34.8184 84.7157 34.9053C84.7157 34.9922 84.7157 35.0357 84.7157 35.0791V37.5565H83.8464V33.0364H84.7592L86.15 35.3399C86.1934 35.3834 86.1934 35.4703 86.2369 35.5138C86.2804 35.5572 86.2804 35.6007 86.3238 35.6442L86.4108 35.7746C86.4108 35.7311 86.4108 35.6876 86.4108 35.6442C86.4108 35.6007 86.4108 35.5572 86.4108 35.5138C86.4108 35.4703 86.4108 35.4269 86.4108 35.3399V33.0799H87.3235V37.5565H86.4108Z" fill="#1E4485"/>
<path d="M91.2349 37.3393C91.1046 37.4262 90.9307 37.4697 90.7134 37.5131C90.5395 37.5566 90.2788 37.5566 89.9745 37.5566C89.6268 37.5566 89.3226 37.5131 89.1053 37.3827C88.8445 37.2958 88.6272 37.122 88.4533 36.9047C88.2795 36.6873 88.1491 36.47 88.0622 36.1658C87.9752 35.8615 87.9318 35.5573 87.9318 35.2096C87.9318 34.8619 87.9752 34.5577 88.0622 34.2969C88.1491 34.0361 88.2795 33.7753 88.4533 33.558C88.6272 33.3407 88.8445 33.2103 89.1053 33.0799C89.366 32.9495 89.6703 32.9061 89.9745 32.9061C90.2353 32.9061 90.4526 32.9495 90.6699 32.993C90.8438 33.0365 91.0176 33.1234 91.1915 33.1668L90.8872 33.8188C90.8003 33.7753 90.7134 33.7319 90.583 33.6884C90.4526 33.6449 90.3222 33.6449 90.1049 33.6449C89.7572 33.6449 89.453 33.7753 89.2791 34.0361C89.1053 34.2969 88.9749 34.688 88.9749 35.2096C88.9749 35.7312 89.0618 36.1223 89.2356 36.3831C89.4095 36.6439 89.6268 36.7743 89.8876 36.7743C89.9745 36.7743 90.0614 36.7743 90.1049 36.7743C90.1484 36.7743 90.1918 36.7308 90.2353 36.7308V35.4704H89.7137V34.9054H91.2349V37.3393Z" fill="#1E4485"/>
<path d="M95.9723 37.5565L94.8858 35.3399V37.5565H93.8427V33.0364H94.8858V35.0357L96.0158 33.0364H97.1024L95.8419 35.0791L97.1893 37.5131L95.9723 37.5565Z" fill="#1E4485"/>
<path d="M99.8406 37.5565V35.6007H98.7106V37.5565H97.6675V33.0364H98.7106V34.9053H99.8406V33.0364H100.884V37.5131L99.8406 37.5565Z" fill="#1E4485"/>
<path d="M104.23 37.5565L103.97 36.6003H102.579L102.275 37.5565H101.318L102.796 33.0798H103.839L105.274 37.5565H104.23ZM103.405 34.5141C103.361 34.4272 103.361 34.3837 103.361 34.2968C103.361 34.2533 103.318 34.1664 103.318 34.1229C103.318 34.0795 103.318 34.036 103.318 33.9925C103.318 34.036 103.318 34.0795 103.274 34.1229C103.274 34.1664 103.274 34.2099 103.231 34.2968C103.231 34.3402 103.187 34.4272 103.187 34.5141L102.753 35.9918H103.796L103.405 34.5141ZM103.535 32.7321H102.97L103.405 31.8194C103.492 31.7759 103.579 31.7325 103.665 31.7325C103.752 31.689 103.839 31.689 103.97 31.689C104.057 31.689 104.144 31.689 104.23 31.7325C104.317 31.7759 104.361 31.8194 104.361 31.8629L103.535 32.7321Z" fill="#1E4485"/>
<path d="M107.36 33.7752V37.5565H106.317V33.7752H105.534V33.0798H108.142V33.7752H107.36Z" fill="#1E4485"/>
<path d="M112.401 37.5565H111.489L110.141 33.0798H111.271L111.88 35.6876C111.88 35.7311 111.923 35.818 111.923 35.8615C111.923 35.9049 111.967 35.9918 111.967 36.0353C111.967 36.0788 112.01 36.1657 112.01 36.2092C112.01 36.1657 112.01 36.0788 112.054 36.0353C112.054 35.9918 112.054 35.9049 112.097 35.8615C112.097 35.818 112.141 35.7311 112.141 35.6876L112.792 33.0798H113.792L112.401 37.5565Z" fill="#1E4485"/>
<path d="M117.53 35.2965C117.53 35.6007 117.487 35.905 117.443 36.2092C117.356 36.47 117.269 36.7308 117.139 36.9481C117.008 37.1654 116.835 37.3392 116.574 37.4262C116.357 37.5566 116.096 37.6 115.791 37.6C115.487 37.6 115.226 37.5566 115.009 37.4262C114.792 37.2958 114.618 37.1219 114.444 36.9481C114.314 36.7308 114.183 36.5134 114.14 36.2092C114.053 35.9484 114.053 35.6442 114.053 35.2965C114.053 34.9922 114.096 34.688 114.14 34.3838C114.183 34.123 114.314 33.8622 114.444 33.6449C114.575 33.4276 114.748 33.2537 115.009 33.1668C115.226 33.0364 115.487 32.993 115.791 32.993C116.096 32.993 116.357 33.0364 116.574 33.1668C116.791 33.2972 116.965 33.471 117.139 33.6449C117.269 33.8622 117.4 34.0795 117.443 34.3838C117.487 34.688 117.53 34.9922 117.53 35.2965ZM116.443 35.253C116.443 35.0792 116.443 34.8619 116.4 34.688C116.357 34.5142 116.357 34.3403 116.313 34.1664C116.27 34.0361 116.183 33.9057 116.096 33.8187C116.009 33.7318 115.878 33.6884 115.748 33.6884C115.618 33.6884 115.487 33.7318 115.4 33.8187C115.313 33.9057 115.226 34.0361 115.183 34.1664C115.14 34.2968 115.096 34.4707 115.096 34.688C115.096 34.8619 115.053 35.0792 115.053 35.253C115.053 35.4269 115.053 35.6442 115.096 35.818C115.096 35.9919 115.14 36.1657 115.183 36.3396C115.226 36.47 115.313 36.6004 115.4 36.6873C115.487 36.7742 115.618 36.8177 115.748 36.8177C115.878 36.8177 116.009 36.7742 116.096 36.6873C116.183 36.6004 116.27 36.47 116.313 36.3396C116.357 36.2092 116.4 36.0354 116.4 35.818C116.443 35.6442 116.443 35.4703 116.443 35.253Z" fill="#1E4485"/>
<path d="M120.833 37.5565L119.356 35.0357C119.269 34.9053 119.225 34.8184 119.182 34.7314C119.182 34.688 119.138 34.6445 119.138 34.6011C119.138 34.6445 119.138 34.688 119.138 34.7314C119.138 34.7749 119.138 34.8184 119.138 34.9053C119.138 34.9922 119.138 35.0357 119.138 35.0791V37.5565H118.269V33.0364H119.182L120.573 35.3399C120.616 35.3834 120.616 35.4703 120.66 35.5138C120.703 35.5572 120.703 35.6007 120.746 35.6442L120.833 35.7746C120.833 35.7311 120.833 35.6876 120.833 35.6442C120.833 35.6007 120.833 35.5572 120.833 35.5138C120.833 35.4703 120.833 35.4269 120.833 35.3399V33.0799H121.746V37.5565H120.833Z" fill="#1E4485"/>
<path d="M125.658 37.3393C125.527 37.4262 125.353 37.4697 125.136 37.5131C124.962 37.5566 124.701 37.5566 124.397 37.5566C124.049 37.5566 123.745 37.5131 123.528 37.3827C123.267 37.2958 123.05 37.122 122.876 36.9047C122.702 36.6873 122.572 36.47 122.485 36.1658C122.398 35.8615 122.354 35.5573 122.354 35.2096C122.354 34.8619 122.398 34.5577 122.485 34.2969C122.572 34.0361 122.702 33.7753 122.876 33.558C123.05 33.3407 123.267 33.2103 123.528 33.0799C123.789 32.9495 124.093 32.9061 124.397 32.9061C124.658 32.9061 124.875 32.9495 125.093 32.993C125.266 33.0365 125.44 33.1234 125.614 33.1668L125.31 33.8188C125.223 33.7753 125.136 33.7319 125.006 33.6884C124.875 33.6449 124.745 33.6449 124.528 33.6449C124.18 33.6449 123.876 33.7753 123.702 34.0361C123.528 34.2969 123.397 34.688 123.397 35.2096C123.397 35.7312 123.484 36.1223 123.658 36.3831C123.832 36.6439 124.049 36.7743 124.31 36.7743C124.397 36.7743 124.484 36.7743 124.528 36.7743C124.571 36.7743 124.614 36.7308 124.658 36.7308V35.4704H124.136V34.9054H125.658V37.3393Z" fill="#1E4485"/>
<path d="M47.207 32.2976L46.3812 31.3849C46.4247 31.3414 46.4682 31.2979 46.5116 31.2545C46.5551 31.211 46.6855 31.211 46.7724 31.211C46.8593 31.211 46.9462 31.211 47.0766 31.2545C47.1636 31.2979 47.2505 31.2979 47.3374 31.3414L47.772 32.2976H47.207Z" fill="#1E4485"/>
<path d="M113.097 25.0826L107.534 18.2155H105.447V28.5596H107.534V21.736L113.097 28.5596H115.183V18.2155H113.097V25.0826Z" fill="#1E4383"/>
</svg>
