<svg width="144" height="50" viewBox="0 0 144 50" fill="none" xmlns="http://www.w3.org/2000/svg">
<rect width="144" height="50" rx="4" fill="white"/>
<path d="M12.3552 18.0384C12.5772 17.7865 12.8486 17.7026 13.1941 17.7146C14.6375 17.7625 16.0933 17.6066 17.5367 17.7865C19.4242 18.0144 21.065 18.7941 22.3111 20.2094C24.248 22.3923 26.1602 24.5993 28.0848 26.7942C28.2081 26.9381 28.2698 27.0821 28.2698 27.286C28.2575 29.6249 28.2575 31.9517 28.2698 34.2906C28.2698 34.6264 28.1588 34.6504 27.875 34.5905C26.8511 34.3506 26.0245 33.7868 25.3089 33.0792C23.8902 31.6759 22.6195 30.1406 21.2871 28.6533C18.4743 25.5108 15.6861 22.3443 12.8857 19.2019C12.7006 18.998 12.5279 18.7701 12.3428 18.5662C12.3552 18.3863 12.3552 18.2063 12.3552 18.0384Z" fill="#DF0601"/>
<path d="M99.3671 34.9998C99.3424 34.9159 99.2684 34.9159 99.1944 34.9039C96.542 34.3042 94.9628 32.637 94.3953 30.1302C93.7908 27.4675 94.5187 25.1286 96.7393 23.3654C98.8613 21.6982 101.736 21.8182 103.845 23.5693C103.956 23.6533 104.055 23.7372 104.216 23.8812C104.216 23.5094 104.228 23.1975 104.216 22.8976C104.203 22.6698 104.265 22.5738 104.524 22.5858C105.375 22.5978 106.239 22.5978 107.09 22.5858C107.349 22.5858 107.398 22.6698 107.398 22.8976C107.398 26.7118 107.398 30.514 107.398 34.3282C107.398 34.556 107.349 34.652 107.09 34.652C106.239 34.64 105.375 34.64 104.524 34.652C104.265 34.652 104.203 34.556 104.216 34.3282C104.228 34.0163 104.216 33.6925 104.216 33.3086C103.944 33.5245 103.722 33.7045 103.5 33.8724C102.772 34.4121 101.958 34.748 101.057 34.9159C100.983 34.9279 100.872 34.8919 100.835 34.9998C100.354 34.9998 99.8606 34.9998 99.3671 34.9998ZM104.425 28.5709C104.425 26.6399 102.809 25.0566 100.811 25.0446C98.7626 25.0326 97.1095 26.6159 97.1095 28.5709C97.1218 30.49 98.7503 32.0612 100.749 32.0612C102.784 32.0852 104.425 30.526 104.425 28.5709Z" fill="#008449"/>
<path d="M91.2382 25.835C93.2985 26.7706 93.7179 28.9296 93.4342 30.6447C93.1134 32.5758 91.5343 34.0991 89.4864 34.4949C88.9435 34.6028 88.4007 34.6508 87.8455 34.6508C85.6126 34.6508 83.3796 34.6388 81.1466 34.6508C80.8012 34.6508 80.6778 34.5908 80.6778 34.219C80.6901 28.8576 80.6901 23.5082 80.6778 18.1467C80.6778 17.7869 80.7888 17.703 81.1343 17.715C83.2932 17.7269 85.4522 17.715 87.6112 17.7269C90.3253 17.7389 92.4842 19.5141 92.8667 22.0809C93.0641 23.4122 92.5706 24.5397 91.6453 25.4992C91.5836 25.5592 91.522 25.6192 91.4603 25.6791C91.3986 25.7271 91.3246 25.7751 91.2382 25.835ZM86.5132 27.4543C85.8593 27.4543 85.2055 27.4663 84.5516 27.4543C84.3172 27.4543 84.1815 27.4783 84.1938 27.7661C84.2062 28.9296 84.2062 30.093 84.1938 31.2684C84.1938 31.4963 84.2678 31.5563 84.4899 31.5443C85.7236 31.5323 86.9573 31.5563 88.1786 31.5323C89.0176 31.5203 89.7208 31.0166 89.9428 30.2729C90.1155 29.6972 90.1155 29.1095 89.9058 28.5338C89.6591 27.8381 89.1286 27.4663 88.3637 27.4543C87.7592 27.4543 87.13 27.4543 86.5132 27.4543ZM84.1938 22.7525C84.1938 23.2563 84.2062 23.76 84.1938 24.2758C84.1815 24.5397 84.2432 24.6476 84.5393 24.6356C85.5262 24.6116 86.5132 24.6356 87.5001 24.6236C88.6228 24.6116 89.3383 23.928 89.363 22.8725C89.3877 21.709 88.6721 20.9054 87.5495 20.8814C86.5378 20.8574 85.5139 20.8814 84.5022 20.8694C84.2432 20.8694 84.1938 20.9774 84.1938 21.1933C84.2062 21.721 84.1938 22.2368 84.1938 22.7525Z" fill="#008449"/>
<path d="M66.736 26.1466C66.736 23.4719 66.736 20.8092 66.7237 18.1345C66.7237 17.8226 66.7854 17.7027 67.1431 17.7147C69.1541 17.7387 71.1773 17.7147 73.1882 17.7267C76.7043 17.7387 79.5048 20.8572 79.0483 24.2395C78.6658 26.9982 76.2848 29.0133 73.4103 29.0133C72.4357 29.0133 71.4611 29.0252 70.4988 29.0013C70.1657 28.9893 70.0547 29.0612 70.0547 29.4091C70.0793 30.9923 70.0423 32.5875 70.0793 34.1708C70.0917 34.5786 69.956 34.6625 69.5735 34.6505C68.7593 34.6266 67.945 34.6266 67.1431 34.6505C66.8101 34.6625 66.736 34.5546 66.736 34.2547C66.736 31.544 66.736 28.8453 66.736 26.1466ZM70.067 23.388C70.067 24.1316 70.0793 24.8752 70.067 25.6189C70.067 25.8828 70.141 25.9547 70.4124 25.9547C71.3624 25.9427 72.3247 25.9667 73.2746 25.9427C74.5576 25.9187 75.4459 25.2111 75.6803 24.0476C75.742 23.6998 75.742 23.352 75.705 22.9921C75.5816 21.7687 74.6193 20.8932 73.3733 20.8692C72.3863 20.8452 71.3994 20.8692 70.4248 20.8572C70.1534 20.8572 70.0793 20.9411 70.0793 21.193C70.0793 21.9367 70.067 22.6563 70.067 23.388Z" fill="#008449"/>
<path d="M49.2051 17.7259C50.3771 17.7259 51.5245 17.7379 52.6718 17.7139C53.0049 17.7139 53.0049 17.9298 53.0666 18.1217C53.9425 20.7604 54.8184 23.4111 55.6944 26.0499C56.1508 27.4412 56.6196 28.8205 57.0761 30.2119C57.1008 30.3078 57.1501 30.3918 57.2118 30.5597C57.6806 29.1564 58.1247 27.813 58.5565 26.4817C59.4818 23.687 60.4071 20.9043 61.32 18.1097C61.4187 17.8098 61.5421 17.7259 61.8505 17.7259C62.8498 17.7499 63.8491 17.7379 64.8484 17.7259C65.1445 17.7259 65.1815 17.7858 65.0951 18.0497C63.2076 23.4831 61.32 28.9165 59.4448 34.3499C59.3584 34.5778 59.2474 34.6497 59.013 34.6497C57.804 34.6377 56.6073 34.6377 55.3983 34.6497C55.1886 34.6497 55.0528 34.6377 54.9788 34.3978C53.0666 28.8925 51.142 23.3991 49.2298 17.9058C49.2175 17.8578 49.2175 17.8218 49.2051 17.7259Z" fill="#008449"/>
<path d="M29.1583 30.8014C29.1583 29.65 29.1583 28.4985 29.1583 27.3471C29.1583 27.1192 29.22 26.9513 29.368 26.7834C31.2679 24.6244 33.1431 22.4414 35.0553 20.2945C36.5851 18.5793 38.559 17.7757 40.8783 17.7397C42.0133 17.7277 43.136 17.7397 44.271 17.7397C44.5671 17.7397 44.8632 17.7397 45.0112 18.0636C45.1593 18.3994 45.0112 18.6633 44.8015 18.9151C43.6665 20.1985 42.5315 21.4699 41.3965 22.7533C38.5343 25.9678 35.6722 29.1822 32.81 32.3967C32.0451 33.2483 31.1939 34.0159 30.0959 34.4477C29.1583 34.8195 29.1583 34.8075 29.1583 33.86C29.1583 32.8165 29.1583 31.8089 29.1583 30.8014Z" fill="#DF0601"/>
<path d="M111.63 23.9765C113.012 22.1174 115.332 21.9135 116.812 22.3573C118.613 22.909 119.933 24.5523 119.983 26.4833C120.044 29.1101 120.007 31.7368 120.02 34.3635C120.02 34.5914 119.933 34.6394 119.711 34.6394C118.909 34.6274 118.12 34.6274 117.318 34.6394C117.009 34.6514 116.935 34.5555 116.935 34.2676C116.948 32.1446 116.948 30.0216 116.948 27.8986C116.948 27.215 116.837 26.5553 116.454 25.9676C115.578 24.6242 113.284 24.6482 112.284 26.0156C111.84 26.6153 111.643 27.2989 111.643 28.0306C111.643 30.0696 111.63 32.1086 111.655 34.1476C111.655 34.5674 111.532 34.6634 111.125 34.6394C110.384 34.6034 109.644 34.6154 108.904 34.6394C108.657 34.6394 108.583 34.5674 108.583 34.3276C108.596 30.5014 108.596 26.6872 108.583 22.8611C108.583 22.6452 108.633 22.5732 108.867 22.5732C109.694 22.5852 110.52 22.5852 111.347 22.5732C111.581 22.5732 111.643 22.6452 111.643 22.8611C111.618 23.1969 111.63 23.5327 111.63 23.9765Z" fill="#008449"/>
<path d="M29.1581 25.5471C29.1581 25.0553 29.1581 24.6475 29.1581 24.2397C29.1581 21.3371 29.1581 18.4225 29.1581 15.5199C29.1581 15.256 29.2322 15.0521 29.4172 14.8482C31.2924 12.7492 33.1676 10.6383 35.0305 8.52728C35.1045 8.44332 35.1786 8.35936 35.2649 8.28739C35.4993 8.10748 35.7461 7.95155 36.0545 8.08349C36.3629 8.21543 36.3259 8.4913 36.3259 8.73118C36.3259 11.118 36.3259 13.5049 36.3259 15.8917C36.3259 16.9472 35.9805 17.8828 35.2773 18.6744C33.3157 20.9053 31.3294 23.1243 29.3432 25.3432C29.3185 25.3912 29.2692 25.4272 29.1581 25.5471Z" fill="#DF0601"/>
<path d="M28.2697 25.5592C27.2334 24.4078 26.2711 23.3403 25.3211 22.2728C24.3712 21.2173 23.4213 20.1498 22.459 19.0943C21.5584 18.1108 21.0772 17.0073 21.1019 15.652C21.1513 13.3491 21.1142 11.0462 21.1142 8.73128C21.1142 8.4794 21.0032 8.16755 21.361 8.04761C21.7311 7.91567 22.0272 8.0716 22.2739 8.34746C23.0511 9.23504 23.8407 10.1226 24.6179 11.0102C25.7653 12.3056 26.9003 13.5889 28.0476 14.8843C28.1586 15.0163 28.2573 15.1242 28.2573 15.3161C28.2697 18.6985 28.2697 22.0689 28.2697 25.5592Z" fill="#DF0601"/>
<path d="M124.312 31.1853C124.238 32.1809 124.275 33.1764 124.287 34.1719C124.287 34.5797 124.164 34.6637 123.769 34.6517C123.029 34.6277 122.289 34.6397 121.548 34.6517C121.289 34.6517 121.166 34.6157 121.166 34.3158C121.178 28.8944 121.178 23.473 121.166 18.0517C121.166 17.7878 121.252 17.7158 121.511 17.7278C122.289 17.7398 123.078 17.7518 123.855 17.7278C124.189 17.7158 124.263 17.8118 124.263 18.1236C124.25 20.9782 124.25 23.8209 124.263 26.6755C124.263 26.8434 124.287 27.0114 124.3 27.1793C124.312 28.5106 124.312 29.842 124.312 31.1853Z" fill="#008449"/>
<path d="M124.312 31.1816C124.312 29.8382 124.312 28.5069 124.312 27.1635C125.361 26.0121 126.41 24.8726 127.446 23.7212C128.174 22.9056 129.099 22.5338 130.197 22.5098C130.752 22.4978 131.295 22.5098 131.85 22.5098C132.072 22.5098 132.356 22.4258 132.48 22.6897C132.603 22.9416 132.369 23.1095 132.233 23.2654C130.974 24.6807 129.716 26.084 128.445 27.4994C127.483 28.5789 126.508 29.6583 125.546 30.7498C125.213 31.1216 124.818 31.3015 124.312 31.1816Z" fill="#DF0601"/>
<path d="M132.579 34.6383C131.394 34.6383 130.309 34.6383 129.223 34.6383C129.025 34.6383 128.939 34.5304 128.84 34.4104C128.174 33.6188 127.508 32.8272 126.842 32.0356C126.607 31.7477 126.41 31.4478 126.311 31.076C126.188 30.6202 126.25 30.2244 126.595 29.8766C126.842 29.6367 127.064 29.3728 127.298 29.133C127.631 28.7851 127.779 28.7851 128.088 29.1569C129.149 30.4523 130.21 31.7477 131.271 33.0431C131.69 33.5468 132.097 34.0506 132.579 34.6383Z" fill="#008449"/>
</svg>
