<svg width="144" height="50" viewBox="0 0 144 50" fill="none" xmlns="http://www.w3.org/2000/svg">
<rect width="144" height="50" rx="4" fill="white"/>
<path d="M28.3966 24.82C28.3966 27.0971 27.7214 29.3231 26.4563 31.2164C25.1912 33.1098 23.393 34.5855 21.2892 35.4569C19.1855 36.3283 16.8705 36.5563 14.6372 36.1121C12.4038 35.6678 10.3523 34.5713 8.74217 32.9611C7.132 31.351 6.03547 29.2995 5.59123 27.0661C5.14698 24.8328 5.37498 22.5178 6.2464 20.4141C7.11781 18.3103 8.5935 16.5121 10.4869 15.247C12.3802 13.9819 14.6062 13.3067 16.8833 13.3067C19.9358 13.3102 22.8622 14.5243 25.0206 16.6827C27.179 18.8411 28.3931 21.7675 28.3966 24.82Z" fill="white"/>
<path d="M16.8831 35.759C19.0549 35.7616 21.1787 35.1199 22.9857 33.9152C24.7928 32.7105 26.2019 30.9968 27.0348 28.9911C27.8677 26.9853 28.087 24.7776 27.6649 22.6472C27.2428 20.5168 26.1982 18.5595 24.6634 17.0228C23.1286 15.4862 21.1726 14.4394 19.0427 14.0147C16.9128 13.5901 14.7048 13.8067 12.698 14.6372C10.6913 15.4677 8.97595 16.8748 7.76908 18.6804C6.56222 20.4861 5.91803 22.6091 5.91803 24.7809C5.91803 27.6902 7.07285 30.4806 9.12882 32.539C11.1848 34.5974 13.9738 35.7555 16.8831 35.759Z" fill="#0083CA"/>
<mask id="mask0_1_3142" style="mask-type:luminance" maskUnits="userSpaceOnUse" x="5" y="13" width="23" height="23">
<path d="M5.91804 24.7809C5.91804 26.9527 6.56222 29.0758 7.76909 30.8814C8.97596 32.687 10.6913 34.0941 12.698 34.9246C14.7048 35.7551 16.9128 35.9718 19.0427 35.5471C21.1726 35.1225 23.1287 34.0756 24.6634 32.539C26.1982 31.0024 27.2428 29.045 27.6649 26.9146C28.087 24.7842 27.8677 22.5765 27.0348 20.5707C26.2019 18.565 24.7928 16.8513 22.9857 15.6466C21.1787 14.4419 19.0549 13.8002 16.8831 13.8028C15.442 13.8028 14.0151 14.0869 12.6839 14.6387C11.3527 15.1906 10.1434 15.9994 9.12501 17.019C8.10664 18.0386 7.29923 19.2489 6.74895 20.5808C6.19868 21.9126 5.91632 23.3399 5.91804 24.7809Z" fill="white"/>
</mask>
<g mask="url(#mask0_1_3142)">
<path d="M16.9352 29.7674C21.752 29.7674 25.89 31.0727 27.6523 33.0177C28.2666 31.6143 28.5822 30.0984 28.5791 28.5664C28.5309 25.5208 27.2792 22.618 25.0974 20.4924C22.9156 18.3669 19.9811 17.1914 16.9352 17.2228C13.8871 17.1879 10.9493 18.3619 8.76467 20.4878C6.58003 22.6137 5.32648 25.5185 5.27835 28.5664C5.28153 30.0978 5.59689 31.6124 6.20516 33.0177C7.98045 31.0988 12.1054 29.7674 16.9352 29.7674Z" fill="#0083CA"/>
<path d="M16.9222 29.7803C21.739 29.7803 25.864 31.0857 27.6262 33.0046C28.2301 31.6121 28.5411 30.1103 28.54 28.5925C28.5246 27.0828 28.2119 25.591 27.6195 24.2023C27.0272 22.8136 26.1669 21.5553 25.0879 20.4994C24.0089 19.4434 22.7324 18.6105 21.3312 18.0483C19.9301 17.486 18.4319 17.2055 16.9222 17.2228C13.8846 17.2053 10.9637 18.3918 8.79872 20.5226C6.6337 22.6534 5.4008 25.5549 5.36978 28.5925C5.37315 30.1111 5.68861 31.6129 6.29659 33.0046C7.98051 31.0988 12.1185 29.7803 16.9222 29.7803Z" fill="#0085CC"/>
<path d="M16.9223 29.7934C21.726 29.7934 25.8379 31.0988 27.6001 32.9915C28.2037 31.6081 28.5148 30.1149 28.5139 28.6055C28.4623 25.5795 27.2133 22.6974 25.0405 20.5906C22.8677 18.4839 19.9484 17.3245 16.9223 17.3664C13.9018 17.3314 10.9906 18.4944 8.82552 20.6008C6.66046 22.7071 5.41792 25.5853 5.3698 28.6055C5.36738 30.115 5.67854 31.6086 6.28355 32.9915C8.04579 31.1118 12.1577 29.7934 16.9484 29.7934" fill="#0087CD"/>
<path d="M16.9223 29.7934C21.7129 29.7934 25.8118 31.0987 27.574 32.9654C28.1789 31.6008 28.4902 30.1243 28.4878 28.6316C28.4294 25.6183 27.1797 22.7507 25.0122 20.6566C22.8447 18.5625 19.9358 17.4123 16.9223 17.4577C13.9099 17.4123 11.0025 18.5629 8.83701 20.6574C6.67155 22.7519 5.42473 25.6194 5.3698 28.6316C5.36736 30.1243 5.67867 31.6008 6.28355 32.9654C7.98052 31.1118 12.1446 29.7934 16.9223 29.7934Z" fill="#0088CE"/>
<path d="M16.9223 29.8064C21.6999 29.8064 25.7857 31.1118 27.5479 32.9523C28.1422 31.5986 28.4489 30.1362 28.4486 28.6577C28.3869 25.6594 27.139 22.8078 24.9784 20.7279C22.8178 18.6481 19.9208 17.5097 16.9223 17.5621C13.9203 17.5061 11.0185 18.6426 8.85301 20.7225C6.68751 22.8023 5.43493 25.6559 5.36981 28.6577C5.3666 30.1378 5.67807 31.6017 6.28356 32.9523C8.03275 31.1118 12.1316 29.8064 16.8962 29.8064" fill="#008ACF"/>
<path d="M16.9222 29.8196C21.6868 29.8196 25.7595 31.125 27.5087 32.9394C28.1106 31.5968 28.422 30.1422 28.4225 28.6709C28.3472 25.6886 27.0961 22.857 24.9418 20.7933C22.7876 18.7295 19.905 17.601 16.9222 17.6536C13.9305 17.587 11.0345 18.7093 8.86894 20.7746C6.7034 22.8398 5.44506 25.6794 5.36978 28.6709C5.39087 30.1287 5.72006 31.5656 6.33575 32.8872C8.08494 31.0597 12.1577 29.7674 16.9222 29.7674" fill="#008CD0"/>
<path d="M16.922 29.8325C21.6735 29.8325 25.7463 31.1379 27.4824 32.9262C28.0816 31.5971 28.3887 30.1548 28.3831 28.6969C28.3044 25.7296 27.0551 22.9139 24.9078 20.8645C22.7606 18.8151 19.8897 17.6983 16.922 17.7579C13.953 17.6982 11.0808 18.8146 8.93148 20.8637C6.78214 22.9128 5.52996 25.7284 5.44788 28.6969C5.45231 30.1426 5.76376 31.5708 6.36163 32.8871C8.09776 31.0726 12.1705 29.7934 16.922 29.7934" fill="#008ED2"/>
<path d="M16.922 29.8457C21.6605 29.8457 25.7202 31.151 27.4563 32.9133C28.0493 31.5959 28.3563 30.1677 28.357 28.723C28.2716 25.7684 27.0216 22.9674 24.8796 20.9305C22.7376 18.8937 19.8772 17.7861 16.922 17.8494C13.9656 17.7861 11.1038 18.8932 8.95974 20.9297C6.81565 22.9662 5.56283 25.7673 5.474 28.723C5.47652 30.1605 5.78815 31.5807 6.38775 32.8872C8.12389 31.0858 12.1836 29.8195 16.922 29.8195" fill="#0090D3"/>
<path d="M16.9221 29.8586C21.6345 29.8586 25.6942 31.164 27.365 32.9001C27.9578 31.5919 28.2649 30.1723 28.2658 28.736C28.1669 25.8102 26.9224 23.0404 24.8005 21.0235C22.6786 19.0066 19.8492 17.9041 16.9221 17.9537C13.9829 17.8833 11.1349 18.9769 8.99812 20.9963C6.86134 23.0157 5.60883 25.7975 5.51328 28.736C5.50822 30.1687 5.81559 31.5853 6.41398 32.8871C8.15011 31.0987 12.1967 29.8456 16.8569 29.8456" fill="#0091D4"/>
<path d="M16.9221 29.8717C21.6214 29.8717 25.668 31.177 27.365 32.8871C27.9625 31.5942 28.2699 30.1863 28.2657 28.7621C28.1634 25.8432 26.9157 23.082 24.7927 21.0762C22.6697 19.0705 19.8421 17.9815 16.9221 18.0451C13.9964 17.9745 11.1607 19.0599 9.02992 21.0661C6.89913 23.0722 5.64497 25.8374 5.53934 28.7621C5.54174 30.1856 5.84885 31.5921 6.44004 32.8871C8.16312 31.1118 12.2097 29.8717 16.8829 29.8717" fill="#0093D5"/>
<path d="M16.9091 29.8848C21.6084 29.8848 25.6419 31.1118 27.352 32.874C27.9431 31.5929 28.2504 30.1992 28.2527 28.7883C28.2527 22.9925 23.1618 18.1496 16.896 18.1496C10.6303 18.1496 5.56546 22.9925 5.56546 28.7883C5.56589 30.2036 5.87318 31.602 6.46616 32.8871C8.18924 31.1249 12.2228 29.8978 16.9091 29.8978" fill="#0095D7"/>
<path d="M16.9091 29.8979C21.5954 29.8979 25.6159 31.1119 27.352 32.8611C27.9401 31.5887 28.2431 30.2031 28.2397 28.8014C28.2397 23.0709 23.1749 18.241 16.9222 18.241C10.6695 18.241 5.59164 23.0709 5.59164 28.8014C5.5885 30.2129 5.89601 31.6078 6.49234 32.8872C8.20236 31.138 12.2229 29.924 16.9352 29.924" fill="#0097D8"/>
<path d="M16.9092 29.9109C21.5824 29.9109 25.5898 31.1249 27.3521 32.848C27.939 31.5891 28.242 30.2165 28.2397 28.8275C28.2397 23.1361 23.188 18.3846 16.9483 18.3846C10.7087 18.3846 5.61777 23.1361 5.61777 28.8275C5.61418 30.2307 5.9218 31.6172 6.51847 32.8872C8.22849 31.1641 12.236 29.9501 16.9614 29.9501" fill="#0099D9"/>
<path d="M16.909 29.9239C21.5692 29.9239 25.5636 31.1248 27.2736 32.8348C27.8631 31.5901 28.1707 30.2307 28.1743 28.8535C28.1743 23.2143 23.1225 18.4106 16.909 18.4106C10.6955 18.4106 5.65679 23.2143 5.65679 28.8535C5.64819 30.2474 5.95148 31.6255 6.54444 32.887C8.25447 31.177 12.2489 29.9761 16.909 29.9761" fill="#009BDA"/>
<path d="M16.9092 29.937C21.5563 29.937 25.5507 31.1249 27.2477 32.8219C27.8303 31.5985 28.1335 30.2608 28.1353 28.9058C28.1353 23.2797 23.1097 18.5282 16.9092 18.5282C10.7087 18.5282 5.68307 23.2797 5.68307 28.8666C5.68493 30.2217 5.98814 31.5593 6.57072 32.7827C8.26769 31.0858 12.2621 29.8979 16.9092 29.8979" fill="#009DDC"/>
<path d="M16.9092 29.95C21.5433 29.95 25.5246 31.1248 27.2216 32.7957C27.8097 31.5742 28.1132 30.2353 28.1093 28.8796C28.1093 23.3449 23.0967 18.6195 16.9092 18.6195C10.7218 18.6195 5.70924 23.3579 5.70924 28.8927C5.70531 30.2483 6.0088 31.5873 6.59688 32.8088C8.29385 31.1379 12.2752 29.9631 16.9092 29.9631" fill="#009FDD"/>
<path d="M16.9092 29.9631C21.5302 29.9631 25.4985 31.1249 27.1954 32.7827C27.779 31.5602 28.078 30.2213 28.07 28.8666C28.07 23.371 23.0705 18.6717 16.9092 18.6717C10.7479 18.6717 5.73527 23.4363 5.73527 28.971C5.72487 30.3274 6.02868 31.6678 6.62292 32.8871C8.31989 31.2293 12.2882 30.0676 16.9092 30.0676" fill="#00A1DE"/>
<path d="M16.9093 29.9632C21.5172 29.9632 25.4725 31.1249 27.1564 32.7697C27.7366 31.5872 28.0402 30.2882 28.044 28.9711C28.044 23.5408 23.0575 18.8676 16.9093 18.8676C10.761 18.8676 5.76147 23.5016 5.76147 28.9711C5.77208 30.2904 6.08465 31.5898 6.67523 32.7697C8.35915 31.1249 12.3144 29.9632 16.9354 29.9632" fill="#00A3E0"/>
<path d="M16.909 29.9761C21.5038 29.9761 25.446 31.1248 27.1299 32.7565C27.7126 31.5796 28.0164 30.2843 28.0176 28.971C28.0176 23.5798 23.0311 18.9327 16.909 18.9327C10.7868 18.9327 5.78726 23.5798 5.78726 28.971C5.78708 30.2844 6.09089 31.5801 6.67491 32.7565C8.35883 31.1248 12.301 29.9761 16.909 29.9761Z" fill="#00A5E1"/>
<path d="M16.8962 29.9892C21.4911 29.9892 25.4202 31.1249 27.1041 32.7436C27.6803 31.5695 27.9795 30.2789 27.9787 28.9711C27.9787 23.6321 23.0183 19.0111 16.8962 19.0111C10.774 19.0111 5.8267 23.6452 5.8267 28.9711C5.81159 30.2775 6.10215 31.5694 6.67519 32.7436C8.35911 31.1249 12.2882 29.9892 16.8701 29.9892" fill="#00A7E2"/>
<path d="M16.8962 30.0022C21.478 30.0022 25.3941 31.1248 27.078 32.7304C27.6576 31.5622 27.9571 30.2751 27.9526 28.971C27.9526 23.7495 23.0053 19.0894 16.8962 19.0894C10.7871 19.0894 5.85279 23.7495 5.85279 28.971C5.82573 30.2715 6.10757 31.56 6.67517 32.7304C8.34604 31.1248 12.2752 30.0022 16.8439 30.0022" fill="#00A9E3"/>
<path d="M16.896 30.0153C21.4648 30.0153 25.3678 31.1249 27.0387 32.7174C27.6307 31.5579 27.9351 30.273 27.9263 28.9711C27.9263 23.7496 22.979 19.1678 16.896 19.1678C10.813 19.1678 5.87875 23.7496 5.87875 28.9711C5.87867 30.2537 6.17815 31.5187 6.75335 32.6652C8.42421 31.0727 12.3403 29.9631 16.896 29.9631" fill="#00ABE5"/>
<path d="M16.896 30.0283C21.4517 30.0283 25.3548 31.1379 27.0126 32.639C27.585 31.5055 27.8845 30.2539 27.8872 28.984C27.8872 23.7626 22.966 19.246 16.896 19.246C10.8261 19.246 5.90488 23.867 5.90488 29.0493C5.90752 30.3191 6.20702 31.5708 6.77947 32.7043C8.45033 31.1379 12.3534 30.0936 16.896 30.0936" fill="#00ADE6"/>
<path d="M16.896 30.0415C21.4257 30.0415 25.3287 31.138 26.9865 32.6522C27.56 31.5285 27.8597 30.285 27.8611 29.0233C27.8611 23.8932 22.9529 19.3767 16.896 19.3767C10.8392 19.3767 5.931 23.9324 5.931 29.0625C5.93237 30.3241 6.23205 31.5676 6.80559 32.6914C8.4634 31.138 12.3664 30.0807 16.896 30.0807" fill="#00AFE7"/>
<path d="M16.8961 30.0545C21.4127 30.0545 25.3027 31.138 26.9605 32.6652C27.5235 31.5522 27.8186 30.3229 27.822 29.0755C27.822 23.9976 22.9269 19.4941 16.8961 19.4941C10.8653 19.4941 5.97024 24.0107 5.97024 29.0885C5.96728 30.3367 6.26267 31.5674 6.83178 32.6783C8.48959 31.138 12.3665 30.0676 16.8961 30.0676" fill="#00B2E9"/>
<path d="M16.8961 30.0675C21.3996 30.0675 25.2766 31.1379 26.9213 32.6783C27.4889 31.5803 27.7886 30.3636 27.7959 29.1277C27.7959 24.089 22.9138 19.6246 16.8961 19.6246C10.8784 19.6246 5.99634 24.0759 5.99634 29.1146C5.99508 30.3501 6.29055 31.5677 6.85788 32.6652C8.51569 31.1379 12.3796 30.0545 16.8961 30.0545" fill="#00B4EA"/>
<path d="M16.8962 30.0805C21.3866 30.0805 25.2505 31.1379 26.8953 32.6913C27.4683 31.6095 27.7685 30.4041 27.7699 29.1798C27.7699 24.2064 22.9009 19.7551 16.8962 19.7551C10.8915 19.7551 6.02252 24.1542 6.02252 29.1276C6.01769 30.351 6.31355 31.5568 6.88406 32.6391C8.52882 31.1379 12.3927 30.0283 16.8962 30.0283" fill="#00B6EC"/>
<path d="M16.8962 30.0937C21.3736 30.0937 25.2244 31.138 26.8692 32.6261C27.4315 31.5548 27.7271 30.3637 27.7307 29.1538C27.7307 24.2195 22.8748 19.8335 16.8962 19.8335C10.9176 19.8335 6.04864 24.2195 6.04864 29.1538C6.04542 30.3645 6.34137 31.5573 6.91018 32.6261C8.55494 31.138 12.4058 30.0937 16.8962 30.0937Z" fill="#00B9ED"/>
<path d="M16.8832 30.1066C21.3606 30.1066 25.1983 31.1379 26.8431 32.6129C27.4042 31.5553 27.6998 30.3771 27.7046 29.1798C27.7046 24.2978 22.8617 19.8987 16.8832 19.8987C10.9046 19.8987 6.07476 24.2978 6.07476 29.1798C6.07203 30.378 6.36814 31.558 6.9363 32.6129C8.568 31.1379 12.4188 30.1066 16.8832 30.1066Z" fill="#07BBEE"/>
<path d="M16.8829 30.1197C21.3472 30.1197 25.1719 31.1379 26.8167 32.5999C27.3746 31.551 27.666 30.3809 27.6652 29.1929C27.6652 24.363 22.8353 20.0553 16.8829 20.0553C10.9304 20.0553 6.10058 24.363 6.10058 29.1929C6.09777 30.3828 6.39402 31.5543 6.96211 32.5999C8.59382 31.1379 12.4316 30.1197 16.8829 30.1197Z" fill="#0FBDEF"/>
<path d="M16.883 30.1328C21.3342 30.1328 25.159 31.1379 26.7776 32.5868C27.3378 31.5523 27.6338 30.3955 27.6391 29.219C27.6391 24.4414 22.8224 20.0815 16.883 20.0815C10.9435 20.0815 6.13981 24.4414 6.13981 29.219C6.13442 30.3936 6.42153 31.551 6.97525 32.5868C8.62 31.1379 12.4317 30.1328 16.883 30.1328Z" fill="#19C0F1"/>
<path d="M16.883 30.1329C21.3212 30.1329 25.1329 31.151 26.7515 32.5739C27.2934 31.5487 27.5716 30.4048 27.5608 29.2452C27.5608 24.5068 22.7571 20.186 16.8307 20.186C10.9044 20.186 6.16593 24.5068 6.16593 29.2452C6.1621 30.4071 6.44931 31.5515 7.00136 32.5739C8.63307 31.151 12.4447 30.1329 16.883 30.1329Z" fill="#1EC4F4"/>
<path d="M16.8829 30.172C21.3081 30.172 25.1198 31.164 26.7384 32.5869C27.2854 31.5678 27.5681 30.4278 27.5608 29.2713C27.5608 24.5719 22.7701 20.2773 16.8568 20.2773C10.9435 20.2773 6.17896 24.5719 6.17896 29.2713C6.17796 30.4303 6.46982 31.5708 7.02744 32.5869C8.64609 31.164 12.4578 30.172 16.8829 30.172Z" fill="#33C6F4"/>
<path d="M16.8829 30.198C21.3081 30.198 25.1067 31.1901 26.7254 32.5999C27.2753 31.5907 27.5625 30.4596 27.5608 29.3103C27.5608 24.6371 22.7701 20.3686 16.8699 20.3686C10.9696 20.3686 6.19202 24.6371 6.19202 29.3103C6.19428 30.4607 6.48607 31.5919 7.0405 32.5999C8.65915 31.1901 12.4578 30.198 16.8829 30.198Z" fill="#3FC7F4"/>
<path d="M16.8829 30.2764C21.3081 30.2764 25.0937 31.2554 26.7123 32.6652C27.277 31.6472 27.5692 30.5006 27.5608 29.3365C27.5608 24.7025 22.7832 20.4601 16.8829 20.4601C10.9827 20.4601 6.20508 24.7025 6.20508 29.3365C6.20443 30.4831 6.49648 31.6109 7.05357 32.613C8.67221 31.2032 12.4708 30.2764 16.8829 30.2764Z" fill="#4AC8F5"/>
<path d="M16.883 30.2763C21.2951 30.2763 25.0806 31.2554 26.6993 32.6521C27.2636 31.6523 27.5604 30.5237 27.5608 29.3756C27.5608 24.7677 22.7832 20.5514 16.896 20.5514C11.0088 20.5514 6.21814 24.7677 6.21814 29.3756C6.21905 30.5137 6.51114 31.6327 7.06663 32.626C8.68528 31.2292 12.4708 30.2763 16.883 30.2763Z" fill="#54CAF5"/>
<path d="M16.883 30.2764C21.2951 30.2764 25.0676 31.2554 26.6862 32.6391C27.2492 31.6571 27.5504 30.5468 27.5608 29.4149C27.5608 24.8331 22.7963 20.6428 16.9091 20.6428C11.0219 20.6428 6.2312 24.8331 6.2312 29.4149C6.23367 30.5445 6.5258 31.6546 7.07969 32.6391C8.69834 31.2554 12.4839 30.2764 16.883 30.2764Z" fill="#5DCCF5"/>
<path d="M16.883 30.2763C21.2821 30.2763 25.0676 31.2423 26.6732 32.626C27.2376 31.6581 27.5433 30.5612 27.5609 29.4409C27.5609 24.8982 22.7963 20.7211 16.9222 20.7211C11.048 20.7211 6.24429 24.8982 6.24429 29.4409C6.24548 30.5666 6.53777 31.6728 7.09278 32.6521C8.71143 31.2684 12.4839 30.2763 16.883 30.2763Z" fill="#64CDF6"/>
<path d="M16.883 30.2764C21.2821 30.2764 25.0546 31.2424 26.6602 32.613C27.2159 31.6597 27.5255 30.583 27.5609 29.4802C27.5609 24.9636 22.7963 20.8125 16.9352 20.8125C11.0742 20.8125 6.27042 24.9636 6.27042 29.4802C6.2721 30.5958 6.55973 31.6924 7.10585 32.6652C8.71144 31.2946 12.4839 30.2764 16.883 30.2764Z" fill="#6DCFF6"/>
<path d="M16.8831 30.3677C21.2691 30.3677 25.0416 31.3207 26.6472 32.6782C27.2185 31.7166 27.5332 30.6244 27.5609 29.5062C27.5609 25.0549 22.7441 20.9039 16.8831 20.9039C11.022 20.9039 6.28351 25.0549 6.28351 29.5062C6.27971 30.6184 6.56778 31.7122 7.11895 32.6782C8.72454 31.3729 12.497 30.3677 16.8831 30.3677Z" fill="#73D1F6"/>
<path d="M16.883 30.3939C21.2691 30.3939 25.0285 31.3338 26.6341 32.6914C27.1816 31.7327 27.4737 30.6494 27.4826 29.5454C27.4826 25.0942 22.7311 20.9953 16.883 20.9953C11.035 20.9953 6.29655 25.055 6.29655 29.5454C6.29487 30.6491 6.58295 31.7339 7.13198 32.6914C8.73758 31.386 12.497 30.3939 16.883 30.3939Z" fill="#7AD2F7"/>
<path d="M16.8831 30.42C21.256 30.42 25.0155 31.3599 26.6211 32.6914C27.1641 31.7457 27.452 30.6751 27.4565 29.5846C27.4565 25.1594 22.7311 21.1389 16.8831 21.1389C11.035 21.1389 6.30963 25.1594 6.30963 29.5846C6.30617 30.6761 6.5946 31.7488 7.14506 32.6914C8.75066 31.386 12.5101 30.42 16.8831 30.42Z" fill="#81D4F7"/>
<path d="M16.8831 30.4461C21.2561 30.4461 25.0024 31.386 26.608 32.7044C27.1511 31.7635 27.4391 30.6971 27.4435 29.6107C27.4435 25.2247 22.7181 21.1389 16.8831 21.1389C11.0481 21.1389 6.3227 25.2247 6.3227 29.6107C6.32093 30.6979 6.60933 31.7659 7.15813 32.7044C8.76373 31.399 12.5101 30.4461 16.8831 30.4461Z" fill="#88D6F8"/>
<path d="M16.8831 30.4722C21.2561 30.4722 25.0024 31.399 26.595 32.7174C27.1359 31.7851 27.4239 30.7277 27.4304 29.6498C27.4304 25.2899 22.705 21.2694 16.8831 21.2694C11.0612 21.2694 6.33575 25.2899 6.33575 29.6498C6.34229 30.7277 6.63027 31.7851 7.17119 32.7174C8.77678 31.4121 12.5232 30.4722 16.8831 30.4722Z" fill="#8FD8F8"/>
<path d="M16.8831 30.4982C21.243 30.4982 24.9894 31.425 26.5819 32.7304C27.1258 31.8041 27.4141 30.75 27.4174 29.6759C27.4174 25.3551 22.705 21.3607 16.8831 21.3607C11.0612 21.3607 6.34882 25.3551 6.34882 29.6759C6.35211 30.75 6.6404 31.8041 7.18425 32.7304C8.78984 31.425 12.5232 30.4982 16.8831 30.4982Z" fill="#95DAF8"/>
<path d="M16.8831 30.5244C21.243 30.5244 24.9764 31.4382 26.5689 32.7435C27.1095 31.8253 27.3977 30.7806 27.4043 29.7151C27.4043 25.4205 22.692 21.4391 16.8831 21.4391C11.0742 21.4391 6.36188 25.4205 6.36188 29.7151C6.36854 30.7806 6.65675 31.8253 7.19731 32.7435C8.78985 31.4382 12.5362 30.5244 16.8831 30.5244Z" fill="#9ADCF9"/>
<path d="M16.8829 30.5505C21.2298 30.5505 24.9631 31.4642 26.5557 32.7565C27.0981 31.8439 27.3865 30.8028 27.3911 29.7411C27.3911 25.4726 22.6787 21.5304 16.9482 21.5304C11.2176 21.5304 6.50528 25.4465 6.50528 29.7411C6.50987 30.8028 6.79831 31.8439 7.34071 32.7565C8.93325 31.4512 12.6666 30.5505 17.0135 30.5505" fill="#A1DEF9"/>
<path d="M16.8829 30.5897C21.2298 30.5897 24.95 31.4904 26.5426 32.7697C27.0829 31.8657 27.3713 30.8335 27.378 29.7804C27.378 25.538 22.6787 21.6219 16.9351 21.6219C11.1915 21.6219 6.49222 25.538 6.49222 29.7804C6.49434 30.8324 6.77831 31.8646 7.3146 32.7697C8.90714 31.4643 12.6405 30.5897 16.9743 30.5897" fill="#A7DFF9"/>
<path d="M16.8829 30.6157C21.2167 30.6157 24.937 31.5034 26.5295 32.7826C27.0677 31.8873 27.3561 30.8641 27.365 29.8195C27.365 25.6032 22.6657 21.7132 16.9221 21.7132C11.1785 21.7132 6.47916 25.6293 6.47916 29.8195C6.48147 30.8632 6.76559 31.887 7.30154 32.7826C8.89408 31.4773 12.6144 30.6157 16.9482 30.6157" fill="#ADE1FA"/>
<path d="M16.8829 30.6419C21.2167 30.6419 24.9239 31.5296 26.5165 32.7958C27.0577 31.9066 27.3466 30.8867 27.3519 29.8457C27.3519 25.6685 22.6656 21.8046 16.909 21.8046C11.1523 21.8046 6.46609 25.7207 6.46609 29.8457C6.46685 30.8855 6.75117 31.9055 7.28847 32.7958C8.88102 31.4904 12.6013 30.6419 16.9221 30.6419" fill="#B2E3FA"/>
<path d="M16.8829 30.668C21.2036 30.668 24.9239 31.5556 26.5034 32.8088C27.0374 31.9266 27.3216 30.9159 27.3258 29.8848C27.3258 25.7337 22.6526 21.8829 16.8829 21.8829C11.1132 21.8829 6.43997 25.7337 6.43997 29.8848C6.44415 30.9159 6.7284 31.9266 7.26235 32.8088C8.85489 31.5034 12.5621 30.668 16.8829 30.668Z" fill="#B9E5FB"/>
<path d="M16.8828 30.6942C21.2036 30.6942 24.9108 31.5688 26.4903 32.8219C27.0202 31.9428 27.3042 30.9374 27.3127 29.9109C27.3127 25.7991 22.6395 21.9743 16.8698 21.9743C11.1001 21.9743 6.42689 25.7991 6.42689 29.9109C6.42523 30.9629 6.71923 31.9942 7.27537 32.8872C8.85486 31.5818 12.5751 30.7594 16.8828 30.7594" fill="#BEE7FB"/>
<path d="M16.8832 30.7203C21.2039 30.7203 24.8981 31.5948 26.4776 32.8349C27.0053 31.9644 27.2894 30.968 27.3 29.9501C27.3 25.8643 22.6398 22.1179 16.8571 22.1179C11.0743 22.1179 6.41415 25.9165 6.41415 29.9501C6.42414 30.9918 6.72724 32.0097 7.28875 32.8872C8.86824 31.5818 12.5755 30.7725 16.8832 30.7725" fill="#C3E9FB"/>
<path d="M16.8831 30.7464C21.1908 30.7464 24.885 31.621 26.4645 32.848C26.9919 31.9869 27.2761 30.999 27.2869 29.9893C27.2869 25.9296 22.6267 22.1571 16.844 22.1571C11.0612 22.1571 6.40106 25.9296 6.40106 29.9893C6.42123 31.021 6.73355 32.0258 7.30176 32.8872C8.88125 31.6602 12.5232 30.7856 16.8831 30.7856" fill="#CAEBFC"/>
<path d="M16.8831 30.7854C21.1908 30.7854 24.8719 31.6339 26.4514 32.861C26.979 32.0047 27.2633 31.0209 27.2738 30.0153C27.2738 25.9947 22.6267 22.1831 16.8309 22.1831C11.0351 22.1831 6.388 25.9295 6.388 30.0153C6.4187 31.041 6.74011 32.0369 7.31481 32.8871C8.8943 31.66 12.5363 30.8115 16.8831 30.8115" fill="#CFEDFC"/>
<path d="M16.8829 30.8115C21.1776 30.8115 24.8587 31.66 26.4382 32.874C26.9655 32.0272 27.25 31.0519 27.2605 30.0544C27.2605 26.06 22.6135 22.3397 16.8829 22.3397C11.1524 22.3397 6.50528 26.06 6.50528 30.0544C6.51349 31.0563 6.79806 32.0365 7.32766 32.8871C8.90715 31.6731 12.5491 30.8246 16.8829 30.8246" fill="#D5EFFC"/>
<path d="M16.8829 30.8377C21.1776 30.8377 24.8456 31.6732 26.4251 32.8871C26.952 32.045 27.2365 31.0739 27.2475 30.0806C27.2475 26.1645 22.6004 22.4312 16.8829 22.4312C11.1654 22.4312 6.51834 26.1254 6.51834 30.0806C6.52932 31.0739 6.81386 32.045 7.34072 32.8871C8.92021 31.6732 12.5622 30.8377 16.8829 30.8377Z" fill="#DBF1FD"/>
<path d="M16.883 30.8637C21.1646 30.8637 24.8457 31.6992 26.4121 32.9001C26.9369 32.0666 27.2214 31.1045 27.2345 30.1197C27.2345 26.2036 22.6005 22.5094 16.883 22.5094C11.1655 22.5094 6.54449 26.1905 6.54449 30.1197C6.55334 31.0992 6.83348 32.0571 7.35382 32.8871C8.93331 31.6861 12.5753 30.8507 16.883 30.8507" fill="#E0F3FD"/>
<path d="M16.883 30.8899C21.1646 30.8899 24.8326 31.7254 26.3991 32.9133C26.9255 32.0902 27.2104 31.1359 27.2214 30.1589C27.2214 26.2429 22.5874 22.6009 16.883 22.6009C11.1785 22.6009 6.55756 26.2559 6.55756 30.1589C6.56953 31.1257 6.84971 32.0702 7.36688 32.8871C8.93332 31.6993 12.5883 30.8638 16.883 30.8638" fill="#E6F6FD"/>
<path d="M16.883 30.916C21.1515 30.916 24.8196 31.7384 26.386 32.9262C26.9055 32.1055 27.1858 31.1562 27.1953 30.185C27.1953 26.2689 22.5874 22.6922 16.883 22.6922C11.1785 22.6922 6.57062 26.3603 6.57062 30.185C6.58739 31.1429 6.86738 32.0777 7.37994 32.8871C8.94638 31.6992 12.6014 30.8768 16.883 30.8768" fill="#EBF7FE"/>
<path d="M16.883 30.9421C21.1515 30.9421 24.8065 31.7644 26.373 32.9262C26.8851 32.1359 27.1655 31.2179 27.1823 30.2763C27.1823 26.4386 22.5744 22.8358 16.883 22.8358C11.1916 22.8358 6.58368 26.3602 6.58368 30.2763C6.60776 31.2045 6.88784 32.108 7.393 32.8871C8.95944 31.7253 12.6145 30.9029 16.883 30.9029" fill="#F0F9FE"/>
<path d="M16.883 30.9813C21.1385 30.9813 24.7935 31.7906 26.3599 32.9393C26.877 32.1465 27.1577 31.2229 27.1693 30.2764C27.1693 26.4778 22.5613 22.9011 16.883 22.9011C11.2047 22.9011 6.59674 26.4517 6.59674 30.2764C6.61809 31.205 6.89839 32.1092 7.40607 32.8871C8.9725 31.7384 12.6275 30.9291 16.883 30.9291" fill="#F7FCFE"/>
<path d="M16.8831 31.0074C21.1386 31.0074 24.7153 31.8036 26.347 32.9523C26.8585 32.1763 27.1392 31.2709 27.1563 30.3416C27.1563 26.5691 22.5614 23.0185 16.8831 23.0185C11.2047 23.0185 6.67514 26.5169 6.67514 30.2764C6.69227 31.2057 6.97293 32.111 7.48447 32.8871C9.0509 31.7384 12.7059 30.9421 16.9483 30.9421" fill="white"/>
</g>
<path d="M16.883 27.5482C13.4678 27.5232 10.0746 28.0976 6.85785 29.2452C7.72208 31.1818 9.12876 32.8267 10.9079 33.981C12.687 35.1353 14.7623 35.7495 16.883 35.7495C19.0038 35.7495 21.0791 35.1353 22.8582 33.981C24.6373 32.8267 26.044 31.1818 26.9082 29.2452C23.6917 28.0965 20.2984 27.5222 16.883 27.5482Z" fill="#0083CA"/>
<path d="M139 18.2541H135.045L130.149 23.0057L131.076 18.2541H127.617L125.072 31.2686H128.531L129.588 25.8644L132.643 31.2686H136.846L132.695 24.298L139 18.2541Z" fill="#0067AB"/>
<path d="M100.949 21.5827C101.353 19.4158 100.1 18.1365 97.5939 18.1365H91.5239L89.0307 31.386H95.0484C98.103 31.386 99.9044 30.0806 100.413 27.4046C100.595 26.826 100.591 26.2049 100.402 25.6289C100.212 25.0528 99.8462 24.5507 99.3561 24.1934C100.184 23.5478 100.743 22.6172 100.923 21.5827M97.2023 27.2349C97.0456 28.0834 96.641 28.6055 95.1529 28.6839H92.8293L93.4037 25.6685H95.3095C97.5156 25.6685 97.3198 26.6736 97.2153 27.2219M97.6722 22.0004C97.5025 22.8228 97.2284 23.0969 96.2885 23.1622H93.8997L94.3305 20.8647H96.2755C97.7636 20.8647 97.8419 21.1519 97.6853 22.0004" fill="#0067AB"/>
<path d="M45.4575 18.0191L42.6118 25.7338L41.6981 18.0321L39.0873 18.0452L35.3018 25.7599L35.3148 18.0582L32.0775 18.0713L32.0645 31.5165L35.2365 31.5035L39.2701 23.9193L40.4449 31.4904L43.6039 31.4774L48.7079 18.006L45.4575 18.0191Z" fill="#0067AB"/>
<path d="M54.0992 17.9016C51.6059 17.9016 48.3947 19.1156 47.3113 24.7809C46.2278 30.4462 48.9822 31.5818 51.4754 31.5818C53.9686 31.5818 57.1798 30.3678 58.2633 24.7026C59.3467 19.0373 56.6055 17.8625 54.0992 17.8625M52.0106 28.7753C51.5407 28.7753 50.1048 28.7753 50.8749 24.7287C51.6451 20.682 53.094 20.669 53.564 20.669C54.0339 20.669 55.4698 20.669 54.6996 24.7156C53.9295 28.7622 52.4805 28.7753 52.0106 28.7753Z" fill="#0067AB"/>
<path d="M65.9518 17.9016C63.4586 17.9016 60.2474 19.1156 59.1639 24.7809C58.0805 30.4462 60.8217 31.5818 63.328 31.5818C65.8343 31.5818 69.0194 30.3678 70.1159 24.7026C71.2124 19.0373 68.445 17.8625 65.9518 17.8625M63.8632 28.7753C63.3802 28.7753 61.9443 28.7753 62.7276 24.7287C63.5108 20.682 64.9467 20.7082 65.4166 20.7082C65.8865 20.7082 67.3224 20.7082 66.5523 24.7548C65.7821 28.8014 64.3332 28.8145 63.8632 28.8145" fill="#0067AB"/>
<path d="M78.2351 26.1646C79.1004 25.6523 79.8094 24.9135 80.2856 24.0278C80.7618 23.1422 80.9871 22.1433 80.9372 21.1389C80.9372 17.7319 76.8775 18.0713 76.8775 18.0713H72.6743L69.8677 31.386H73.0006L73.9274 26.8434H75.1545C75.4122 26.8712 75.6514 26.9906 75.8287 27.1799C76.0059 27.3691 76.1094 27.6156 76.1204 27.8746C76.2379 29.0755 76.4207 31.4382 76.4207 31.4382H79.5796C79.5796 31.4382 79.2925 28.1879 79.2141 27.7049C79.1977 27.3855 79.0989 27.0758 78.9273 26.8059C78.7558 26.536 78.5173 26.3151 78.2351 26.1646ZM75.285 20.5515C76.1465 20.5515 78.196 19.8727 77.8957 22.3007C77.5955 24.7287 74.554 24.4154 74.554 24.4154L75.285 20.5515Z" fill="#0067AB"/>
<path d="M80.9241 31.3991L84.4094 31.3861L86.9288 18.2541L83.4435 18.2672L80.9241 31.3991Z" fill="#0067AB"/>
<path d="M107.071 18.2019L99.6039 31.3208H103.128L104.577 28.8275H108.637L108.924 31.2947H112.201L110.203 18.241L107.071 18.2019ZM105.883 26.3604L107.854 22.4443L108.324 26.3604H105.883Z" fill="#0067AB"/>
<path d="M122.879 18.1888L121.521 25.6946L118.793 18.1888H115.49L112.945 31.3338L116.025 31.2555L117.527 23.2928L120.268 31.3338H123.375L125.907 18.1888H122.879Z" fill="#0067AB"/>
</svg>
