<svg width="12" height="12" viewBox="0 0 12 12" fill="none" xmlns="http://www.w3.org/2000/svg">
<path fill-rule="evenodd" clip-rule="evenodd" d="M11.9145 0.146241C11.9242 0.15824 11.931 0.168739 11.9385 0.181489C11.9745 0.239235 12 0.302981 12 0.374977V10.1244C12 10.1964 11.9745 10.2601 11.9385 10.3179L11.9377 10.3191C11.9298 10.3313 11.9232 10.3415 11.9145 10.3531C11.8733 10.4064 11.8215 10.4484 11.7577 10.4731C11.7566 10.4735 11.7557 10.4744 11.7548 10.4754C11.7538 10.4763 11.7529 10.4772 11.7517 10.4776C11.7098 10.4919 11.6678 10.4994 11.625 10.4994C11.5702 10.4994 11.5192 10.4866 11.472 10.4664C11.4656 10.4634 11.46 10.4589 11.4542 10.4544C11.4498 10.451 11.4454 10.4475 11.4405 10.4446C11.406 10.4251 11.3737 10.4019 11.3475 10.3726C11.3456 10.3703 11.3432 10.3687 11.341 10.3673C11.3389 10.3659 11.337 10.3647 11.3355 10.3629C10.1663 8.94319 8.53575 7.99451 6.75 7.64651V2.85357C8.53575 2.50559 10.1663 1.55615 11.3355 0.136491C11.337 0.134991 11.3389 0.134054 11.3407 0.133117C11.3426 0.132179 11.3445 0.131242 11.346 0.129742C11.3903 0.0802451 11.4458 0.0442474 11.5103 0.0232485C11.5192 0.0204135 11.5279 0.019067 11.5366 0.0177084C11.5418 0.0169107 11.547 0.0161089 11.5522 0.0149991C11.5603 0.0132859 11.5681 0.0110937 11.5759 0.00891739C11.592 0.00442462 11.6078 0 11.625 0C11.6585 0 11.6889 0.0089448 11.719 0.0177948C11.7227 0.0188695 11.7264 0.0199429 11.73 0.0209987C11.7338 0.0221236 11.7373 0.0217487 11.7409 0.0213737C11.7444 0.0209987 11.748 0.0206237 11.7517 0.0217487C11.7529 0.0221236 11.7538 0.0230611 11.7548 0.0239985C11.7557 0.0249359 11.7566 0.0258734 11.7577 0.0262483C11.8215 0.0509966 11.8733 0.093744 11.9145 0.146241ZM6 2.96155V7.53776C5.95301 7.53338 5.90614 7.52786 5.85926 7.52235C5.77815 7.51283 5.697 7.5033 5.61525 7.49951H4.61925L5.87775 10.0171C6.02475 10.2953 5.97 10.6546 5.73975 10.8848L4.839 11.778C4.7025 11.9205 4.512 12 4.31175 12C4.26225 12 4.212 11.9948 4.16175 11.9843C3.90825 11.9333 3.702 11.7585 3.60975 11.5177L2.10225 7.49951H1.875C1.668 7.49951 1.5 7.33151 1.5 7.12455V6.74955H0.375C0.168 6.74955 0 6.58159 0 6.37459V4.12474C0 3.91774 0.168 3.74975 0.375 3.74975H1.5V3.37477C1.5 3.16779 1.668 2.99979 1.875 2.99979H5.6115C5.69408 2.996 5.77575 2.9865 5.85746 2.97699C5.9049 2.97147 5.95234 2.96595 6 2.96155Z" fill="url(#paint0_linear_1269_494)"/>
<path fill-rule="evenodd" clip-rule="evenodd" d="M11.9145 0.146241C11.9242 0.15824 11.931 0.168739 11.9385 0.181489C11.9745 0.239235 12 0.302981 12 0.374977V10.1244C12 10.1964 11.9745 10.2601 11.9385 10.3179L11.9377 10.3191C11.9298 10.3313 11.9232 10.3415 11.9145 10.3531C11.8733 10.4064 11.8215 10.4484 11.7577 10.4731C11.7566 10.4735 11.7557 10.4744 11.7548 10.4754C11.7538 10.4763 11.7529 10.4772 11.7517 10.4776C11.7098 10.4919 11.6678 10.4994 11.625 10.4994C11.5702 10.4994 11.5192 10.4866 11.472 10.4664C11.4656 10.4634 11.46 10.4589 11.4542 10.4544C11.4498 10.451 11.4454 10.4475 11.4405 10.4446C11.406 10.4251 11.3737 10.4019 11.3475 10.3726C11.3456 10.3703 11.3432 10.3687 11.341 10.3673C11.3389 10.3659 11.337 10.3647 11.3355 10.3629C10.1663 8.94319 8.53575 7.99451 6.75 7.64651V2.85357C8.53575 2.50559 10.1663 1.55615 11.3355 0.136491C11.337 0.134991 11.3389 0.134054 11.3407 0.133117C11.3426 0.132179 11.3445 0.131242 11.346 0.129742C11.3903 0.0802451 11.4458 0.0442474 11.5103 0.0232485C11.5192 0.0204135 11.5279 0.019067 11.5366 0.0177084C11.5418 0.0169107 11.547 0.0161089 11.5522 0.0149991C11.5603 0.0132859 11.5681 0.0110937 11.5759 0.00891739C11.592 0.00442462 11.6078 0 11.625 0C11.6585 0 11.6889 0.0089448 11.719 0.0177948C11.7227 0.0188695 11.7264 0.0199429 11.73 0.0209987C11.7338 0.0221236 11.7373 0.0217487 11.7409 0.0213737C11.7444 0.0209987 11.748 0.0206237 11.7517 0.0217487C11.7529 0.0221236 11.7538 0.0230611 11.7548 0.0239985C11.7557 0.0249359 11.7566 0.0258734 11.7577 0.0262483C11.8215 0.0509966 11.8733 0.093744 11.9145 0.146241ZM6 2.96155V7.53776C5.95301 7.53338 5.90614 7.52786 5.85926 7.52235C5.77815 7.51283 5.697 7.5033 5.61525 7.49951H4.61925L5.87775 10.0171C6.02475 10.2953 5.97 10.6546 5.73975 10.8848L4.839 11.778C4.7025 11.9205 4.512 12 4.31175 12C4.26225 12 4.212 11.9948 4.16175 11.9843C3.90825 11.9333 3.702 11.7585 3.60975 11.5177L2.10225 7.49951H1.875C1.668 7.49951 1.5 7.33151 1.5 7.12455V6.74955H0.375C0.168 6.74955 0 6.58159 0 6.37459V4.12474C0 3.91774 0.168 3.74975 0.375 3.74975H1.5V3.37477C1.5 3.16779 1.668 2.99979 1.875 2.99979H5.6115C5.69408 2.996 5.77575 2.9865 5.85746 2.97699C5.9049 2.97147 5.95234 2.96595 6 2.96155Z" fill="#003421"/>
<defs>
<linearGradient id="paint0_linear_1269_494" x1="2.70588" y1="3.375" x2="2.70588" y2="9.75" gradientUnits="userSpaceOnUse">
<stop stop-color="#F1DBC2"/>
<stop offset="1" stop-color="#E7BC93"/>
</linearGradient>
</defs>
</svg>
