<svg width="20" height="20" viewBox="0 0 20 20" fill="none" xmlns="http://www.w3.org/2000/svg">
<path fill-rule="evenodd" clip-rule="evenodd" d="M19.8575 0.243735C19.8737 0.263734 19.885 0.281232 19.8975 0.302481C19.9575 0.398725 20 0.504969 20 0.624961V16.8739C20 16.9939 19.9575 17.1002 19.8975 17.1964L19.8961 17.1986C19.883 17.2189 19.872 17.2358 19.8575 17.2552C19.7887 17.3439 19.7025 17.4139 19.5963 17.4552C19.5944 17.4558 19.5928 17.4574 19.5913 17.4589C19.5897 17.4605 19.5881 17.4621 19.5863 17.4627C19.5162 17.4864 19.4463 17.4989 19.375 17.4989C19.2838 17.4989 19.1987 17.4777 19.12 17.4439C19.1094 17.4389 19.0999 17.4316 19.0903 17.4241C19.083 17.4183 19.0756 17.4125 19.0675 17.4077C19.01 17.3752 18.9562 17.3364 18.9125 17.2877C18.9093 17.2838 18.9054 17.2812 18.9017 17.2788C18.8982 17.2766 18.8949 17.2744 18.8925 17.2714C16.9438 14.9053 14.2262 13.3242 11.25 12.7442V4.75595C14.2262 4.17599 16.9438 2.59359 18.8925 0.227486C18.895 0.224986 18.8981 0.223424 18.9013 0.221861C18.9044 0.220299 18.9075 0.218736 18.91 0.216236C18.9837 0.133742 19.0763 0.0737456 19.1838 0.0387476C19.1987 0.0340226 19.2132 0.0317783 19.2278 0.0295141C19.2364 0.0281846 19.2449 0.0268481 19.2537 0.0249984C19.2672 0.0221433 19.2803 0.0184894 19.2932 0.0148623C19.32 0.00737437 19.3464 0 19.375 0C19.4307 0 19.4815 0.014908 19.5317 0.0296579C19.5378 0.0314493 19.5439 0.0332382 19.55 0.0349978C19.5562 0.0368727 19.5622 0.0362478 19.5681 0.0356227C19.5741 0.0349978 19.58 0.0343729 19.5863 0.0362477C19.5881 0.0368727 19.5897 0.0384351 19.5913 0.0399975C19.5928 0.0415599 19.5944 0.0431223 19.5963 0.0437472C19.7025 0.0849944 19.7887 0.15624 19.8575 0.243735ZM10 4.93591V12.5629C9.92169 12.5556 9.84356 12.5464 9.76544 12.5373C9.63025 12.5214 9.495 12.5055 9.35875 12.4992H7.69875L9.79625 16.6952C10.0413 17.1589 9.95 17.7576 9.56625 18.1413L8.065 19.63C7.8375 19.8675 7.52 20 7.18625 20C7.10375 20 7.02 19.9913 6.93625 19.9738C6.51375 19.8888 6.17 19.5975 6.01625 19.1963L3.50375 12.4992H3.125C2.78 12.4992 2.5 12.2192 2.5 11.8743V11.2493H0.625C0.28 11.2493 0 10.9693 0 10.6243V6.87456C0 6.52956 0.28 6.24958 0.625 6.24958H2.5V5.62462C2.5 5.27964 2.78 4.99966 3.125 4.99966H9.3525C9.49012 4.99333 9.62625 4.9775 9.76244 4.96166C9.8415 4.95246 9.92056 4.94326 10 4.93591Z" fill="url(#paint0_linear_387_157)"/>
<path fill-rule="evenodd" clip-rule="evenodd" d="M19.8575 0.243735C19.8737 0.263734 19.885 0.281232 19.8975 0.302481C19.9575 0.398725 20 0.504969 20 0.624961V16.8739C20 16.9939 19.9575 17.1002 19.8975 17.1964L19.8961 17.1986C19.883 17.2189 19.872 17.2358 19.8575 17.2552C19.7887 17.3439 19.7025 17.4139 19.5963 17.4552C19.5944 17.4558 19.5928 17.4574 19.5913 17.4589C19.5897 17.4605 19.5881 17.4621 19.5863 17.4627C19.5162 17.4864 19.4463 17.4989 19.375 17.4989C19.2838 17.4989 19.1987 17.4777 19.12 17.4439C19.1094 17.4389 19.0999 17.4316 19.0903 17.4241C19.083 17.4183 19.0756 17.4125 19.0675 17.4077C19.01 17.3752 18.9562 17.3364 18.9125 17.2877C18.9093 17.2838 18.9054 17.2812 18.9017 17.2788C18.8982 17.2766 18.8949 17.2744 18.8925 17.2714C16.9438 14.9053 14.2262 13.3242 11.25 12.7442V4.75595C14.2262 4.17599 16.9438 2.59359 18.8925 0.227486C18.895 0.224986 18.8981 0.223424 18.9013 0.221861C18.9044 0.220299 18.9075 0.218736 18.91 0.216236C18.9837 0.133742 19.0763 0.0737456 19.1838 0.0387476C19.1987 0.0340226 19.2132 0.0317783 19.2278 0.0295141C19.2364 0.0281846 19.2449 0.0268481 19.2537 0.0249984C19.2672 0.0221433 19.2803 0.0184894 19.2932 0.0148623C19.32 0.00737437 19.3464 0 19.375 0C19.4307 0 19.4815 0.014908 19.5317 0.0296579C19.5378 0.0314493 19.5439 0.0332382 19.55 0.0349978C19.5562 0.0368727 19.5622 0.0362478 19.5681 0.0356227C19.5741 0.0349978 19.58 0.0343729 19.5863 0.0362477C19.5881 0.0368727 19.5897 0.0384351 19.5913 0.0399975C19.5928 0.0415599 19.5944 0.0431223 19.5963 0.0437472C19.7025 0.0849944 19.7887 0.15624 19.8575 0.243735ZM10 4.93591V12.5629C9.92169 12.5556 9.84356 12.5464 9.76544 12.5373C9.63025 12.5214 9.495 12.5055 9.35875 12.4992H7.69875L9.79625 16.6952C10.0413 17.1589 9.95 17.7576 9.56625 18.1413L8.065 19.63C7.8375 19.8675 7.52 20 7.18625 20C7.10375 20 7.02 19.9913 6.93625 19.9738C6.51375 19.8888 6.17 19.5975 6.01625 19.1963L3.50375 12.4992H3.125C2.78 12.4992 2.5 12.2192 2.5 11.8743V11.2493H0.625C0.28 11.2493 0 10.9693 0 10.6243V6.87456C0 6.52956 0.28 6.24958 0.625 6.24958H2.5V5.62462C2.5 5.27964 2.78 4.99966 3.125 4.99966H9.3525C9.49012 4.99333 9.62625 4.9775 9.76244 4.96166C9.8415 4.95246 9.92056 4.94326 10 4.93591Z" fill="white"/>
<defs>
<linearGradient id="paint0_linear_387_157" x1="4.5098" y1="5.625" x2="4.5098" y2="16.25" gradientUnits="userSpaceOnUse">
<stop stop-color="#F1DBC2"/>
<stop offset="1" stop-color="#E7BC93"/>
</linearGradient>
</defs>
</svg>
