<svg width="20" height="20" viewBox="0 0 20 20" fill="none" xmlns="http://www.w3.org/2000/svg">
<rect x="0.5" y="0.5" width="19" height="19" rx="3.5" stroke="#FFB677"/>
<path d="M10.2788 16C9.72119 16 9.26915 15.5758 9.26915 15.0526C9.26915 14.5294 9.72119 14.1053 10.2788 14.1053L13.6442 14.1053C13.8301 14.1053 13.9807 13.9639 13.9807 13.7895L13.9807 6.21053C13.9807 6.03615 13.8301 5.89474 13.6442 5.89474L10.6153 5.89474C10.0577 5.89474 9.60569 5.47057 9.60569 4.94737C9.60569 4.42417 10.0577 4 10.6153 4L13.6442 4C14.9453 4 16 4.98969 16 6.21053L16 13.7895C16 15.0103 14.9453 16 13.6442 16L10.2788 16ZM6.19947 12.4563L4.29572 10.6699C3.90143 10.2999 3.90143 9.70006 4.29572 9.33008L6.19947 7.54373C6.59377 7.17375 7.233 7.17375 7.62729 7.54373C8.02158 7.91371 8.02158 8.51352 7.62729 8.88349L7.44711 9.05263L10.2788 9.05263C10.8364 9.05263 11.2884 9.4768 11.2884 10C11.2884 10.5232 10.8364 10.9474 10.2788 10.9474L7.4471 10.9474L7.62729 11.1165C8.02158 11.4865 8.02158 12.0863 7.62729 12.4563C7.233 12.8262 6.59377 12.8262 6.19947 12.4563Z" fill="#FFB677"/>
</svg>
