<svg width="22" height="26" viewBox="0 0 22 26" fill="none" xmlns="http://www.w3.org/2000/svg">
<path d="M21.4934 15.6733L20.0633 13.6566C19.763 13.2072 19.4913 12.3568 19.4913 11.8587V8.78517C19.4913 5.93031 17.5177 3.46419 14.6718 2.3101C13.9282 1.19246 12.5553 0.5 10.9822 0.5C9.4234 0.5 8.02196 1.21675 7.27831 2.34655C4.48963 3.52494 2.559 5.96675 2.559 8.78517V11.8587C2.559 12.3568 2.28729 13.2072 1.98697 13.6445L0.542571 15.6733C-0.0294659 16.4872 -0.158174 17.3862 0.199349 18.2123C0.542572 19.0262 1.35772 19.6579 2.41599 19.9616C5.19038 20.7634 8.10777 21.1522 11.0251 21.1522C13.9425 21.1522 16.8599 20.7634 19.6343 19.9738C20.6353 19.6944 21.4076 19.0505 21.7794 18.2123C22.1512 17.374 22.0511 16.4508 21.4934 15.6733Z" fill="white"/>
<path d="M15.4 22.2554C14.7458 24.1467 13.017 25.5 10.9922 25.5C9.76178 25.5 8.54692 24.9783 7.69026 24.0489C7.19186 23.5598 6.81805 22.9076 6.6 22.2391C6.80248 22.2717 7.00495 22.288 7.22301 22.3207C7.58124 22.3696 7.95506 22.4185 8.32886 22.4511C9.21665 22.5326 10.12 22.5815 11.0234 22.5815C11.9112 22.5815 12.7989 22.5326 13.6712 22.4511C13.9982 22.4185 14.3253 22.4022 14.6368 22.3533C14.886 22.3207 15.1352 22.288 15.4 22.2554Z" fill="white"/>
</svg>
