<svg width="1395" height="760" viewBox="0 0 1395 760" fill="none" xmlns="http://www.w3.org/2000/svg">
<path fill-rule="evenodd" clip-rule="evenodd" d="M808.244 560H789C773.536 560 761 572.536 761 588V669C761 684.464 773.536 697 789 697H1031.24L1026.35 694H789C775.193 694 764 682.807 764 669V588C764 574.193 775.193 563 789 563H813.127L808.244 560ZM1294.92 694H1367C1380.81 694 1392 682.807 1392 669V588C1392 574.193 1380.81 563 1367 563H1110.53L1106.3 560H1367C1382.46 560 1395 572.536 1395 588V669C1395 684.464 1382.46 697 1367 697H1299.15L1294.92 694Z" fill="white"/>
<path d="M380 0L709.09 190V570L380 760L50.9103 570V190L380 0Z" fill="url(#paint0_linear_4329_113)"/>
<g filter="url(#filter0_d_4329_113)">
<path d="M325.602 284.18H269.626L202.907 479.458C202.907 479.458 175.004 561.125 304.948 561.125C434.893 561.125 462.796 479.458 462.796 479.458L529.515 284.18H473.538L412.921 461.598C412.921 461.598 397.001 508.195 323.032 508.195C249.064 508.195 264.984 461.598 264.984 461.598L325.602 284.18Z" fill="#F0DAAC"/>
<path d="M325.602 284.18H269.626L202.907 479.458C202.907 479.458 175.004 561.125 304.948 561.125C434.893 561.125 462.796 479.458 462.796 479.458L529.515 284.18H473.538L412.921 461.598C412.921 461.598 397.001 508.195 323.032 508.195C249.064 508.195 264.984 461.598 264.984 461.598L325.602 284.18Z" fill="white"/>
<path d="M559.404 284.18H609.456L505.056 584.912H455.005L559.404 284.18Z" fill="#F0DAAC"/>
<path d="M559.404 284.18H609.456L505.056 584.912H455.005L559.404 284.18Z" fill="white"/>
<path d="M225.586 200.077H275.637L194.094 431.089H144.043L225.586 200.077Z" fill="#F0DAAC"/>
<path d="M225.586 200.077H275.637L194.094 431.089H144.043L225.586 200.077Z" fill="white"/>
<path d="M115.08 195.635L507.134 195.635L493.877 234.437L101.823 234.437L115.08 195.635Z" fill="#F0DAAC"/>
<path d="M115.08 195.635L507.134 195.635L493.877 234.437L101.823 234.437L115.08 195.635Z" fill="white"/>
<path d="M476.484 284.18H664.289L651.032 322.982H463.227L476.484 284.18Z" fill="#F0DAAC"/>
<path d="M476.484 284.18H664.289L651.032 322.982H463.227L476.484 284.18Z" fill="white"/>
<path fill-rule="evenodd" clip-rule="evenodd" d="M117.165 228.445L379.668 76.8893L642.17 228.445V322.801H674V210.068L379.668 40.1348L85.335 210.068V234.506H117.165V228.445ZM117.165 452.823L85.335 396.841V549.934L379.668 719.867L674 549.934V425.184L642.17 377.259V531.556L379.668 683.112L117.165 531.556V452.823Z" fill="#F0DAAC"/>
<path fill-rule="evenodd" clip-rule="evenodd" d="M117.165 228.445L379.668 76.8893L642.17 228.445V322.801H674V210.068L379.668 40.1348L85.335 210.068V234.506H117.165V228.445ZM117.165 452.823L85.335 396.841V549.934L379.668 719.867L674 549.934V425.184L642.17 377.259V531.556L379.668 683.112L117.165 531.556V452.823Z" fill="white"/>
</g>
<path d="M870.973 411.153C871.466 417.895 873.439 423.877 876.891 429.097C879.85 433.665 884.413 437.798 890.578 441.496C896.743 445.194 905.744 447.042 917.581 447.042C928.678 447.042 937.186 445.194 943.105 441.496C949.27 437.798 953.709 433.665 956.421 429.097C959.627 423.877 961.477 417.895 961.97 411.153V349.161C961.477 341.766 959.627 335.24 956.421 329.585C953.709 324.582 949.27 320.123 943.105 316.208C937.186 312.075 928.678 310.008 917.581 310.008C911.663 310.008 906.484 310.552 902.045 311.64C897.853 312.727 894.03 314.25 890.578 316.208C887.372 317.948 884.659 320.014 882.44 322.407C880.22 324.799 878.371 327.192 876.891 329.585C873.439 335.24 871.466 341.766 870.973 349.161V411.153ZM917.581 64C923.253 64 930.774 64.3263 940.146 64.9788C949.763 65.4138 959.997 66.8277 970.848 69.2203C981.699 71.613 992.549 75.3107 1003.4 80.3136C1014.5 85.3164 1024.48 92.3856 1033.36 101.521C1042.24 110.657 1049.39 122.185 1054.82 136.106C1060.49 149.809 1063.33 166.667 1063.33 186.678V195.161C1063.33 208.647 1062.34 220.175 1060.37 229.746C1058.39 239.099 1055.56 247.038 1051.86 253.564C1048.16 260.089 1043.72 265.527 1038.54 269.877C1033.36 274.227 1027.57 278.034 1021.16 281.297C1027.57 284.559 1033.73 288.366 1039.65 292.716C1045.82 297.066 1051.12 302.504 1055.56 309.03C1060.24 315.555 1063.94 323.603 1066.65 333.174C1069.37 342.527 1070.72 353.946 1070.72 367.432V403.322C1070.72 423.333 1067.76 440.299 1061.85 454.22C1055.93 467.924 1048.16 479.343 1038.54 488.479C1029.17 497.614 1018.69 504.684 1007.1 509.686C995.508 514.689 984.041 518.387 972.697 520.78C961.354 523.172 950.75 524.586 940.885 525.021C931.021 525.674 923.253 526 917.581 526C911.909 526 904.018 525.674 893.907 525.021C884.043 524.586 873.192 523.172 861.355 520.78C849.764 518.387 837.927 514.689 825.844 509.686C814.007 504.684 803.156 497.614 793.292 488.479C783.428 479.343 775.413 467.924 769.248 454.22C763.083 440.299 760 423.333 760 403.322V367.432C760 353.946 761.356 342.527 764.069 333.174C766.782 323.603 770.357 315.555 774.796 309.03C779.482 302.504 784.784 297.066 790.702 292.716C796.868 288.366 803.156 284.559 809.568 281.297C803.156 278.034 797.361 274.227 792.182 269.877C787.003 265.527 782.564 260.089 778.865 253.564C775.166 247.038 772.33 239.099 770.357 229.746C768.385 220.175 767.398 208.647 767.398 195.161V186.678C767.398 166.667 770.234 149.809 775.906 136.106C781.825 122.185 789.346 110.657 798.47 101.521C807.842 92.3856 818.199 85.3164 829.543 80.3136C841.133 75.3107 852.477 71.613 863.574 69.2203C874.672 66.8277 885.029 65.4138 894.647 64.9788C904.264 64.3263 911.909 64 917.581 64ZM870.973 212.78C871.466 219.523 873.439 225.504 876.891 230.725C879.85 235.292 884.413 239.425 890.578 243.123C896.743 246.821 905.744 248.669 917.581 248.669C928.678 248.669 937.186 246.821 943.105 243.123C949.27 239.425 953.709 235.292 956.421 230.725C959.627 225.504 961.477 219.523 961.97 212.78V186.025C961.477 178.63 959.627 172.105 956.421 166.449C953.709 161.446 949.27 156.987 943.105 153.072C937.186 148.939 928.678 146.873 917.581 146.873C911.663 146.873 906.484 147.417 902.045 148.504C897.853 149.592 894.03 151.114 890.578 153.072C887.372 154.812 884.659 156.879 882.44 159.271C880.22 161.664 878.371 164.056 876.891 166.449C873.439 172.105 871.466 178.63 870.973 186.025V212.78Z" fill="url(#paint1_linear_4329_113)"/>
<path d="M1195.25 411.153C1195.74 417.895 1197.72 423.877 1201.17 429.097C1204.13 433.665 1208.69 437.798 1214.85 441.496C1221.02 445.194 1230.02 447.042 1241.86 447.042C1252.96 447.042 1261.46 445.194 1267.38 441.496C1273.55 437.798 1277.99 433.665 1280.7 429.097C1283.9 423.877 1285.75 417.895 1286.25 411.153V349.161C1285.75 341.766 1283.9 335.24 1280.7 329.585C1277.99 324.582 1273.55 320.123 1267.38 316.208C1261.46 312.075 1252.96 310.008 1241.86 310.008C1235.94 310.008 1230.76 310.552 1226.32 311.64C1222.13 312.727 1218.31 314.25 1214.85 316.208C1211.65 317.948 1208.94 320.014 1206.72 322.407C1204.5 324.799 1202.65 327.192 1201.17 329.585C1197.72 335.24 1195.74 341.766 1195.25 349.161V411.153ZM1241.86 64C1247.53 64 1255.05 64.3263 1264.42 64.9788C1274.04 65.4138 1284.27 66.8277 1295.12 69.2203C1305.98 71.613 1316.83 75.3107 1327.68 80.3136C1338.77 85.3164 1348.76 92.3856 1357.64 101.521C1366.52 110.657 1373.67 122.185 1379.09 136.106C1384.77 149.809 1387.6 166.667 1387.6 186.678V195.161C1387.6 208.647 1386.62 220.175 1384.64 229.746C1382.67 239.099 1379.83 247.038 1376.13 253.564C1372.44 260.089 1368 265.527 1362.82 269.877C1357.64 274.227 1351.84 278.034 1345.43 281.297C1351.84 284.559 1358.01 288.366 1363.93 292.716C1370.09 297.066 1375.39 302.504 1379.83 309.03C1384.52 315.555 1388.22 323.603 1390.93 333.174C1393.64 342.527 1395 353.946 1395 367.432V403.322C1395 423.333 1392.04 440.299 1386.12 454.22C1380.2 467.924 1372.44 479.343 1362.82 488.479C1353.45 497.614 1342.97 504.684 1331.38 509.686C1319.79 514.689 1308.32 518.387 1296.97 520.78C1285.63 523.172 1275.03 524.586 1265.16 525.021C1255.3 525.674 1247.53 526 1241.86 526C1236.19 526 1228.29 525.674 1218.18 525.021C1208.32 524.586 1197.47 523.172 1185.63 520.78C1174.04 518.387 1162.2 514.689 1150.12 509.686C1138.28 504.684 1127.43 497.614 1117.57 488.479C1107.7 479.343 1099.69 467.924 1093.52 454.22C1087.36 440.299 1084.28 423.333 1084.28 403.322V367.432C1084.28 353.946 1085.63 342.527 1088.35 333.174C1091.06 323.603 1094.63 315.555 1099.07 309.03C1103.76 302.504 1109.06 297.066 1114.98 292.716C1121.14 288.366 1127.43 284.559 1133.84 281.297C1127.43 278.034 1121.64 274.227 1116.46 269.877C1111.28 265.527 1106.84 260.089 1103.14 253.564C1099.44 247.038 1096.61 239.099 1094.63 229.746C1092.66 220.175 1091.67 208.647 1091.67 195.161V186.678C1091.67 166.667 1094.51 149.809 1100.18 136.106C1106.1 122.185 1113.62 110.657 1122.75 101.521C1132.12 92.3856 1142.48 85.3164 1153.82 80.3136C1165.41 75.3107 1176.75 71.613 1187.85 69.2203C1198.95 66.8277 1209.31 65.4138 1218.92 64.9788C1228.54 64.3263 1236.19 64 1241.86 64ZM1195.25 212.78C1195.74 219.523 1197.72 225.504 1201.17 230.725C1204.13 235.292 1208.69 239.425 1214.85 243.123C1221.02 246.821 1230.02 248.669 1241.86 248.669C1252.96 248.669 1261.46 246.821 1267.38 243.123C1273.55 239.425 1277.99 235.292 1280.7 230.725C1283.9 225.504 1285.75 219.523 1286.25 212.78V186.025C1285.75 178.63 1283.9 172.105 1280.7 166.449C1277.99 161.446 1273.55 156.987 1267.38 153.072C1261.46 148.939 1252.96 146.873 1241.86 146.873C1235.94 146.873 1230.76 147.417 1226.32 148.504C1222.13 149.592 1218.31 151.114 1214.85 153.072C1211.65 154.812 1208.94 156.879 1206.72 159.271C1204.5 161.664 1202.65 164.056 1201.17 166.449C1197.72 172.105 1195.74 178.63 1195.25 186.025V212.78Z" fill="url(#paint2_linear_4329_113)"/>
<path fill-rule="evenodd" clip-rule="evenodd" d="M864.973 411.372V348.961L864.986 348.762C865.536 340.517 867.756 333.034 871.77 326.458L871.779 326.444L871.788 326.429C873.501 323.659 875.598 320.96 878.041 318.326C880.741 315.415 883.974 312.971 887.666 310.961C891.602 308.736 895.903 307.035 900.538 305.832L900.578 305.822L900.617 305.812C905.637 304.582 911.314 304.008 917.581 304.008C929.232 304.008 939.105 306.145 946.429 311.211C953.147 315.497 958.366 320.608 961.669 326.674C965.361 333.206 967.413 340.613 967.957 348.762L967.97 348.961V411.372L967.954 411.59C967.399 419.174 965.302 426.088 961.558 432.199C958.196 437.841 952.93 442.592 946.236 446.614C938.962 451.141 929.173 453.042 917.581 453.042C905.285 453.042 895.011 451.151 887.492 446.641C880.793 442.623 875.462 437.916 871.872 432.385C867.816 426.244 865.55 419.265 864.989 411.59L864.973 411.372ZM876.891 429.097C879.85 433.665 884.413 437.798 890.578 441.496C896.743 445.193 905.744 447.042 917.581 447.042C928.678 447.042 937.186 445.193 943.105 441.496C949.27 437.798 953.709 433.665 956.421 429.097C959.627 423.877 961.477 417.895 961.97 411.153V349.161C961.477 341.766 959.627 335.24 956.421 329.585C953.709 324.582 949.27 320.123 943.105 316.208C937.186 312.075 928.678 310.008 917.581 310.008C911.663 310.008 906.484 310.552 902.045 311.64C897.853 312.727 894.03 314.25 890.578 316.208C887.372 317.948 884.659 320.014 882.44 322.407C880.22 324.799 878.371 327.192 876.891 329.585C873.439 335.24 871.466 341.766 870.973 349.161V411.153C871.466 417.895 873.439 423.877 876.891 429.097ZM939.801 70.9694L939.729 70.9643C930.419 70.3161 923.054 70 917.581 70C912.106 70 904.615 70.3163 895.053 70.9651L894.985 70.9696L894.918 70.9727C885.687 71.3902 875.666 72.7513 864.839 75.0856C854.17 77.3859 843.206 80.9527 831.942 85.8129C821.31 90.5052 811.561 97.1455 802.688 105.789C794.209 114.287 787.1 125.12 781.439 138.427C776.161 151.192 773.398 167.209 773.398 186.678V195.161C773.398 208.375 774.367 219.47 776.231 228.521C778.11 237.422 780.762 244.743 784.085 250.605C787.47 256.576 791.466 261.44 796.041 265.283C800.849 269.322 806.258 272.88 812.289 275.949L822.798 281.297L812.289 286.644C806.162 289.762 800.136 293.406 794.21 297.585C788.88 301.51 784.043 306.451 779.715 312.467C775.737 318.332 772.413 325.737 769.842 334.81L769.837 334.827L769.832 334.845C767.324 343.491 766 354.312 766 367.432V403.322C766 422.74 768.994 438.823 774.727 451.776C780.6 464.824 788.165 475.552 797.369 484.077C806.74 492.756 817 499.432 828.159 504.151C839.917 509.018 851.38 512.593 862.552 514.9C874.146 517.243 884.679 518.608 894.171 519.027L894.232 519.03L894.293 519.034C904.358 519.683 912.101 520 917.581 520C923.059 520 930.676 519.683 940.489 519.034L940.555 519.03L940.621 519.027C950.107 518.609 960.382 517.245 971.459 514.909C982.379 512.606 993.465 509.036 1004.72 504.178C1015.61 499.476 1025.49 492.826 1034.35 484.183L1034.38 484.155L1034.41 484.129C1043.37 475.62 1050.69 464.904 1056.33 451.858C1061.84 438.88 1064.72 422.766 1064.72 403.322V367.432C1064.72 354.312 1063.4 343.491 1060.89 334.845L1060.89 334.827L1060.88 334.81C1058.32 325.754 1054.88 318.374 1050.68 312.529L1050.64 312.467L1050.6 312.404C1046.54 306.446 1041.74 301.535 1036.19 297.618L1036.14 297.585L1036.1 297.551C1030.44 293.39 1024.55 289.756 1018.43 286.644L1007.93 281.297L1018.43 275.949C1024.47 272.88 1029.87 269.322 1034.68 265.283C1039.26 261.44 1043.25 256.576 1046.64 250.605C1049.96 244.742 1052.61 237.42 1054.49 228.519C1056.36 219.468 1057.33 208.374 1057.33 195.161V186.678C1057.33 167.195 1054.56 151.17 1049.27 138.401L1049.25 138.343L1049.23 138.285C1044.04 124.983 1037.29 114.173 1029.06 105.703C1020.68 97.0827 1011.31 90.4618 1000.93 85.7834L1000.91 85.773L1000.89 85.7623C990.399 80.9262 979.956 77.3729 969.556 75.0796C958.991 72.7499 949.101 71.39 939.874 70.9727L939.801 70.9694ZM1060.37 229.746C1058.39 239.099 1055.56 247.038 1051.86 253.564C1048.16 260.089 1043.72 265.527 1038.54 269.877C1035.11 272.763 1031.4 275.41 1027.42 277.818C1025.4 279.039 1023.31 280.199 1021.16 281.297C1023.29 282.381 1025.39 283.525 1027.47 284.73C1031.64 287.15 1035.7 289.812 1039.65 292.716C1045.82 297.066 1051.12 302.504 1055.56 309.03C1060.24 315.555 1063.94 323.603 1066.65 333.174C1069.37 342.527 1070.72 353.946 1070.72 367.432V403.322C1070.72 423.333 1067.76 440.299 1061.85 454.22C1055.93 467.924 1048.16 479.343 1038.54 488.479C1029.17 497.614 1018.69 504.684 1007.1 509.686C995.508 514.689 984.041 518.387 972.697 520.78C961.354 523.172 950.75 524.586 940.885 525.021C931.021 525.674 923.253 526 917.581 526C911.909 526 904.018 525.674 893.907 525.021C884.043 524.586 873.192 523.172 861.355 520.78C849.764 518.387 837.927 514.689 825.844 509.686C814.007 504.684 803.156 497.614 793.292 488.479C783.428 479.343 775.413 467.924 769.248 454.22C763.083 440.299 760 423.333 760 403.322V367.432C760 353.946 761.356 342.527 764.069 333.174C766.782 323.603 770.357 315.555 774.796 309.03C779.482 302.504 784.784 297.066 790.702 292.716C794.825 289.807 799.003 287.141 803.236 284.718C805.333 283.518 807.444 282.377 809.568 281.297C807.408 280.198 805.318 279.037 803.298 277.815C799.322 275.408 795.616 272.762 792.182 269.877C787.003 265.527 782.564 260.089 778.865 253.564C775.166 247.038 772.33 239.099 770.357 229.746C768.385 220.175 767.398 208.647 767.398 195.161V186.678C767.398 166.667 770.234 149.809 775.906 136.106C781.825 122.185 789.346 110.657 798.47 101.521C807.842 92.3856 818.199 85.3164 829.543 80.3136C841.133 75.3107 852.477 71.613 863.574 69.2203C874.672 66.8277 885.029 65.4138 894.647 64.9788C904.264 64.3263 911.909 64 917.581 64C923.253 64 930.774 64.3263 940.146 64.9788C949.763 65.4138 959.997 66.8277 970.848 69.2203C981.699 71.613 992.549 75.3107 1003.4 80.3136C1014.5 85.3164 1024.48 92.3856 1033.36 101.521C1042.24 110.657 1049.39 122.185 1054.82 136.106C1060.49 149.809 1063.33 166.667 1063.33 186.678V195.161C1063.33 208.647 1062.34 220.175 1060.37 229.746ZM864.973 212.999V185.826L864.986 185.626C865.536 177.381 867.756 169.898 871.77 163.323L871.779 163.308L871.788 163.293C873.501 160.523 875.598 157.824 878.041 155.191C880.741 152.28 883.974 149.836 887.667 147.825C891.602 145.6 895.903 143.899 900.538 142.696L900.578 142.686L900.617 142.677C905.637 141.447 911.314 140.873 917.581 140.873C929.232 140.873 939.105 143.009 946.429 148.076C953.147 152.361 958.366 157.473 961.668 163.538C965.361 170.07 967.413 177.477 967.957 185.626L967.97 185.826V212.999L967.954 213.217C967.399 220.801 965.302 227.715 961.558 233.827C958.196 239.468 952.93 244.219 946.237 248.241C938.962 252.768 929.173 254.669 917.581 254.669C905.285 254.669 895.011 252.778 887.492 248.268C880.792 244.25 875.461 239.542 871.871 234.01C867.816 227.87 865.55 220.891 864.989 213.217L864.973 212.999ZM876.891 230.725C879.85 235.292 884.413 239.425 890.578 243.123C896.743 246.821 905.744 248.669 917.581 248.669C928.678 248.669 937.186 246.821 943.105 243.123C949.27 239.425 953.709 235.292 956.421 230.725C959.627 225.504 961.477 219.523 961.97 212.78V186.025C961.477 178.63 959.627 172.105 956.421 166.449C953.709 161.446 949.27 156.987 943.105 153.072C937.186 148.939 928.678 146.873 917.581 146.873C911.663 146.873 906.484 147.417 902.045 148.504C897.853 149.592 894.03 151.114 890.578 153.072C887.372 154.812 884.659 156.879 882.44 159.271C880.22 161.664 878.371 164.056 876.891 166.449C873.439 172.105 871.466 178.63 870.973 186.025V212.78C871.466 219.523 873.439 225.504 876.891 230.725ZM1189.25 411.372V348.961L1189.26 348.762C1189.81 340.517 1192.03 333.034 1196.05 326.458L1196.06 326.444L1196.06 326.429C1197.78 323.659 1199.87 320.96 1202.32 318.326C1205.02 315.415 1208.25 312.971 1211.94 310.961C1215.88 308.736 1220.18 307.035 1224.82 305.832L1224.85 305.822L1224.89 305.812C1229.91 304.582 1235.59 304.008 1241.86 304.008C1253.51 304.008 1263.38 306.145 1270.71 311.211C1277.42 315.496 1282.64 320.607 1285.94 326.673C1289.64 333.205 1291.69 340.612 1292.23 348.762L1292.25 348.961V411.372L1292.23 411.59C1291.68 419.174 1289.58 426.088 1285.83 432.199C1282.47 437.841 1277.21 442.592 1270.51 446.614C1263.24 451.141 1253.45 453.042 1241.86 453.042C1229.56 453.042 1219.29 451.151 1211.77 446.641C1205.07 442.624 1199.74 437.916 1196.15 432.386C1192.09 426.245 1189.83 419.265 1189.27 411.59L1189.25 411.372ZM1201.17 429.097C1204.13 433.665 1208.69 437.798 1214.85 441.496C1221.02 445.193 1230.02 447.042 1241.86 447.042C1252.96 447.042 1261.46 445.193 1267.38 441.496C1273.55 437.798 1277.99 433.665 1280.7 429.097C1283.9 423.877 1285.75 417.895 1286.25 411.153V349.161C1285.75 341.766 1283.9 335.24 1280.7 329.585C1277.99 324.582 1273.55 320.123 1267.38 316.208C1261.46 312.075 1252.96 310.008 1241.86 310.008C1235.94 310.008 1230.76 310.552 1226.32 311.64C1222.13 312.727 1218.31 314.25 1214.85 316.208C1211.65 317.948 1208.94 320.014 1206.72 322.407C1204.5 324.799 1202.65 327.192 1201.17 329.585C1197.72 335.24 1195.74 341.766 1195.25 349.161V411.153C1195.74 417.895 1197.72 423.877 1201.17 429.097ZM1264.08 70.9694L1264.01 70.9643C1254.7 70.3161 1247.33 70 1241.86 70C1236.38 70 1228.89 70.3163 1219.33 70.9651L1219.26 70.9696L1219.19 70.9727C1209.96 71.3902 1199.94 72.7513 1189.12 75.0856C1178.45 77.3858 1167.48 80.9525 1156.22 85.8126C1145.59 90.5048 1135.84 97.1452 1126.96 105.789C1118.49 114.287 1111.38 125.119 1105.72 138.426C1100.44 151.191 1097.67 167.208 1097.67 186.678V195.161C1097.67 208.374 1098.64 219.468 1100.51 228.519C1102.39 237.42 1105.04 244.742 1108.36 250.605C1111.75 256.576 1115.74 261.44 1120.32 265.283C1125.13 269.322 1130.53 272.88 1136.57 275.949L1147.07 281.297L1136.57 286.644C1130.44 289.762 1124.41 293.406 1118.49 297.585C1113.16 301.51 1108.32 306.451 1103.99 312.467C1100.01 318.332 1096.69 325.737 1094.12 334.81L1094.11 334.827L1094.11 334.845C1091.6 343.491 1090.28 354.312 1090.28 367.432V403.322C1090.28 422.74 1093.27 438.823 1099 451.776C1104.88 464.824 1112.44 475.553 1121.65 484.077C1131.02 492.756 1141.28 499.433 1152.44 504.152C1164.19 509.018 1175.66 512.593 1186.83 514.901C1198.42 517.243 1208.96 518.608 1218.45 519.027L1218.51 519.03L1218.57 519.034C1228.64 519.683 1236.38 520 1241.86 520C1247.34 520 1254.95 519.683 1264.77 519.034L1264.83 519.03L1264.9 519.027C1274.38 518.609 1284.66 517.245 1295.74 514.909C1306.66 512.606 1317.74 509.036 1329 504.178C1339.89 499.476 1349.76 492.826 1358.63 484.183L1358.66 484.155L1358.69 484.129C1367.65 475.618 1374.97 464.899 1380.61 451.849C1386.12 438.873 1389 422.762 1389 403.322V367.432C1389 354.312 1387.68 343.491 1385.17 334.845L1385.16 334.827L1385.16 334.81C1382.59 325.754 1379.16 318.374 1374.96 312.529L1374.92 312.467L1374.87 312.404C1370.82 306.446 1366.02 301.535 1360.47 297.618L1360.42 297.585L1360.37 297.551C1354.71 293.39 1348.83 289.756 1342.71 286.644L1332.2 281.297L1342.71 275.949C1348.74 272.88 1354.15 269.322 1358.96 265.283C1363.53 261.44 1367.53 256.576 1370.91 250.605C1374.24 244.742 1376.89 237.42 1378.77 228.519C1380.63 219.468 1381.6 208.374 1381.6 195.161V186.678C1381.6 167.195 1378.84 151.17 1373.55 138.401L1373.53 138.343L1373.5 138.285C1368.32 124.983 1361.57 114.173 1353.34 105.703C1344.96 97.0827 1335.59 90.4618 1325.21 85.7834L1325.19 85.773L1325.16 85.7623C1314.68 80.9262 1304.23 77.3729 1293.83 75.0796C1283.27 72.7499 1273.38 71.39 1264.15 70.9727L1264.08 70.9694ZM1384.64 229.746C1382.67 239.099 1379.83 247.038 1376.13 253.564C1372.44 260.089 1368 265.527 1362.82 269.877C1359.38 272.763 1355.67 275.41 1351.7 277.818C1349.68 279.039 1347.59 280.199 1345.43 281.297C1347.56 282.381 1349.67 283.525 1351.74 284.73C1355.91 287.15 1359.98 289.812 1363.93 292.716C1370.09 297.066 1375.39 302.504 1379.83 309.03C1384.52 315.555 1388.22 323.603 1390.93 333.174C1393.64 342.527 1395 353.946 1395 367.432V403.322C1395 423.333 1392.04 440.299 1386.12 454.22C1380.2 467.924 1372.44 479.343 1362.82 488.479C1353.45 497.614 1342.97 504.684 1331.38 509.686C1319.79 514.689 1308.32 518.387 1296.97 520.78C1285.63 523.172 1275.03 524.586 1265.16 525.021C1255.3 525.674 1247.53 526 1241.86 526C1236.19 526 1228.29 525.674 1218.18 525.021C1208.32 524.586 1197.47 523.172 1185.63 520.78C1174.04 518.387 1162.2 514.689 1150.12 509.686C1138.28 504.684 1127.43 497.614 1117.57 488.479C1107.7 479.343 1099.69 467.924 1093.52 454.22C1087.36 440.299 1084.28 423.333 1084.28 403.322V367.432C1084.28 353.946 1085.63 342.527 1088.35 333.174C1091.06 323.603 1094.63 315.555 1099.07 309.03C1103.76 302.504 1109.06 297.066 1114.98 292.716C1119.1 289.807 1123.28 287.141 1127.51 284.718C1129.61 283.518 1131.72 282.377 1133.84 281.297C1131.68 280.198 1129.59 279.037 1127.58 277.815C1123.6 275.408 1119.89 272.762 1116.46 269.877C1111.28 265.527 1106.84 260.089 1103.14 253.564C1099.44 247.038 1096.61 239.099 1094.63 229.746C1092.66 220.175 1091.67 208.647 1091.67 195.161V186.678C1091.67 166.667 1094.51 149.809 1100.18 136.106C1106.1 122.185 1113.62 110.657 1122.75 101.521C1132.12 92.3856 1142.48 85.3164 1153.82 80.3136C1165.41 75.3107 1176.75 71.613 1187.85 69.2203C1198.95 66.8277 1209.31 65.4138 1218.92 64.9788C1228.54 64.3263 1236.19 64 1241.86 64C1247.53 64 1255.05 64.3263 1264.42 64.9788C1274.04 65.4138 1284.27 66.8277 1295.12 69.2203C1305.98 71.613 1316.83 75.3107 1327.68 80.3136C1338.77 85.3164 1348.76 92.3856 1357.64 101.521C1366.52 110.657 1373.67 122.185 1379.09 136.106C1384.77 149.809 1387.6 166.667 1387.6 186.678V195.161C1387.6 208.647 1386.62 220.175 1384.64 229.746ZM1189.25 212.999V185.826L1189.26 185.626C1189.81 177.381 1192.03 169.898 1196.05 163.323L1196.06 163.308L1196.06 163.293C1197.78 160.523 1199.87 157.824 1202.32 155.191C1205.02 152.28 1208.25 149.836 1211.94 147.825C1215.88 145.6 1220.18 143.899 1224.82 142.696L1224.85 142.686L1224.89 142.677C1229.91 141.447 1235.59 140.873 1241.86 140.873C1253.51 140.873 1263.38 143.009 1270.71 148.076C1277.42 152.361 1282.64 157.472 1285.94 163.537C1289.64 170.069 1291.69 177.477 1292.23 185.626L1292.25 185.826V212.999L1292.23 213.217C1291.68 220.801 1289.58 227.715 1285.83 233.827C1282.47 239.468 1277.21 244.219 1270.51 248.241C1263.24 252.768 1253.45 254.669 1241.86 254.669C1229.56 254.669 1219.29 252.778 1211.77 248.268C1205.07 244.25 1199.74 239.542 1196.15 234.012C1192.09 227.871 1189.83 220.892 1189.27 213.217L1189.25 212.999ZM1267.38 243.123C1273.55 239.425 1277.99 235.292 1280.7 230.725C1283.9 225.504 1285.75 219.523 1286.25 212.78V186.025C1285.75 178.63 1283.9 172.105 1280.7 166.449C1277.99 161.446 1273.55 156.987 1267.38 153.072C1261.46 148.939 1252.96 146.873 1241.86 146.873C1235.94 146.873 1230.76 147.417 1226.32 148.504C1222.13 149.592 1218.31 151.114 1214.85 153.072C1211.65 154.812 1208.94 156.879 1206.72 159.271C1204.5 161.664 1202.65 164.056 1201.17 166.449C1197.72 172.105 1195.74 178.63 1195.25 186.025V212.78C1195.74 219.523 1197.72 225.504 1201.17 230.725C1204.13 235.292 1208.69 239.425 1214.85 243.123C1221.02 246.821 1230.02 248.669 1241.86 248.669C1252.96 248.669 1261.46 246.821 1267.38 243.123Z" fill="white"/>
<path d="M833.378 594.648H794V586.961H885.881V594.648H846.503V671.039H833.378V594.648Z" fill="white"/>
<path d="M951.887 672C944.319 672 937.638 670.879 931.844 668.637C926.049 666.315 921.556 663.072 918.363 658.908C915.17 654.664 913.574 649.819 913.574 644.374V586.961H926.7V644.615C926.7 650.46 929.006 655.184 933.617 658.788C938.229 662.311 944.319 664.073 951.887 664.073H971.044C978.612 664.073 984.702 662.311 989.314 658.788C993.925 655.184 996.231 650.46 996.231 644.615V586.961H1009.36V644.374C1009.36 649.819 1007.76 654.664 1004.57 658.908C1001.38 663.072 996.882 666.315 991.087 668.637C985.293 670.879 978.612 672 971.044 672H951.887Z" fill="white"/>
<path d="M1076.47 594.648H1037.1V586.961H1128.98V594.648H1089.6V671.039H1076.47V594.648Z" fill="white"/>
<path d="M1187.91 672C1176.67 672 1167.63 670.038 1160.77 666.115C1153.91 662.111 1150.48 656.826 1150.48 650.26V646.656C1150.48 642.653 1152.02 639.049 1155.09 635.846C1158.29 632.643 1162.96 630.001 1169.11 627.919V627.799C1164.38 625.877 1160.77 623.515 1158.29 620.712C1155.8 617.83 1154.56 614.627 1154.56 611.103V606.299C1154.56 600.213 1157.75 595.329 1164.14 591.645C1170.64 587.882 1179.16 586 1189.68 586H1204.94C1215.46 586 1223.92 587.882 1230.3 591.645C1236.81 595.329 1240.06 600.213 1240.06 606.299V611.103C1240.06 614.627 1238.82 617.83 1236.33 620.712C1233.85 623.515 1230.24 625.877 1225.51 627.799V627.919C1237.93 632.083 1244.14 638.329 1244.14 646.656V650.26C1244.14 656.826 1240.71 662.111 1233.85 666.115C1226.99 670.038 1217.94 672 1206.71 672H1187.91ZM1204.94 624.196C1211.44 624.196 1216.7 622.994 1220.72 620.592C1224.86 618.19 1226.93 615.027 1226.93 611.103V606.299C1226.93 602.615 1224.92 599.653 1220.9 597.411C1216.88 595.088 1211.56 593.927 1204.94 593.927H1189.68C1183.06 593.927 1177.74 595.088 1173.72 597.411C1169.7 599.653 1167.69 602.615 1167.69 606.299V611.103C1167.69 615.027 1169.7 618.19 1173.72 620.592C1177.86 622.994 1183.18 624.196 1189.68 624.196H1204.94ZM1206.71 664.073C1214.04 664.073 1219.9 662.831 1224.27 660.349C1228.76 657.787 1231.01 654.424 1231.01 650.26V646.656C1231.01 642.252 1228.59 638.689 1223.74 635.966C1219.01 633.244 1212.74 631.883 1204.94 631.883H1189.68C1181.88 631.883 1175.55 633.244 1170.7 635.966C1165.97 638.689 1163.61 642.252 1163.61 646.656V650.26C1163.61 654.424 1165.8 657.787 1170.17 660.349C1174.66 662.831 1180.58 664.073 1187.91 664.073H1206.71Z" fill="white"/>
<path d="M1306.77 672C1295.54 672 1286.49 670.038 1279.63 666.115C1272.77 662.111 1269.35 656.826 1269.35 650.26V646.656C1269.35 642.653 1270.88 639.049 1273.96 635.846C1277.15 632.643 1281.82 630.001 1287.97 627.919V627.799C1283.24 625.877 1279.63 623.515 1277.15 620.712C1274.67 617.83 1273.42 614.627 1273.42 611.103V606.299C1273.42 600.213 1276.62 595.329 1283 591.645C1289.51 587.882 1298.02 586 1308.55 586H1323.8C1334.32 586 1342.78 587.882 1349.16 591.645C1355.67 595.329 1358.92 600.213 1358.92 606.299V611.103C1358.92 614.627 1357.68 617.83 1355.2 620.712C1352.71 623.515 1349.11 625.877 1344.38 627.799V627.919C1356.79 632.083 1363 638.329 1363 646.656V650.26C1363 656.826 1359.57 662.111 1352.71 666.115C1345.85 670.038 1336.81 672 1325.57 672H1306.77ZM1323.8 624.196C1330.3 624.196 1335.57 622.994 1339.59 620.592C1343.73 618.19 1345.79 615.027 1345.79 611.103V606.299C1345.79 602.615 1343.78 599.653 1339.76 597.411C1335.74 595.088 1330.42 593.927 1323.8 593.927H1308.55C1301.92 593.927 1296.6 595.088 1292.58 597.411C1288.56 599.653 1286.55 602.615 1286.55 606.299V611.103C1286.55 615.027 1288.56 618.19 1292.58 620.592C1296.72 622.994 1302.04 624.196 1308.55 624.196H1323.8ZM1325.57 664.073C1332.91 664.073 1338.76 662.831 1343.13 660.349C1347.63 657.787 1349.87 654.424 1349.87 650.26V646.656C1349.87 642.252 1347.45 638.689 1342.6 635.966C1337.87 633.244 1331.6 631.883 1323.8 631.883H1308.55C1300.74 631.883 1294.41 633.244 1289.57 635.966C1284.84 638.689 1282.47 642.252 1282.47 646.656V650.26C1282.47 654.424 1284.66 657.787 1289.03 660.349C1293.53 662.831 1299.44 664.073 1306.77 664.073H1325.57Z" fill="white"/>
<defs>
<filter id="filter0_d_4329_113" x="76.635" y="34.4348" width="606.065" height="697.132" filterUnits="userSpaceOnUse" color-interpolation-filters="sRGB">
<feFlood flood-opacity="0" result="BackgroundImageFix"/>
<feColorMatrix in="SourceAlpha" type="matrix" values="0 0 0 0 0 0 0 0 0 0 0 0 0 0 0 0 0 0 127 0" result="hardAlpha"/>
<feOffset dy="3"/>
<feGaussianBlur stdDeviation="4.35"/>
<feComposite in2="hardAlpha" operator="out"/>
<feColorMatrix type="matrix" values="0 0 0 0 0 0 0 0 0 0 0 0 0 0 0 0 0 0 0.82 0"/>
<feBlend mode="normal" in2="BackgroundImageFix" result="effect1_dropShadow_4329_113"/>
<feBlend mode="normal" in="SourceGraphic" in2="effect1_dropShadow_4329_113" result="shape"/>
</filter>
<linearGradient id="paint0_linear_4329_113" x1="380" y1="305.046" x2="380" y2="760" gradientUnits="userSpaceOnUse">
<stop stop-color="#D11010"/>
<stop offset="0.9" stop-color="#6A0505"/>
</linearGradient>
<linearGradient id="paint1_linear_4329_113" x1="1077.5" y1="64" x2="1077.5" y2="526" gradientUnits="userSpaceOnUse">
<stop offset="0.147464" stop-color="white"/>
<stop offset="0.517226" stop-color="#999999"/>
<stop offset="0.945813" stop-color="#F7F7F7"/>
</linearGradient>
<linearGradient id="paint2_linear_4329_113" x1="1077.5" y1="64" x2="1077.5" y2="526" gradientUnits="userSpaceOnUse">
<stop offset="0.147464" stop-color="white"/>
<stop offset="0.517226" stop-color="#999999"/>
<stop offset="0.945813" stop-color="#F7F7F7"/>
</linearGradient>
</defs>
</svg>
